<?xml version="1.0" encoding="UTF-8" standalone="no"?>
<!-- Created with Inkscape (http://www.inkscape.org/) -->

<svg
   width="330.2009mm"
   height="200.47897mm"
   viewBox="0 0 330.2009 200.47897"
   version="1.1"
   id="svg1"
   xml:space="preserve"
   inkscape:version="1.4.3 (0d15f75, 2025-12-25)"
   sodipodi:docname="cat-cow.svg"
   xmlns:inkscape="http://www.inkscape.org/namespaces/inkscape"
   xmlns:sodipodi="http://sodipodi.sourceforge.net/DTD/sodipodi-0.dtd"
   xmlns="http://www.w3.org/2000/svg"
   xmlns:svg="http://www.w3.org/2000/svg"><sodipodi:namedview
     id="namedview1"
     pagecolor="#ffffff"
     bordercolor="#000000"
     borderopacity="0.25"
     inkscape:showpageshadow="2"
     inkscape:pageopacity="0.0"
     inkscape:pagecheckerboard="0"
     inkscape:deskcolor="#d1d1d1"
     inkscape:document-units="mm"
     inkscape:zoom="0.25872594"
     inkscape:cx="821.3324"
     inkscape:cy="322.73532"
     inkscape:window-width="1394"
     inkscape:window-height="514"
     inkscape:window-x="0"
     inkscape:window-y="34"
     inkscape:window-maximized="0"
     inkscape:current-layer="g1" /><defs
     id="defs1" /><g
     inkscape:label="Layer 1"
     inkscape:groupmode="layer"
     id="layer1"
     transform="translate(-54.547275,-61.777446)"><g
       style="display:block"
       id="g1"
       transform="matrix(0.18190104,0,0,0.18191585,519.1729,-15.01459)"><path
         style="fill:#000000"
         d="m -1939.3871,755.80691 -0.7665,-22.90722 -3.0557,-14.31218 c -3.9097,-18.31136 -9.947,-36.28355 -17.5982,-52.38663 -7.2295,-15.21556 -29.565,-48.92814 -32.4162,-48.92814 -0.3643,0 0.5868,3.76333 2.1136,8.36295 1.5267,4.59963 3.1642,11.14455 3.6387,14.54427 l 0.8627,6.18132 h -1.4904 c -0.8197,0 -1.9353,-2.37126 -2.479,-5.26946 -0.8658,-4.61455 -7.2571,-24.26628 -10.2301,-31.45483 l -1.0526,-2.54524 h 2.7412 c 2.9439,0 20.5144,8.62067 30.7146,15.06951 l 6.2354,3.94224 -0.9156,1.48136 -0.9156,1.48135 -3.4447,-2.2569 c -1.8946,-1.24129 -7.8886,-4.68333 -13.3199,-7.64898 l -9.8751,-5.39209 5.2407,6.47914 c 23.3534,28.87229 40.2192,66.13829 46.3622,102.4399 4.7419,28.02177 5.5486,56.02686 1.6139,56.02686 -0.6583,0 -1.5418,-10.30825 -1.9634,-22.90723 z"
         id="path37" /><path
         style="fill:#000000"
         d="m -1404.2691,794.34923 c -2.058,-5.79953 -4.7205,-14.46099 -5.9165,-19.24769 l -2.1746,-8.70309 1.3576,-1.3575 1.3576,-1.35749 0.6952,2.06124 c 0.3823,1.13368 2.1137,7.46762 3.8475,14.07542 1.7337,6.60781 3.7333,12.37324 4.4434,12.81208 l 1.2911,0.79788 v -6.44024 c 0,-18.08941 10.3263,-55.23383 21.5736,-77.60179 3.1942,-6.35229 9.8762,-17.63184 14.849,-25.06566 9.5556,-14.28457 34.2637,-41.40406 36.4766,-40.03651 0.7189,0.44426 -3.9922,6.55347 -10.4691,13.57601 -33.8564,36.70881 -53.9013,79.88391 -58.8089,126.66996 l -0.9917,9.45377 7.428,-12.25688 c 8.6517,-14.27612 8.2287,-13.75223 10.1471,-12.56669 l 1.489,0.92018 -5.3923,8.39471 c -2.9657,4.6171 -7.3125,12.44971 -9.6596,17.4058 -2.3471,4.9561 -5.0625,9.01108 -6.0343,9.01108 -0.9717,0 -3.4506,-4.74506 -5.5087,-10.54459 z"
         id="path36" /><path
         style="fill:#000000"
         d="m -989.03353,848.43524 c -12.52717,-2.8263 -14.40967,-3.59046 -12.80297,-5.19707 0.8539,-0.85377 15.6245,1.51818 21.16148,3.39823 1.31898,0.44785 -4.35578,-3.82763 -12.61057,-9.50106 -25.01461,-17.19229 -40.50731,-32.9557 -53.48231,-54.41709 l -6.8861,-11.39001 1.5707,-1.57059 1.5707,-1.57059 3.2187,6.35436 c 6.1369,12.11559 17.7198,27.38154 28.8248,37.99039 9.7274,9.29275 37.46775,30.17712 40.08374,30.17712 0.5115,0 -1.76361,-3.56737 -5.0558,-7.92749 l -5.98579,-7.92748 0.51382,-2.61711 0.51382,-2.61712 4.52226,6.54493 c 2.48725,3.5997 7.18782,9.76725 10.44573,13.70564 3.2579,3.9384 5.58908,7.70173 5.18038,8.36296 -1.10981,1.79558 -7.1836,1.2701 -20.78259,-1.79802 z"
         id="path34" /><path
         style="fill:#000000"
         d="m -818.72168,1514.5222 0.67933,-2.0496 16.6352,-0.9846 16.6352,-0.9847 8.27808,-3.0969 8.27808,-3.097 3.75668,-4.4642 3.75669,-4.4642 -2.34925,-2.5957 c -1.29209,-1.4276 -6.88853,-3.708 -12.43655,-5.0675 -9.27545,-2.2729 -12.86893,-4.1929 -11.12014,-5.9415 0.85423,-0.8542 19.99829,4.3794 24.15353,6.603 1.67898,0.8985 3.47295,3.3079 3.98661,5.3543 l 0.93391,3.7207 -2.84875,3.8153 c -6.16785,8.2605 -20.0406,12.7482 -44.32814,14.3397 l -14.68981,0.9626 z"
         id="path33" /><path
         style="fill:#000000"
         d="m -2092.7272,1523.4257 c -1.7477,-0.7344 -3.8069,-2.5175 -4.5759,-3.9626 -5.7537,-10.8108 -21.8286,-161.0953 -30.7728,-287.6949 -1.5824,-22.3982 -3.6008,-43.2756 -4.4853,-46.3942 l -1.6081,-5.6702 -48.2356,0.9913 c -196.4424,4.0372 -233.1048,4.1416 -237.5061,0.6766 -0.8988,-0.7075 -2.0709,-4.5782 -2.6046,-8.6016 l -0.9705,-7.3151 -2.1768,-0.8352 -2.1769,-0.8353 -2.7245,2.4655 -2.7246,2.4655 -3.0081,11.1644 c -6.0917,22.6085 -13.5296,71.2053 -31.4264,205.3303 -12.3342,92.4365 -17.7662,128.8437 -19.7869,132.6192 -0.7583,1.4167 -2.6297,3.2454 -4.1588,4.0636 l -2.7801,1.4878 h -29.9139 -29.9138 v -1.4544 -1.4545 l 28,-0.02 c 15.4,-0.011 29.393,-0.3937 31.0955,-0.8505 1.7024,-0.4569 3.8268,-2.4358 4.7207,-4.3976 1.8756,-4.1161 10.1909,-60.295 19.7791,-133.6299 19.4922,-149.0841 28.5671,-203.9416 35.6691,-215.6189 1.4417,-2.3705 3.9994,-4.6704 5.6838,-5.1108 l 3.0625,-0.8008 2.9954,2.4253 2.9954,2.4253 0.8537,6.5301 c 0.4695,3.5915 1.5737,7.0109 2.4538,7.5986 3.4713,2.3181 255.2342,-0.432 273.3651,-2.986 l 7.0377,-0.9914 -5.4399,-5.432 -5.4399,-5.4321 -7.416,-2.7681 c -9.803,-3.6592 -22.8616,-5.5742 -51.0523,-7.4869 l -23.2728,-1.5789 -87.2727,0.9972 -87.2727,0.9972 -10.9091,-1.7063 c -6,-0.9385 -13.2,-2.87 -16,-4.2923 l -5.0909,-2.586 -2.5453,-4.9906 -2.5452,-4.9907 0.9097,-15.2715 0.9098,-15.2715 -1.6688,-10.9082 c -1.9507,-12.7505 -11.0177,-46.4101 -14.4854,-53.7741 -1.3187,-2.8002 -3.6052,-5.3238 -5.0812,-5.608 l -2.6836,-0.5168 0.8964,2.824 0.8963,2.8239 -4.7559,1.358 -4.7559,1.3579 -0.4192,2.8758 c -0.2305,1.5817 1.9111,11.3773 4.7593,21.7679 2.8481,10.3906 6.2161,26.746 7.4844,36.3452 l 2.306,17.4531 -0.9291,15.2715 c -1.3949,22.9289 -5.6081,56.7286 -17.5856,141.0794 -18.274,128.694 -25.725,184.8311 -30.6457,230.8903 -0.8925,8.3541 -3.5155,10.5073 -3.5155,2.8858 0,-11.6165 13.3936,-113.6877 32.0117,-243.9571 5.5448,-38.7968 11.4854,-82.975 13.2012,-98.1738 l 3.1198,-27.6341 -0.7924,-21.8164 -0.7924,-21.8164 -2.2785,-10.181 c -1.2531,-5.5996 -4.3504,-17.544 -6.8829,-26.5433 l -4.6045,-16.3623 h -3.2962 c -3.6258,0 -7.2612,-2.9824 -8.4316,-6.9172 -0.415,-1.3951 -7.2667,-25.4438 -15.2259,-53.44154 -25.1672,-88.52977 -35.0974,-124.80472 -36.7671,-134.31023 l -1.6212,-9.2295 2.8617,-3.86034 2.8616,-3.86034 8.591,-3.186 c 4.7251,-1.75231 10.9316,-3.22491 13.7921,-3.27246 l 5.201,-0.0865 3.5263,3.77426 3.5263,3.77426 6.5454,-0.92112 c 3.6,-0.50662 9.589,-1.30027 13.3089,-1.76367 l 6.7635,-0.84256 2.4899,3.79971 c 1.3694,2.08985 4.7486,12.47507 7.5094,23.07828 9.314,35.77274 22.0515,83.10306 30.1955,112.20192 4.4531,15.9107 8.0964,31.36083 8.0964,34.33353 v 5.4049 l -5.0965,6.6742 c -2.8031,3.6708 -5.6757,8.1974 -6.3835,10.059 l -1.287,3.3848 6.3937,20.269 c 3.5166,11.148 7.131,24.502 8.032,29.6755 l 1.6382,9.4064 -0.739,15.5892 -0.739,15.5891 4.5451,-1.3805 c 6.0355,-1.8332 55.2417,-3.7831 127.0906,-5.0361 32.2,-0.5616 58.5454,-1.1747 58.5454,-1.3624 0,-0.1878 -1.8972,-4.172 -4.2161,-8.8537 -2.3189,-4.6817 -5.0573,-11.4574 -6.0853,-15.0571 l -1.8691,-6.5449 0.051,-14.5443 0.051,-14.5443 2.5167,-9.4537 c 4.9569,-18.6204 14.9677,-37.0715 31.0459,-57.22149 l 7.9414,-9.95253 -1.6273,-3.57137 -1.6274,-3.57137 2.0338,-3.93266 c 2.3694,-4.58148 5.8527,-7.85171 11.3482,-10.65396 l 3.9256,-2.00174 -13.2334,-11.63374 c -16.188,-14.23121 -29.0413,-24.67562 -37.9217,-30.81474 l -6.7071,-4.63672 -1.8013,-6.01169 -1.8013,-6.01169 1.8596,-15.53127 c 2.3332,-19.48681 9.8068,-49.05684 23.9799,-94.87845 6.0758,-19.64291 11.0349,-36.33246 11.0202,-37.08789 -0.015,-0.75544 -2.2442,4.00943 -4.9547,10.5886 -4.7825,11.60885 -13.8966,26.4995 -22.4137,36.61939 l -4.1649,4.94871 -1.5115,-0.93411 -1.5116,-0.93411 3.6681,-9.08034 3.668,-9.08034 0.656,-8.75131 0.6561,-8.75132 -2.8658,-9.04423 c -1.5761,-4.97432 -7.7824,-17.73692 -13.7917,-28.36132 -13.1148,-23.18671 -18.0013,-36.27117 -20.1701,-54.00835 l -1.6268,-13.30485 2.2712,-12.84481 2.2713,-12.84481 4.9731,-10.42602 c 2.7352,-5.73431 7.0123,-13.62404 9.5048,-17.53274 l 4.5318,-7.10672 -1.5381,-2.87364 c -0.8459,-1.58051 -1.2388,-4.43896 -0.873,-6.35213 l 0.665,-3.47847 -4.7361,-2.92683 c -2.6049,-1.60976 -8.8964,-7.33989 -13.9812,-12.73364 l -9.245,-9.80682 -4.7961,-9.75916 c -2.6378,-5.36754 -5.8093,-14.52467 -7.0477,-20.34918 l -2.2516,-10.59002 0.759,-9.55266 c 1.6418,-20.66105 10.0545,-36.54845 30.0637,-56.77508 l 13.8181,-13.96836 12.3891,-6.10019 12.389,-6.10019 7.9746,-0.78195 7.9746,-0.78195 2.9091,2.23793 2.9091,2.23792 -8,-0.17415 -8,-0.17415 -7.5445,2.51081 c -23.6927,7.88488 -51.5416,36.62668 -60.1281,62.056 l -3.1631,9.36732 0.6371,14.54427 0.6371,14.54427 3.298,8.49411 c 1.8138,4.67175 6.0548,12.52566 9.4242,17.45312 l 6.1263,8.95902 11.5383,9.7185 11.5383,9.7185 0.077,4.76009 0.077,4.7601 4.287,2.60326 c 2.3578,1.4318 6.3911,2.60672 8.963,2.61093 l 4.6761,0.008 1.5042,-2.81035 c 0.8273,-1.54569 2.8849,-3.24855 4.5725,-3.78413 l 3.0683,-0.97377 6.0241,5.7959 c 7.6307,7.34156 11.0146,9.04684 17.9285,9.03491 l 5.5502,-0.01 3.6558,-2.53566 c 2.0106,-1.39462 5.447,-4.24695 7.6363,-6.33851 l 3.9806,-3.80285 -0.032,-10.01421 -0.032,-10.01421 -2.8469,-5.81771 c -1.5659,-3.19974 -5.1515,-8.99801 -7.9681,-12.88504 -2.8166,-3.88704 -5.1211,-8.29608 -5.1211,-9.79787 v -2.73052 l -4.8467,-2.02491 c -2.6656,-1.11371 -6.2656,-3.82872 -8,-6.03337 l -3.1533,-4.00846 v -4.27902 -4.27902 l 4.0377,-4.03739 4.0378,-4.03739 6.7143,-1.00679 6.7143,-1.0068 0.7649,-3.9341 c 0.8892,-4.57299 -1.0895,-16.3799 -3.5298,-21.06276 -0.9267,-1.77833 -4.7953,-6.55381 -8.5969,-10.61218 -3.8016,-4.05837 -8.3478,-10.19311 -10.1027,-13.63276 l -3.1908,-6.2539 -0.069,-7.72321 -0.069,-7.72321 2.8004,-4.79447 2.8003,-4.79446 6.4314,-1.09783 6.4313,-1.09783 9.3046,1.48629 c 11.1226,1.7767 17.9851,5.07468 27.2581,13.09975 9.1271,7.89887 11.4893,8.6403 27.5274,8.6403 h 13.6196 l 2.2858,2.28553 2.2857,2.28553 v 7.01058 7.01057 l 3.6858,0.92501 3.6858,0.92501 1.6258,3.56799 c 0.8942,1.96239 2.8912,3.96955 4.4377,4.46036 1.5465,0.4908 3.4199,2.63641 4.163,4.76801 l 1.3512,3.87564 6.4065,3.39835 6.4064,3.39835 1.7101,4.12816 1.7101,4.12816 -1.0032,4.56734 c -0.5518,2.51203 -5.3309,10.90003 -10.6203,18.64 l -9.617,14.07268 -1.729,6.64337 c -1.7946,6.8949 -1.6926,8.44205 1.6702,25.35402 1.1135,5.59955 2.7692,15.41532 3.6793,21.81282 0.9102,6.39751 2.8285,13.92417 4.2628,16.72591 3.7894,7.40182 17.4404,24.08768 24.0842,29.43864 21.3624,17.20529 66.0221,56.7204 75.9103,67.16581 l 11.8658,12.53437 5.1509,10.51799 5.1508,10.518 1.2833,9.45377 1.2832,9.45378 -1.1311,7.99935 c -0.6221,4.39964 -2.4526,12.99179 -4.0677,19.09366 l -2.9366,11.0943 2.786,14.35817 2.786,14.35816 0.01,13.81706 c 0,7.59938 -1.0678,19.67668 -2.3824,26.83845 l -2.3901,13.0214 1.5293,0.50971 c 0.8411,0.28035 8.249,4.82526 16.4619,10.09982 17.8582,11.4689 46.0424,25.71859 66.0559,33.3972 l 14.5454,5.58068 31.2728,0.0487 31.2727,0.0487 13.3155,5.29536 c 7.3236,2.91245 21.3478,7.67419 31.165,10.58165 9.8171,2.90745 19.1085,5.96012 20.6476,6.78371 l 2.7982,1.49743 -0.7107,3.71719 -0.7106,3.71719 14.0202,-0.88697 c 23.2375,-1.47008 41.9981,-7.60704 61.5058,-20.11967 l 11.4718,-7.35826 9.5571,-10.38907 c 5.2564,-5.71398 19.0399,-24.6826 30.63,-42.15249 l 21.0728,-31.76343 10.7992,-11.30246 10.7992,-11.30246 9.0648,-4.8311 9.0648,-4.83109 6.6339,-0.0991 6.6338,-0.0991 3.939,2.57878 3.939,2.57878 v 2.87532 2.87533 h 3.9124 c 2.1518,0 7.7232,-0.78704 12.3808,-1.74896 l 8.4683,-1.74897 2.101,2.11257 c 1.1555,1.16191 10.3205,32.46356 20.3666,69.55922 23.8256,87.97706 25.4981,94.71945 25.4981,102.79003 v 6.81361 l -5.0909,6.9347 -5.0909,6.9346 v 5.0045 c 0,2.7525 1.6707,9.8642 3.7128,15.8039 2.042,5.9396 5.0977,16.3625 6.7905,23.1619 l 3.0778,12.3627 -0.061,19.4739 -0.061,19.4738 13.9981,-0.9399 c 7.6989,-0.517 39.7092,-1.3656 71.134,-1.8857 l 57.1359,-0.9457 -0.6867,-1.5895 c -0.3777,-0.8743 -2.1979,-6.171 -4.045,-11.7705 l -3.3583,-10.181 v -28.6113 -28.6114 l -5.969,-0.898 c -6.6464,-0.9999 -11.8404,-5.0132 -12.8308,-9.914 -0.3593,-1.7777 -1.0034,-12.0679 -1.4314,-22.86697 -0.6937,-17.50269 -4.7388,-49.03292 -11.8487,-92.35611 l -2.3868,-14.54427 -0.7654,-30.1717 -0.7654,-30.17169 1.7478,-14.18833 c 5.5166,-44.78279 19.9074,-85.3362 42.4534,-119.63429 l 9.0827,-13.81706 16.0841,-16.56398 c 8.8462,-9.11019 14.6113,-15.79571 12.8113,-14.85671 l -3.2727,1.70728 v -1.43573 c 0,-0.78965 2.9454,-3.46209 6.5454,-5.93875 3.6,-2.47666 6.5455,-4.88315 6.5455,-5.34774 0,-0.4646 -3.2728,-0.41061 -7.2728,0.11997 l -7.2727,0.96468 v -2.42361 c 0,-5.04946 12.4554,-14.08954 26.9091,-19.5306 l 4.3636,-1.64268 -4.413,-1.86638 c -5.4396,-2.30055 -13.7688,-10.43488 -13.7688,-13.44672 v -2.22537 l 2.5455,0.9867 c 6.1371,2.37895 18.8524,5.14045 23.5783,5.12072 8.5078,-0.0355 23.2494,-4.12786 32.3596,-8.98314 l 8.5724,-4.56863 17.4186,-16.12059 c 28.2027,-26.10108 37.8574,-33.999 48.2496,-39.46998 l 9.8148,-5.16704 10.4821,-2.18541 10.4822,-2.18541 9.7792,1.64934 9.7792,1.64934 6.2874,3.99395 6.2875,3.99394 5.8894,8.6187 5.8895,8.6187 14.7468,0.98341 c 18.6271,1.24218 30.0031,4.15362 43.1072,11.03233 l 10.35833,5.43738 8.00438,8.01825 c 9.21473,9.23069 16.21422,21.5562 19.51828,34.37007 l 2.30428,8.93651 v 13.01085 13.01086 l -2.89726,11.32725 c -1.59349,6.22999 -5.24467,16.20733 -8.11374,22.17188 l -5.21648,10.84462 -6.89158,7.14932 -6.89159,7.14932 h -5.13292 -5.1328 l -2.6357,2.91218 c -3.6321,4.01311 -14.3654,9.83586 -24.3148,13.19071 -9.0391,3.04791 -20.1763,3.54265 -29.7924,1.32345 l -6.1102,-1.41011 -3.9054,1.4847 c -2.1479,0.81659 -7.801,4.7396 -12.5624,8.7178 l -8.6571,7.23309 -3.1455,-0.0223 c -4.2791,-0.0303 -5.9587,-1.3449 -8.7982,-6.88626 -2.3651,-4.61559 -5.2565,-6.33112 -5.2565,-3.11879 0,3.97159 4.8911,19.88797 7.9658,25.92217 1.8634,3.65683 10.4192,15.81166 19.0129,27.01075 8.5938,11.19909 19.8852,26.9069 25.0922,34.90625 12.7276,19.55324 18.7162,25.48453 36.359,36.01095 15.2394,9.09247 22.0824,14.34355 55.1182,42.29578 21.64857,18.31728 39.01703,30.23654 48.86639,33.53498 l 6.95993,2.33081 17.76735,0.0355 c 9.77204,0.0196 20.7128,0.69717 24.3128,1.50581 14.3395,3.22095 56.48411,17.48351 60.1256,20.34767 4.45853,3.5068 4.71734,4.69444 1.68396,7.72757 l -2.19044,2.19026 37.09953,-0.85937 37.09953,-0.85937 v 1.52872 1.52872 l -22.18182,0.92709 c -12.2,0.5099 -61.78182,1.39692 -110.18182,1.97116 l -87.99999,1.04408 -0.42909,9.77325 -0.42909,9.77324 4.06545,1.13496 c 2.236,0.62422 52.01091,1.04455 110.61091,0.93405 104.08109,-0.19626 135.32473,0.95784 77.94791,2.87929 -38.48938,1.28894 -176.72083,1.0232 -186.43822,-0.35842 l -7.76304,-1.10375 -1.40362,-2.06254 -1.40362,-2.06253 0.61626,-9.92152 c 0.33895,-5.45684 1.20141,-10.50662 1.91659,-11.22174 0.71517,-0.71512 8.38658,-1.39356 17.04756,-1.50765 8.66099,-0.11409 15.19625,-0.70697 14.5228,-1.31751 -1.99108,-1.8051 -32.77548,-13.81125 -60.13353,-23.45253 -33.69339,-11.87392 -55.81989,-21.45004 -68.47179,-29.63386 l -10.3612,-6.70203 -11.8562,-12.64783 c -18.6199,-19.86301 -77.2324,-77.39936 -78.847,-77.39936 -0.1628,0 -0.577,3.88539 -0.9206,8.6342 l -0.6246,8.63419 -4.2775,8.29388 -4.2775,8.29388 -9.4545,5.35168 -9.4546,5.35168 0.4604,7.94158 0.4603,7.94158 -4.3179,5.43282 -4.3178,5.43282 1.5747,5.13039 1.5747,5.13039 -3.0941,3.09382 -3.094,3.09382 5.5484,5.3841 5.5484,5.3841 2.2735,6.36937 c 1.2504,3.50315 3.6282,11.05376 5.2839,16.77913 l 3.0104,10.40977 7.204,10.67942 7.204,10.67943 2.1971,8.46682 2.1971,8.46682 -1.5147,2.44138 -1.5148,2.44139 2.9349,6.8262 2.9348,6.82624 4.087,2.0888 c 5.7715,2.9497 8.7829,3.4417 46.2688,7.5588 56.3153,6.1853 89.0718,12.3681 136.00003,25.6701 45.87762,13.0042 80.67832,27.5349 105.08864,43.8787 l 12.00226,8.0361 4.68182,7.0074 4.68182,7.0074 2.3851,10.181 2.3851,10.181 -0.86732,13.8171 c -0.47703,7.5994 -2.17812,18.7257 -3.7802,24.7252 -1.60209,5.9995 -4.91478,24.6141 -7.36156,41.3658 -4.6603,31.9064 -10.38216,61.3988 -17.37037,89.5327 -10.12609,40.7667 -13.11802,62.2978 -13.11802,94.4026 v 24.3796 l 4.91411,10.0966 c 2.70276,5.5531 6.08303,11.0608 7.51172,12.2394 l 2.59761,2.1428 -3.93825,-6.252 c -2.16603,-3.4386 -4.54829,-7.8564 -5.2939,-9.8174 l -1.35565,-3.5653 h 2.94086 c 1.61747,0 7.98309,2.9009 14.14581,6.4465 19.81883,11.4024 38.44995,19.5504 54.6435,23.8974 8.6912,2.3331 17.52756,5.53 19.63636,7.1043 l 3.83419,2.8624 v 3.3222 3.3221 l -3.63636,2.6939 c -2,1.4816 -6.58182,3.076 -10.18182,3.5432 l -6.54546,0.8494 -2.90909,-2.2492 -2.90909,-2.2492 8,-0.068 c 8.15807,-0.069 14.59048,-2.2883 15.61181,-5.3862 0.93263,-2.8289 -5.34137,-5.9173 -19.97718,-9.8338 -7.59599,-2.0326 -14.01806,-4.3172 -14.27128,-5.0768 -0.25321,-0.7595 -1.36681,-1.0332 -2.47466,-0.6081 -2.14924,0.8246 -22.24966,-8.4725 -39.61596,-18.3238 -5.8,-3.2902 -10.54546,-5.6012 -10.54546,-5.1356 0,0.4655 2.27115,4.3965 5.047,8.7355 l 5.047,7.8891 10.58937,5.3226 c 11.4914,5.7759 22.96631,13.1953 22.93072,14.8264 -0.0122,0.5615 -0.60075,1.9345 -1.30778,3.051 l -1.28551,2.03 -11.41949,-6.2319 c -6.28072,-3.4276 -15.20038,-8.8658 -19.82147,-12.0851 l -8.40198,-5.8531 -5.77984,-8.6546 -5.77983,-8.6547 v -4.3188 c 0,-2.3753 -0.49091,-4.0671 -1.09091,-3.7597 -9.24353,4.737 -15.93127,7.063 -24.02401,8.3557 l -9.79417,1.5645 -9.66521,-1.5439 c -5.31586,-0.8491 -10.83647,-2.1707 -12.26801,-2.9367 -1.43155,-0.7661 -2.90592,-1.3929 -3.27639,-1.3929 -0.37047,0 -1.43226,4.4178 -2.35954,9.8174 -0.92727,5.3995 -3.61265,17.3298 -5.96749,26.5117 l -4.28155,16.6943 0.002,8.031 0.002,8.0309 2.54319,5.041 c 1.39876,2.7725 4.8341,6.3723 7.6341,7.9993 l 5.09091,2.9584 15.27273,-0.1517 c 8.4,-0.084 23.45454,-0.3585 33.45454,-0.6111 l 18.18182,-0.4593 12.80209,2.5311 c 7.04115,1.3921 18.11561,2.9761 24.6099,3.5199 l 11.80781,0.9888 0.63669,1.9214 0.6367,1.9215 -10.70114,-0.9441 c -5.88563,-0.5193 -18.22841,-2.2794 -27.42841,-3.9115 l -16.72727,-2.9673 -21.81819,1.1226 c -26.91766,1.3851 -34.64036,1.215 -42.56573,-0.9378 l -6.2021,-1.6847 -4.26401,-4.8561 c -4.53015,-5.1591 -7.31036,-12.9085 -7.32368,-20.4136 -0.004,-2.5134 2.0231,-12.3308 4.5057,-21.8164 2.48259,-9.4856 5.38164,-22.155 6.44233,-28.1541 l 1.92852,-10.9077 -2.39469,-2.6458 -2.39469,-2.6459 -0.77491,-11.899 -0.77492,-11.899 -4.20581,-0.48 -4.2058,-0.4801 -1.22647,1.9345 c -0.67455,1.064 -1.23648,4.2596 -1.24873,7.1014 -0.0122,2.8417 -2.31319,14.496 -5.11319,25.8983 -7.17253,29.2085 -6.70861,37.7859 2.45738,45.4341 l 4.52772,3.778 -1.71121,1.0575 -1.71121,1.0575 -4.92374,-4.9233 -4.92374,-4.9234 -1.68505,-6.2572 -1.68504,-6.2573 0.95825,-6.0175 c 0.52704,-3.3096 2.86062,-13.66 5.18573,-23.0007 2.32511,-9.3408 4.96775,-23.7396 5.87254,-31.9974 l 1.64507,-15.0142 -0.85367,-21.8164 -0.85367,-21.8164 -3.72683,-23.9981 c -2.04975,-13.1989 -4.11716,-32.5064 -4.59423,-42.9056 l -0.86739,-18.9075 2.34689,-13.415 c 2.70038,-15.4356 8.48233,-34.2424 16.84779,-54.8004 l 5.8425,-14.3579 -10.52859,0.958 c -5.79072,0.527 -20.34677,1.9121 -32.34677,3.0781 -11.99994,1.1661 -28.27964,2.1335 -36.17694,2.1499 -28.7792,0.06 -60.819,-7.2888 -85.1105,-19.5208 -5.652,-2.846 -10.4562,-5.1761 -10.6762,-5.178 -0.22,0 -0.1974,4.7432 0.05,10.5446 l 0.4502,10.548 -2.1514,2.9089 -2.1514,2.9088 -6.8495,-0.2598 c -3.7672,-0.1429 -7.5508,-0.961 -8.4079,-1.818 l -1.5583,-1.5583 h 7.5124 7.5125 l 1.6859,-3.1498 1.6858,-3.1499 -0.7897,-8.7082 -0.7897,-8.7082 -2.7969,-3.777 c -1.5383,-2.0774 -4.875,-5.1918 -7.4148,-6.921 l -4.6179,-3.1439 -12.3891,-1.0319 -12.3892,-1.0319 -24.5002,1.6306 c -13.4751,0.8968 -38.1617,1.6192 -54.8592,1.6053 l -30.359,-0.025 -9.664,-2.0482 c -12.0054,-2.5444 -19.3989,-6.2826 -25.9724,-13.1319 l -5.0909,-5.3045 -50.9091,0.918 c -28,0.5049 -59.9877,1.5066 -71.0837,2.2259 l -20.1746,1.3079 -2.7345,-1.4633 -2.7345,-1.4633 v -17.8621 c 0,-21.6313 -1.3626,-29.7515 -8.9301,-53.2152 l -5.8354,-18.093 0.8952,-4.7714 c 0.4923,-2.6243 2.4083,-6.5905 4.2576,-8.8139 4.78,-5.7469 6.7036,-9.8253 6.7036,-14.21297 0,-5.01334 -5.1054,-25.01694 -25.3882,-99.47329 -9.2365,-33.90621 -16.7936,-62.46773 -16.7936,-63.47006 0,-1.00232 -1.1558,-3.2497 -2.5685,-4.99417 l -2.5686,-3.17177 -9.8862,2.48315 -9.8863,2.48315 -1.6543,-1.65415 -1.6543,-1.65415 h -14.1861 -14.1861 l -3.7048,1.68789 -3.7048,1.68788 v 5.70553 c 0,6.48368 2.6708,17.50406 14.0132,57.82235 24.5556,87.28668 37.3748,131.90331 38.5286,134.09721 0.7149,1.3593 3.0945,3.3228 5.2881,4.3632 l 3.9883,1.8918 4.8444,14.4267 c 2.6644,7.9346 6.1256,20.0427 7.6914,26.9069 l 2.8471,12.4802 0.8362,17.4532 0.8363,17.4531 -3.8782,33.4518 c -4.9926,43.0646 -10.864,84.9433 -27.7318,197.8021 -12.0674,80.7406 -17.0573,116.6439 -20.3655,146.5335 l -0.9256,8.363 h -1.5505 -1.5505 l 0.9749,-11.2718 c 1.7119,-19.7925 10.8519,-85.5681 20.5641,-147.988 8.5751,-55.112 23.6461,-162.9036 27.6559,-197.8021 l 3.8436,-33.4518 -0.7659,-13.0898 c -0.9536,-16.2991 -3.7701,-30.0074 -10.7211,-52.181 l -5.4152,-17.2748 -3.932,-1.3705 -3.9319,-1.3706 -2.1414,-5.3527 c -4.8785,-12.1944 -47.9654,-165.55007 -51.7073,-184.03728 l -2.6069,-12.87978 -7.6806,8.5165 c -4.2244,4.68407 -16.3421,21.60634 -26.9283,37.60504 -10.5862,15.99869 -23.2734,34.08625 -28.1937,40.19457 l -8.946,11.10603 -10.5607,8.01869 c -20.5508,15.604 -40.789,23.25055 -68.0101,25.69615 -16.5807,1.48965 -76.5223,4.06796 -130.9143,5.63112 l -34.1818,0.98234 -0.4331,9.09017 -0.433,9.09017 25.1603,0.3636 c 13.8382,0.19999 65.4148,0.36361 114.6148,0.36361 h 89.4546 l 8,2.01112 8,2.01112 4.4958,4.75555 4.4958,4.75558 2.3831,8.5048 c 1.3107,4.6777 3.1374,15.377 4.0593,23.7763 l 1.6762,15.2715 -0.8438,71.2669 c -0.4642,39.1968 -1.6059,104.9733 -2.5372,146.1699 l -1.6933,74.903 0.8788,46.1781 0.8789,46.1781 h -1.3182 c -0.725,0 -1.7988,-5.0724 -2.3864,-11.2719 -1.3795,-14.5556 0.2346,-190.234 2.3885,-259.9788 0.9141,-29.5976 1.3296,-70.8306 0.9233,-91.6289 l -0.7388,-37.8151 -2.4377,-12.2661 c -1.3408,-6.7464 -3.7374,-14.8134 -5.3258,-17.9268 l -2.8881,-5.66063 -4.6416,-1.92973 c -9.0431,-3.75971 -23.2773,-4.22294 -132.3926,-4.30859 l -110.2966,-0.0866 -2.192,-2.90885 -2.192,-2.90885 0.7709,-7.8661 0.7709,-7.86609 2.1636,-2.16348 2.1637,-2.16347 9.1904,-0.88786 9.1903,-0.88787 -10.7138,-4.02202 c -13.6554,-5.12627 -18.559,-6.18965 -41.6026,-9.02188 -31.0999,-3.8224 -50.4283,-9.42565 -58.4245,-16.93705 -1.7237,-1.61918 -3.4873,-2.37226 -3.9192,-1.67351 -1.3512,2.18609 -16.5523,42.8188 -19.9011,53.19571 l -3.1908,9.88736 0.9315,4.96501 0.9315,4.965 5.3991,0.9258 c 15.3777,2.6368 33.0551,10.3945 52.8224,23.1809 5.3022,3.4296 11.0226,6.9754 12.7121,7.8796 l 3.0718,1.6438 -0.8502,-2.2153 -0.8501,-2.2153 h 4.3184 c 8.8548,0 69.2228,18.3525 91.9928,27.9668 14.6698,6.194 18.3572,8.3938 29.6495,17.6883 l 7.104,5.8471 -1.7329,0.5776 c -0.9531,0.3177 -5.459,-2.3446 -10.0131,-5.9161 -10.0036,-7.8454 -18.2674,-12.1062 -37.1488,-19.1542 -20.7957,-7.7625 -76.57,-24.6014 -77.71,-23.4614 -0.903,0.9028 13.9968,11.063 20.2525,13.8103 3.4793,1.528 17.1261,6.0635 30.3261,10.0788 63.9504,19.4533 87.2695,30.8548 99.2592,48.5311 5.3045,7.8203 6.9119,14.1985 6.8789,27.296 -0.032,12.8413 -1.0866,17.9472 -8.7092,42.1784 -3.1456,9.9992 -9.0105,32.9064 -13.0333,50.905 -4.0227,17.9985 -10.9832,44.8327 -15.4677,59.6315 -19.4611,64.2206 -23.1163,79.5027 -25.2361,105.5076 l -1.3806,16.9375 -1.7632,2.1244 c -3.0751,3.7049 -7.3622,5.2408 -17.8378,6.3907 l -10.1931,1.1188 -13.6124,-1.2878 c -22.2326,-2.1032 -26.5411,-5.6443 -26.5411,-21.8136 v -8.6942 l -3.8793,-1.4747 -3.8793,-1.4748 -1.0966,1.7741 c -0.6031,0.9758 -1.8939,6.0735 -2.8683,11.3282 -0.9744,5.2547 -3.9696,16.7534 -6.656,25.5527 l -4.8843,15.9987 v 7.708 7.7079 l 2.1515,4.1602 c 1.1833,2.2881 4.6043,6.1818 7.6022,8.6528 l 5.4507,4.4926 2.539,-11.2703 c 4.746,-21.0674 10.8749,-41.6557 12.5685,-42.2201 2.6633,-0.8877 2.083,2.3573 -4.2676,23.8674 l -5.9557,20.1723 -0.2205,11.6355 -0.2205,11.6354 2.4655,4.5109 c 1.356,2.481 4.2989,5.7534 6.5398,7.2721 l 4.0744,2.7612 33.4545,0.01 33.4546,0.01 19.6363,4.1981 19.6364,4.198 19.6364,0.1269 19.6363,0.1269 10.4487,-3.2557 c 5.7468,-1.7906 12.4559,-4.9445 14.9091,-7.0085 l 4.4604,-3.7529 v -3.4325 -3.4324 l -8.3636,-2.4066 c -29.2161,-8.4065 -39.2988,-12.0697 -54.501,-19.8012 -21.5455,-10.9576 -37.3127,-21.2282 -45.4653,-29.616 -6.5691,-6.7586 -10.4215,-15.0622 -8.8671,-19.1125 l 0.8863,-2.3096 5.6439,0.7569 5.6438,0.7569 16.9236,10.2529 c 19.5354,11.8351 28.1329,15.3435 47.2286,19.2722 7.5725,1.558 15.7753,4 18.2286,5.4267 l 4.4604,2.594 0.4491,4.5667 0.4491,4.5666 -3.8084,2.4952 -3.8084,2.4951 -10.8225,0.6945 -10.8226,0.6945 v -1.4748 -1.4748 l 10.9314,-1.0243 10.9314,-1.0243 2.1595,-2.1593 c 1.1878,-1.1877 2.1596,-2.6657 2.1596,-3.2845 0,-2.4263 -5.4404,-5.8399 -11.6552,-7.3131 -33.6174,-7.969 -39.1515,-10.1575 -62.1846,-24.5915 -6.4778,-4.0594 -13.4593,-7.8027 -15.5145,-8.3185 l -3.7366,-0.9377 v 2.4115 c 0,8.5066 13.5966,21.0693 37.3749,34.5328 22.5532,12.7698 38.0891,19.2903 58.565,24.5799 l 16.7873,4.3368 2.5455,3.0218 c 5.432,6.4483 1.6941,12.7968 -11.0971,18.8477 l -8.9029,4.2114 h 103.4109 103.4109 l 2.294,-2.5452 2.2939,-2.5453 7.3122,-43.6328 c 6.646,-39.6568 14.5277,-91.4289 32.7702,-215.2552 3.5355,-23.998 8.1808,-52.8807 10.323,-64.1836 l 3.8949,-20.5508 2.7362,-4.499 2.7363,-4.4991 3.8046,-0.9548 3.8045,-0.9548 2.0946,2.0944 c 1.152,1.1519 2.5091,5.594 3.0157,9.8713 l 0.9212,7.7769 51.7702,-0.9181 c 28.4737,-0.505 81.8794,-1.6346 118.6794,-2.5104 36.8,-0.8758 77.5464,-1.3838 90.5475,-1.1289 13.0011,0.2549 23.6374,0.087 23.6363,-0.3739 0,-1.8514 -6.9172,-7.1611 -12.1928,-9.3652 l -5.6056,-2.342 -16.1927,-1.3225 -16.1927,-1.3224 -47.2727,1.3367 c -26,0.7352 -66.5818,1.7466 -90.1818,2.2476 l -42.9091,0.9109 -22.2913,-1.4846 -22.2912,-1.4847 -6.3486,-3.073 -6.3486,-3.0731 -2.9965,-6.1895 c -3.3528,-6.9253 -3.715,-12.0791 -1.4279,-20.3153 2.2244,-8.0102 3.2908,-5.5322 2.9304,6.8096 l -0.3127,10.7096 3.6861,4.3803 3.686,4.3803 6.9481,2.018 6.948,2.0179 h 64 c 35.2,0 90.1818,-0.3272 122.1818,-0.7272 l 58.1818,-0.7272 8.5171,2.6305 8.5171,2.6305 6.9065,6.4596 6.9065,6.4597 h 3.9071 c 2.1489,0 6.4091,1.2764 9.4671,2.8363 l 5.5601,2.8364 2.413,5.0844 c 1.3271,2.7965 3.0348,10.1922 3.7949,16.4349 5.6779,46.6315 24.7379,284.5134 24.7379,308.7461 v 8.6588 l -2.8135,1.5056 c -6.7187,3.5954 -14.7745,1.0997 -17.2601,-5.3473 -3.8198,-9.9077 -9.4356,-62.7792 -18.428,-173.4961 -3.227,-39.7314 -4.6269,-59.3684 -9.3836,-131.6256 -0.7373,-11.1991 -2.2128,-22.9799 -3.279,-26.1797 l -1.9386,-5.8177 -50.1759,-0.4207 c -27.5967,-0.2314 -90.4304,0.5897 -139.6304,1.8246 -49.2,1.2349 -91.2545,2.2423 -93.4545,2.2387 l -4,-0.01 -2.9091,-2.9089 -2.9091,-2.9088 v -6.545 -6.5449 h -2.6837 c -4.2872,0 -7.2413,4.5196 -9.5455,14.6041 -3.3486,14.6555 -10.2508,57.757 -19.7878,123.5665 -11.6487,80.3812 -23.6377,157.6822 -29.4376,189.8027 l -4.7272,26.1797 -5.0909,2.5584 -5.091,2.5585 -177.4545,-0.3768 -177.4545,-0.3768 -8.7273,-4.3633 -8.7273,-4.3633 -3.1996,-4.8334 c -1.7597,-2.6584 -3.5885,-7.8944 -4.064,-11.6354 -0.4754,-3.7411 -1.1876,-8.7655 -1.5826,-11.1653 l -0.7182,-4.3633 -5.7069,-3.9457 -5.707,-3.9458 -2.3738,-8.1651 -2.3739,-8.165 1.5753,-8.2512 c 0.8664,-4.5381 3.2476,-13.8143 5.2916,-20.6138 2.044,-6.7994 4.8845,-17.7337 6.3121,-24.2983 l 2.5957,-11.9358 -2.1041,-2.1039 -2.1042,-2.1039 1.8318,-17.5088 1.8317,-17.5087 -0.9311,-20.811 c -0.5122,-11.446 -1.3275,-33.2463 -1.8119,-48.445 l -0.8807,-27.6342 2.3836,-14.4819 c 2.9562,-17.9604 8.8728,-35.8642 17.582,-53.2039 l 6.6811,-13.3018 -4.0816,0.8406 c -8.78,1.8083 -61.5901,3.9429 -75.3544,3.0459 -32.3376,-2.1075 -59.8824,-7.4785 -89.4993,-17.4517 -8.2898,-2.7915 -15.5525,-5.0754 -16.1395,-5.0754 -0.587,0 -0.4583,2.1228 0.2858,4.7173 0.7442,2.5945 1.353,7.5329 1.353,10.9743 v 6.257 l -3.5702,3.57 -3.5703,3.5699 h -8.0661 c -4.4364,0 -8.0661,0.2847 -8.0661,0.6326 0,0.3478 0.6824,2.4273 1.5165,4.621 0.8342,2.1937 4.09,35.779 7.2353,74.6341 3.1453,38.855 7.9861,98.1342 10.7574,131.7315 2.7712,33.5972 6.1682,75.9991 7.5487,94.2264 l 2.5102,33.1405 -1.3749,1.3749 c -2.1197,2.1194 -9.6504,2.9612 -13.189,1.4743 z m 9.9933,-13.862 c -0.2514,-5.5995 -3.0332,-42.0875 -6.1818,-81.0843 -10.478,-129.7734 -17.3065,-214.0443 -18.2376,-225.0726 -0.5065,-5.9995 -1.794,-13.0394 -2.861,-15.6443 l -1.94,-4.7362 -3.8014,-1.4451 c -2.0908,-0.7949 -6.2811,-1.4452 -9.3119,-1.4452 h -5.5104 l 1.7825,6.9085 c 0.9804,3.7997 2.5557,19.0167 3.5007,33.8155 6.7626,105.9046 24.8751,280.7765 30.6564,295.9815 l 1.4473,3.8063 5.4571,-0.4515 5.4571,-0.4516 z m 273.1788,5.1744 c -1.2031,-0.7052 -10.9468,-2.7436 -21.6527,-4.53 l -19.4652,-3.2478 -20.0333,1.6783 -20.0333,1.6784 -7.7686,-1.6484 -7.7687,-1.6483 -5.4174,-5.6591 c -5.1735,-5.4042 -5.8574,-4.1671 -1.4799,2.677 2.6166,4.091 12.8696,9.063 21.7795,10.5617 3.8148,0.6416 24.2815,1.2237 45.4815,1.2934 l 38.5454,0.1269 z m 686.5121,-0.7643 1.7719,-2.1348 -0.9626,-14.2275 c -6.5862,-97.3391 -17.0746,-226.1728 -23.4061,-287.5084 l -2.2365,-21.6651 -2.1396,-4.1373 c -2.5526,-4.9357 -6.8467,-7.8709 -13.5703,-9.2759 l -4.9456,-1.0336 1.1139,2.7088 c 2.6349,6.4075 3.7146,14.8487 5.1163,39.997 4.1441,74.3533 18.0933,240.008 23.1655,275.104 l 2.6879,18.5979 2.5838,2.8549 c 3.0527,3.3729 8.3282,3.7239 10.8214,0.72 z m 202.97592,-99.0245 14.51748,-2.3714 10.57737,0.644 10.57736,0.6441 -0.93243,-14.6915 -0.93244,-14.6915 1.72651,-18.9036 c 2.05341,-22.4828 4.0217,-33.3969 12.45987,-69.0892 9.08344,-38.4218 13.47818,-60.9567 17.47599,-89.6117 1.92629,-13.807 5.0972,-32.1809 7.04647,-40.8309 1.94927,-8.6501 3.96529,-19.3694 4.48005,-23.8207 l 0.93593,-8.0934 -1.60769,-10.063 c -1.90819,-11.9438 -5.94459,-21.6628 -11.33379,-27.29 -10.37409,-10.8321 -42.72659,-27.8852 -74.76379,-39.4083 -53.20778,-19.1377 -106.28771,-30.8518 -175.05011,-38.6313 -21.3592,-2.4165 -41.2516,-5.0444 -44.2054,-5.8397 -6.2609,-1.6858 -10.7161,-5.9773 -13.755,-13.24978 -1.1919,-2.85254 -3.2302,-6.06856 -4.5294,-7.14671 l -2.3622,-1.96028 -16.9027,1.76177 c -18.3382,1.91138 -42.0089,5.54487 -73.5674,11.2927 l -20.1173,3.664 -22.4281,11.0627 -22.4282,11.0627 0.01,28.4686 0.01,28.4686 1.5901,5.8177 c 0.8745,3.1997 2.8521,8.7801 4.3946,12.4009 l 2.8046,6.5832 8.3976,1.5957 c 4.6187,0.8777 13.7427,3.9457 20.2755,6.8178 24.6205,10.8241 38.4857,12.4115 85.1592,9.7495 l 32.2712,-1.8405 13.6502,1.6713 c 15.0873,1.8474 16.5866,2.4371 26.8804,10.5732 14.0024,11.0674 40.5722,21.7503 66.3785,26.6888 l 13.8182,2.6444 21.0909,-0.064 21.0909,-0.064 30.54547,-3.2186 30.54545,-3.2186 6.05885,0.9083 6.05885,0.9084 4.70348,-8.824 c 4.7543,-8.9192 14.23736,-18.9515 17.914,-18.9515 1.09974,0 2.77535,0.9347 3.72356,2.0772 l 1.72403,2.0771 -2.3004,4.4481 c -3.30401,6.3888 -10.48139,14.1903 -17.4925,19.0137 l -6.06799,4.1745 -7.61507,17.8376 c -4.18828,9.8106 -9.2645,24.4196 -11.28048,32.4643 l -3.66542,14.6269 -0.73998,21.0892 -0.73997,21.0892 3.134,19.6347 c 1.72371,10.7992 4.06515,25.5252 5.20322,32.7246 3.67236,23.2315 6.68921,57.7759 6.41443,73.4486 -0.33401,19.0513 -0.55773,17.9231 3.35901,16.9401 1.81539,-0.4556 9.83357,-1.8955 17.81818,-3.1997 z m -948.39162,-4.4615 c 8,0.4628 16.572,1.2418 19.0488,1.7312 l 4.5032,0.8897 0.9974,-14.3128 c 1.5102,-21.672 6.8169,-44.8415 21.2665,-92.852 7.2226,-23.998 16.393,-58.2871 20.3785,-76.198 3.9856,-17.9109 9.6033,-39.8364 12.4838,-48.7233 9.645,-29.7572 11.4438,-44.9867 6.9025,-58.441 l -2.4194,-7.1676 -8.8666,-8.7345 -8.8665,-8.7344 -11.2961,-5.5078 c -16.606,-8.0968 -33.1297,-14.1188 -66.2758,-24.1541 -28.509,-8.6314 -41.492,-13.8003 -47.3407,-18.8478 l -2.7571,-2.3795 1.5982,3.0497 1.5981,3.0496 -1.6774,1.6773 c -0.9226,0.9224 -3.6001,1.6772 -5.9501,1.6772 h -4.2727 l 5.6545,4.4365 c 7.2216,5.666 9.2909,8.4304 9.2909,12.4118 0,3.2784 -2.4928,4.9681 -7.3293,4.9681 -1.5003,0 -8.3558,-2.9681 -15.2345,-6.5958 l -12.5068,-6.5957 7.9067,8.0334 c 8.6732,8.8121 10.3569,12.4432 7.5499,16.2817 l -1.8518,2.5323 -5.6307,-1.7318 c -4.9715,-1.5291 -11.0309,-5.5928 -39.332,-26.3781 -7.7607,-5.6996 -7.4832,-5.0043 4.1276,10.3425 9.6358,12.7363 12.1435,17.5082 10.9014,20.7447 l -0.8728,2.2744 h -4.1706 -4.1706 l -6.4205,-5.0156 c -3.5313,-2.7586 -10.3478,-9.6833 -15.1478,-15.3882 -9.5657,-11.3692 -15.3526,-15.382 -30.2892,-21.0036 -16.2095,-6.1008 -23.5509,-10.4316 -29.8902,-17.6329 -5.6218,-6.3861 -7.5739,-10.7722 -4.7944,-10.7722 0.6643,0 3.2867,2.8944 5.8275,6.432 5.4601,7.6025 10.1456,10.6886 25.4145,16.7393 6.2476,2.4757 14.4294,6.0592 18.1819,7.9632 l 6.8226,3.4619 12.8825,14.0149 c 11.9476,12.9977 20.4041,19.6723 22.3981,17.6785 1.5093,-1.5093 -2.1723,-7.5321 -14.7943,-24.2027 -18.7496,-24.7635 -17.1655,-26.2964 7.6919,-7.4435 21.3047,16.1584 29.4389,21.6876 35.8379,24.3611 l 5.0748,2.1202 v -2.5203 c 0,-2.9593 -17.9055,-20.7669 -33.4497,-33.2667 -9.9502,-8.0014 -14.241,-13.7025 -10.3129,-13.7025 0.8479,0 5.6414,3.4614 10.6521,7.6919 5.0108,4.2306 14.0196,10.5479 20.0196,14.0385 24.8025,14.4292 27.0319,15.3995 30.452,13.2535 l 2.0882,-1.3104 -2.0882,-2.5364 c -3.9384,-4.7834 -28.7409,-22.2448 -38.7711,-27.2955 -5.5166,-2.7779 -10.9138,-6.1154 -11.9939,-7.4167 l -1.9637,-2.3659 1.5167,-1.5166 1.5167,-1.5165 4.8944,2.5271 c 2.6919,1.39 9.4279,5.7087 14.9688,9.5973 8.3976,5.8934 20.8654,11.3939 25.8259,11.3939 5.6308,0 -10.7727,-11.5889 -26.4458,-18.6837 -5.2,-2.354 -17.6363,-7.3703 -27.6363,-11.1475 -10,-3.7772 -20.1455,-8.3066 -22.5455,-10.0655 -2.4,-1.7588 -8.2909,-4.0307 -13.0909,-5.0486 -13.7781,-2.9218 -22.4182,-7.589 -36.423,-19.67482 -7.1674,-6.18522 -18.5952,-15.24857 -25.3952,-20.14077 -29.5443,-21.25538 -47.6959,-38.18327 -61.2217,-57.09442 -4.2133,-5.89085 -8.2028,-10.37552 -8.8656,-9.96593 -0.6628,0.40959 -5.1464,8.66838 -9.9635,18.35287 -4.8171,9.6845 -11.0675,20.82196 -13.8897,24.74993 l -5.1313,7.14175 1.7028,2.05152 c 3.9025,4.70188 37.2647,25.91986 58.1677,36.99403 21.3709,11.32204 45.3796,26.13194 47.2383,29.13924 0.4741,0.767 0.4987,1.9824 0.055,2.7008 l -0.8074,1.3062 -13.4164,-4.9876 c -7.379,-2.7431 -22.2725,-9.8135 -33.0966,-15.7118 -22.6076,-12.31949 -34.0649,-16.70954 -54.8454,-21.01497 -8.1408,-1.68666 -16.4687,-3.70045 -18.5063,-4.47509 l -3.7047,-1.40842 -9.307,11.94812 c -23.1022,29.65816 -32.8833,52.98916 -32.9317,78.55286 l -0.022,11.3365 2.3572,9.3833 c 1.2964,5.1608 4.4055,12.7629 6.9091,16.8936 l 4.5518,7.5104 6.5796,1.6407 c 6.6247,1.652 13.0993,4.9519 27.3293,13.9292 l 7.7271,4.8748 38.8184,1.1574 c 21.3501,0.6366 41.7599,1.5592 45.355,2.0502 l 6.5367,0.8927 5.268,5.7059 5.2681,5.7059 15.1044,5.1293 c 20.9726,7.1221 47.0045,13.3575 66.4516,15.917 l 16.4381,2.1635 h 24.2404 c 13.3321,0 33.4259,-0.7252 44.6527,-1.6117 l 20.4125,-1.6117 5.0909,-4.8421 c 7.5504,-7.1815 21.2539,-14.934 32.3925,-18.3256 l 9.847,-2.9983 3.4471,0.8651 c 4.1199,1.034 5.7409,4.4761 3.8084,8.0868 -3.0664,5.7291 -27.3036,17.5287 -36.0051,17.5287 h -2.6018 l 0.5028,6.3213 0.5028,6.3213 -5.7633,11.4954 c -11.8693,23.6745 -16.9809,43.2974 -18.6318,71.5267 l -0.9124,15.599 2.3118,28.3613 c 1.2714,15.5987 2.4342,45.3781 2.584,66.1764 0.1497,20.7983 0.4776,38.2215 0.7286,38.7182 0.2509,0.4967 4.5608,-0.059 9.5774,-1.2354 l 9.1211,-2.1384 z m 922.73198,-32.5497 c -1.38809,-22.2858 -3.78507,-41.3713 -9.40717,-74.903 l -3.9017,-23.2708 0.009,-20.362 0.009,-20.362 3.15894,-15.0716 c 3.08468,-14.7174 10.09804,-34.6585 17.08927,-48.5899 l 3.48214,-6.9389 -1.85807,-0.6796 c -1.02193,-0.3738 -3.40171,-0.851 -5.28839,-1.0605 l -3.43033,-0.3809 -7.86291,19.2429 c -9.43053,23.0793 -14.32771,40.6923 -16.59603,59.6888 l -1.68505,14.1117 0.96565,10.9282 c 0.5311,6.0105 2.6292,22.3818 4.66244,36.3807 l 3.69679,25.4524 0.74147,27.2373 0.74147,27.2373 4.86478,0.9126 c 6.90878,1.296 8.21381,3.6206 9.14835,16.296 l 0.82717,11.2192 0.92847,-8.7266 c 0.51066,-4.7996 0.37813,-17.5622 -0.29451,-28.3613 z m -960.12288,-1.0908 0.1934,-34.5427 -2.1285,-25.3962 c -2.6932,-32.1336 -2.6928,-56.6117 0,-74.232 2.8111,-18.3872 5.3894,-26.5585 14.8329,-47.0104 7.9624,-17.244 8.9152,-22.0682 4.8557,-24.5849 l -2.1819,-1.3527 -4.0881,1.5652 -4.0881,1.5653 -7.0744,14.9103 c -8.3012,17.4962 -12.1647,28.8826 -15.6231,46.0438 l -2.519,12.4994 0.6964,30.543 c 0.383,16.7986 0.6244,48.0612 0.5364,69.4723 l -0.16,38.9293 3.7963,0.8769 c 2.088,0.4822 5.2691,1.7958 7.0691,2.9189 l 3.2727,2.0422 0.02,6.875 c 0.017,6.0046 1.1693,13.4199 2.0849,13.4199 0.1709,0 0.3979,-15.5442 0.5043,-34.5426 z m -185.8488,-199.6378 2.7509,-1.4721 0.7994,-4.7092 c 0.4397,-2.5901 -0.035,-8.309 -1.0556,-12.7086 l -1.855,-7.9994 -11.6091,-4.3632 -11.6091,-4.3633 -31.2727,0.2732 c -17.2,0.1503 -57.1273,0.9657 -88.7273,1.8121 -71.6191,1.9181 -162.5951,1.9828 -178.7368,0.1271 l -12.1915,-1.4015 -3.4912,-2.2874 c -1.9203,-1.258 -3.1374,-2.86 -2.7048,-3.56 l 0.7866,-1.2726 4.5526,2.271 4.5526,2.2709 24.6901,1.5216 24.6902,1.5216 96.3381,-1.8604 c 52.986,-1.0232 99.8755,-2.374 104.1989,-3.0018 l 7.8607,-1.1414 -9.4546,-0.1925 c -5.2,-0.1059 -14.8157,-0.8089 -21.3683,-1.5624 l -11.9139,-1.3698 -6.2679,-3.1711 c -3.4474,-1.744 -9.0352,-5.7041 -12.4174,-8.8 l -6.1493,-5.6291 h -18.2662 c -10.0464,0 -50.5844,1.0036 -90.0844,2.2302 l -71.8183,2.2302 -7.7662,2.0303 -7.7662,2.0304 -1.1985,-1.1684 -1.1986,-1.1684 1.5622,-8.4498 c 3.4106,-18.4482 1.5292,-32.6233 -8.5892,-64.7147 -3.2167,-10.2023 -5.8487,-19.8563 -5.8487,-21.4532 0,-1.5969 2.6406,-6.4052 5.868,-10.6852 3.2273,-4.28 6.2633,-9.3325 6.7467,-11.2278 l 0.8787,-3.446 -9.8471,-35.09631 c -5.416,-19.30297 -15.5628,-56.57266 -22.5486,-82.82155 -6.9858,-26.24889 -13.4301,-48.45387 -14.3207,-49.34441 l -1.6193,-1.61917 -7.4171,1.71193 c -4.0793,0.94156 -9.8712,1.71193 -12.8707,1.71193 h -5.4537 l -3.5262,-3.77055 -3.5263,-3.77054 -5.3564,0.71012 c -2.946,0.39057 -9.0898,2.41921 -13.6528,4.50808 l -8.2965,3.79795 0.806,9.07985 0.8061,9.07985 13.2792,47.26888 c 28.5683,101.69264 38.2434,134.61584 40.1455,136.61044 l 1.9796,2.076 3.3265,-1.7435 c 1.8295,-0.9589 5.5962,-3.3966 8.3705,-5.417 l 5.0441,-3.6734 4.4104,0.4321 4.4105,0.4322 3.2113,8.1126 c 3.7811,9.5524 11.1475,36.2369 13.3924,48.5135 0.868,4.7466 1.5781,17.8859 1.5781,29.1986 v 20.5686 l 3.2728,2.9806 c 5.3428,4.866 8.704,6.0319 22.3213,7.7423 l 12.9514,1.6269 88.7273,-1.0091 88.7272,-1.0091 21.8182,1.7287 c 39.0154,3.0913 52.5143,7.3812 62.8278,19.9665 l 5.041,6.1514 7.5202,0.5301 c 16.4082,1.1568 28.9365,0.9964 31.5531,-0.4038 z m 217.3343,-14.0666 c 12.9702,-3.2085 26.9963,-11.1358 26.9963,-15.2578 0,-6.0225 -36.2486,8.0785 -43.6308,16.9727 l -1.8148,2.1866 4.9046,-0.8821 c 2.6976,-0.4851 8.7927,-1.8439 13.5447,-3.0194 z m 549.0538,-142.0655 3.022,-4.8893 8.3693,-3.7083 c 4.6032,-2.0396 13.7634,-4.79 20.3561,-6.112 l 11.9866,-2.4036 13.4679,-6.25029 c 15.5961,-7.23798 32.4709,-13.02093 46.9349,-16.08443 l 10.1694,-2.1539 14.5454,0.0386 14.5455,0.0386 5.5508,1.97951 c 3.053,1.08873 6.7045,3.02348 8.1145,4.29944 9.0007,8.14482 4.4155,-9.15338 -7.0954,-26.76861 l -7.1281,-10.9082 -3.9417,-14.54427 -3.9416,-14.54427 -7.052,-6.75333 c -7.8778,-7.54417 -8.4254,-9.13528 -3.9652,-11.52209 l 3.0867,-1.65184 -0.9146,-6.67256 -0.9147,-6.67255 4.0097,-4.18578 4.0097,-4.18577 -0.3383,-8.26658 c -0.1861,-4.54662 0.1412,-8.99678 0.7273,-9.88924 0.5861,-0.89246 4.011,-3.09157 7.611,-4.8869 3.6,-1.79534 8.3619,-4.9666 10.5819,-7.04726 l 4.0363,-3.78301 2.8728,-9.30002 c 1.58,-5.11501 2.8727,-12.38914 2.8727,-16.16473 V 811.22 l -6.1924,-7.97397 c -3.4059,-4.38568 -9.0464,-12.35399 -12.5345,-17.70734 -3.4882,-5.35336 -6.49,-9.73338 -6.6708,-9.73338 -0.1808,0 -4.1948,1.45384 -8.9201,3.23076 l -8.5913,3.23075 -26.9091,-0.0497 -26.9091,-0.0497 -11.6364,-3.17253 c -6.4,-1.74489 -17.2,-5.90652 -24,-9.24806 l -12.3636,-6.07554 -8.2586,-8.25591 -8.2587,-8.25591 -2.4606,-8.46358 -2.4607,-8.46358 0.8138,-7.39284 0.8137,-7.39283 -5.6754,11.12669 c -16.6582,32.65863 -27.6044,81.79895 -27.6044,123.9236 0,21.63587 1.7876,38.52726 8.9496,84.56819 l 5.8824,37.81511 0.979,23.78838 0.9791,23.78839 3.4025,2.7549 3.4024,2.7549 h 4.8111 4.8112 z m -763.564,-5.8598 c -2.483,-2.358 -18.7518,-11.6013 -41.4026,-23.52352 -8.8,-4.63186 -25.0769,-14.55533 -36.1709,-22.05216 -11.094,-7.49683 -20.4456,-13.35601 -20.7812,-13.02039 -1.3331,1.33299 -10.7089,17.44389 -10.3455,17.77715 0.2137,0.19595 8.5704,2.13367 18.5704,4.30603 23.5519,5.11635 30.1675,7.69965 62.8117,24.52709 27.0406,13.9389 31.3795,15.8425 27.3181,11.9858 z m 71.3247,-15.872 v -6.25915 l 4.923,-14.46643 c 2.7076,-7.95654 7.8441,-21.9931 11.4144,-31.19235 l 6.4915,-16.72591 -0.6556,-8.74991 -0.6555,-8.7499 3.8729,-11.61207 3.873,-11.61207 4.4967,-5.64194 4.4968,-5.64194 1.9092,-8.90233 c 1.05,-4.89629 2.3512,-14.87502 2.8915,-22.17497 l 0.9824,-13.27264 -3.4104,-17.69898 -3.4103,-17.69899 3.9356,-15.71103 c 2.1647,-8.64107 3.9357,-19.34198 3.9357,-23.7798 0,-16.32228 -8.521,-34.35818 -23.7787,-50.33115 -5.3945,-5.64735 -56.6915,-50.46599 -71.4618,-62.43674 -3.1823,-2.57912 -6.6059,-4.6893 -7.6081,-4.6893 -1.0022,0 -5.2712,-2.20296 -9.4868,-4.89546 -12.1248,-7.74426 -27.237,-14.91963 -39,-18.51752 l -10.8464,-3.31756 -13.0909,-0.0882 -13.0909,-0.0882 -7.4317,2.59416 c -4.0874,1.42679 -10.0961,4.8746 -13.3526,7.66181 -3.2565,2.78721 -6.2288,4.56505 -6.6051,3.95076 -0.3764,-0.61429 1.2002,-6.68007 3.5034,-13.47952 2.3032,-6.79945 4.2016,-13.58415 4.2186,-15.07712 l 0.031,-2.71449 -5.7314,5.17755 -5.7314,5.17756 -5.318,0.99758 -5.318,0.99758 -5.6808,-1.70188 -5.6808,-1.70188 -5.7188,-5.95106 -5.7188,-5.95105 -2.475,0.94967 -2.475,0.94968 0.7337,9.13926 0.7336,9.13926 8.7934,18.82861 8.7935,18.82862 2.306,11.21049 c 3.676,17.87067 2.4806,44.57737 -2.9395,65.67143 -1.2047,4.68812 -1.9156,8.79852 -1.5798,9.13423 0.3357,0.33571 2.7455,-7.42698 5.3551,-17.25041 4.4168,-16.62666 6.2436,-27.0824 10.0304,-57.41031 l 1.4879,-11.91541 3.6976,-7.2964 c 2.0337,-4.01301 6.4542,-9.94485 9.8232,-13.18184 l 6.1255,-5.88546 8.0619,-3.07071 8.0619,-3.07072 11.6363,-0.007 11.6364,-0.007 9.3286,2.46052 c 10.7967,2.84775 26.2567,10.3316 38.4925,18.63344 17.1719,11.65086 38.1691,33.98821 46.1294,49.07348 l 3.4537,6.54492 0.024,11.63542 0.024,11.63541 -3.925,8.37753 c -10.0872,21.52985 -31.7749,41.69197 -58.3402,54.23628 -12.2396,5.77966 -27.4672,9.94905 -31.5749,8.64542 l -2.8848,-0.91554 v -4.70326 -4.70326 l 9.591,-16.65152 c 11.2371,-19.50949 18.7202,-34.0958 20.1081,-39.19515 l 0.9896,-3.63607 -6.743,7.18834 -6.7431,7.18833 -6.2363,12.44643 c -3.4299,6.84554 -8.5632,18.6641 -11.4072,26.26349 -2.844,7.59938 -5.6175,14.96984 -6.1633,16.37879 l -0.9924,2.56175 2.3437,-0.89932 c 3.1642,-1.2141 3.0849,-0.78746 -2.7471,14.78223 l -5.0909,13.59119 v 5.92793 c 0,12.66147 6.7846,20.9243 18.6478,22.7106 l 6.8067,1.02492 21.0909,-4.1682 c 11.6,-2.29251 24.8297,-4.19313 29.3993,-4.22362 l 8.3084,-0.0554 2.3929,2.38942 2.3929,2.38941 -2.8979,2.89772 c -5.7036,5.70309 -24.7091,11.12316 -56.226,16.03474 l -10.0851,1.57164 -3.7331,2.77133 c -2.0533,1.52423 -4.7088,4.49045 -5.9012,6.59159 l -2.1679,3.82026 2.2571,2.25698 c 1.2415,1.24133 6.4716,2.93283 11.6225,3.75888 35.055,5.62171 45.5833,8.82305 50.7921,15.44444 l 2.7744,3.52682 -0.8695,2.26574 -0.8695,2.26574 -10.322,-0.7068 -10.3219,-0.70679 -20.4815,-6.74227 c -21.6704,-7.13363 -24.3476,-7.59926 -30.4197,-5.29085 l -3.8178,1.45141 11.173,14.57509 c 12.7863,16.6796 25.9322,29.33512 45.7192,44.01359 24.1683,17.92865 28.1563,21.06201 38.2756,30.07301 12.3795,11.0237 26.7711,18.51127 36.2785,18.87467 l 2.5454,0.097 z m 778.4149,-3.11141 c 27.1492,-4.63901 53.2597,-8.06613 62.0232,-8.14079 l 6.8346,-0.0582 -4.0537,-2.198 -4.0537,-2.198 -11.9463,-0.81819 -11.9463,-0.81819 -13.0909,2.28664 c -7.2,1.25766 -18,3.89063 -24,5.85105 -10.7734,3.52008 -29.6364,11.69779 -24,10.40469 1.6,-0.367 12.5049,-2.30697 24.2331,-4.31098 z m -604.2015,-34.81973 9.1225,-2.53574 10.5755,2.35264 10.5755,2.35264 3.7971,-1.44353 c 5.3215,-2.02308 5.9327,-3.72035 2.4685,-6.8552 l -2.9972,-2.71215 -16.2413,-0.78628 c -17.4954,-0.84699 -19.8776,-1.55402 -19.8776,-5.89943 v -2.82302 h 4.5523 c 4.7185,0 12.1368,1.73072 47.8113,11.15452 l 21.0909,5.57139 h 10.1818 10.1819 l 0.7272,-1.45442 0.7273,-1.45443 -15.2727,-4.829 c -8.4,-2.65594 -23.3516,-7.75475 -33.2257,-11.33069 l -17.9529,-6.50169 -27.8652,0.37653 -27.8653,0.37654 -7.2727,-2.32497 c -26.2328,-8.38617 -56.3986,-22.8791 -81.6043,-39.20619 -7.5797,-4.90972 -14.1073,-8.60073 -14.5058,-8.20223 -0.3985,0.39849 -3.7079,10.34321 -7.3541,22.09937 l -6.6295,21.37483 2.3408,2.58635 c 7.1215,7.86854 29.4913,14.42707 62.494,18.32244 20.567,2.42756 31.1468,5.06037 46.7134,11.6248 l 8.7273,3.68028 8.7272,-0.48881 c 4.8,-0.26884 12.8324,-1.62989 17.8498,-3.02455 z m 962.51387,-0.80875 14.54545,-3.20856 13.81819,2.52197 c 17.38021,3.17208 27.92374,4.04992 34.29282,2.85517 11.16591,-2.09456 4.30086,-5.64066 -32.32465,-16.69707 l -24.51363,-7.4001 -21.09091,-0.46523 -21.09091,-0.46522 -8.34859,-3.25772 c -10.04441,-3.91944 -25.18746,-14.5718 -47.50594,-33.41798 -33.8017,-28.54286 -38.9895,-32.54916 -52.5091,-40.55045 -7.6,-4.49791 -16.5137,-10.31863 -19.8081,-12.93495 l -5.99,-4.75695 -12.3533,-18.60379 c -6.7944,-10.23209 -18.7329,-26.78494 -26.5301,-36.78413 -15.609,-20.01707 -22.4306,-32.21563 -26.0257,-46.53977 -1.3048,-5.19854 -2.9966,-9.65995 -3.7596,-9.91426 -0.763,-0.2543 -3.0385,-1.76117 -5.0567,-3.34859 l -3.6696,-2.88621 -3.67,-11.6167 c -2.0185,-6.38918 -4.0749,-15.35504 -4.5697,-19.92414 l -0.8997,-8.30744 -3.7209,-5.53046 c -6.6121,-9.82795 -18.3331,-17.35675 -36.6375,-23.53371 l -9.4182,-3.17823 -4.511,-6.42242 c -2.481,-3.53233 -6.685,-7.89502 -9.3423,-9.69488 l -4.8314,-3.27246 h -9.3467 -9.3466 l -10.8649,3.64695 c -22.2567,7.47071 -40.0648,18.4115 -57.8037,35.51301 -13.458,12.97438 -23.3039,26.21354 -28.0181,37.67403 l -3.3935,8.25 -0.034,8.8046 -0.035,8.8046 3.7743,7.5733 3.7742,7.5733 6.044,4.94095 c 13.7311,11.22525 36.1582,19.75302 59.7609,22.72366 l 14.349,1.80598 13.967,-0.87647 c 13.3562,-0.83813 28.3168,-4.13911 29.8261,-6.58094 0.3912,-0.63298 -4.0716,-5.14203 -9.9175,-10.0201 -5.8459,-4.87807 -10.9961,-10.27363 -11.445,-11.99014 l -0.8162,-3.12093 2.095,-0.80387 c 1.1523,-0.44214 4.064,0.0116 6.4706,1.00838 5.1846,2.14737 17.0721,14.92507 18.2496,19.61626 l 0.8266,3.29322 5.6646,0.90572 5.6646,0.90573 5.1125,4.48849 5.1125,4.48849 2.9254,9.47065 c 1.609,5.20885 2.9255,11.44515 2.9255,13.85844 v 4.38778 l 12,12.30492 c 6.6,6.7677 18.7726,18.30497 27.0502,25.63837 8.2776,7.3334 22.9248,22.06831 32.5493,32.74425 9.6244,10.67594 21.5064,22.39146 26.4043,26.03447 12.0296,8.94756 32.6325,18.50554 64.90526,30.11062 24.05042,8.64837 36.37807,13.3039 66.18182,24.99355 l 8.72727,3.42301 13.81818,-0.52372 c 7.6,-0.28805 20.36364,-1.96758 28.36364,-3.73228 z m -1289.19547,-37.9033 c 4.9902,-9.99918 10.1878,-19.83572 11.5502,-21.85898 l 2.4771,-3.67864 -9.5056,-10.86563 c -16.7431,-19.13862 -17.8026,-22.5442 -10.5642,-33.95698 8.8347,-13.9297 23.2797,-46.00345 34.1407,-75.80601 12.272,-33.67442 27.9354,-58.90797 36.5662,-58.90797 h 1.9856 v 4.2427 c 0,5.58722 -3.9517,14.5734 -14.3358,32.59913 -10.1055,17.54224 -16.2096,29.39221 -16.2096,31.46789 0,2.7329 8.4745,1.56445 20.5112,-2.82805 29.5085,-10.76837 58.6816,-36.83068 67.5996,-60.39117 l 2.7526,-7.27214 -0.1055,-8.04699 -0.1056,-8.04699 -3.9232,-7.81032 c -14.1302,-28.13037 -51.8705,-57.9554 -83.9042,-66.30706 l -9.3704,-2.44301 -11.6363,0.62806 -11.6364,0.62806 -7.4037,3.79094 c -15.877,8.12962 -22.4074,20.38149 -24.6018,46.15614 -2.1513,25.26858 -6.3695,42.35924 -27.0756,109.6994 -14.8645,48.3423 -20.8587,71.63546 -23.728,92.20613 -2.2552,16.16806 -1.9835,22.29095 1.1659,26.26867 0.8757,1.10593 6.5127,5.63476 12.5267,10.06406 6.0141,4.4293 16.4983,13.04889 23.2983,19.15465 6.8,6.10576 14.6184,12.9319 17.3742,15.16921 l 5.0105,4.06784 4.0369,-4.8713 c 2.2203,-2.67921 8.1199,-13.05245 13.1102,-23.05164 z m 91.3773,-17.22197 c 0,-2.11976 -13.4569,-8.62358 -22.5455,-10.89642 -4.8,-1.20037 -13.6363,-2.6363 -19.6363,-3.19096 -11.2286,-1.038 -20.141,-3.82993 -22.1086,-6.92577 -2.0365,-3.20435 -1.208,-9.31297 1.7781,-13.10878 l 2.9422,-3.7401 7.6032,-2.79122 c 4.1818,-1.53517 15.0292,-3.90963 24.1054,-5.27658 17.6102,-2.65226 35.66,-8.0175 39.335,-11.69222 l 2.2408,-2.24061 h -8.8066 c -4.8437,0 -17.2567,1.71208 -27.5845,3.80462 l -18.7777,3.80461 -9.797,-0.70005 c -5.3883,-0.38502 -10.7445,-1.4864 -11.9027,-2.44752 l -2.1057,-1.74747 -2.4521,3.74198 -2.452,3.74198 1.9213,4.63796 c 2.3309,5.62685 2.0848,10.03546 -0.8801,15.76847 l -2.2382,4.32794 1.5418,2.88067 c 1.9577,3.65776 5.9317,5.65797 24.3228,12.24238 25.1539,9.00563 45.4964,13.39061 45.4964,9.80709 z m -70.4703,-11.89512 3.9008,-1.48298 -3.8062,-3.80584 c -4.3847,-4.38442 -4.6871,-7.21196 -1.5692,-14.67358 l 2.2369,-5.35325 -1.7543,-6.84452 -1.7544,-6.84453 2.4284,-3.70586 2.4284,-3.70587 -3.144,-6.03135 -3.144,-6.03135 0.1206,-8.19766 c 0.066,-4.50871 1.1599,-11.08133 2.4303,-14.60584 4.1008,-11.3768 1.3481,-7.9026 -3.5924,4.53391 -5.8808,14.80383 -11.4793,25.99032 -17.3155,34.59889 l -4.4372,6.54492 0.026,5.0905 0.026,5.09049 11.2406,13.41524 c 6.1823,7.37839 11.3615,13.43244 11.5095,13.45345 0.1479,0.021 2.0243,-0.62913 4.1698,-1.44477 z m -79.4901,-127.96103 c 6.7772,-13.05627 12.4683,-30.60618 15.4276,-47.57438 l 2.1692,-12.43816 v -18.14349 -18.14349 l -2.306,-8.9365 c -1.2683,-4.91507 -6.1079,-17.11765 -10.7548,-27.11684 -4.6469,-9.99918 -8.8902,-20.88541 -9.4295,-24.19161 l -0.9807,-6.01128 -5.3554,-0.88368 c -2.9455,-0.48603 -7.1677,-1.83909 -9.3827,-3.00679 l -4.0273,-2.12311 -3.8828,6.10922 c -8.2062,12.91157 -13.3471,24.41683 -15.7641,35.27995 l -2.511,11.28578 0.8131,14.67799 0.8132,14.67799 3.1588,9.40584 c 3.6533,10.87843 8.5099,20.78927 18.1976,37.13582 3.7927,6.39948 8.4436,15.74093 10.3355,20.75879 l 3.4397,9.12337 v 10.78032 c 0,5.92917 -0.6561,12.62278 -1.4579,14.87467 l -1.458,4.09436 3.6467,-4.36328 c 2.0057,-2.39981 6.1947,-9.27197 9.3088,-15.27149 z m 1139.259,-34.54098 10.687,-8.36129 6.5526,0.23102 c 3.604,0.12706 11.7891,0.37848 18.1891,0.5587 l 11.6363,0.32768 8,-3.08323 c 4.4,-1.69579 11.2728,-5.25215 15.2728,-7.90305 l 7.2727,-4.8198 -0.4122,-5.01995 c -1.0937,-13.32109 -6.5392,-23.481 -14.8605,-27.72587 -2.8,-1.42833 -11.2761,-3.58206 -18.8357,-4.78606 l -13.7447,-2.1891 -3.7098,-2.73043 c -2.0404,-1.50173 -4.9943,-5.07611 -6.5642,-7.94307 l -2.8544,-5.21265 3.9608,-9.64399 3.9608,-9.644 -1.5034,-2.80891 c -3.4503,-6.44648 -14.0583,-7.67926 -24.1297,-2.80416 -6.6,3.19473 -10.0347,7.31918 -11.6237,13.95775 -1.4091,5.88753 -2.9175,7.35395 -8.6753,8.43404 -9.8859,1.85444 -19.8342,14.04461 -21.8747,26.80399 l -0.9437,5.90132 5.911,12.04888 c 3.2511,6.62688 7.3158,16.46862 9.0327,21.87055 l 3.1217,9.82167 3.3224,0.8338 c 1.8273,0.45859 4.1974,2.58376 5.2669,4.7226 2.6026,5.20514 4.3692,7.52486 5.7305,7.52486 0.6203,0 5.9369,-3.76258 11.8147,-8.3613 z m 90.69112,-27.99303 c 12.37144,-7.64535 24.59225,-36.25867 26.40324,-61.8195 l 0.82437,-11.63541 -2.33586,-9.90727 c -3.26259,-13.83789 -8.60991,-24.39897 -17.00333,-33.58196 -8.70762,-9.52676 -17.71164,-15.48191 -31.18864,-20.62791 l -10.1441,-3.87333 -17.4545,-0.93912 -17.4545,-0.93911 -2.6739,3.32962 c -3.0957,3.85482 -9.8313,7.63307 -13.6175,7.6386 -1.4398,0.002 -10.2845,3.99332 -19.655,8.86937 l -17.0373,8.86554 -5.9561,6.46106 -5.9561,6.46106 0.4479,5.32403 0.448,5.32404 4.6448,2.70211 4.6448,2.7021 19.3552,1.34992 c 17.6951,1.23414 21.4916,1.67967 31.3149,3.67497 1.7779,0.36111 4.5597,2.08104 6.1818,3.82206 l 2.9494,3.1655 v 4.14697 c 0,2.28084 -1.3091,6.7128 -2.9091,9.8488 -1.6,3.13601 -2.9091,7.39388 -2.9091,9.46195 v 3.76012 l 3.4586,3.45832 c 3.7725,3.77221 9.2557,5.53351 25.0313,8.04052 17.1286,2.72201 24.6862,9.54864 28.9729,26.17054 3.4796,13.49229 3.6864,13.64792 11.61782,8.74641 z m -126.50812,-48.83326 6.3863,-6.38583 5.878,-0.93984 5.8779,-0.93984 1.4991,-5.56669 c 1.7592,-6.53284 7.4834,-13.82688 12.0319,-15.33161 l 3.2088,-1.06155 -3.6363,-1.05285 c -2,-0.57906 -7.9358,-1.11808 -13.1906,-1.19782 -5.2548,-0.0797 -12.9413,-1.15077 -17.0812,-2.38008 l -7.527,-2.2351 -2.351,-4.54597 -2.351,-4.54596 1.7193,-5.73816 1.7194,-5.73816 6.6535,-6.46598 6.6536,-6.46599 13.5371,-6.49665 c 7.4454,-3.57315 13.896,-7.07746 14.3348,-7.78736 0.4388,-0.7099 0.3056,-2.61569 -0.2959,-4.2351 l -1.0938,-2.94439 -7.9476,2.69194 -7.9477,2.69194 -9.5069,10.09661 c -5.2288,5.55314 -13.4341,14.28889 -18.2341,19.41279 -13.2083,14.09954 -26.3795,20.77151 -48.3056,24.46953 l -10.3654,1.74821 5.5607,5.02333 5.5606,5.02333 4.7039,9.79748 4.7039,9.79748 9.8462,4.03504 9.8463,4.03505 9.2055,8.46597 9.2054,8.46597 2.6578,-8.65695 2.6577,-8.65696 z m -124.5505,-15.94304 c 6.8879,-2.89228 16.4366,-6.26794 21.2193,-7.50146 l 8.6958,-2.24276 7.6209,0.78649 c 9.7694,1.0082 15.4559,4.41237 21.5827,12.92011 4.3084,5.98271 10.8593,11.51948 10.8593,9.17823 0,-1.61313 -7.2093,-14.59392 -9.7664,-17.58516 -4.3997,-5.14651 -11.571,-9.32693 -15.9127,-9.27618 -2.2765,0.0266 -11.7224,1.57806 -20.9909,3.44767 l -16.8518,3.3993 -9.3723,4.4726 c -7.9701,3.80345 -28.9241,18.15432 -28.9241,19.80935 0,0.29525 4.3463,-2.3176 9.6584,-5.80633 5.3121,-3.48874 15.294,-8.70957 22.1818,-11.60186 z m -3.176,-6.29274 c 4.9654,-2.50017 14.0061,-6.21675 20.0906,-8.25906 l 11.0626,-3.7133 11.1822,0.24305 c 19.4837,0.42347 38.6571,-3.83805 54.3813,-12.08691 l 8.29,-4.3489 8.4373,-9.00455 c 4.6405,-4.9525 11.8622,-13.00336 16.0483,-17.89079 l 7.6111,-8.88625 8.9849,-4.48944 c 4.9417,-2.46919 10.2498,-4.48944 11.7959,-4.48944 1.546,0 4.4533,-1.29178 6.4606,-2.87062 2.0074,-1.57885 5.8743,-3.28792 8.5931,-3.79794 2.7188,-0.51001 4.9434,-1.62927 4.9434,-2.48724 0,-0.85797 -3.1137,-4.56081 -6.9192,-8.22855 l -6.9191,-6.6686 -5.9769,-1.79058 c -3.2873,-0.98482 -10.0125,-1.79058 -14.9449,-1.79058 h -8.9681 l -9.045,3.02939 c -16.0489,5.37515 -26.6859,13.07369 -54.1275,39.17489 -17.7476,16.88068 -23.8428,21.67795 -34.1903,26.9099 -14.8056,7.48611 -31.3842,9.86509 -45.8181,6.57475 l -5.8182,-1.3263 3.3863,2.7769 c 1.8624,1.52729 6.9056,3.8862 11.2071,5.24202 4.3015,1.35581 7.5111,2.96646 7.1323,3.57921 -0.3787,0.61274 -4.4401,2.19656 -9.0253,3.51959 -9.42,2.71806 -20.9418,8.57838 -24.4188,12.42018 l -2.3278,2.572 5.7436,-0.77031 5.7436,-0.77032 0.896,1.44969 c 0.4929,0.79733 -0.5616,3.30261 -2.3431,5.56729 l -3.2392,4.11761 6.5317,-4.48051 c 3.5925,-2.46428 10.5943,-6.52611 15.5596,-9.02628 z m -829.6828,0.81694 c -0.6398,-1.03823 -3.9305,-5.49634 -7.3128,-9.90692 -7.075,-9.22592 -9.7381,-15.91347 -11.2307,-28.20214 -0.583,-4.79961 -2.3109,-14.85266 -3.8398,-22.34012 -1.529,-7.48745 -2.7735,-15.99585 -2.7657,-18.90755 0.017,-6.36422 4.8499,-17.173 12.4878,-27.92947 3.0881,-4.34912 4.6476,-7.1782 3.4655,-6.28684 -22.34,16.84496 -31.9148,22.16368 -42.0625,23.36543 l -6.9591,0.82414 -4.9385,-1.62973 c -2.7162,-0.89635 -6.8424,-3.39493 -9.1693,-5.55239 l -4.2307,-3.92267 1.7804,-0.59344 c 0.9793,-0.3264 2.9121,0.43049 4.295,1.68198 1.383,1.25148 5.051,3.33511 8.151,4.63029 l 5.6365,2.35487 5.2194,-0.96908 c 6.9702,-1.29415 22.113,-9.39096 32.8557,-17.56793 4.8,-3.65357 10.1818,-7.22491 11.9594,-7.9363 3.4516,-1.38127 5.3146,-6.22774 4.5248,-11.77113 l -0.4842,-3.39853 -6.2897,-3.46285 c -3.4594,-1.90457 -7.0232,-5.07233 -7.9196,-7.03946 -0.8964,-1.96714 -3.4659,-4.52608 -5.7102,-5.68653 -2.2442,-1.16045 -4.0946,-3.23847 -4.1119,-4.61781 l -0.032,-2.5079 -4.6958,-2.18164 -4.6958,-2.18164 0.4275,-6.82318 0.4275,-6.82317 -2.6093,-1.39332 c -1.4351,-0.76633 -8.5002,-1.31259 -15.7002,-1.21391 l -13.091,0.1794 -3.6363,-2.00534 c -2,-1.10293 -6.4756,-4.49142 -9.9457,-7.52997 -3.4701,-3.03854 -9.1466,-6.89805 -12.6145,-8.57668 l -6.3052,-3.05206 -10.1355,-0.84965 c -5.5745,-0.46731 -11.778,-0.43743 -13.7855,0.0664 l -3.6502,0.91606 -1.5999,4.58908 c -4.0549,11.63107 -1.0391,20.64837 11.4717,34.3006 l 8.7647,9.5644 2.1728,7.31589 c 1.195,4.02373 2.1727,9.99668 2.1727,13.27321 v 5.95732 l -2.2643,3.23247 -2.2643,3.23247 h -4.3533 c -5.6932,0 -12.494,3.58762 -13.639,7.1949 l -0.9089,2.86353 2.3078,4.06095 2.3079,4.06096 -0.8378,-4.48788 -0.8378,-4.48787 2.7868,-3.44137 2.7869,-3.44137 5.56,0.15759 5.5599,0.15759 1.8981,2.59554 c 1.0439,1.42755 1.898,4.06805 1.898,5.86778 0,4.9238 2.1838,5.32085 6.9959,1.27201 2.3833,-2.00519 5.9912,-3.64579 8.0176,-3.64579 h 3.6845 l 2.874,3.65335 2.8739,3.65336 -0.7807,2.98523 c -0.4294,1.64188 -2.3849,4.03625 -4.3456,5.32083 l -3.5648,2.33559 -11.5138,0.66647 c -6.3325,0.36655 -11.5137,1.14274 -11.5137,1.72487 0,0.58212 2.1949,3.93411 4.8776,7.44887 2.6827,3.51475 6.441,9.33568 8.3518,12.93538 l 3.4741,6.54492 -0.2664,16.26465 -0.2664,16.26465 -2.2672,7.63377 c -1.2469,4.19858 -2.2671,7.80602 -2.2671,8.01654 0,0.21053 3.7636,-1.34594 8.3636,-3.45881 l 8.3636,-3.84159 12.7918,-0.62222 12.7917,-0.62221 10.384,2.52362 c 12.5262,3.04425 29.7573,10.19288 39.6689,16.45732 8.2761,5.23077 8.5739,5.34868 6.9814,2.76418 z m -86.9817,-96.15216 c 4.6454,-3.04359 4.635,-6.28643 -0.027,-8.41043 l -3.6637,-1.66916 -4.0523,3.88198 c -4.2342,4.05634 -9.5256,5.08117 -11.312,2.19091 -0.5749,-0.93009 -1.4586,-3.71168 -1.9637,-6.18132 l -0.9184,-4.49023 h -5.0313 -5.0313 l -0.4406,5.2732 -0.4407,5.2732 2.4121,2.41191 2.4121,2.41191 2.7558,-0.8746 2.7559,-0.87459 v 2.47878 2.47878 l 9.4541,-0.75883 9.4542,-0.75883 z"
         id="path2" /></g></g></svg>
