<?xml version="1.0" encoding="UTF-8" standalone="no"?>
<!-- Created with Inkscape (http://www.inkscape.org/) -->

<svg
   width="122.50208mm"
   height="49.775642mm"
   viewBox="0 0 122.50208 49.775642"
   version="1.1"
   id="svg1"
   inkscape:version="1.4.3 (0d15f75, 2025-12-25)"
   sodipodi:docname="ear-to-shouldersvg"
   xmlns:inkscape="http://www.inkscape.org/namespaces/inkscape"
   xmlns:sodipodi="http://sodipodi.sourceforge.net/DTD/sodipodi-0.dtd"
   xmlns="http://www.w3.org/2000/svg"
   xmlns:svg="http://www.w3.org/2000/svg">
  <sodipodi:namedview
     id="namedview1"
     pagecolor="#ffffff"
     bordercolor="#000000"
     borderopacity="0.25"
     inkscape:showpageshadow="2"
     inkscape:pageopacity="0.0"
     inkscape:pagecheckerboard="0"
     inkscape:deskcolor="#d1d1d1"
     inkscape:document-units="mm"
     inkscape:zoom="0.042760943"
     inkscape:cx="222.16535"
     inkscape:cy="105.23622"
     inkscape:window-width="944"
     inkscape:window-height="250"
     inkscape:window-x="0"
     inkscape:window-y="34"
     inkscape:window-maximized="0"
     inkscape:current-layer="layer1" />
  <defs
     id="defs1" />
  <g
     inkscape:label="Layer 1"
     inkscape:groupmode="layer"
     id="layer1"
     transform="translate(-40.745833,-120.65)">
    <g
       id="g503"
       transform="translate(-82.156367,39.025341)">
      <path
         style="fill:#000000"
         d="m 122.90223,131.16805 c 0,-0.17248 2.93212,-0.29675 8.26823,-0.35042 7.64333,-0.0769 8.34821,-0.12315 9.32656,-0.61232 1.7039,-0.85195 2.27469,-2.20047 2.56066,-6.04966 0.42625,-5.73744 0.94169,-9.09676 1.62469,-10.58863 0.73581,-1.60721 2.13719,-3.11408 3.56074,-3.82876 1.38368,-0.69467 6.65923,-2.45958 6.90252,-2.30922 0.31748,0.19621 1.62326,-1.9961 1.62326,-2.72533 0,-1.04451 -2.28339,-3.0874 -3.65675,-3.27161 -2.08561,-0.27974 -4.95208,-3.072747 -4.06451,-3.960326 0.2138,-0.213791 0.0713,-0.544731 -0.52889,-1.228309 -0.45185,-0.514621 -1.24798,-1.833643 -1.76919,-2.931162 -0.82471,-1.736597 -0.94793,-2.253277 -0.94977,-3.982491 -0.002,-1.524969 0.12923,-2.233097 0.56278,-3.045338 0.85437,-1.600655 2.41415,-3.026682 4.27199,-3.905674 1.51586,-0.717189 1.85951,-0.779262 3.70417,-0.669074 1.40796,0.0841 2.39283,0.306326 3.20233,0.722565 1.37137,0.705148 3.37377,2.683886 4.11666,4.068014 0.33693,0.627774 0.71369,0.975438 1.05833,0.976602 1.0806,0.0037 1.70339,1.531107 2.76614,6.78427 1.82337,9.012933 3.2519,10.879423 10.6013,13.851423 3.77782,1.5277 5.43963,2.52845 6.83944,4.11871 l 1.01038,1.14785 1.30061,-1.331 c 1.61225,-1.64993 2.59319,-2.23527 6.54402,-3.9049 1.7197,-0.72675 3.74174,-1.71557 4.49341,-2.19737 0.75167,-0.4818 1.45921,-0.84583 1.57232,-0.80895 0.31815,0.10373 2.02548,-2.70728 2.83118,-4.66136 0.71189,-1.726562 0.90406,-2.586206 1.74823,-7.820458 0.53208,-3.299125 1.23429,-4.887196 2.25094,-5.090525 0.49954,-0.09991 0.84535,-0.406576 1.06998,-0.948864 0.51752,-1.249411 2.96148,-3.576236 4.51673,-4.300261 1.95222,-0.908826 4.80593,-0.922404 6.71818,-0.03196 3.82978,1.783332 5.60235,5.460781 4.48871,9.312471 -0.47996,1.659988 -1.87834,4.185629 -2.75851,4.982169 -0.42422,0.383918 -0.46866,0.570393 -0.2278,0.95606 0.63035,1.009349 -2.06396,3.572688 -3.99108,3.797068 -1.08539,0.12638 -2.61236,1.31309 -3.15572,2.45253 -0.37001,0.77592 -0.3837,1.03566 -0.0928,1.75964 0.61241,1.52401 0.60755,1.67888 -0.0784,2.49408 -2.17497,2.5848 -6.1571,2.11147 -8.00394,-0.95139 -0.87491,-1.45097 -1.25895,-2.791 -1.56358,-5.45583 -0.17578,-1.53767 -0.19079,-1.56258 -0.47825,-0.79375 -0.4532,1.21215 -1.20776,2.52319 -2.20537,3.83182 -0.76944,1.00931 -0.87836,1.32325 -0.73123,2.10752 0.36779,1.96048 1.82436,3.67739 3.74065,4.40923 1.78138,0.68031 4.87056,0.41424 6.69042,-0.57626 1.50299,-0.81802 2.53182,-1.68368 3.26317,-2.74564 l 0.44507,-0.64624 2.58525,0.73909 c 4.81105,1.37541 6.69025,2.59824 8.03071,5.22575 0.90217,1.76841 1.28108,3.35118 1.57341,6.57244 0.7253,7.99218 0.97223,9.05335 2.31736,9.95849 1.45717,0.98054 3.11816,1.15401 11.04971,1.15401 5.08993,0 7.5276,0.0901 7.5276,0.27833 0,0.19056 -2.64926,0.25314 -8.40052,0.19844 -7.98522,-0.0759 -8.46231,-0.10844 -9.65024,-0.65721 -2.24589,-1.0375 -2.70577,-2.28636 -3.24622,-8.8154 -0.48869,-5.90378 -0.96524,-7.67975 -2.67338,-9.96294 -0.90621,-1.21128 -2.13537,-1.87796 -5.59273,-3.03341 l -3.07188,-1.02662 -1.39075,1.42446 c -1.96975,2.01749 -4.26113,2.90481 -7.15886,2.77223 -3.69333,-0.16899 -6.09633,-2.03158 -6.37599,-4.94213 l -0.12606,-1.31186 -1.50374,0.89576 c -0.82705,0.49268 -2.56568,1.32399 -3.86362,1.84736 -1.29794,0.52337 -2.90471,1.22767 -3.57061,1.5651 -1.4358,0.72758 -3.86914,2.85118 -4.09981,3.57795 -0.0994,0.31325 0.20671,1.33207 0.78528,2.61349 1.91091,4.23222 2.54758,9.18135 1.59415,12.3919 -1.11442,3.75265 -5.19988,3.57898 -6.34279,-0.26963 -0.92776,-3.12409 -0.0748,-8.37326 2.11142,-12.99467 l 0.72224,-1.52668 -0.7731,-0.97109 c -1.14663,-1.44028 -3.68415,-3.03897 -6.61122,-4.16521 -1.42777,-0.54936 -2.83407,-1.13911 -3.12511,-1.31056 -2.86069,-1.68517 -3.10152,-1.78597 -2.92297,-1.22341 0.29165,0.91891 -0.36716,2.67858 -1.43765,3.83993 -2.82066,3.06006 -9.01406,2.60429 -12.29648,-0.90488 l -1.18727,-1.26929 -2.84399,0.92194 c -3.90141,1.26472 -5.2594,2.05125 -6.33276,3.66785 -1.25408,1.88876 -1.88485,4.67731 -2.20471,9.74664 -0.37521,5.94656 -0.86269,7.29936 -3.05334,8.47332 -1.00721,0.53976 -1.46412,0.57131 -9.45885,0.653 -5.53672,0.0566 -8.40052,-0.005 -8.40052,-0.18143 z m 62.53234,-0.84499 c 1.743,-1.37104 1.98654,-6.55529 0.52757,-11.23025 -0.60557,-1.94041 -1.7121,-4.36563 -1.99186,-4.36563 -0.34444,0 -1.44613,2.5892 -2.17969,5.12271 -1.33481,4.61009 -1.13773,8.49543 0.51474,10.1479 1.02678,1.02678 2.09611,1.13793 3.12924,0.32527 z m -18.33236,-19.64135 c 1.36955,-0.80325 2.40665,-2.39585 2.44517,-3.75488 0.0166,-0.58462 -0.26273,-1.322 -0.82024,-2.16546 -2.02399,-3.06214 -3.02375,-5.750115 -3.74778,-10.076375 -0.29563,-1.766501 -0.5593,-2.260614 -0.90651,-1.698814 -0.0746,0.120678 0.0462,0.805288 0.26853,1.521354 0.86969,2.801789 -0.0558,6.274035 -2.10643,7.903005 -0.90311,0.71741 -1.21235,0.80727 -2.77812,0.80727 -0.96904,0 -2.11585,-0.0982 -2.54846,-0.21828 -0.74871,-0.20777 -0.76562,-0.19503 -0.35134,0.26458 1.01038,1.12099 0.82886,2.66746 -0.45257,3.85567 l -0.69724,0.64652 1.27615,1.06363 c 2.50947,2.09159 4.23949,2.73343 7.09698,2.63301 1.73308,-0.0609 2.33508,-0.20248 3.32186,-0.78123 z m 42.95975,-2.18315 c 0.83232,-0.54536 1.07146,-1.34581 0.6966,-2.33174 -0.40248,-1.05861 -0.34414,-2.07716 0.1602,-2.79722 0.43845,-0.62597 0.43769,-0.62686 -0.33073,-0.3913 -0.4236,0.12985 -1.49352,0.23687 -2.3776,0.2378 -1.32139,0.001 -1.80754,-0.13079 -2.73204,-0.74293 -2.08111,-1.37794 -3.08625,-4.743679 -2.30737,-7.72631 0.25955,-0.993919 0.31855,-1.66733 0.15999,-1.825894 -0.13817,-0.138167 -0.30609,-0.196338 -0.37316,-0.129267 -0.26091,0.260905 -0.72104,5.003181 -0.73157,7.539731 -0.0242,5.81699 2.14898,9.10611 5.78205,8.75135 0.75102,-0.0733 1.67515,-0.33623 2.05363,-0.58422 z m -48.15712,-6.56786 c 1.93751,-1.47781 2.80027,-4.850251 1.90957,-7.464309 -0.54532,-1.600431 -0.54337,-1.628281 0.12935,-1.841794 0.47431,-0.150538 0.53993,-0.329624 0.42762,-1.166939 -0.25616,-1.909826 -1.78165,-4.526886 -1.78165,-3.056517 0,0.742655 -0.39544,0.379266 -1.05071,-0.965551 -2.72083,-5.584007 -9.03669,-6.961934 -13.22257,-2.88476 -3.01783,2.939461 -2.68912,7.352795 0.87342,11.726632 1.37445,1.687461 1.46047,1.890088 0.69986,1.648679 -1.2231,-0.388196 -0.14149,1.209344 1.54134,2.276559 1.32591,0.84087 1.88362,0.98927 1.36377,0.36288 -0.61852,-0.745272 -0.099,-0.655124 1.03634,0.17984 2.94912,2.1688 6.16518,2.64095 8.07366,1.18528 z m 49.11003,0.27632 c 0.80388,-0.33075 2.02427,-0.98849 2.71198,-1.46164 1.15148,-0.792247 1.68485,-0.846007 0.93287,-0.094 -0.62887,0.62887 0.24718,0.31106 1.40229,-0.50871 1.81258,-1.286388 2.69325,-2.568207 1.56105,-2.27213 -0.78278,0.204701 -0.66057,-0.08714 0.70348,-1.679977 0.67796,-0.791667 1.6007,-2.2133 2.05053,-3.159186 0.69166,-1.454423 0.81692,-2.025986 0.81173,-3.704166 -0.007,-2.251995 -0.52665,-3.521617 -2.0212,-4.937844 -1.67939,-1.591381 -2.99231,-2.073615 -5.64558,-2.073615 -2.10609,0 -2.5206,0.08192 -3.5871,0.708913 -1.58084,0.929373 -3.1397,2.658293 -3.95305,4.384317 -0.36001,0.763984 -0.75826,1.389062 -0.885,1.389062 -0.12673,0 -0.16189,-0.178594 -0.0781,-0.396875 0.0943,-0.245847 -10e-4,-0.396875 -0.25115,-0.396875 -0.45039,0 -1.29543,1.733818 -1.56859,3.218365 -0.15223,0.827371 -0.0933,1.014959 0.40255,1.280303 0.62146,0.332596 0.62114,0.396636 -0.0152,3.029885 -0.58782,2.432619 0.45726,5.322353 2.36159,6.530053 1.49042,0.94519 3.01454,0.98855 5.06689,0.14414 z"
         id="path324" />
    </g>
  </g>
</svg>
