<?xml version="1.0" encoding="UTF-8" standalone="no"?>
<!-- Created with Inkscape (http://www.inkscape.org/) -->

<svg
   width="123.03128mm"
   height="57.381451mm"
   viewBox="0 0 123.03128 57.381451"
   version="1.1"
   id="svg1"
   xml:space="preserve"
   inkscape:version="1.4.3 (0d15f75, 2025-12-25)"
   sodipodi:docname="neck-rolls.svg"
   xmlns:inkscape="http://www.inkscape.org/namespaces/inkscape"
   xmlns:sodipodi="http://sodipodi.sourceforge.net/DTD/sodipodi-0.dtd"
   xmlns="http://www.w3.org/2000/svg"
   xmlns:svg="http://www.w3.org/2000/svg"><sodipodi:namedview
     id="namedview1"
     pagecolor="#ffffff"
     bordercolor="#000000"
     borderopacity="0.25"
     inkscape:showpageshadow="2"
     inkscape:pageopacity="0.0"
     inkscape:pagecheckerboard="0"
     inkscape:deskcolor="#d1d1d1"
     inkscape:document-units="mm"
     inkscape:zoom="0.39996977"
     inkscape:cx="613.79638"
     inkscape:cy="110.00831"
     inkscape:window-width="1384"
     inkscape:window-height="795"
     inkscape:window-x="165"
     inkscape:window-y="70"
     inkscape:window-maximized="0"
     inkscape:current-layer="layer1" /><defs
     id="defs1" /><g
     inkscape:label="Layer 1"
     inkscape:groupmode="layer"
     id="layer1"
     transform="translate(1.9814,-74.27226)"><g
       id="g502"><path
         style="fill:#000000"
         d="m 82.42098,104.93737 c 0,-0.14552 0.41672,-0.26458 0.92604,-0.26458 0.50932,0 0.92604,0.11906 0.92604,0.26458 0,0.14552 -0.41672,0.26459 -0.92604,0.26459 -0.50932,0 -0.92604,-0.11907 -0.92604,-0.26459 z"
         id="path354" /><path
         style="fill:#000000"
         d="m 76.44967,104.96467 c 0.47805,-0.18723 1.73797,-0.0887 1.73797,0.13588 0,0.0558 -0.50601,0.0931 -1.12447,0.0829 -0.79553,-0.0132 -0.975,-0.0771 -0.6135,-0.21873 z"
         id="path353" /><path
         style="fill:#000000"
         d="m 86.059,105.68822 c -0.40018,-0.14597 -0.72761,-0.37469 -0.72761,-0.50809 0,-0.30396 0.0109,-0.30345 1.01886,0.0479 0.45827,0.15976 0.83323,0.39789 0.83323,0.52917 0,0.28818 -0.17663,0.27737 -1.12448,-0.0688 z"
         id="path352" /><path
         style="fill:#000000"
         d="m 79.84129,105.90382 c -1.11399,-0.36545 -1.08736,-0.60026 0.0932,-0.82173 1.01668,-0.19073 1.5115,0.006 0.92575,0.36796 -0.2808,0.17354 -0.25161,0.27925 0.13995,0.50674 0.6318,0.36706 0.0389,0.33996 -1.15888,-0.053 z"
         id="path351" /><path
         style="fill:#000000"
         d="m 73.16056,106.02784 c 0,-0.28952 1.54999,-0.95155 1.75286,-0.74868 0.0816,0.0816 -0.21394,0.33577 -0.6568,0.56478 -0.92476,0.47821 -1.09606,0.50696 -1.09606,0.1839 z"
         id="path350" /><path
         style="fill:#000000"
         d="m 76.60014,107.06087 c 0,-0.29305 1.57148,-1.16935 1.75962,-0.98121 0.12525,0.12525 -1.31482,1.239 -1.60202,1.239 -0.0867,0 -0.1576,-0.11601 -0.1576,-0.25779 z"
         id="path349" /><path
         style="fill:#000000"
         d="m 88.6743,107.16444 c -0.41697,-0.36667 -0.68858,-0.73622 -0.60357,-0.82123 0.24664,-0.24663 1.494,0.68333 1.494,1.11384 0,0.4962 0.0106,0.49967 -0.89043,-0.29261 z"
         id="path348" /><path
         style="fill:#000000"
         d="m 82.68556,107.84783 c -0.31086,-0.43657 -0.45878,-0.79375 -0.32872,-0.79375 0.27031,0 1.38705,1.13208 1.38705,1.40611 0,0.43094 -0.53646,0.12053 -1.05833,-0.61236 z"
         id="path347" /><path
         style="fill:#000000"
         d="m 74.21889,108.91226 c 0,-0.3418 1.29372,-1.18183 1.50095,-0.9746 0.0888,0.0888 -0.12324,0.39866 -0.47128,0.6885 -0.70226,0.58483 -1.02967,0.6758 -1.02967,0.2861 z"
         id="path346" /><path
         style="fill:#000000"
         d="m 91.02135,109.95146 c -0.12527,-0.21111 -0.39889,-0.65173 -0.60804,-0.97916 -0.23924,-0.37451 -0.27312,-0.59531 -0.0914,-0.59531 0.39232,0 1.17098,1.22685 1.03588,1.63214 -0.0798,0.23945 -0.16928,0.22411 -0.33648,-0.0577 z"
         id="path345" /><path
         style="fill:#000000"
         d="m 84.61462,111.55199 c -0.51557,-1.25887 -0.64096,-1.85208 -0.39149,-1.85208 0.3563,0 0.9123,1.45334 0.77646,2.02959 -0.0973,0.41281 -0.1539,0.38672 -0.38497,-0.17751 z"
         id="path344" /><path
         style="fill:#000000"
         d="m 91.87673,112.87491 c -0.3507,-0.92091 -0.45398,-1.85208 -0.20542,-1.85208 0.32844,0 0.62582,1.11362 0.47134,1.76501 -0.0928,0.3914 -0.14368,0.40805 -0.26592,0.0871 z"
         id="path343" /><path
         style="fill:#000000"
         d="m 70.78773,112.94101 c 0.015,-0.35482 0.77551,-1.22249 0.93322,-1.06478 0.18238,0.18239 -0.45137,1.26322 -0.7407,1.26322 -0.11052,0 -0.19715,-0.0893 -0.19252,-0.19844 z"
         id="path342" /><path
         style="fill:#000000"
         d="m 84.80628,114.39622 c -0.002,-0.69122 0.11501,-1.25677 0.26053,-1.25677 0.33805,0 0.33805,1.59357 0,2.11667 -0.1855,0.28704 -0.2576,0.0491 -0.26053,-0.8599 z"
         id="path341" /><path
         style="fill:#000000"
         d="m 91.69999,115.73475 c 0.0102,-0.33601 0.12092,-0.84905 0.24599,-1.14009 0.18326,-0.42647 0.231,-0.33964 0.24598,0.44741 0.0102,0.53711 -0.10046,1.05015 -0.24598,1.14009 -0.14874,0.0919 -0.25644,-0.10396 -0.24599,-0.44741 z"
         id="path340" /><path
         style="fill:#000000"
         d="m 66.81056,117.16363 c 0,-0.35707 1.3009,-1.48856 1.49187,-1.29759 0.0941,0.0941 0.015,0.35901 -0.17563,0.58876 -0.44508,0.53628 -1.31624,1.00543 -1.31624,0.70883 z"
         id="path339" /><path
         style="fill:#000000"
         d="m 83.74389,118.4706 c 0,-0.51076 0.59832,-1.89156 0.81964,-1.89156 0.3486,0 0.29297,0.45048 -0.16497,1.33605 -0.39999,0.7735 -0.65467,0.9896 -0.65467,0.55551 z"
         id="path338" /><path
         style="fill:#000000"
         d="m 64.69389,118.4157 c 0,-0.28764 1.05451,-0.87031 1.23978,-0.68504 0.0749,0.0749 0.0665,0.24874 -0.0185,0.38638 -0.20979,0.33944 -1.22125,0.5868 -1.22125,0.29866 z"
         id="path337" /><path
         style="fill:#000000"
         d="m 90.62306,118.81489 c 0,-0.08 0.20237,-0.52647 0.44971,-0.99218 0.33556,-0.63183 0.47413,-0.73275 0.5459,-0.3976 0.11304,0.52786 -0.37274,1.53522 -0.74033,1.53522 -0.14041,0 -0.25528,-0.0654 -0.25528,-0.14544 z"
         id="path336" /><path
         style="fill:#000000"
         d="m 61.78348,119.279 c 0,-0.27423 1.58688,-0.67207 1.80615,-0.4528 0.20416,0.20416 -0.005,0.31953 -0.94626,0.52112 -0.49819,0.10673 -0.85989,0.078 -0.85989,-0.0683 z"
         id="path335" /><path
         style="fill:#000000"
         d="m 58.87306,119.2249 c 0,-0.14552 0.41672,-0.26458 0.92604,-0.26458 0.50933,0 0.92604,0.11906 0.92604,0.26458 0,0.14552 -0.41671,0.26458 -0.92604,0.26458 -0.50932,0 -0.92604,-0.11906 -0.92604,-0.26458 z"
         id="path334" /><path
         style="fill:#000000"
         d="m 88.95513,121.42548 c -0.0909,-0.14714 0.18762,-0.60567 0.61901,-1.01897 0.92973,-0.89074 1.05365,-0.46588 0.16533,0.56685 -0.35094,0.408 -0.6906,0.60379 -0.78434,0.45212 z"
         id="path333" /><path
         style="fill:#000000"
         d="m 81.74278,121.31449 c -0.0998,-0.16153 0.19053,-0.6657 0.64523,-1.1204 0.97411,-0.97411 1.117,-0.46452 0.1815,0.64727 -0.41018,0.48746 -0.71135,0.65982 -0.82673,0.47313 z"
         id="path332" /><path
         style="fill:#000000"
         d="m 68.5247,122.65823 c -0.31965,-0.3532 -0.39544,-0.62453 -0.22272,-0.79725 0.17273,-0.17273 0.47991,-0.013 0.9026,0.46927 0.35242,0.40211 0.46991,0.58228 0.26108,0.40038 -0.53199,-0.46341 -0.93666,-0.41369 -0.53843,0.0661 0.49343,0.59455 0.15571,0.47831 -0.40253,-0.13854 z"
         id="path331" /><path
         style="fill:#000000"
         d="m 87.18348,122.79677 c 0.34177,-0.3638 0.8,-0.66145 1.01828,-0.66145 0.2929,0 0.23408,0.17328 -0.22453,0.66145 -0.34178,0.36381 -0.8,0.66146 -1.01829,0.66146 -0.2929,0 -0.23407,-0.17329 0.22454,-0.66146 z"
         id="path330" /><path
         style="fill:#000000"
         d="m 79.64285,122.78877 c 0.83411,-0.68371 1.19063,-0.8092 1.19063,-0.4191 0,0.30263 -1.20211,1.09162 -1.64434,1.07925 -0.18702,-0.005 0.0172,-0.3023 0.45371,-0.66015 z"
         id="path329" /><path
         style="fill:#000000"
         d="m 84.27513,124.58291 c 0.003,-0.27269 1.37844,-0.8905 1.56574,-0.7032 0.1937,0.1937 -0.76539,0.90164 -1.2215,0.90164 -0.19047,0 -0.34538,-0.0893 -0.34424,-0.19844 z"
         id="path328" /><path
         style="fill:#000000"
         d="m 73.49129,125.39987 c -0.72662,-0.2932 -0.32896,-0.8831 0.59531,-0.8831 0.91857,0 1.35143,0.51208 0.46302,0.54776 -0.39593,0.0159 -0.38635,0.0515 0.0661,0.24599 0.48197,0.2071 0.47017,0.22718 -0.13229,0.22509 -0.3638,-0.001 -0.81029,-0.0623 -0.99219,-0.13574 z"
         id="path327" /><path
         style="fill:#000000"
         d="m 81.75207,125.56305 c -0.22859,-0.36987 1.2164,-0.86921 1.54999,-0.53562 0.25189,0.2519 0.10855,0.34475 -1.07105,0.69379 -0.17724,0.0524 -0.39276,-0.0187 -0.47894,-0.15817 z"
         id="path326" /><path
         style="fill:#000000"
         d="m 78.82587,125.80209 c -0.0772,-0.12484 0.28346,-0.22699 0.80137,-0.22699 0.51791,0 0.94138,0.0893 0.94105,0.19844 -8.5e-4,0.27893 -1.57177,0.30467 -1.74242,0.0285 z"
         id="path325" /><path
         style="fill:#000000"
         d="m -1.9811,131.32979 c 1e-5,-0.2607 3.29134,-0.33315 15.54427,-0.34214 16.81157,-0.0123 17.97205,-0.0937 19.14475,-1.34197 1.13929,-1.21271 0.92409,-2.62266 -2.15593,-14.12475 -0.96686,-3.6107 -0.9278,-5.10199 0.17141,-6.54312 0.38934,-0.51045 1.24471,-1.16556 1.90083,-1.45579 1.04316,-0.46144 1.32912,-0.48742 2.27765,-0.20693 2.83809,0.83926 5.77281,5.95629 7.96871,13.89438 0.40255,1.45521 1.01263,3.64142 1.35573,4.85825 0.3431,1.21682 0.62383,2.46103 0.62383,2.76489 0,1.20323 -0.51334,-0.11808 -1.57395,-4.05126 -0.60823,-2.25557 -1.51221,-5.32314 -2.00885,-6.81681 -2.28223,-6.86401 -5.40472,-10.9487 -7.71598,-10.09371 -0.70906,0.2623 -1.00086,1.56322 -0.79595,3.5486 0.18243,1.76757 4.06355,17.17579 4.57592,18.16661 0.20929,0.40473 0.63891,0.87415 0.95471,1.04316 0.6658,0.35633 17.27802,0.37255 18.60264,0.0182 1.04761,-0.28028 1.10253,-0.94008 0.41014,-4.92742 -0.29834,-1.7181 -0.54244,-3.89344 -0.54244,-4.8341 0,-1.48778 -0.0688,-1.7283 -0.52916,-1.84867 -0.59834,-0.15647 -0.721,-0.60583 -0.16537,-0.60583 0.20009,0 0.43822,-0.37207 0.52917,-0.82682 0.33058,-1.6529 0.27356,-1.74168 -1.2237,-1.9051 -0.76398,-0.0834 -1.70103,-0.22811 -2.08232,-0.32162 -0.6011,-0.14742 -0.73111,-0.0614 -0.97799,0.64676 -0.28143,0.80732 -0.26956,0.82331 1.02399,1.37978 0.71979,0.30965 1.30872,0.6674 1.30872,0.795 0,0.35222 -0.30738,0.28417 -1.4271,-0.31597 -0.56231,-0.30138 -1.11428,-0.45021 -1.22661,-0.33073 -0.4124,0.4387 -1.08135,4.55345 -1.34692,8.28508 -0.15009,2.10897 -0.32338,3.88499 -0.38509,3.9467 -0.0617,0.0617 -0.19543,0.029 -0.29716,-0.0728 -0.2831,-0.2831 0.39661,-7.9651 0.91576,-10.34982 l 0.45983,-2.11221 -2.90375,-1.42849 c -2.27171,-1.11757 -3.25167,-1.78082 -4.50223,-3.04717 -2.85609,-2.89216 -4.29681,-7.11954 -3.60795,-10.58646 0.72301,-3.638738 2.65026,-6.208106 5.82175,-7.761407 1.2869,-0.630289 1.80984,-0.729091 3.86926,-0.731045 2.0142,-0.0019 2.60705,0.103652 3.84614,0.684857 1.29841,0.609025 1.7061,0.673155 3.58718,0.564261 1.82735,-0.105784 2.34998,-0.03089 3.76063,0.538897 1.42057,0.573792 1.6376,0.604297 1.63276,0.22949 -0.008,-0.589711 -1.05657,-3.403347 -2.28192,-6.120807 -0.95706,-2.122482 -1.01425,-2.397754 -1.01694,-4.894792 -0.003,-2.426499 0.0668,-2.792802 0.83704,-4.418729 1.75647,-3.70767 4.90906,-5.737998 9.27389,-5.972561 4.26491,-0.229194 7.23028,0.712595 9.68458,3.075775 1.43165,1.378495 1.89963,2.151047 2.4734,4.083137 0.71494,2.407483 0.84507,3.913893 0.46143,5.341722 -0.35601,1.325007 -0.35316,1.338908 0.72479,3.533593 1.22874,2.501718 1.17238,3.28193 -0.25778,3.567961 -0.71895,0.143791 -0.80268,0.272481 -0.92818,1.426699 -0.25241,2.321482 -0.8351,4.551528 -1.31417,5.029589 -0.59299,0.59174 -2.79162,0.58965 -4.20722,-0.004 -1.15563,-0.48463 -1.35365,-0.33529 -1.89781,1.43127 -0.19683,0.63899 -0.78442,1.78832 -1.30576,2.55407 -1.20546,1.77059 -1.4549,3.2479 -0.79597,4.71403 0.29696,0.66074 0.6227,1.03333 0.84005,0.96088 0.25279,-0.0843 0.30535,0.0381 0.18254,0.42508 -0.11117,0.35027 0.10503,1.09315 0.60826,2.09005 0.98219,1.94571 2.81458,7.35306 3.23072,9.53383 0.21922,1.14878 0.43611,1.65365 0.71041,1.65365 0.29763,0 0.32327,0.0862 0.10415,0.35026 -0.20417,0.24602 -0.21427,0.81694 -0.0339,1.91823 0.33785,2.06312 0.33549,3.89491 -0.005,3.68463 -0.14552,-0.0899 -0.27645,-0.66251 -0.29096,-1.27239 -0.0435,-1.82776 -0.30522,-2.42171 -1.10856,-2.5155 -0.39443,-0.046 -0.71715,-0.20975 -0.71715,-0.3638 0,-0.17153 0.31493,-0.21709 0.81261,-0.11756 0.67746,0.13549 0.79687,0.086 0.71801,-0.29766 -0.0542,-0.26393 -0.28795,-0.42702 -0.54802,-0.38243 -0.54394,0.0933 -0.61068,-0.43088 -0.0808,-0.63423 0.30541,-0.1172 0.21276,-0.74849 -0.51327,-3.49743 -1.28759,-4.87517 -4.06977,-11.32658 -4.7689,-11.0583 -0.16508,0.0633 -0.81258,-0.11424 -1.43889,-0.39465 -0.6263,-0.28041 -1.15077,-0.47795 -1.16548,-0.43898 -0.0147,0.039 -0.15187,0.298 -0.30479,0.57562 -0.22147,0.4021 -0.0906,0.85772 0.64332,2.23988 1.25511,2.36367 1.58871,3.9799 1.79161,8.6801 0.1696,3.92865 0.18695,4.01982 0.79418,4.17223 0.34144,0.0857 0.6208,0.27487 0.6208,0.42039 0,0.1501 -0.2862,0.19275 -0.66146,0.0986 -0.65368,-0.16406 -0.66144,-0.14623 -0.66047,1.51631 0.001,2.16622 0.61448,3.22702 2.32118,4.01543 l 1.24971,0.57732 23.21719,0.0757 c 15.24837,0.0497 23.21718,0.16652 23.21718,0.34025 0,0.17492 -7.9105,0.23816 -23.34948,0.18666 -24.90321,-0.0831 -24.35168,-0.0539 -25.83097,-1.36688 -1.26158,-1.11977 -1.43616,-2.02101 -1.49203,-7.70241 -0.0507,-5.15746 -0.26572,-7.80521 -0.63381,-7.80521 -0.0999,0 -0.32251,0.14089 -0.49471,0.31309 -0.55293,0.55293 -0.60062,0.0664 -0.0513,-0.5232 l 0.52962,-0.56848 -0.81614,-1.72737 c -0.44888,-0.95005 -0.89683,-1.72435 -0.99544,-1.72065 -0.0986,0.004 -0.89366,0.60447 -1.76679,1.33507 -1.92662,1.61211 -4.67507,3.00674 -7.0776,3.59134 l -1.78594,0.43457 v 1.39514 c 0,0.86816 0.12493,1.44584 0.33073,1.52934 0.25412,0.10311 0.24463,0.19432 -0.041,0.39372 -0.45939,0.32074 -0.27483,3.23072 0.48113,7.58597 0.57723,3.32554 0.42759,4.05622 -0.90318,4.41036 -0.43656,0.11618 -4.78234,0.2286 -9.65729,0.24982 -9.74885,0.0424 -9.94726,0.0144 -10.67449,-1.51064 -0.23606,-0.49502 -1.39633,-4.78353 -2.57839,-9.53002 -1.88084,-7.55242 -2.13632,-8.85786 -2.04607,-10.45508 l 0.10313,-1.82511 -0.75505,0.75505 c -1.57441,1.57441 -1.48138,2.7133 0.98717,12.08479 1.45575,5.52656 1.64277,7.61855 0.7847,8.77789 -1.3171,1.77953 -2.86585,1.92139 -21.07673,1.93057 -11.20452,0.006 -14.22135,-0.063 -14.22135,-0.32356 z M 51.82946,115.7478 c 0.14559,-0.72798 0.0159,-0.9923 -1.04246,-2.12372 -0.66482,-0.71074 -1.58797,-2.09276 -2.05145,-3.07114 -0.79523,-1.67868 -0.8427,-1.95027 -0.8427,-4.82159 0,-2.80291 0.0589,-3.1626 0.74704,-4.564 0.9462,-1.926881 2.97375,-4.156574 4.53094,-4.982661 0.66237,-0.351389 1.20431,-0.710308 1.20431,-0.797598 0,-0.08729 -0.50299,-0.38515 -1.11775,-0.661912 -0.82066,-0.369454 -1.69102,-0.498141 -3.2745,-0.484153 -1.8111,0.016 -2.404,0.140027 -3.69962,0.773913 -3.31878,1.62373 -5.1645,4.507167 -5.35205,8.361161 -0.27747,5.70154 2.56506,9.79169 8.62954,12.41719 0.97442,0.42185 1.84609,0.77127 1.93704,0.77649 0.091,0.005 0.2402,-0.36467 0.33166,-0.82198 z m 5.06228,-1.61593 c 0.22843,-1.41239 1.00335,-3.21426 1.8723,-4.3535 1.76568,-2.31493 5.62463,-2.70061 8.34097,-0.83364 0.69527,0.47786 1.02847,0.41665 1.02847,-0.18894 0,-0.34882 -4.52056,-3.35718 -5.52263,-3.67523 -0.32866,-0.10431 -1.01536,-0.55649 -1.52601,-1.00484 l -0.92844,-0.81519 -1.76615,1.85088 c -0.97138,1.01799 -2.27115,2.7049 -2.88838,3.74869 -1.13417,1.91799 -2.44964,4.87595 -2.44964,5.50826 0,0.4055 1.3223,0.83048 2.68872,0.86413 0.94015,0.0231 0.97433,-0.01 1.15079,-1.10062 z m 3.76502,0.19999 c 1.96091,-0.70735 3.98618,-1.9008 5.62463,-3.31448 l 1.19063,-1.02728 -0.65201,-0.47573 c -2.40367,-1.75379 -6.15633,-1.38905 -7.73932,0.75224 -0.75084,1.01565 -1.37572,2.54463 -1.64385,4.02222 l -0.18451,1.01686 0.87651,-0.18906 c 0.48208,-0.10399 1.61965,-0.45714 2.52792,-0.78477 z m -7.54326,-1.92304 c 1.25184,-3.08775 3.07149,-5.89725 5.15124,-7.95341 1.94003,-1.91802 1.9567,-1.94627 1.66658,-2.82532 -0.7182,-2.176185 -3.6276,-5.691738 -4.70549,-5.685841 -0.85895,0.0047 -3.17091,1.56216 -4.39596,2.961357 -1.78122,2.034424 -2.37913,3.738504 -2.39496,6.825744 -0.0161,3.14369 0.68879,5.21977 2.42979,7.15619 0.64803,0.72076 1.2565,1.30901 1.35215,1.30722 0.0957,-0.002 0.49915,-0.80547 0.89665,-1.78594 z m 18.45956,-3.48089 c 0,-0.13365 -0.41927,-0.50213 -0.93171,-0.81883 -1.3832,-0.85487 -2.16425,-2.04465 -3.0368,-4.626 -0.94234,-2.78781 -1.71944,-4.155832 -3.14457,-5.535772 -0.75617,-0.732202 -1.10406,-0.926686 -1.18318,-0.661458 -0.47563,1.594303 -1.15784,3.14969 -1.79664,4.09622 -0.41526,0.61529 -0.75499,1.16097 -0.75495,1.21263 4e-5,0.0517 0.50605,0.1055 1.12448,0.11966 2.09891,0.048 6.01607,2.68063 6.79818,4.5688 0.37309,0.90073 2.92519,2.3357 2.92519,1.64475 z m 1.13312,-5.01658 c 0.43519,-0.63719 0.95294,-1.69579 1.15056,-2.35242 0.19762,-0.65664 0.47936,-1.33855 0.6261,-1.51535 0.19566,-0.235757 -0.13904,-0.573495 -1.25535,-1.266739 -1.85935,-1.154685 -2.20146,-1.684979 -2.38371,-3.694838 -0.10198,-1.12465 -0.26209,-1.603518 -0.56634,-1.693855 -2.12772,-0.631754 -3.2023,-2.100796 -3.2023,-4.377828 0,-1.537142 0.49634,-2.379522 1.61035,-2.733096 0.68936,-0.218795 1.93188,0.615407 2.02301,1.358207 0.0338,0.27562 -0.007,0.349794 -0.09,0.164831 -0.28229,-0.626502 -1.64782,-1.160758 -2.20486,-0.86264 -1.98713,1.063477 -0.37491,5.829144 1.97199,5.829144 0.50057,0 0.9229,0.837124 0.9229,1.829335 0,1.661533 0.75267,2.884199 2.34601,3.810933 1.77702,1.033574 2.68305,1.405451 4.2495,1.744206 1.55103,0.33541 2.6649,-0.183486 2.6649,-1.241453 0,-0.397406 0.13432,-1.138489 0.29849,-1.646851 0.16416,-0.508362 0.37252,-1.519608 0.46302,-2.247212 0.15013,-1.207098 0.2391,-1.344877 1.01624,-1.573763 0.46843,-0.137965 0.91054,-0.404205 0.98247,-0.591644 0.0719,-0.187439 -0.28157,-1.118065 -0.78555,-2.068058 -0.93989,-1.771674 -1.07905,-2.684536 -0.67464,-4.42572 0.14734,-0.634338 0.10967,-1.672862 -0.10556,-2.910416 -1.04402,-6.003118 -5.22813,-8.99718 -12.0312,-8.609286 -2.65211,0.151216 -4.94888,1.031106 -6.69626,2.565328 -1.36417,1.197757 -2.75176,4.08673 -2.97812,6.200473 -0.23458,2.190495 0.1008,3.699478 1.60492,7.220974 0.6662,1.559723 1.34815,3.438672 1.51544,4.175444 0.24195,1.065563 0.55568,1.567687 1.53372,2.454686 1.35503,1.228905 2.77093,3.724158 3.6628,6.454988 0.33475,1.02497 0.96906,2.21395 1.53196,2.87156 l 0.96066,1.12232 0.52383,-1.41636 c 0.2881,-0.779 0.87989,-1.9377 1.31507,-2.5749 z m -4.81076,3.19249 c -0.77933,-1.4562 -3.85518,-3.52728 -5.823,-3.92085 -1.4041,-0.28082 -0.91513,0.41576 1.05376,1.50116 0.935,0.51544 2.35326,1.37864 3.15168,1.91822 1.61731,1.093 1.99716,1.21076 1.61756,0.50147 z m -5.86483,-7.854782 c 0.28358,-0.582084 0.59524,-1.386643 0.69258,-1.787909 0.1624,-0.6694 0.0784,-0.773205 -1.01883,-1.258546 -1.44016,-0.63705 -3.2619,-0.917019 -4.48002,-0.688498 l -0.89514,0.167929 1.26302,1.310351 c 0.69465,0.720694 1.63697,2.051162 2.09403,2.956597 l 0.83102,1.646248 0.49888,-0.64392 c 0.27438,-0.35416 0.73089,-1.120169 1.01446,-1.702252 z"
         id="path322" /></g></g></svg>
