<?xml version="1.0" encoding="UTF-8" standalone="no"?>
<!-- Created with Inkscape (http://www.inkscape.org/) -->

<svg
   width="123.01368mm"
   height="60.298073mm"
   viewBox="0 0 123.01368 60.298073"
   version="1.1"
   id="svg1"
   inkscape:version="1.4.3 (0d15f75, 2025-12-25)"
   sodipodi:docname="prayer-stretch.svg"
   xmlns:inkscape="http://www.inkscape.org/namespaces/inkscape"
   xmlns:sodipodi="http://sodipodi.sourceforge.net/DTD/sodipodi-0.dtd"
   xmlns="http://www.w3.org/2000/svg"
   xmlns:svg="http://www.w3.org/2000/svg">
  <sodipodi:namedview
     id="namedview1"
     pagecolor="#ffffff"
     bordercolor="#000000"
     borderopacity="0.25"
     inkscape:showpageshadow="2"
     inkscape:pageopacity="0.0"
     inkscape:pagecheckerboard="0"
     inkscape:deskcolor="#d1d1d1"
     inkscape:document-units="mm"
     inkscape:zoom="0.042760943"
     inkscape:cx="222.16535"
     inkscape:cy="105.23622"
     inkscape:window-width="944"
     inkscape:window-height="250"
     inkscape:window-x="0"
     inkscape:window-y="34"
     inkscape:window-maximized="0"
     inkscape:current-layer="layer1" />
  <defs
     id="defs1" />
  <g
     inkscape:label="Layer 1"
     inkscape:groupmode="layer"
     id="layer1"
     transform="translate(-40.48125,-115.35833)">
    <g
       id="g505"
       transform="translate(-207.09305,-87.450897)">
      <path
         style="fill:#000000"
         d="m 312.96496,219.66333 c -2.11023,-0.78431 -3.61029,-1.99155 -4.33515,-3.4889 l -0.58072,-1.19961 0.5599,-1.65757 c 0.66666,-1.97363 0.7621,-5.0503 0.18234,-5.87802 -0.43003,-0.61396 -1.47452,-3.58947 -1.47452,-4.20057 0,-0.82691 0.46714,-0.37012 0.62388,0.61005 0.25575,1.59936 1.87966,4.56579 3.24913,5.93527 2.96705,2.96705 6.15875,3.09587 9.04702,0.36516 1.24817,-1.18008 2.65514,-3.6862 3.16865,-5.64406 0.24114,-0.9194 0.54308,-1.67164 0.67099,-1.67164 0.36387,0 -0.0622,1.82648 -0.83332,3.57188 -1.0178,2.30386 -1.01175,5.26735 0.0148,7.24561 1.07088,2.0637 0.98307,2.53416 -0.79583,4.26408 -1.2268,1.19304 -1.83551,1.56906 -3.12621,1.93121 -2.1985,0.61687 -4.38828,0.55401 -6.37095,-0.18289 z m 7.32987,-0.72132 c 1.42872,-0.61461 2.79047,-1.96606 3.05896,-3.03581 0.11703,-0.46627 -0.0508,-1.11161 -0.54127,-2.08096 -0.39125,-0.77328 -0.78062,-2.08047 -0.86593,-2.90709 l -0.15502,-1.50201 -0.95353,0.92093 c -3.1362,3.029 -6.58504,3.03458 -9.81228,0.0159 l -1.3277,-1.24191 v 1.19896 c 0,0.65943 -0.23911,1.97311 -0.53136,2.91928 -0.29224,0.94618 -0.45323,1.94099 -0.35775,2.21069 0.57964,1.63721 2.71722,3.305 5.10375,3.98204 1.64113,0.46558 4.72287,0.23381 6.38213,-0.47999 z"
         id="path48" />
      <path
         style="fill:#000000"
         d="m 285.2241,262.97019 c -0.58209,-0.0546 -2.96334,-0.38966 -5.29167,-0.74455 -12.7323,-1.94071 -20.77614,-1.93681 -28.92691,0.014 -3.00735,0.71979 -3.74153,0.80532 -3.32334,0.38713 0.40602,-0.40603 5.66458,-1.53597 9.2236,-1.98194 6.39227,-0.80099 12.59244,-0.52074 23.15894,1.04681 7.65731,1.13596 11.234,1.14223 14.96052,0.0262 1.58351,-0.47422 3.38014,-1.93155 4.08529,-3.31376 0.57103,-1.11931 1.25095,-4.4059 0.96968,-4.68718 -0.1011,-0.10109 -0.99171,0.0764 -1.97915,0.39442 -0.98744,0.31802 -3.57433,0.9327 -5.74865,1.36594 -2.17432,0.43324 -4.36924,0.90997 -4.87761,1.05941 -1.4617,0.42966 -2.28122,0.32316 -3.15209,-0.40962 -1.09564,-0.92193 -1.61215,-2.7823 -1.61215,-5.80668 0,-3.77488 0.71842,-6.09509 4.35041,-14.05015 0.67267,-1.47333 1.52722,-3.91411 1.89902,-5.42396 0.94395,-3.83342 2.62889,-7.23958 4.53755,-9.1728 1.68441,-1.70609 2.26508,-2.02479 6.19905,-3.40239 1.49899,-0.52491 3.64552,-1.41516 4.77007,-1.97834 1.12456,-0.56317 2.16134,-1.02395 2.30395,-1.02395 0.14262,0 0.56726,0.52548 0.94365,1.16774 0.37638,0.64225 1.22369,1.66489 1.8829,2.27253 4.0606,3.74293 10.29354,3.21099 14.55838,-1.24246 l 1.62519,-1.69707 3.40189,1.30637 c 1.87104,0.71849 3.69955,1.39534 4.06335,1.5041 1.59863,0.47793 4.21178,2.02475 5.12133,3.03152 1.04414,1.15573 2.49296,3.34878 3.02065,4.57231 0.17283,0.40072 0.74024,2.24619 1.2609,4.10104 0.57355,2.04324 1.71244,5.04098 2.88957,7.60579 2.94601,6.41898 3.45026,8.23639 3.45026,12.43542 0,3.07709 -0.0638,3.55904 -0.6053,4.57311 -0.36745,0.6881 -0.94662,1.29628 -1.47389,1.54772 -0.82486,0.39335 -1.12895,0.35947 -6.04156,-0.67311 -2.84515,-0.59801 -5.8133,-1.30569 -6.59591,-1.57261 -0.78261,-0.26693 -1.76623,-0.56967 -2.18583,-0.67276 l -0.7629,-0.18744 0.12261,2.75694 c 0.1466,3.2962 0.82195,4.99685 2.32924,5.86538 1.35042,0.77814 4.43672,0.67319 9.65729,-0.3284 7.70321,-1.47789 13.65976,-1.71258 18.91771,-0.74536 1.23693,0.22753 3.54268,0.64647 5.1239,0.93096 1.58122,0.2845 2.94052,0.58284 3.02066,0.66298 0.42482,0.42482 -0.52336,0.34277 -4.46552,-0.38642 -7.0255,-1.29954 -10.27439,-1.50681 -15.37719,-0.98103 -2.37003,0.24421 -5.79742,0.74577 -7.61643,1.11458 -4.71926,0.95686 -7.00476,1.10432 -8.64939,0.55807 -2.42866,-0.80668 -3.21589,-2.35476 -3.4837,-6.85068 l -0.17004,-2.85474 -2.64583,-1.14138 c -3.93552,-1.69773 -7.05166,-3.3211 -6.88686,-3.58774 0.0801,-0.12961 -0.48615,-0.52489 -1.25833,-0.8784 -1.80704,-0.8273 -3.25752,-2.10879 -3.66626,-3.23913 -0.33417,-0.92414 -0.75626,-0.99833 -0.75626,-0.13293 0,0.27128 -0.29704,0.84626 -0.66009,1.27771 -0.8119,0.9649 -3.85376,2.58317 -4.43577,2.35983 -0.23316,-0.0895 -0.62403,-0.85358 -0.86924,-1.69928 -0.67375,-2.32371 -0.88609,-2.77585 -1.20971,-2.57584 -0.18149,0.11217 -0.24826,0.72555 -0.17506,1.60827 0.09,1.08489 0.28742,1.60343 0.82369,2.16318 1.33183,1.39014 1.07165,1.74475 -2.5358,3.45608 -1.78263,0.84566 -3.79052,1.74399 -4.46199,1.99629 l -1.22084,0.45872 -0.1726,1.85715 c -0.43488,4.67914 -2.87025,7.01284 -8.23363,7.8899 -1.52161,0.24883 -4.90862,0.28412 -7.14375,0.0744 z m 5.55625,-7.73467 c 5.55479,-1.10267 9.13628,-2.10923 9.33348,-2.62314 0.15999,-0.41691 -0.34126,-6.0504 -0.63306,-7.11489 -0.1547,-0.56439 -0.29438,-0.59531 -2.68885,-0.59531 -2.33685,0 -2.6164,0.0577 -3.73945,0.77208 -1.43889,0.91526 -3.69046,1.68825 -4.55821,1.56487 -0.77861,-0.1107 -0.94826,-0.8929 -0.33954,-1.56552 0.59385,-0.6562 2.76113,-1.3006 4.37424,-1.3006 1.54999,0 1.81417,-0.29783 3.82224,-4.30916 1.42739,-2.85135 1.44066,-2.9 1.44692,-5.30356 0.007,-2.75693 0.29168,-4.29247 0.90983,-4.91044 1.04786,-1.04757 1.23835,1.49054 0.37583,5.00753 l -0.56012,2.28388 0.56099,3.28515 c 0.30855,1.80683 0.5606,3.39083 0.56012,3.52001 -10e-4,0.38393 2.59297,-0.0472 5.40674,-0.89855 1.44622,-0.43756 2.85534,-0.72389 3.13136,-0.63628 0.56415,0.17905 1.62043,-0.67028 2.1674,-1.74274 0.18554,-0.3638 0.42069,-1.64549 0.52255,-2.8482 0.16962,-2.00275 2.65757,-11.51857 3.34971,-12.81184 0.35168,-0.65712 1.00332,-0.60255 1.26542,0.10596 l 0.2166,0.58551 0.31335,-0.58551 c 0.35199,-0.65768 0.88238,-0.75578 1.30874,-0.24205 0.15678,0.18891 0.59774,1.46883 0.97992,2.84427 0.38219,1.37545 1.03851,3.63191 1.45851,5.01436 0.42,1.38245 0.8322,3.16838 0.916,3.96875 0.37584,3.58938 0.41505,3.72586 1.37586,4.78936 0.6862,0.75954 1.08092,1.00028 1.44869,0.88355 0.27803,-0.0882 1.30342,0.076 2.27866,0.36486 1.73018,0.51258 4.71997,1.25747 5.70404,1.42114 0.4034,0.0671 0.57634,-0.24194 0.96656,-1.7272 1.08897,-4.1448 1.15212,-4.95913 0.5386,-6.94547 -0.72635,-2.35165 -0.96455,-4.6099 -0.565,-5.35646 0.85515,-1.59786 1.59524,0.31479 1.71082,4.42136 0.0873,3.1021 0.099,3.15272 1.20103,5.22035 0.61207,1.14834 1.52348,2.65343 2.02536,3.34465 0.90432,1.2455 0.92613,1.25683 2.43129,1.26258 1.57629,0.006 3.35311,0.62745 3.98803,1.39476 0.48553,0.58678 0.28471,1.36126 -0.37765,1.45637 -0.71274,0.10235 -3.24218,-0.84824 -4.46474,-1.67789 -0.86524,-0.58717 -1.22342,-0.64988 -3.71203,-0.64988 h -2.75439 l -0.141,0.8599 c -0.33687,2.05432 -0.67673,5.07887 -0.67673,6.0224 v 1.02318 l 2.19675,0.67005 c 1.20822,0.36853 3.32158,0.91588 4.69636,1.21634 1.37478,0.30046 3.33304,0.7361 4.35168,0.9681 2.95458,0.67291 3.78209,0.61591 4.52154,-0.31144 0.91047,-1.14184 1.26256,-3.10054 1.10088,-6.12431 -0.16585,-3.10164 -1.13995,-6.12847 -3.77735,-11.73736 -0.9447,-2.00907 -2.02971,-4.85018 -2.47557,-6.48229 -1.08953,-3.98837 -1.43616,-4.89216 -2.55556,-6.66335 -1.24296,-1.96669 -2.63844,-3.42847 -3.88941,-4.07418 -0.54453,-0.28107 -2.27094,-0.97448 -3.83646,-1.54091 -1.56552,-0.56644 -3.61567,-1.35329 -4.55588,-1.74857 l -1.70948,-0.7187 -0.39465,0.62838 c -0.70079,1.11586 -2.57263,2.72639 -4.02808,3.46578 -2.05195,1.04242 -3.65485,1.35555 -6.1441,1.20025 -3.33346,-0.20797 -5.72932,-1.60163 -7.49292,-4.35857 l -0.8941,-1.3977 -1.87563,0.94455 c -1.0316,0.5195 -3.14147,1.39955 -4.6886,1.95565 -3.77406,1.35657 -4.21993,1.56695 -5.51047,2.60007 -2.27011,1.8173 -3.89096,4.83761 -5.14099,9.57981 -0.69768,2.64679 -1.20388,3.97453 -3.11644,8.17426 -1.90927,4.19253 -2.79032,6.85811 -3.17068,9.59275 -0.56695,4.07626 0.84647,7.95578 2.74854,7.54412 0.29104,-0.063 2.43416,-0.49269 4.7625,-0.95487 z m 11.289,-3.15266 c 0.63053,-0.27073 1.97985,-0.88266 2.9985,-1.35985 1.01864,-0.47718 2.3581,-1.08489 2.97656,-1.35044 0.61846,-0.26556 1.12448,-0.57849 1.12448,-0.6954 0,-0.11691 -0.31731,-0.67953 -0.70512,-1.25025 -0.80603,-1.18618 -1.11156,-3.18964 -0.62504,-4.0987 0.28066,-0.52443 0.26124,-0.57551 -0.16849,-0.44296 -3.31358,1.02209 -4.31255,1.29074 -5.84187,1.57101 -1.65672,0.30363 -1.78455,0.37554 -1.74591,0.98208 0.0751,1.17934 0.73199,7.13675 0.78689,7.13675 0.0295,0 0.56947,-0.22151 1.2,-0.49224 z m 29.70432,-6.45308 c 0.13393,-0.85379 0.0853,-0.99218 -0.34843,-0.99218 -0.27723,0 -1.91575,-0.36811 -3.64115,-0.81801 -1.72539,-0.44991 -3.38144,-0.87601 -3.68011,-0.9469 -0.51364,-0.1219 -0.53705,-0.0349 -0.43246,1.60766 0.10836,1.70173 0.0914,1.75571 -0.84557,2.69269 -0.52588,0.52588 -0.89669,1.05235 -0.82402,1.16993 0.17696,0.28633 4.82979,2.53889 7.143,3.45813 l 1.85208,0.73598 0.31051,-2.95755 c 0.17078,-1.62666 0.38055,-3.40404 0.46615,-3.94975 z m -19.31255,0.77252 c 1.88039,-1.04614 2.55358,-1.87396 2.76651,-3.40202 0.0874,-0.62744 0.0994,-3.81971 0.0267,-7.09393 -0.1057,-4.75622 -0.19305,-5.81849 -0.43445,-5.28346 -0.16618,0.36831 -0.45096,1.59211 -0.63283,2.71955 -0.18188,1.12744 -0.43286,2.11304 -0.55775,2.19022 -0.29132,0.18005 -0.28599,-0.0522 0.0541,-2.35376 0.37215,-2.51876 0.73614,-3.62255 1.19458,-3.62255 0.28495,0 0.37636,-0.39841 0.37636,-1.64042 0,-1.17664 -0.081,-1.55947 -0.28633,-1.35409 -0.3871,0.3871 -1.42181,4.00851 -1.81945,6.36794 -0.17781,1.05503 -0.43386,1.91823 -0.569,1.91823 -0.13515,0 -0.19078,-0.26789 -0.12363,-0.59531 0.0671,-0.32742 0.18305,-1.07156 0.25755,-1.65364 0.11646,-0.90978 0.0615,-0.8355 -0.39174,0.52916 -0.28997,0.87313 -0.68845,2.91084 -0.88551,4.52826 -0.38838,3.18771 -0.58858,3.75241 -1.61721,4.56153 l -0.67616,0.53187 0.56427,1.93604 c 0.31034,1.06483 0.61012,2.08488 0.66618,2.26678 0.14621,0.47445 0.33537,0.42458 2.08784,-0.5504 z m 8.61402,0.25915 c 0,-0.84555 0.50388,-2.26818 1.11343,-3.14357 l 0.50332,-0.72285 -0.91556,-0.80388 c -0.99136,-0.87041 -1.32776,-1.90367 -1.63651,-5.02647 -0.0935,-0.94588 -0.3913,-2.37463 -0.66172,-3.175 l -0.49169,-1.45521 0.14924,1.32292 c 0.26517,2.35051 -0.33864,0.96944 -1.09892,-2.51354 -0.39706,-1.81901 -0.90374,-3.72401 -1.12596,-4.23334 -0.40226,-0.92196 -0.40493,-0.92313 -0.607,-0.26458 -0.40105,1.30701 -0.28807,2.6099 0.25135,2.89859 0.67165,0.35945 1.87419,4.29002 1.87419,6.12588 0,0.98683 -0.46668,0.25253 -0.64672,-1.01757 -0.23103,-1.62985 -0.95706,-4.28156 -1.21611,-4.44167 -0.11087,-0.0685 -0.20411,2.75859 -0.20721,6.28244 -0.007,7.87177 0.1114,8.28605 2.86379,10.02678 1.45396,0.91954 1.85208,0.94987 1.85208,0.14107 z m 1.5683,-0.0752 c 0.3841,-0.4883 0.54837,-1.08274 0.54837,-1.98437 0,-0.70798 -0.097,-1.28724 -0.21558,-1.28724 -0.29778,0 -1.06115,1.65836 -1.34509,2.92211 -0.2854,1.27019 0.1656,1.4259 1.0123,0.3495 z m -30.95911,-0.81473 1.47727,-0.73709 -1.1487,-0.0825 c -1.24505,-0.0895 -3.4946,0.82891 -3.70358,1.51199 -0.17149,0.56055 1.58686,0.19984 3.37501,-0.69236 z m 51.81505,0.6544 c -0.17993,-0.5398 -1.60534,-1.23849 -3.10809,-1.52348 -0.77557,-0.14709 -1.4625,-0.21507 -1.52649,-0.15107 -0.064,0.064 0.69941,0.53496 1.69647,1.04659 1.85712,0.95297 3.13768,1.22666 2.93811,0.62796 z m -7.46266,-4.29363 c -0.7576,-1.20671 -1.53973,-2.5858 -1.73807,-3.06464 l -0.36063,-0.87063 -0.6,2.75725 c -0.33001,1.51648 -0.60478,2.89923 -0.61061,3.07276 -0.0118,0.35224 1.55519,0.52817 3.46255,0.38875 l 1.2242,-0.0895 z m -36.922,1.8924 c 0,-0.46327 -0.47325,-3.1715 -0.83255,-4.76433 l -0.28786,-1.27616 -1.22968,2.46678 c -0.67633,1.35673 -1.44996,2.79421 -1.71919,3.19439 l -0.48949,0.7276 h 2.27938 c 1.70839,0 2.27939,-0.0872 2.27939,-0.34828 z m 16.84398,-8.44911 c -0.0734,-0.1819 -0.13345,-0.0331 -0.13345,0.33073 0,0.3638 0.0601,0.51263 0.13345,0.33073 0.0734,-0.1819 0.0734,-0.47956 0,-0.66146 z m 17.69279,-2.44597 c -0.20346,-2.17123 -0.91105,-3.67481 -0.92627,-1.96825 -0.009,1.02847 0.47756,3.93094 0.72696,4.33504 0.30089,0.48752 0.37941,-0.44487 0.19931,-2.36679 z m -34.54831,-1.65507 c 0.006,-0.47295 -0.0919,-0.8599 -0.21842,-0.8599 -0.30776,0 -0.56355,1.64835 -0.53376,3.43958 l 0.0242,1.45521 0.35821,-1.5875 c 0.19702,-0.87312 0.36342,-1.97445 0.36977,-2.44739 z m 18.01716,-5.718 c -0.14599,-0.38398 -0.38745,-0.69815 -0.53657,-0.69815 -0.38249,0 -0.33933,0.20614 0.19189,0.9165 0.57381,0.76732 0.69116,0.69298 0.34468,-0.21835 z m -2.14024,0.23948 c 0.33065,-0.3984 0.13797,-1.04818 -0.24131,-0.81378 -0.2979,0.18412 -0.53987,1.19907 -0.28586,1.19907 0.11408,0 0.35131,-0.17338 0.52717,-0.38529 z"
         id="path1" />
    </g>
  </g>
</svg>
