<?xml version="1.0" encoding="UTF-8" standalone="no"?>
<!-- Created with Inkscape (http://www.inkscape.org/) -->

<svg
   width="122.63596mm"
   height="54.941944mm"
   viewBox="0 0 122.63596 54.941944"
   version="1.1"
   id="svg1"
   inkscape:version="1.4.3 (0d15f75, 2025-12-25)"
   sodipodi:docname="seated-twist.svg"
   xmlns:inkscape="http://www.inkscape.org/namespaces/inkscape"
   xmlns:sodipodi="http://sodipodi.sourceforge.net/DTD/sodipodi-0.dtd"
   xmlns="http://www.w3.org/2000/svg"
   xmlns:svg="http://www.w3.org/2000/svg">
  <sodipodi:namedview
     id="namedview1"
     pagecolor="#ffffff"
     bordercolor="#000000"
     borderopacity="0.25"
     inkscape:showpageshadow="2"
     inkscape:pageopacity="0.0"
     inkscape:pagecheckerboard="0"
     inkscape:deskcolor="#d1d1d1"
     inkscape:document-units="mm"
     inkscape:zoom="0.042760943"
     inkscape:cx="222.16535"
     inkscape:cy="105.23622"
     inkscape:window-width="944"
     inkscape:window-height="250"
     inkscape:window-x="0"
     inkscape:window-y="34"
     inkscape:window-maximized="0"
     inkscape:current-layer="layer1" />
  <defs
     id="defs1" />
  <g
     inkscape:label="Layer 1"
     inkscape:groupmode="layer"
     id="layer1"
     transform="translate(-40.745833,-118.00416)">
    <g
       id="g507"
       transform="translate(-82.156407,-22.303553)">
      <path
         style="fill:#000000"
         d="m 184.81006,194.83485 c -0.59454,-0.27256 -1.15747,-0.69765 -1.25096,-0.94464 -0.0935,-0.24699 -0.32546,-0.6064 -0.51551,-0.7987 -0.19004,-0.19229 -0.34553,-0.55543 -0.34553,-0.80697 0,-0.25155 -0.12063,-0.57798 -0.26806,-0.72541 -0.44583,-0.44583 0.25283,-1.95282 1.16252,-2.50753 1.18889,-0.72496 0.64078,-0.62754 -2.35239,0.41812 -2.77848,0.97067 -4.49141,1.14724 -6.28837,0.64822 -1.10424,-0.30665 -2.72492,-1.5953 -2.96748,-2.35952 -0.12155,-0.38296 -1.33357,-1.06415 -1.89341,-1.06415 -0.051,0 -0.0928,0.51457 -0.0928,1.14349 0,3.61662 -2.8582,6.40519 -5.62815,5.49102 -0.49507,-0.16339 -1.1527,-0.53237 -1.46139,-0.81996 -0.30869,-0.28759 -0.62576,-0.52289 -0.70461,-0.52289 -0.0788,0 -0.14335,0.64782 -0.14335,1.4396 0,0.80621 -0.13496,1.523 -0.30673,1.62916 -0.22722,0.14043 -0.26269,-0.28215 -0.13683,-1.62999 0.13896,-1.48801 0.0777,-2.01388 -0.3364,-2.88594 -0.27848,-0.5865 -0.80066,-2.51007 -1.1604,-4.2746 -0.65047,-3.19054 -1.46537,-5.44967 -1.48863,-4.12692 -0.006,0.33129 0.34659,2.38195 0.78316,4.55703 0.89739,4.47106 0.95615,5.44915 0.40639,6.76489 -0.72764,1.7415 -0.27061,1.70177 -19.58019,1.70177 -11.05877,0 -17.3387,-0.0932 -17.3387,-0.25737 0,-0.16347 6.46439,-0.28413 17.71986,-0.33072 l 17.71986,-0.0734 0.58491,-0.58504 c 0.93957,-0.93978 0.93361,-2.98982 -0.0216,-7.42786 -0.83938,-3.89995 -0.98006,-5.21437 -0.58425,-5.459 0.6367,-0.3935 1.65379,1.81523 2.15281,4.67505 0.35332,2.0248 1.04613,4.53084 1.20787,4.36909 0.22902,-0.22901 -0.73004,-4.59273 -1.61455,-7.3462 -1.23834,-3.85498 -2.17106,-7.56096 -2.39002,-9.4963 -0.12982,-1.14749 -0.32192,-1.70859 -0.64397,-1.88095 -0.60168,-0.32201 -0.8466,-1.62047 -0.49559,-2.62739 0.37241,-1.06829 3.5133,-3.54606 4.4951,-3.54606 0.99712,0 4.05937,2.05023 4.71045,3.15373 0.29311,0.49677 0.70511,0.90322 0.91558,0.90322 0.21046,0 1.07768,0.57331 1.92715,1.27403 0.84947,0.70072 2.3184,1.67104 3.26428,2.15626 0.94589,0.48522 1.93537,1.01323 2.19885,1.17336 0.41046,0.24945 0.77059,-0.0119 2.51526,-1.82553 1.11991,-1.16416 2.97719,-3.52227 4.12728,-5.24024 2.44456,-3.65161 3.74191,-4.88704 6.18035,-5.88537 0.97862,-0.40067 2.7367,-1.12717 3.90686,-1.61445 1.17015,-0.48729 2.25237,-0.88598 2.40492,-0.88598 0.40919,0 0.90807,-1.25245 1.08122,-2.71442 0.13612,-1.14938 0.019,-1.5613 -1.11756,-3.93109 -1.93207,-4.02839 -1.97108,-6.60487 -0.13516,-8.92749 1.40854,-1.78193 2.97626,-2.50798 5.4048,-2.50307 4.47079,0.009 7.59667,3.10379 7.22711,7.15516 -0.0767,0.84051 -0.0189,2.03055 0.12832,2.64453 0.21862,0.91162 0.15868,1.54235 -0.32691,3.43958 -0.8317,3.24952 -0.83154,3.2493 -2.38381,3.2493 -0.96872,0 -1.31361,0.10033 -1.31361,0.38212 0,0.84772 1.33937,1.74635 4.61873,3.09884 5.23088,2.15734 6.19506,3.42572 5.86989,7.72181 -0.16891,2.23165 -1.50208,6.56332 -2.83135,9.19949 -1.13517,2.25125 -1.77919,6.94274 -1.35541,9.87374 0.4094,2.83157 1.19569,5.09846 2.09347,6.03555 1.43023,1.49283 1.8264,1.52387 19.44955,1.52387 10.67075,0 16.05199,0.0893 15.94366,0.26458 -0.10611,0.17169 -5.80757,0.26458 -16.23947,0.26458 -17.81665,0 -17.96105,-0.0122 -19.53527,-1.64639 -1.32703,-1.37761 -2.25024,-4.49837 -2.29158,-7.74631 -0.0185,-1.45521 0.0607,-3.30068 0.17605,-4.10105 l 0.20973,-1.4552 -1.17294,1.71979 c -0.64512,0.94588 -2.11266,2.6472 -3.2612,3.78071 -2.20089,2.17206 -9.65809,7.59637 -10.44332,7.59637 -0.25339,0 -0.85692,0.23377 -1.34118,0.51949 -2.41221,1.42324 -5.06519,1.81435 -6.82736,1.00651 z m 1.48791,-0.31302 c 0.079,-0.20599 0.10507,-0.71201 0.0578,-1.12448 l -0.0859,-0.74996 -0.49211,0.72556 c -0.49005,0.72252 -0.43998,1.5234 0.0952,1.5234 0.15465,0 0.34586,-0.16854 0.42491,-0.37452 z m 3.20677,-0.29986 c 0.98542,-0.37091 1.88743,-0.77015 2.00448,-0.88719 0.25176,-0.25177 -1.13536,-3.24781 -1.56969,-3.39037 -0.16454,-0.054 -0.37467,0.20267 -0.46696,0.57039 -0.0923,0.36772 -0.70181,1.26985 -1.35449,2.00473 -1.14134,1.28509 -1.38813,1.8226 -1.0103,2.20043 0.26942,0.26942 0.4674,0.22829 2.39696,-0.49799 z m -4.22699,-1.07496 c 0.716,-1.12237 0.82414,-1.94495 0.18608,-1.41541 -0.71177,0.59072 -1.48276,1.82779 -1.31168,2.10461 0.26894,0.43516 0.49768,0.2951 1.1256,-0.6892 z m -18.28401,-0.65049 c 1.48301,-0.71792 2.45861,-2.59485 2.51012,-4.82916 0.0339,-1.47167 -0.0111,-1.58199 -1.07474,-2.63514 -1.83547,-1.8173 -3.13757,-4.02814 -3.99178,-6.77766 -0.97652,-3.14322 -1.63077,-6.20928 -1.43424,-6.72143 0.10437,-0.27197 -0.10868,-0.43475 -0.72824,-0.55641 -0.48167,-0.0946 -1.34345,-0.5259 -1.91508,-0.95847 -0.57163,-0.43256 -1.18212,-0.78648 -1.35666,-0.78648 -1.71861,0 -1.13428,4.6026 1.84747,14.55208 0.63236,2.11005 1.23408,4.69139 1.33715,5.73631 0.19715,1.99856 0.40811,2.3514 1.85778,3.10728 1.05118,0.5481 1.59547,0.52393 2.94822,-0.13092 z m 18.88736,-2.05131 c -0.39467,-0.13155 -2.08475,0.97169 -2.40487,1.56984 -0.61019,1.14014 0.12533,1.03352 1.37734,-0.19966 0.71454,-0.7038 1.17693,-1.32038 1.02753,-1.37018 z m 2.22611,1.25769 c 1.32472,-1.46631 1.20786,-2.10245 -0.47317,-2.57586 -1.08208,-0.30474 -1.51175,-0.30482 -2.7585,-5.3e-4 -0.81223,0.19823 -1.52946,0.51848 -1.59385,0.71165 -0.088,0.26397 0.0386,0.29663 0.50954,0.13148 0.96166,-0.33723 2.34403,-0.18455 2.90215,0.32055 0.5364,0.48544 0.67597,1.55737 0.23801,1.82804 -0.14552,0.0899 -0.26458,0.27555 -0.26458,0.41249 0,0.50455 0.4923,0.22162 1.4404,-0.82782 z m 6.67229,-0.0477 c 0.85598,-0.61847 2.44665,-1.71577 3.53483,-2.43845 1.08819,-0.72268 3.28866,-2.62768 4.88994,-4.23333 3.16553,-3.17418 4.91483,-5.82363 5.54073,-8.39185 0.18855,-0.77368 0.66637,-2.47825 1.06181,-3.78794 0.50871,-1.68481 0.75639,-3.19376 0.84687,-5.15937 0.11412,-2.479 0.0693,-2.87071 -0.41623,-3.63802 -0.6268,-0.99058 -1.13767,-1.06539 -2.32623,-0.34069 -1.10739,0.67522 -2.2903,2.76695 -3.14777,5.56621 -1.92514,6.28472 -2.15063,6.73204 -6.34305,12.583 -2.17161,3.03071 -4.53154,6.14854 -5.24429,6.92851 -0.97528,1.06725 -1.22077,1.49327 -0.99219,1.72185 0.16705,0.16705 0.30372,0.75616 0.30372,1.30914 0,1.30895 0.33987,1.29129 2.29186,-0.11906 z m -2.55644,0.11671 c 0,-0.5616 -0.68011,-1.57532 -0.9056,-1.34983 -0.21508,0.21507 0.37338,1.82843 0.6669,1.82843 0.13128,0 0.2387,-0.21537 0.2387,-0.4786 z m -5.47675,-0.14071 c 0.0749,-0.1951 0.0299,-0.52252 -0.0999,-0.7276 -0.17179,-0.27138 -0.23715,-0.17481 -0.2401,0.35472 -0.004,0.79011 0.12534,0.93238 0.34003,0.37288 z m -2.59216,-0.96961 c 0.21277,-0.34429 -0.29564,-0.33643 -0.95173,0.0147 -0.28555,0.15282 -0.44909,0.39127 -0.36342,0.52989 0.16817,0.2721 1.0313,-0.0853 1.31515,-0.54458 z m -2.70939,-1.80742 c 1.27522,-0.44553 2.43564,-0.88241 2.57872,-0.97083 0.65143,-0.40261 -1.49902,-2.97862 -3.21911,-3.85614 -0.54761,-0.27937 -1.05435,-0.50794 -1.1261,-0.50794 -0.0717,0 -0.36645,0.53352 -0.6549,1.18561 -0.37481,0.84731 -0.88384,1.41353 -1.78397,1.98437 -1.09366,0.69358 -1.50464,0.79877 -3.12087,0.79877 h -1.86134 l 0.80928,0.80927 c 1.78076,1.78077 4.38062,1.95358 8.37829,0.55689 z m 9.34616,0.35135 c -0.10063,-0.40096 0.006,-0.99699 0.26868,-1.50546 0.46957,-0.90806 5.66686,-6.38018 5.86836,-6.17868 0.0671,0.0671 -1.12649,1.48775 -2.65237,3.15704 -2.73791,2.99522 -3.23679,3.76524 -2.8475,4.39512 0.31991,0.51762 1.06113,-0.0502 2.47429,-1.89538 1.6817,-2.19583 7.31597,-10.21893 7.92309,-11.28233 0.26085,-0.4569 1.10815,-2.7837 1.88289,-5.17067 1.54154,-4.74954 2.71786,-6.90051 4.21453,-7.70652 1.15573,-0.6224 2.02328,-0.39286 2.69138,0.71212 0.78942,1.30564 0.69071,5.32594 -0.21294,8.67294 -0.73339,2.71638 -0.77607,3.32816 -0.10677,1.53031 1.19614,-3.21298 1.75135,-7.06844 1.27229,-8.8349 -0.55773,-2.05656 -1.70229,-2.94531 -5.75997,-4.47262 -0.98754,-0.37171 -2.31976,-0.96883 -2.9605,-1.32695 -1.36114,-0.76076 -1.36291,-0.76113 -1.36291,-0.28731 0,0.77226 -4.4068,0.9614 -6.8618,0.29451 l -1.47257,-0.40001 -3.83646,1.5651 c -2.47622,1.01019 -4.22433,1.89963 -4.93043,2.5086 -0.60168,0.51893 -2.02131,2.3419 -3.15472,4.05106 -1.13341,1.70915 -3.03083,4.1238 -4.21648,5.36589 -1.98129,2.07559 -2.13508,2.31421 -1.9005,2.94878 0.39217,1.06089 0.0267,2.14063 -0.69003,2.03871 -0.51861,-0.0737 -0.58656,-0.24206 -0.59114,-1.46433 -0.003,-0.75956 -0.12191,-1.49597 -0.26459,-1.63647 -0.14267,-0.1405 -1.144,-0.72793 -2.22519,-1.30541 -1.08118,-0.57748 -2.53203,-1.53771 -3.2241,-2.13385 -1.4401,-1.24047 -2.0212,-1.33647 -2.83652,-0.4686 l -0.57803,0.61528 0.78854,0.70259 c 0.88868,0.79181 1.73921,2.27283 2.53391,4.41227 0.43912,1.18214 0.87558,1.73344 2.35815,2.97861 1.62858,1.3678 1.86435,1.48722 2.24897,1.13915 1.1871,-1.07432 3.38999,-1.47391 5.01071,-0.90892 0.74683,0.26034 0.96023,0.21256 1.87178,-0.41915 0.56587,-0.39215 2.22839,-1.84457 3.69447,-3.2276 l 2.66562,-2.5146 v -2.45781 c 0,-1.91976 0.0917,-2.53395 0.41905,-2.80559 1.26186,-1.04725 1.87712,1.66611 0.89531,3.94839 l -0.56547,1.31449 0.52994,1.80953 c 0.29147,0.99524 0.95641,3.16341 1.47764,4.81814 0.52123,1.65473 0.9477,3.22528 0.9477,3.49011 0,1.04798 0.53499,0.69232 1.70171,-1.13127 0.67191,-1.0502 1.53327,-2.8661 1.91412,-4.03533 0.60879,-1.86898 0.69593,-2.58946 0.72113,-5.96233 0.0158,-2.11005 -0.0541,-4.37223 -0.15519,-5.02708 l -0.18386,-1.19062 0.44538,0.92604 c 0.67721,1.40806 0.63692,8.22325 -0.0626,10.58333 -0.75651,2.55248 -1.53593,4.17804 -2.87006,5.98579 -1.18697,1.60834 -1.19569,1.63585 -1.19569,3.77126 0,1.72216 0.0873,2.20208 0.43782,2.40669 0.624,0.36427 0.64602,0.34554 0.46089,-0.39206 z m -1.37906,-0.95684 c 0.22782,-1.13908 0.20779,-2.87832 -0.0331,-2.87277 -0.10914,0.003 -0.46295,0.28368 -0.78625,0.62481 -0.32329,0.34113 -1.30399,0.96415 -2.17933,1.38449 -1.81687,0.87247 -2.05169,1.29348 -0.6063,1.08707 0.54571,-0.0779 1.46844,0.0134 2.05052,0.20303 0.58209,0.18959 1.13275,0.3572 1.2237,0.37246 0.091,0.0152 0.23978,-0.34433 0.33073,-0.79909 z m -3.45952,-1.1938 c 0.70161,-0.35888 2.24701,-1.43967 3.17652,-2.22152 0.28919,-0.24325 -0.39975,-3.14296 -1.69517,-7.13494 -0.59029,-1.81901 -1.12444,-3.46863 -1.18702,-3.66583 -0.0721,-0.22727 -1.00582,0.49036 -2.55011,1.95995 -1.33999,1.27517 -3.00382,2.72619 -3.69739,3.22447 -1.25209,0.89953 -1.25826,0.91137 -0.86858,1.66493 0.21586,0.41743 0.39247,1.00099 0.39247,1.29681 0,0.37549 0.37937,0.7309 1.25677,1.1774 1.47615,0.7512 3.06198,2.26681 3.51421,3.35859 0.371,0.89566 0.51466,0.92513 1.6583,0.34014 z m -9.51117,-0.56804 c 1.00033,-0.39338 2.55272,-2.13869 2.55272,-2.86995 0,-0.88744 -3.86948,-1.04074 -5.30047,-0.20999 -1.17459,0.68191 -2.09709,2.29478 -1.68595,2.94769 0.5731,0.91008 2.32303,0.96228 4.4337,0.13225 z m -5.12019,-2.02909 c 0,-1.08456 0.14241,-2.28449 0.31647,-2.66651 0.29898,-0.65618 0.23681,-0.76507 -1.12448,-1.9696 -0.79252,-0.70127 -1.47281,-1.24549 -1.51176,-1.20939 -0.0389,0.0361 0.10129,0.88705 0.31162,1.89101 0.21033,1.00395 0.46909,2.59928 0.57502,3.54516 0.1759,1.57064 0.57884,2.34503 1.23469,2.37284 0.10914,0.005 0.19844,-0.87895 0.19844,-1.96351 z m -1.96518,-0.95472 c -0.0998,-0.88204 -0.41214,-2.50577 -0.69412,-3.60828 -0.48318,-1.88921 -0.63169,-2.12852 -2.581,-4.15897 -1.59722,-1.6637 -2.13722,-2.42377 -2.37082,-3.33703 l -0.3025,-1.18262 0.1435,1.30305 c 0.20959,1.90311 1.55416,6.38375 2.48038,8.26561 0.69814,1.41844 2.95813,4.32197 3.36405,4.32197 0.0781,0 0.0603,-0.72168 -0.0395,-1.60373 z m 5.43116,-1.08127 c 0.70966,-0.21262 1.4825,-0.22585 2.60775,-0.0446 1.53735,0.24759 1.59918,0.23568 1.59918,-0.30792 0,-0.31101 -0.16609,-0.79261 -0.36909,-1.07023 -0.35893,-0.49087 -0.41008,-0.48403 -1.85708,0.24808 -1.38026,0.69835 -1.58818,0.73275 -2.87205,0.47517 -0.76124,-0.15273 -1.48276,-0.18248 -1.60339,-0.0661 -0.12062,0.11636 -0.28617,0.71 -0.36788,1.31918 l -0.14856,1.10761 1.00128,-0.67949 c 0.5507,-0.37371 1.45513,-0.81546 2.00984,-0.98165 z m 1.5782,-1.58092 c 0.7182,-0.30896 1.30582,-0.65669 1.30582,-0.77272 0,-0.34319 -1.52191,-0.5753 -2.58544,-0.39432 -1.20311,0.20473 -2.51403,1.09663 -1.91075,1.30001 0.39536,0.13329 1.26338,0.34033 1.66901,0.39809 0.11855,0.0169 0.80316,-0.2221 1.52136,-0.53106 z m -1.6046,-4.58201 c 0,-0.35521 -0.11906,-0.71943 -0.26458,-0.80936 -0.15437,-0.0954 -0.26459,0.17364 -0.26459,0.64584 0,0.44515 0.11906,0.80936 0.26459,0.80936 0.14552,0 0.26458,-0.29062 0.26458,-0.64584 z m -7.93932,-1.739 c -0.78125,-1.54806 -1.91189,-2.90723 -2.41807,-2.90723 -0.12427,0 -0.22594,0.2933 -0.22594,0.65178 0,0.43331 0.54449,1.23384 1.62448,2.38836 0.89347,0.95512 1.67517,1.6859 1.73712,1.62395 0.0619,-0.0619 -0.26097,-0.85272 -0.71759,-1.75727 z m 20.32262,-5.25446 c -0.13956,-1.67042 -0.60711,-1.03938 -0.66122,0.89243 -0.0518,1.85034 -0.0515,1.85124 0.34476,0.95966 0.21815,-0.49084 0.36056,-1.32427 0.31646,-1.85209 z m -28.59809,-0.46846 c 0.68991,-0.17315 1.27285,0.0653 2.69402,1.10197 1.15855,0.8451 1.66772,0.82648 2.5889,-0.0947 0.41277,-0.41277 0.91721,-0.80607 1.12096,-0.87398 0.60591,-0.20197 0.009,-0.94301 -1.68639,-2.09369 -0.84629,-0.57438 -1.82934,-1.04433 -2.18455,-1.04433 -0.81499,0 -3.73174,2.21816 -4.06323,3.09006 -0.1361,0.35796 -0.16521,0.96999 -0.0647,1.36008 l 0.18275,0.70924 0.38442,-0.99658 c 0.25662,-0.66527 0.59831,-1.05026 1.02781,-1.15806 z m 6.82758,0.48444 c -0.23768,-0.23767 -1.46071,0.76425 -1.46071,1.19663 0,0.33984 0.18045,0.2674 0.79099,-0.31754 0.43505,-0.4168 0.73642,-0.81239 0.66972,-0.87909 z m 35.1717,-10.34311 c 0.43761,-0.17119 0.38187,-0.22915 -0.3638,-0.37828 -1.10843,-0.22169 -6.25109,-0.2329 -6.03134,-0.0132 0.52972,0.52973 5.29589,0.82146 6.39514,0.39144 z m 0.67574,-3.99398 c -0.2179,-1.6453 -0.49434,-2.69633 -0.80028,-3.04271 -1.08723,-1.2309 -0.8496,-3.57187 0.36256,-3.57187 0.66945,0 1.43476,0.67675 1.1206,0.99091 -0.10141,0.10141 -0.28147,0.0273 -0.40014,-0.16471 -0.11867,-0.19201 -0.43961,-0.30665 -0.71322,-0.25476 -0.78265,0.14843 -0.79526,1.57052 -0.0222,2.50046 0.47878,0.57592 0.67632,1.2127 0.80065,2.58096 0.1811,1.99307 0.476,2.54922 1.35172,2.54922 0.98502,0 1.3867,-0.58124 1.99373,-2.8849 0.43951,-1.66796 0.53593,-2.52727 0.38593,-3.43958 -0.10997,-0.66888 -0.17045,-1.94059 -0.1344,-2.82601 0.0775,-1.90238 -0.42234,-3.28917 -1.64518,-4.56488 -1.41072,-1.47171 -2.68826,-1.98402 -4.94753,-1.98402 -2.35227,0 -3.73247,0.58752 -5.00802,2.13181 -1.80937,2.19057 -1.77146,4.84828 0.12557,8.80361 1.10157,2.29678 1.23352,2.75686 1.1137,3.88316 -0.0748,0.70273 -0.22261,1.48604 -0.32856,1.7407 -0.17577,0.42248 0.0473,0.46577 2.54765,0.49433 1.50715,0.0172 3.09747,0.10946 3.53403,0.20497 1.03207,0.22582 1.07994,-0.001 0.66336,-3.14669 z"
         id="path157" />
    </g>
  </g>
</svg>
