<?xml version="1.0" encoding="UTF-8" standalone="no"?>
<!-- Created with Inkscape (http://www.inkscape.org/) -->

<svg
   width="123.03125mm"
   height="58.049572mm"
   viewBox="0 0 123.03125 58.049572"
   version="1.1"
   id="svg1"
   inkscape:version="1.4.3 (0d15f75, 2025-12-25)"
   sodipodi:docname="shoulder-squeeze.svg"
   xmlns:inkscape="http://www.inkscape.org/namespaces/inkscape"
   xmlns:sodipodi="http://sodipodi.sourceforge.net/DTD/sodipodi-0.dtd"
   xmlns="http://www.w3.org/2000/svg"
   xmlns:svg="http://www.w3.org/2000/svg">
  <sodipodi:namedview
     id="namedview1"
     pagecolor="#ffffff"
     bordercolor="#000000"
     borderopacity="0.25"
     inkscape:showpageshadow="2"
     inkscape:pageopacity="0.0"
     inkscape:pagecheckerboard="0"
     inkscape:deskcolor="#d1d1d1"
     inkscape:document-units="mm"
     inkscape:zoom="0.042760943"
     inkscape:cx="222.16535"
     inkscape:cy="105.23622"
     inkscape:window-width="944"
     inkscape:window-height="250"
     inkscape:window-x="0"
     inkscape:window-y="34"
     inkscape:window-maximized="0"
     inkscape:current-layer="layer1" />
  <defs
     id="defs1" />
  <g
     inkscape:label="Layer 1"
     inkscape:groupmode="layer"
     id="layer1"
     transform="translate(-40.48125,-116.41667)">
    <g
       id="g504"
       transform="translate(-207.03972,42.829859)">
      <path
         style="fill:#000000"
         d="m 292.5855,131.47631 c -1.19578,-0.23277 -1.21653,-0.61062 -0.24632,-4.48533 0.50471,-2.01566 1.0507,-4.41125 1.21332,-5.32352 0.28856,-1.61881 0.27342,-1.70797 -0.62996,-3.70874 -1.47075,-3.25739 -1.54494,-5.41291 -0.14263,-4.14383 0.59529,0.53873 0.94178,1.64533 1.32119,4.21958 0.15013,1.01865 0.38146,2.11318 0.51407,2.4323 l 0.24111,0.5802 1.04696,-0.57347 c 0.99532,-0.5452 1.03001,-0.60643 0.70338,-1.24167 -0.99122,-1.92774 -2.51898,-8.83457 -2.51898,-11.38804 0,-0.67902 0.16694,-1.78929 0.37098,-2.46726 0.4263,-1.4165 0.24844,-1.52769 -1.11451,-0.69673 -0.99103,0.60421 -1.63772,1.90743 -1.63772,3.30036 0,1.04235 0.8768,3.89024 1.49164,4.84493 0.63267,0.98237 0.28821,1.18479 -0.37236,0.2188 -1.53815,-2.24934 -2.06918,-5.60301 -1.15854,-7.31667 0.56322,-1.05988 1.96616,-2.11254 2.8155,-2.11254 0.31973,0 0.80814,-0.25559 1.08536,-0.56798 l 0.50402,-0.56799 -1.48586,0.14833 c -2.62866,0.26242 -4.9154,1.68967 -5.9725,3.7277 -0.87822,1.69318 -1.41239,4.735 -2.21365,12.60578 -1.05458,10.35898 -1.41134,11.46903 -3.90905,12.16276 -1.31966,0.36653 -34.96998,0.3743 -34.96998,0.008 0,-0.17368 5.91255,-0.26458 17.20846,-0.26458 16.55709,0 17.24685,-0.0196 18.22286,-0.51751 1.69663,-0.86556 1.93215,-1.91196 3.21683,-14.29221 0.845,-8.14315 1.69317,-10.77728 4.01076,-12.45613 1.28869,-0.93352 3.2888,-1.57374 4.91657,-1.57374 0.93302,0 1.67231,-0.28324 3.56245,-1.36488 2.94516,-1.685392 4.03927,-2.627002 4.43075,-3.813203 0.38312,-1.160883 0.11184,-2.844653 -0.65634,-4.073667 -0.32132,-0.514088 -0.72074,-1.332348 -0.88759,-1.818356 -0.16685,-0.486007 -0.60082,-1.117627 -0.96437,-1.403599 -0.68507,-0.538871 -1.46663,-2.650998 -1.46663,-3.963478 0,-0.434688 0.21787,-0.883326 0.53778,-1.107398 0.45267,-0.317062 0.55259,-0.727691 0.63136,-2.59469 0.0515,-1.21991 0.29218,-2.769683 0.53492,-3.443941 0.5955,-1.65418 2.03732,-3.274725 3.68343,-4.140032 1.18315,-0.621944 1.66811,-0.714905 3.74064,-0.717025 2.07804,-0.0021 2.57428,0.09235 3.8972,0.741986 2.76042,1.355528 4.17259,3.894967 4.17259,7.503392 0,1.826212 0.0631,2.068758 0.6895,2.649261 0.62086,0.575394 0.67136,0.762783 0.5073,1.882423 -0.25166,1.717461 -1.03803,3.406326 -1.6811,3.610427 -0.31148,0.09886 -0.6086,0.495354 -0.70703,0.943489 -0.0934,0.425133 -0.45884,1.198929 -0.81214,1.719548 -0.50981,0.751251 -0.64216,1.285387 -0.64138,2.588475 10e-4,2.374495 0.47127,2.982106 3.76912,4.874378 2.32174,1.33218 3.08987,1.63448 4.79912,1.8887 2.1621,0.32157 3.53498,0.89394 4.9008,2.0432 2.1748,1.82998 3.21556,6.2817 4.12128,17.6283 0.24026,3.00984 0.56368,5.39423 0.82543,6.08542 0.53833,1.42149 1.6282,2.47578 2.93427,2.83847 0.65895,0.18298 6.96526,0.27994 18.27035,0.28091 11.332,9.7e-4 17.26406,0.0924 17.26406,0.26606 0,0.17375 -6.06673,0.26458 -17.67102,0.26458 h -17.67102 l -1.17841,-0.59531 c -1.27512,-0.64418 -2.20969,-1.82773 -2.63919,-3.34231 -0.14929,-0.52645 -0.45027,-3.10029 -0.66885,-5.71967 -0.77371,-9.27172 -1.72442,-14.24181 -3.1206,-16.31359 -1.11961,-1.66139 -3.04635,-2.62049 -5.99882,-2.9861 l -1.19063,-0.14744 0.74236,0.66159 c 0.4083,0.36387 0.92608,0.66158 1.15064,0.66158 0.22455,0 0.81916,0.19498 1.32136,0.43329 1.21347,0.57583 2.01956,2.1608 1.99511,3.92287 -0.0194,1.39555 -0.79147,3.96541 -1.49178,4.96524 -0.63414,0.90536 -0.51529,0.0238 0.25106,-1.86219 0.77462,-1.90635 0.86217,-3.91356 0.22891,-5.24806 -0.42088,-0.88694 -1.517,-1.68198 -2.31894,-1.68198 -0.34515,0 -0.33994,0.12852 0.0402,0.99219 0.96031,2.18185 0.26744,8.46584 -1.43143,12.98257 -0.63051,1.67629 -0.62488,2.16482 0.0249,2.16482 0.19187,0 0.50127,0.18364 0.68754,0.40809 0.52726,0.6353 0.76328,0.1463 1.18354,-2.4521 0.42985,-2.6577 0.75174,-3.67729 1.38012,-4.37165 1.44787,-1.59987 1.31466,1.30488 -0.19982,4.35733 -0.43211,0.87091 -0.78564,1.81561 -0.78564,2.09934 0,0.28372 0.53361,2.67696 1.18581,5.3183 1.08868,4.40908 1.15319,4.85221 0.78765,5.41011 -0.612,0.93402 -2.93703,0.70178 -3.75519,-0.3751 -0.29989,-0.39473 -0.36482,-0.39513 -0.796,-0.005 -1.15226,1.04279 -8.27139,0.76809 -10.63793,-0.41047 -0.64741,-0.32242 -1.54038,-1.04376 -1.98437,-1.60297 -0.79994,-1.00752 -0.80727,-1.04593 -0.80727,-4.23333 0,-2.23593 0.15501,-3.8849 0.50842,-5.40867 0.49166,-2.1198 0.49288,-2.24138 0.0371,-3.68735 l -0.47135,-1.49528 -0.74026,2.93691 c -0.85663,3.3986 -2.02191,6.00843 -3.27689,7.33909 -1.67517,1.7762 -3.46569,1.05624 -5.30788,-2.13425 -0.41164,-0.71291 -0.77947,-1.33475 -0.81741,-1.38186 -0.10699,-0.13284 -1.65245,0.71155 -1.83096,1.00037 -0.0874,0.14136 0.0296,1.34328 0.25998,2.67092 0.23035,1.32765 0.44311,3.36466 0.47279,4.5267 0.0466,1.8226 -0.0166,2.16465 -0.45961,2.49033 -0.48798,0.35872 -1.7138,0.43844 -2.97292,0.19334 z m 2.72918,-0.66847 c 0.32503,-0.52591 0.17793,-3.70147 -0.30654,-6.61727 -0.55372,-3.33261 -0.79115,-3.84649 -0.99284,-2.14889 -0.0839,0.70645 -0.47574,2.53462 -0.87067,4.06259 -0.39492,1.52796 -0.7726,3.21481 -0.83928,3.74854 -0.10658,0.85324 -0.0462,0.98466 0.4998,1.08844 1.25357,0.23826 2.31469,0.18184 2.50953,-0.13341 z m 29.41225,-0.497 c 0.044,-0.37853 -0.34299,-2.41656 -0.85989,-4.52897 -0.5169,-2.11241 -0.93982,-4.03514 -0.93982,-4.27272 0,-0.23758 -0.12654,-0.43197 -0.28121,-0.43197 -0.15467,0 -0.25216,0.20836 -0.21665,0.46302 0.0355,0.25466 -0.0844,1.11787 -0.26638,1.91823 -0.19026,0.83656 -0.295,2.63322 -0.24638,4.22615 0.0809,2.6496 0.11354,2.78583 0.74604,3.11112 1.05382,0.54197 1.97004,0.32677 2.06429,-0.48486 z m -4.5433,0.14695 c 0.66059,-0.13407 0.88292,-0.80146 0.8879,-2.66522 0.002,-0.74492 0.18841,-2.4118 0.41428,-3.70417 l 0.41068,-2.34976 -0.69001,-0.59531 c -0.37951,-0.32742 -0.8322,-0.59519 -1.00599,-0.59505 -0.17379,1.5e-4 -0.6486,0.59251 -1.05515,1.31635 -2.43391,4.33352 -4.55541,4.22549 -6.80019,-0.34627 -0.58359,-1.18853 -1.38199,-3.39986 -1.77423,-4.91407 l -0.71316,-2.7531 -0.50417,1.51252 c -0.48572,1.45715 -0.48757,1.59182 -0.0506,3.67914 0.56332,2.69092 0.87646,9.07872 0.43157,8.80376 -0.18253,-0.11281 -0.30181,-0.98727 -0.30295,-2.22098 -0.002,-1.95891 -0.60205,-6.82807 -0.87544,-7.10145 -0.35067,-0.35068 -0.97613,3.50616 -0.96896,5.97503 0.0119,4.10605 1.61624,5.68298 6.2119,6.10586 1.98619,0.18276 5.11389,0.11061 6.38453,-0.14728 z m -17.6922,-6.3501 c 1.26106,-0.88328 3.08399,-5.18373 3.92863,-9.268 0.39303,-1.90046 0.39003,-1.9377 -0.25774,-3.20048 -1.26228,-2.46076 -1.35867,-2.46166 -1.3625,-0.0127 -0.003,1.95029 -0.10251,2.401 -0.8769,3.97401 -0.98636,2.00357 -2.33504,3.20691 -4.68666,4.1816 -0.79445,0.32928 -1.44445,0.67739 -1.44445,0.77357 0,0.38573 2.104,3.39923 2.55733,3.6628 0.69197,0.40231 1.46696,0.36223 2.14229,-0.11079 z m 14.43873,-0.23484 c 0.78587,-0.72832 2.2929,-3.00706 2.2929,-3.46705 0,-0.16675 -0.45216,-0.43866 -1.00479,-0.60423 -1.46609,-0.43925 -3.443,-1.83476 -4.32606,-3.0538 -1.11515,-1.53942 -1.92014,-4.38331 -1.71973,-6.07549 l 0.16067,-1.35656 -0.95745,1.58125 c -1.01789,1.68108 -1.12366,2.4468 -0.61262,4.43477 1.40248,5.45568 3.4491,9.18503 5.04063,9.18503 0.23741,0 0.74432,-0.28977 1.12645,-0.64392 z m -17.00492,-5.07178 c 2.91981,-1.53432 4.31213,-3.86541 4.32963,-7.24889 0.008,-1.53898 -0.11805,-2.22596 -0.56141,-3.06075 -0.64264,-1.21002 -2.25547,-2.76731 -3.57074,-3.44779 -0.9417,-0.4872 -3.23302,-1.15611 -3.97777,-1.16123 -0.61932,-0.004 -1.21922,1.2439 -1.41812,2.95063 -0.36603,3.14074 1.98177,12.92123 3.10174,12.92123 0.1555,0 1.099,-0.42894 2.09667,-0.9532 z m 20.32738,-0.48586 c 1.26982,-3.3939 2.30245,-9.01001 2.01611,-10.96495 -0.0984,-0.67212 -0.40736,-1.74338 -0.68648,-2.38058 l -0.50749,-1.15854 -1.38887,0.17677 c -4.26927,0.54337 -7.42343,4.18181 -6.96996,8.0401 0.36978,3.14628 1.9329,5.40229 4.70341,6.78832 1.03115,0.51587 1.96932,0.93794 2.08484,0.93794 0.11551,0 0.45231,-0.64758 0.74844,-1.43906 z m -27.0742,-2.37869 c -0.47759,-1.64285 -1.12172,-2.37091 -0.80661,-0.91171 0.28431,1.31655 1.00449,3.027 1.12381,2.66905 0.0569,-0.17069 -0.0858,-0.9615 -0.3172,-1.75734 z m 31.46497,-0.92825 c 0.13235,-0.60257 0.10313,-0.82122 -0.0935,-0.6997 -0.31092,0.19216 -1.10509,2.63857 -1.07481,3.31091 0.024,0.53244 0.91548,-1.46009 1.16831,-2.61121 z m -15.39755,-1.20713 c 0.23704,-0.87312 0.48021,-2.68657 0.54038,-4.02988 0.14311,-3.19467 0.93451,-4.94522 2.76742,-6.12139 1.31304,-0.84258 3.8253,-1.62269 5.2257,-1.62269 0.45449,0 0.90161,-0.0753 0.99359,-0.16724 0.092,-0.092 -0.87044,-0.81568 -2.13871,-1.60822 -2.7295,-1.705658 -3.27478,-2.359251 -3.44484,-4.129165 -0.11751,-1.22296 -0.15709,-1.286785 -0.50827,-0.819656 -0.86758,1.154045 -2.48882,4.726171 -2.84316,6.264421 -0.20911,0.90777 -0.56445,3.24112 -0.78966,5.18522 -0.25769,2.22457 -0.61245,3.9898 -0.95712,4.7625 -0.53857,1.20739 -0.53971,1.25285 -0.0689,2.73914 0.26329,0.83125 0.54934,1.42656 0.63567,1.32291 0.0863,-0.10365 0.3509,-0.90282 0.58794,-1.77595 z m -1.40857,-2.71198 c 0.15442,-0.5457 0.46164,-2.59765 0.68271,-4.55988 0.497,-4.4113 0.94422,-6.18698 2.20791,-8.766368 l 0.98734,-2.015312 -1.07473,0.488147 c -1.90241,0.864082 -3.9365,0.561613 -5.75558,-0.855851 -0.53717,-0.418576 -1.0359,-0.761047 -1.10829,-0.761047 -0.0724,0 -0.11875,0.327422 -0.10302,0.727604 0.093,2.365209 -0.57915,3.339317 -3.50251,5.076047 -1.01757,0.60453 -1.85013,1.21289 -1.85013,1.35192 0,0.13902 0.46371,0.25276 1.03047,0.25276 1.82324,0 4.4678,0.99399 5.72312,2.15111 1.39386,1.28481 1.94416,2.7411 2.16156,5.72025 0.0876,1.20054 0.19553,2.18281 0.23984,2.18281 0.0443,0 0.2069,-0.44649 0.36131,-0.99219 z m -1.44205,-3.66186 c -0.82583,-2.84075 -2.97923,-4.35154 -6.90151,-4.842 -1.76701,-0.22095 -2.19933,-0.19697 -2.73486,0.1517 -0.7625,0.49645 -0.47996,0.71766 1.25326,0.9812 2.59874,0.39516 5.95759,3.05626 7.86258,6.22926 l 0.78066,1.30028 0.0812,-1.1836 c 0.0446,-0.65098 -0.10894,-1.83755 -0.3413,-2.63684 z m 5.95821,0.98577 c 1.21941,-1.80134 2.05221,-2.72661 3.05094,-3.38974 1.42842,-0.94841 3.41283,-1.67323 4.58099,-1.67323 0.67274,0 0.674,-0.004 0.15639,-0.5002 -0.46743,-0.44807 -0.72864,-0.47549 -2.50619,-0.26306 -3.84061,0.45899 -5.89473,1.76471 -6.86785,4.36562 -0.52837,1.4122 -0.77677,4.70554 -0.316,4.18962 0.12346,-0.13825 0.97924,-1.3663 1.90172,-2.72901 z m -1.88745,-12.722714 c 1.40153,-0.715006 3.29844,-2.9074 4.01834,-4.644272 0.33152,-0.799875 0.75672,-1.454318 0.94487,-1.454318 0.50636,0 1.08024,-1.018218 1.41208,-2.505411 0.37913,-1.699171 0.17351,-2.612233 -0.53744,-2.386583 -0.4922,0.156216 -0.52036,0.03072 -0.52036,-2.319085 0,-2.937593 -0.44045,-4.451759 -1.73486,-5.96398 -2.47421,-2.890556 -7.87755,-3.2345 -10.70361,-0.681326 -1.6942,1.530603 -2.43852,3.38287 -2.58544,6.433921 -0.10492,2.178804 -0.19287,2.584996 -0.55405,2.558805 -1.03769,-0.07525 -0.23853,4.131391 0.88185,4.64187 0.31978,0.145702 0.75568,0.788728 1.01375,1.49547 1.48624,4.070087 5.40911,6.332825 8.36487,4.824909 z"
         id="path323" />
    </g>
  </g>
</svg>
