<?xml version="1.0" encoding="UTF-8" standalone="no"?>
<!-- Created with Inkscape (http://www.inkscape.org/) -->

<svg
   width="123.07778mm"
   height="60.660118mm"
   viewBox="0 0 123.07778 60.660118"
   version="1.1"
   id="svg1"
   inkscape:version="1.4.3 (0d15f75, 2025-12-25)"
   sodipodi:docname="side-bend.svg"
   xmlns:inkscape="http://www.inkscape.org/namespaces/inkscape"
   xmlns:sodipodi="http://sodipodi.sourceforge.net/DTD/sodipodi-0.dtd"
   xmlns="http://www.w3.org/2000/svg"
   xmlns:svg="http://www.w3.org/2000/svg">
  <sodipodi:namedview
     id="namedview1"
     pagecolor="#ffffff"
     bordercolor="#000000"
     borderopacity="0.25"
     inkscape:showpageshadow="2"
     inkscape:pageopacity="0.0"
     inkscape:pagecheckerboard="0"
     inkscape:deskcolor="#d1d1d1"
     inkscape:document-units="mm"
     inkscape:zoom="0.042760943"
     inkscape:cx="222.16535"
     inkscape:cy="105.23622"
     inkscape:window-width="944"
     inkscape:window-height="250"
     inkscape:window-x="0"
     inkscape:window-y="34"
     inkscape:window-maximized="0"
     inkscape:current-layer="layer1" />
  <defs
     id="defs1" />
  <g
     inkscape:label="Layer 1"
     inkscape:groupmode="layer"
     id="layer1"
     transform="translate(-40.48125,-115.09375)">
    <g
       id="g506"
       transform="translate(-207.03972,-25.2479)">
      <path
         style="fill:#000000"
         d="m 361.2918,189.7791 c -4.03337,-0.95605 -5.97405,-2.89087 -6.27961,-6.26062 l -0.1355,-1.4943 -1.4888,-0.30923 c -1.98002,-0.41126 -4.22868,-1.50469 -7.19164,-3.49697 -3.38687,-2.27733 -4.95514,-2.95372 -6.84846,-2.95372 -1.93582,0 -3.56702,0.69743 -4.73048,2.02255 -1.09403,1.24605 -1.37203,1.96458 -1.36875,3.53769 0.005,2.40315 1.86793,5.19023 4.30392,6.43903 1.36218,0.69831 3.65431,0.76849 4.84849,0.14843 1.11299,-0.5779 2.96334,-2.12799 2.61398,-3.07626 -1.98653,-5.392 -12.58423,4.27375 -13.81159,3.87904 -0.55738,-0.17925 12.00421,-9.65346 14.29695,-4.01062 0.46023,1.13272 -2.67966,3.74836 -4.06033,4.07957 -3.75388,0.90055 -8.20276,-2.70895 -8.64726,-7.01575 -0.27448,-2.65943 1.58228,-5.32182 4.34803,-6.2346 0.53523,-0.17664 1.69825,-0.25661 2.69109,-0.18505 2.08311,0.15015 3.58693,0.84788 7.12559,3.30604 2.67906,1.86104 4.69038,2.79381 6.88389,3.1925 1.20917,0.21977 1.42663,0.19521 1.54996,-0.17503 1.20254,-3.61017 4.34618,-6.18848 6.47185,-5.308 0.93012,0.38527 1.28076,0.97532 1.28076,2.15523 0,2.19367 -2.37515,3.78844 -5.95313,3.99718 l -1.5875,0.0926 0.004,1.43527 c 0.005,2.12437 1.01471,3.71628 2.98555,4.70908 2.98324,1.50279 6.49457,1.70268 10.11519,0.57581 1.55887,-0.48517 2.17652,-0.52643 1.7682,-0.11811 -0.0905,0.0905 -0.97354,0.39161 -1.96232,0.66915 -2.37076,0.66543 -5.39341,0.83247 -7.22176,0.39908 z m -1.03849,-8.93944 c 1.65468,-0.71182 2.36141,-1.57894 2.36141,-2.89733 0,-1.62727 -1.47996,-2.31107 -3.14188,-1.45166 -1.35811,0.70231 -3.06953,2.89823 -3.60229,4.6221 -0.19651,0.63587 -0.19571,0.63613 1.43182,0.46602 0.89564,-0.0936 2.22357,-0.42622 2.95094,-0.73913 z"
         id="path158"
         sodipodi:nodetypes="cscssssssssssssssssssssccssssccssssss" />
      <path
         style="fill:#000000"
         d="m 293.29389,200.56456 c 0,-0.0839 0.47189,-0.81161 1.04864,-1.61704 l 1.04864,-1.46441 -0.50031,-0.9807 c -1.04224,-2.04296 -3.29887,-3.48038 -9.39732,-5.98587 -3.34521,-1.37434 -6.77692,-4.01418 -7.61799,-5.86012 -0.23841,-0.52326 -0.42762,-0.61808 -0.97168,-0.48693 -0.37158,0.0896 -3.11639,0.27478 -6.09956,0.41158 -2.98318,0.1368 -6.61459,0.37599 -8.06979,0.53152 -5.57574,0.59596 -11.39105,2.91276 -14.48594,5.77117 -0.50315,0.4647 -0.72761,0.55364 -0.72761,0.28829 0,-0.35344 1.86565,-1.94167 3.43959,-2.92813 1.39562,-0.8747 4.99979,-2.30191 7.14915,-2.83097 3.19467,-0.78636 5.92194,-1.07411 12.64839,-1.33449 3.24881,-0.12577 6.01932,-0.34106 6.15669,-0.47843 0.15663,-0.15663 0.0999,-0.67462 -0.15223,-1.38915 -0.96098,-2.72371 -0.28,-5.9389 1.68745,-7.96709 2.13948,-2.20552 4.46227,-2.39059 6.47227,-0.51568 1.07962,1.00706 1.09557,1.04848 1.09557,2.84618 0,1.54955 -0.11016,1.99071 -0.73156,2.9297 -0.96619,1.46003 -2.7989,2.76356 -5.15542,3.66686 -1.05503,0.40441 -1.91823,0.87677 -1.91823,1.0497 0,0.17292 0.61082,0.98274 1.35738,1.79959 1.48968,1.62996 3.84225,3.14387 6.73685,4.33527 6.1175,2.51793 7.96,3.70155 8.84738,5.68357 l 0.46556,1.03986 0.46648,-0.76051 c 0.25656,-0.41829 1.038,-1.65349 1.73653,-2.7449 2.08072,-3.25099 2.36335,-4.42239 2.47708,-10.26637 0.1153,-5.92476 0.13422,-5.97568 4.41645,-11.88238 0.82498,-1.13794 1.07493,-1.2006 2.39645,-0.60078 2.77566,1.25983 4.96651,-0.071 4.96651,-3.01698 0,-1.2532 -0.37064,-2.5439 -0.73051,-2.5439 -0.11794,0 -0.21494,0.62508 -0.21555,1.38906 -10e-4,1.55608 -0.84173,3.36167 -1.88212,4.04336 -0.83012,0.54392 -0.76839,0.24019 0.16791,-0.8262 0.71434,-0.81359 1.33223,-2.32555 1.33587,-3.26883 0.002,-0.40841 -1.27608,-1.86656 -1.63552,-1.86656 -0.1183,0 -0.21508,0.29206 -0.21508,0.64901 0,1.51446 -1.50289,3.01404 -3.13582,3.12892 -0.95957,0.0675 -1.00392,0.13975 -0.37033,0.60304 0.90572,0.66228 0.11081,0.6602 -0.86538,-0.002 -0.54669,-0.37099 -1.16188,-0.67453 -1.36708,-0.67453 -0.2052,0 -0.75413,-0.19921 -1.21985,-0.44269 -0.46571,-0.24347 -1.21267,-0.41975 -1.65989,-0.39173 -1.05863,0.0663 -2.59682,-0.9609 -2.71905,-1.81584 -0.0509,-0.35623 -0.42204,-1.06652 -0.82469,-1.57841 -1.32857,-1.68904 -1.86083,-3.04104 -1.86083,-4.72672 0,-1.33114 0.12996,-1.76093 0.8599,-2.84373 2.14817,-3.18664 6.13443,-3.42236 8.91544,-0.52719 0.50149,0.52207 1.12051,0.94923 1.3756,0.94923 0.65835,0 1.89083,1.72514 1.94846,2.72734 0.0267,0.46449 0.17733,1.15715 0.3347,1.53923 0.15736,0.38209 0.41461,1.17189 0.57166,1.75512 0.35759,1.32801 0.89607,1.78351 2.1084,1.78351 0.85062,0 0.98471,0.098 1.26717,0.92604 1.06081,3.10985 -0.55783,6.08542 -3.31032,6.08542 -0.43888,0 -1.34081,-0.23269 -2.00428,-0.51708 l -1.2063,-0.51708 -1.6599,2.36518 c -0.91295,1.30085 -1.92644,2.87372 -2.2522,3.49528 -0.68364,1.3044 -1.25398,4.98087 -1.05144,6.77777 0.0754,0.66924 0.034,2.30757 -0.0922,3.64073 -0.2712,2.86651 -0.81374,4.2189 -3.3057,8.2401 -2.71252,4.37711 -3.39751,5.35362 -3.75578,5.35417 -0.1819,2.8e-4 -0.33073,-0.0682 -0.33073,-0.15211 z m -12.8401,-18.04393 c 2.41511,-0.94436 4.71077,-3.08119 5.16939,-4.81174 0.4051,-1.52857 0.0159,-2.90053 -1.08571,-3.82749 -2.22448,-1.87177 -5.27586,-0.845 -6.84991,2.30495 -0.87192,1.74486 -1.07246,4.01476 -0.50995,5.77208 0.15834,0.49466 0.33793,1.06056 0.3991,1.25756 0.12074,0.38881 0.0781,0.39912 2.87708,-0.69536 z m 26.18948,-14.72197 c 0.49333,-0.20613 1.11312,-0.70468 1.37732,-1.1079 0.67114,-1.02429 0.59891,-3.29553 -0.16057,-5.04958 -0.32695,-0.75508 -0.51889,-1.49514 -0.42653,-1.64457 0.26901,-0.43527 -0.85592,-2.41082 -1.2801,-2.24805 -0.21029,0.0807 -0.90546,-0.38146 -1.6235,-1.07931 -1.61887,-1.57337 -2.6178,-2.08158 -4.10209,-2.08697 -1.58164,-0.006 -3.30703,0.95828 -4.33459,2.42186 -1.12426,1.6013 -1.11146,3.34395 0.0393,5.35532 0.45946,0.80305 1.14092,1.74713 1.51436,2.09796 0.4358,0.40941 0.625,0.80797 0.52826,1.11278 -0.17908,0.56422 1.32983,1.62486 2.05691,1.44584 0.25073,-0.0617 1.1437,0.17059 1.98437,0.51629 1.75148,0.72024 3.14046,0.80381 4.42683,0.26633 z"
         id="path156" />
      <path
         style="fill:#000000"
         d="m 298.85014,200.82859 c 0,-0.0842 0.57944,-0.82839 1.28764,-1.65365 2.17248,-2.53155 3.1665,-4.21923 3.97435,-6.74775 0.81238,-2.54273 2.14634,-8.61889 2.14634,-9.77653 0,-0.79714 0.2429,-1.51264 0.5135,-1.51264 0.10576,0 0.6513,0.66646 1.21231,1.48102 0.59721,0.86712 1.62042,1.8816 2.46848,2.4474 2.38766,1.59299 2.55259,1.95329 2.55259,5.57642 0,3.90649 0.0545,3.98891 2.6359,3.98891 2.77439,0 5.6181,-0.82889 9.66722,-2.8178 1.96453,-0.96498 3.95883,-1.91795 4.43177,-2.11773 0.47295,-0.19978 0.85874,-0.51047 0.85733,-0.69042 -0.001,-0.17995 -0.41167,-0.84178 -0.91168,-1.47074 -1.39677,-1.75699 -1.90741,-3.04037 -2.80846,-7.05852 -0.68004,-3.03254 -0.98985,-3.92005 -1.70864,-4.89479 -1.74087,-2.36076 -3.72657,-3.90671 -7.40094,-5.76195 -3.86356,-1.95077 -5.42829,-3.81078 -5.91663,-7.03317 -0.22642,-1.49403 -0.50315,-2.14893 -1.56527,-3.70416 -0.70962,-1.0391 -1.71785,-2.66317 -2.24051,-3.60905 -1.11315,-2.01456 -1.36752,-2.2615 -5.88274,-5.7108 -6.60902,-5.04883 -6.52545,-5.00277 -8.4223,-4.64254 -1.16509,0.22126 -3.15092,0.25216 -5.01057,0.078 -0.57994,-0.0543 -0.61436,-0.98702 -0.0445,-1.20569 0.23018,-0.0883 0.77589,-0.1606 1.21267,-0.1606 0.50158,0 0.75504,-0.11737 0.68797,-0.31858 -0.17848,-0.53544 -1.71899,-0.77136 -3.48868,-0.53425 -1.91761,0.25692 -2.88045,0.0235 -2.75253,-0.66727 0.0657,-0.355 0.80209,-0.64148 3.12849,-1.21717 l 3.04252,-0.75289 2.47437,0.56442 c 4.15977,0.94887 9.595,3.30353 13.38946,5.8006 1.6445,1.08222 4.62554,3.96245 8.72511,8.43008 0.69802,0.76068 2.08606,2.48709 3.08454,3.83645 2.38599,3.22451 6.80914,11.93262 7.62972,15.02111 0.40887,1.53889 0.99651,2.87549 1.8612,4.23333 1.56233,2.45336 3.84885,6.98716 4.09445,8.11862 0.10058,0.46342 0.0585,1.29291 -0.0934,1.84333 -0.24913,0.90228 -0.21219,1.06768 0.37539,1.68098 0.78016,0.81432 1.85338,3.36423 2.36988,5.63072 0.52469,2.30246 0.81829,5.6024 0.47984,5.39322 -0.14732,-0.091 -0.35171,-1.0165 -0.4542,-2.05655 -0.33923,-3.44269 -1.49168,-6.98036 -2.87465,-8.82431 -0.37356,-0.49807 -0.4439,-0.46588 -1.9102,0.87423 -1.798,1.64328 -6.51673,4.05362 -9.12126,4.65917 -0.97462,0.2266 -2.98399,0.40155 -4.63748,0.40376 -2.11116,0.003 -3.06863,0.10963 -3.46371,0.38636 -0.30031,0.21035 -0.9382,1.28191 -1.41752,2.38125 -0.85579,1.96278 -1.49655,2.7111 -1.08112,1.26259 0.81249,-2.83299 2.22914,-4.55545 3.74665,-4.55545 0.50657,0 0.46567,-0.0782 -0.31759,-0.60699 l -0.89902,-0.60699 v -3.33901 c 0,-3.78616 -0.0661,-3.93066 -2.51797,-5.50402 -0.67407,-0.43255 -1.63344,-1.35301 -2.13193,-2.04545 -0.84916,-1.17955 -0.91175,-1.21726 -0.99187,-0.59754 -0.047,0.3638 -0.42818,2.34458 -0.84697,4.40172 -1.27475,6.26172 -2.26479,8.6025 -5.0485,11.9363 -1.41191,1.69091 -2.0888,2.26289 -2.0888,1.76505 z m 20.08208,-5.41727 c 3.17706,-0.5155 7.65471,-2.49236 9.87288,-4.35882 1.13492,-0.95498 0.68028,-0.81134 -2.01763,0.63744 -3.09602,1.66257 -7.09318,3.14881 -9.05994,3.3687 -1.86935,0.209 -2.78796,0.61245 -1.41489,0.62142 0.50932,0.003 1.68813,-0.11761 2.61958,-0.26874 z m 12.36662,-8.61238 c -0.2222,-1.62112 -3.9272,-8.87062 -4.32844,-8.46937 -0.21462,0.21462 1.24117,5.72563 1.80801,6.84436 0.79649,1.57199 2.08061,3.14259 2.40531,2.94192 0.16061,-0.0993 0.20789,-0.64006 0.11512,-1.31691 z m -6.66011,-14.71103 c -2.85323,-7.23011 -6.87155,-13.48585 -12.26286,-19.09084 -4.47832,-4.65584 -4.92732,-5.03995 -8.10177,-6.93091 -2.89402,-1.72392 -6.60433,-3.28995 -10.37848,-4.3805 -3.10925,-0.89842 -3.34031,-0.89391 -6.95173,0.13565 l -2.24896,0.64114 2.64583,-0.0322 c 2.96536,-0.036 3.92143,0.27225 3.78637,1.22093 -0.0676,0.4748 -0.2831,0.59192 -1.21271,0.65907 -0.62178,0.0449 -1.06124,0.19373 -0.97657,0.33073 0.2092,0.33848 3.22894,0.31498 4.87459,-0.0379 1.77547,-0.38077 2.56386,0.0119 7.07314,3.52253 1.91986,1.49469 4.12252,3.20149 4.89479,3.7929 1.05339,0.80667 1.81969,1.76503 3.06763,3.83646 0.91492,1.51864 2.01166,3.29695 2.43721,3.9518 0.50962,0.78421 0.87023,1.80633 1.05642,2.99437 0.46448,2.96371 2.18538,5.02017 5.48211,6.55107 2.65439,1.23261 5.22787,3.02565 6.48869,4.5209 0.61288,0.72684 1.15538,1.19835 1.20556,1.0478 0.0502,-0.15055 -0.34548,-1.3804 -0.87926,-2.733 z"
         id="path155" />
    </g>
  </g>
</svg>
