<?xml version="1.0" encoding="UTF-8" standalone="no"?>
<!-- Created with Inkscape (http://www.inkscape.org/) -->

<svg
   width="123.03124mm"
   height="51.545372mm"
   viewBox="0 0 123.03124 51.545372"
   version="1.1"
   id="svg1"
   inkscape:version="1.4.3 (0d15f75, 2025-12-25)"
   sodipodi:docname="wrist-circles.svg"
   xmlns:inkscape="http://www.inkscape.org/namespaces/inkscape"
   xmlns:sodipodi="http://sodipodi.sourceforge.net/DTD/sodipodi-0.dtd"
   xmlns="http://www.w3.org/2000/svg"
   xmlns:svg="http://www.w3.org/2000/svg">
  <sodipodi:namedview
     id="namedview1"
     pagecolor="#ffffff"
     bordercolor="#000000"
     borderopacity="0.25"
     inkscape:showpageshadow="2"
     inkscape:pageopacity="0.0"
     inkscape:pagecheckerboard="0"
     inkscape:deskcolor="#d1d1d1"
     inkscape:document-units="mm"
     inkscape:zoom="0.042760943"
     inkscape:cx="222.16535"
     inkscape:cy="105.23622"
     inkscape:window-width="944"
     inkscape:window-height="250"
     inkscape:window-x="0"
     inkscape:window-y="34"
     inkscape:window-maximized="0"
     inkscape:current-layer="layer1" />
  <defs
     id="defs1" />
  <g
     inkscape:label="Layer 1"
     inkscape:groupmode="layer"
     id="layer1"
     transform="translate(-40.48125,-119.59167)">
    <path
       style="fill:#000000"
       d="m 40.4817,170.89775 c 0,-0.17042 6.02681,-0.29809 17.13177,-0.36291 18.66978,-0.10898 18.29845,-0.0797 21.22184,-1.67085 1.53877,-0.8375 3.39014,-3.08051 4.11995,-4.99147 0.45297,-1.18611 0.45293,-1.18652 -0.23029,-1.99848 -0.72498,-0.86159 -1.22895,-2.30064 -1.23138,-3.51617 -0.003,-1.73256 1.39471,-3.76854 3.23967,-4.71746 0.5457,-0.28067 0.99219,-0.63035 0.99219,-0.77707 0,-0.55887 -1.59124,-3.37918 -3.05293,-5.41103 -1.6735,-2.32628 -2.23874,-3.46391 -2.23874,-4.50584 0,-0.98171 -0.99241,-5.48099 -1.69924,-7.70386 -0.72326,-2.27453 -0.57086,-2.73926 0.89834,-2.73926 1.8291,0 3.40635,2.01985 4.36583,5.59091 0.22016,0.81942 0.62996,1.77192 0.91067,2.11666 l 0.51038,0.62681 0.2513,-0.66146 c 0.13821,-0.3638 0.44734,-2.20927 0.68695,-4.10104 0.83539,-6.59561 0.98111,-7.51061 1.60807,-10.09691 0.81833,-3.37576 1.04922,-3.948 1.78838,-4.43232 0.91919,-0.60227 1.73659,-0.2651 2.0424,0.84248 0.19138,0.69312 0.12384,1.8427 -0.25863,4.40201 -0.55525,3.71546 -0.67346,6.50661 -0.27557,6.50661 0.13505,0 0.32463,-0.68461 0.4213,-1.52135 0.35052,-3.03416 2.24189,-9.64347 3.16992,-11.07719 0.43428,-0.67091 1.1356,-0.89271 1.91318,-0.60507 1.01008,0.37365 0.98047,1.58532 -0.16422,6.72132 -1.10079,4.93904 -1.5457,7.52527 -1.24664,7.24662 0.0955,-0.0889 0.81308,-2.27688 1.59471,-4.86209 0.78164,-2.58521 1.6533,-5.01275 1.93703,-5.39454 0.63851,-0.85916 1.88024,-1.06975 2.36873,-0.4017 0.63936,0.87437 0.42065,2.17083 -1.64585,9.75627 -0.38091,1.3982 -0.63922,2.68579 -0.57402,2.86131 0.14158,0.38112 0.80541,-1.08953 2.16528,-4.79699 0.77369,-2.10936 1.15047,-2.80201 1.64733,-3.0284 0.86765,-0.39533 1.46554,0.0101 1.70808,1.15831 0.21124,1.00005 0.0655,1.69746 -1.23884,5.92788 -0.49762,1.61393 -1.09627,4.41318 -1.34388,6.28391 l -0.44654,3.3735 0.74507,1.65358 c 1.87119,4.15292 1.86794,8.68363 -0.009,12.04121 -0.51327,0.91833 -0.63036,1.48907 -0.60343,2.94138 0.0266,1.43325 -0.0855,1.9944 -0.54789,2.74252 -0.55092,0.89142 -2.43171,2.05244 -3.32483,2.05244 -0.20797,0 -0.56351,0.0711 -0.79009,0.15808 -0.3697,0.14187 -0.37095,0.23741 -0.0122,0.93126 1.36191,2.63363 6.89094,3.91286 11.09647,2.56734 0.997,-0.31898 3.57187,-2.54007 3.57187,-3.0811 0,-0.13385 -0.4559,-0.31627 -1.01312,-0.40537 -1.23051,-0.19677 -2.69758,-1.14344 -3.14631,-2.03024 -0.48952,-0.96742 -0.41295,-2.90877 0.151,-3.82851 0.48502,-0.79101 0.48391,-0.79912 -0.3214,-2.34374 -1.86036,-3.56823 -1.02389,-7.2412 2.05721,-9.03335 0.39905,-0.23211 0.41773,-0.4107 0.15217,-1.45521 -0.16649,-0.65484 -0.39485,-3.57187 -0.50748,-6.48229 -0.11263,-2.91041 -0.42697,-6.93638 -0.69854,-8.94659 -0.44358,-3.28351 -0.45322,-3.72714 -0.0949,-4.36562 0.52723,-0.93934 1.5727,-0.96463 2.0117,-0.0487 0.17452,0.36411 0.7119,2.38388 1.19419,4.48837 0.48229,2.10449 0.91263,3.58035 0.95631,3.27968 0.0437,-0.30066 -0.16467,-2.75889 -0.46302,-5.46273 -0.29834,-2.70384 -0.54069,-5.37057 -0.53854,-5.92609 0.008,-1.96128 1.07737,-3.00536 2.11616,-2.06528 0.58218,0.52687 0.84036,1.63431 1.57691,6.76401 0.30215,2.10432 0.66508,4.18103 0.80652,4.6149 0.36094,1.10722 0.078,-3.93288 -0.38977,-6.94223 -0.6629,-4.26499 -0.73435,-5.37541 -0.39813,-6.18713 0.58857,-1.42093 2.08547,-1.26418 2.68635,0.2813 0.44868,1.15404 1.53992,7.4406 1.71428,9.87588 0.0915,1.27841 0.28477,2.39753 0.42943,2.48693 0.17341,0.10718 0.19722,-1.70571 0.0699,-5.32181 -0.17615,-5.00216 -0.15268,-5.52905 0.26688,-5.99266 0.63648,-0.7033 1.55378,-0.63997 2.06659,0.14268 0.57382,0.87576 1.41555,6.25812 1.73949,11.12298 0.30915,4.64274 0.53782,6.48229 0.80579,6.48229 0.18005,0 1.85154,-3.50265 1.85154,-3.87996 0,-0.0941 0.30381,-0.56945 0.67514,-1.05628 0.80851,-1.06002 1.91775,-1.67834 3.01085,-1.67834 1.08886,0 1.30896,0.88836 0.57603,2.32502 -0.29837,0.58484 -0.65808,1.69995 -0.79936,2.47802 -0.14129,0.77806 -0.74825,2.85661 -1.34881,4.61899 -0.97745,2.86839 -1.3154,3.50196 -3.22355,6.04333 -1.1724,1.56145 -2.50366,3.06586 -2.95836,3.34312 -1.62913,0.9934 -3.66855,0.41364 -5.03574,-1.43153 -0.85444,-1.15317 -0.77399,-3.63665 0.16988,-5.24438 0.95364,-1.62436 2.03632,-2.50276 4.436,-3.599 1.09141,-0.49858 2.01155,-0.9333 2.04477,-0.96602 0.0332,-0.0327 -0.0554,-0.76655 -0.19701,-1.63072 -0.14156,-0.86416 -0.38302,-3.45263 -0.53657,-5.75215 -0.30147,-4.51488 -1.07238,-9.82743 -1.55765,-10.73415 -0.33565,-0.62719 -0.93245,-0.73728 -1.25927,-0.2323 -0.11773,0.1819 -0.21406,2.91362 -0.21406,6.07049 0,4.23814 -0.0865,5.82674 -0.33073,6.07219 -0.60365,0.60674 -0.87475,-0.14278 -1.12289,-3.10451 -0.32063,-3.82696 -1.53127,-10.17398 -2.05199,-10.75796 -0.59275,-0.66477 -1.0964,-0.57163 -1.41309,0.26132 -0.20485,0.53879 -0.13553,1.77573 0.27058,4.82864 0.72161,5.42464 0.92246,8.75781 0.55821,9.26368 -0.56797,0.7888 -0.9544,-0.44287 -1.83501,-5.84867 -0.9562,-5.86982 -1.14474,-6.58675 -1.73214,-6.58675 -1.09507,0 -1.15125,1.92666 -0.25916,8.88856 0.48639,3.79581 0.43156,5.49101 -0.18136,5.60711 -0.33669,0.0638 -0.56662,-0.51128 -1.10988,-2.77584 -0.37686,-1.57096 -0.81423,-3.50301 -0.97192,-4.29345 -0.3057,-1.53239 -0.6494,-2.13471 -1.21811,-2.13471 -0.64126,0 -0.67794,1.67047 -0.12703,5.78548 0.31349,2.34153 0.54516,5.53932 0.54631,7.54062 0.002,3.08424 0.2747,6.01378 0.68732,7.37755 0.10981,0.36291 0.43656,0.46358 1.51133,0.4656 1.99089,0.004 3.7114,0.90582 5.57968,2.92544 3.3162,3.58483 3.87295,7.53125 1.56154,11.06879 l -0.93377,1.4291 1.46463,-0.15117 c 2.02321,-0.20881 3.97159,-1.08959 3.7799,-1.70872 -0.30992,-1.00098 -0.95263,-5.96308 -0.95263,-7.35488 0,-1.74682 0.3301,-1.98425 1.77344,-1.27561 2.05131,1.00714 3.19188,3.82673 2.45328,6.06471 -0.18311,0.55486 -0.8731,1.58631 -1.53331,2.29212 l -1.20037,1.28329 1.03942,2.13954 c 1.51986,3.1285 2.83912,3.98558 7.05791,4.58531 2.10684,0.2995 5.94834,0.38672 17.1987,0.39048 9.47767,0.003 14.48593,0.0963 14.48593,0.26943 0,0.36654 -28.65392,0.35515 -31.40012,-0.0125 -4.48241,-0.60005 -6.18647,-1.62016 -7.58037,-4.53787 -0.50763,-1.06257 -0.98804,-2.136 -1.06759,-2.38539 -0.13401,-0.42017 -0.23552,-0.41323 -1.38337,0.0945 -0.6813,0.30138 -1.96662,0.60458 -2.85625,0.67379 -0.99473,0.0774 -2.22873,0.41143 -3.205,0.86758 -0.87313,0.40796 -2.01921,0.81744 -2.54686,0.90996 -0.76092,0.13343 -1.17138,0.45433 -1.98438,1.55145 -1.44759,1.95349 -3.3079,2.8496 -6.30372,3.0365 -4.1115,0.25651 -7.10487,-0.8661 -8.5566,-3.209 l -0.71678,-1.15679 -2.77812,-0.12901 c -2.25629,-0.10478 -3.19919,-0.28545 -5.01975,-0.96183 -1.2329,-0.45804 -2.69069,-1.19368 -3.23954,-1.63475 l -0.99792,-0.80195 -0.62362,1.40024 c -0.91861,2.0626 -2.52688,3.93677 -4.12297,4.80462 -2.97143,1.61568 -2.53838,1.58153 -21.38422,1.68675 -11.32435,0.0632 -17.26406,0.006 -17.26406,-0.16652 z m 55.19756,-5.25534 c -0.0748,-0.25466 -0.21515,-0.9095 -0.31186,-1.45521 -0.15229,-0.85925 -0.27194,-0.99218 -0.89302,-0.99218 -4.2995,0 -7.96265,-5.52137 -5.59337,-8.43075 0.31235,-0.38356 0.63483,-0.8975 0.71662,-1.1421 0.18468,-0.55227 1.93543,-1.27594 3.07848,-1.27248 0.47,10e-4 1.49144,0.29907 2.26988,0.66145 1.80257,0.83915 2.26567,0.82816 2.89834,-0.0687 1.45055,-2.05635 3.14937,-6.69337 2.86593,-7.8227 -0.14346,-0.57157 -2.44877,-3.01347 -3.87232,-4.10174 -0.81762,-0.62505 -2.98177,-1.72731 -4.79333,-2.44136 -1.32073,-0.52058 -3.52009,-0.75845 -3.86096,-0.41758 -0.0918,0.0918 0.74335,1.10239 1.85595,2.24569 2.41808,2.48481 3.09418,3.85796 3.09418,6.28427 0,3.10256 -1.09617,4.54248 -4.55521,5.98368 -1.82038,0.75846 -2.20293,1.02113 -2.25813,1.55056 -0.14787,1.41814 -0.67931,3.67846 -1.41032,5.99839 -0.4247,1.34781 -0.77217,2.49625 -0.77217,2.5521 0,0.0559 0.57063,0.46772 1.26806,0.91527 2.35933,1.51397 5.31042,2.36097 8.34091,2.39394 1.85096,0.0201 2.05406,-0.0262 1.93234,-0.44052 z m 2.39684,0.0668 c 2.19449,-0.65169 3.46736,-2.46838 3.08145,-4.39796 l -0.15273,-0.76361 -0.98446,0.8894 c -0.82611,0.74634 -2.17809,1.40639 -3.93109,1.9192 -0.33474,0.0979 -0.29708,0.78781 0.1248,2.28616 0.15815,0.56171 0.19149,0.56291 1.86203,0.0668 z m 13.96183,0.15357 c 0.0825,-0.13345 0.22133,-0.76337 0.30856,-1.39981 0.1459,-1.06443 0.1025,-1.18274 -0.54149,-1.47616 -0.38506,-0.17544 -1.28306,-0.86427 -1.99555,-1.53072 l -1.29544,-1.21174 -0.41408,0.80073 c -0.94042,1.81858 -0.25251,3.90038 1.54787,4.68426 0.9506,0.41389 2.17456,0.48223 2.39013,0.13344 z m 2.99012,-0.45905 c 0.61846,-0.22022 1.12448,-0.48255 1.12448,-0.58295 0,-0.1004 -0.50602,-0.31002 -1.12448,-0.46583 -0.61846,-0.1558 -1.31665,-0.36799 -1.55153,-0.47153 -0.32261,-0.14221 -0.46366,-0.007 -0.57678,0.55385 -0.0824,0.40816 -0.23267,0.95652 -0.33402,1.21857 -0.15876,0.41046 -0.0789,0.45373 0.57678,0.31238 0.41859,-0.0902 1.26709,-0.34426 1.88555,-0.56449 z m 2.85765,-2.0083 c 1.12844,-1.34107 1.77208,-3.06296 1.8057,-4.83063 0.0303,-1.59246 -0.60335,-3.80205 -1.23769,-4.31608 -0.40125,-0.32513 -3.49475,0.69225 -4.68764,1.54166 l -0.84768,0.60361 0.18656,3.33436 c 0.10261,1.8339 0.26579,3.41875 0.36262,3.52189 0.17582,0.18728 2.80766,0.95273 3.38904,0.98569 0.16897,0.01 0.63206,-0.36865 1.02909,-0.8405 z m -22.51205,-1.72178 c 0.0809,-0.5457 0.3396,-2.1069 0.57477,-3.46933 0.49305,-2.85629 0.60169,-2.66575 -1.98262,-3.47718 -3.01235,-0.94583 -4.47348,-0.60157 -5.06593,1.19356 -0.9469,2.86916 2.17822,6.61331 5.61098,6.7224 0.62995,0.02 0.73324,-0.096 0.8628,-0.96945 z m 2.65353,0.4637 c 1.52116,-0.73638 2.61237,-1.92269 2.39591,-2.6047 -0.0937,-0.29535 -0.90116,-1.21353 -1.79427,-2.04039 -1.87984,-1.7404 -1.82215,-1.78114 -2.29963,1.62397 -0.16152,1.15192 -0.34828,2.42182 -0.41502,2.82201 -0.10115,0.60656 -0.0263,0.7276 0.44998,0.7276 0.31422,0 1.06258,-0.23782 1.66303,-0.52849 z m 14.5923,-1.4958 c -0.0941,-1.11337 -0.17112,-2.42305 -0.17112,-2.91042 0,-0.48737 -0.0964,-0.88612 -0.21425,-0.88612 -0.27133,0 -3.06075,2.36029 -3.18754,2.69716 -0.17906,0.47576 2.77118,3.12367 3.48031,3.12367 0.16716,0 0.20106,-0.74117 0.0926,-2.02429 z m 13.0838,-0.41257 c 0.99595,-1.94207 0.30528,-4.41384 -1.59026,-5.69125 -1.2106,-0.81583 -1.34591,-0.77098 -1.34591,0.4461 0,1.22043 0.76209,6.88756 0.97184,7.22695 0.20844,0.33726 1.38249,-0.84723 1.96433,-1.9818 z m -40.94956,-1.5118 c 0.53445,-1.88073 0.97173,-3.78847 0.97173,-4.23944 v -0.81993 l -0.72761,0.45116 c -2.10841,1.30737 -3.19315,3.21833 -2.85377,5.02742 0.21066,1.12288 1.10197,3.00028 1.42441,3.00028 0.11743,0 0.6508,-1.53877 1.18524,-3.41949 z m 18.25778,-4.41387 c 0.34678,-2.40713 0.0122,-4.69075 -1.01117,-6.90201 l -0.71111,-1.5365 -0.50906,1.98437 c -0.56231,2.19193 -1.55028,4.3902 -2.47046,5.49686 -0.32966,0.39647 -0.75199,1.01053 -0.9385,1.36458 -0.30307,0.57532 -0.2721,0.69621 0.29142,1.13754 1.1021,0.86312 2.91943,2.69759 3.2155,3.24582 0.25596,0.47395 0.36741,0.35404 1.06819,-1.1493 0.43109,-0.92481 0.90938,-2.55983 1.06519,-3.64136 z m 8.95659,2.01253 c 0.43511,0 0.0249,-2.06428 -0.68345,-3.43958 -0.33729,-0.65485 -0.75845,-1.63711 -0.93591,-2.18282 -0.17746,-0.5457 -0.4529,-0.99218 -0.61208,-0.99218 -0.15918,0 -0.79651,0.52923 -1.41629,1.17607 -0.86915,0.9071 -1.16892,1.45642 -1.3107,2.40188 -0.2598,1.73251 0.0383,3.46603 0.82762,4.81293 l 0.67845,1.15768 1.58452,-1.46699 c 0.87149,-0.80684 1.71202,-1.46699 1.86784,-1.46699 z m 4.60282,-2.34737 1.44222,-0.43075 -0.66741,-0.98065 c -1.20372,-1.76866 -3.69391,-3.1204 -5.74842,-3.1204 -1.20702,0 -1.20503,0.0992 0.0557,2.77813 0.4109,0.87312 0.82806,2.01969 0.92702,2.54793 l 0.17993,0.96044 1.18439,-0.66197 c 0.65141,-0.36408 1.83338,-0.85581 2.6266,-1.09273 z m -19.52978,0.75987 c 0.28714,-0.45978 0.26423,-0.52917 -0.17467,-0.52917 -0.27783,0 -1.14204,-0.29649 -1.92047,-0.65887 -1.56735,-0.72964 -2.60349,-0.81145 -3.79659,-0.29975 -0.78252,0.33561 -0.77064,0.34254 0.839,0.49025 0.90946,0.0835 2.25733,0.44502 3.0427,0.81621 1.74639,0.82539 1.61519,0.81356 2.01003,0.18133 z m -8.46654,-2.65881 c 3.04442,-1.38041 4.03463,-2.72603 4.02421,-5.46863 -0.008,-2.1404 -0.70307,-3.48048 -3.06191,-5.90441 -2.16591,-2.22568 -2.36694,-2.85013 -1.03332,-3.20977 1.12558,-0.30353 3.52476,0.3499 6.21771,1.69343 1.67549,0.83591 2.77182,1.63565 4.29948,3.13633 1.12778,1.10787 2.05147,2.00227 2.05263,1.98756 0.23679,-2.9958 0.98697,-6.91518 1.84373,-9.63271 1.01993,-3.23506 1.35378,-5.66219 0.82387,-5.98969 -0.5344,-0.33027 -1.09084,0.24351 -1.61315,1.66342 -2.26253,6.1507 -2.79946,7.1358 -3.50486,6.4304 -0.3192,-0.3192 0.0894,-2.96066 0.75115,-4.85546 0.65919,-1.88761 1.73089,-7.18369 1.57741,-7.7952 -0.18709,-0.74544 -0.9457,-0.81118 -1.55765,-0.13498 -0.24007,0.26527 -1.10186,2.67629 -1.91509,5.35781 -1.51451,4.99392 -2.00669,6.02536 -2.51587,5.27238 -0.40533,-0.59941 -0.13483,-2.55187 1.0895,-7.86391 0.63532,-2.75648 1.04244,-5.09516 0.95064,-5.46092 -0.21668,-0.86331 -0.86193,-1.05962 -1.47332,-0.44822 -0.69561,0.6956 -2.53452,6.48471 -3.15029,9.9175 -0.55457,3.09158 -0.81746,3.62381 -1.50719,3.05138 -0.35824,-0.29731 -0.41239,-0.76672 -0.31767,-2.75368 0.0628,-1.3174 0.3204,-3.68269 0.57245,-5.2562 0.42599,-2.65941 0.4276,-2.90773 0.0229,-3.5254 -0.39927,-0.60935 -0.48304,-0.63282 -1.0099,-0.283 -1.0385,0.68954 -2.03679,4.79756 -2.97094,12.22557 -0.59992,4.77042 -0.983,6.51668 -1.50129,6.84361 -0.77056,0.48606 -1.48399,-0.52781 -2.36353,-3.35888 -0.90914,-2.92633 -1.85726,-4.24789 -3.34739,-4.66587 -1.071,-0.30041 -1.3174,0.10101 -0.84477,1.37627 0.32526,0.87765 1.00498,3.8149 1.82231,7.87466 0.41127,2.0428 0.63558,2.51684 2.44696,5.17117 1.09681,1.60722 2.20815,3.48245 2.46965,4.16719 0.26151,0.68474 0.58096,1.24498 0.70991,1.24498 0.12895,0 1.03508,-0.36303 2.01364,-0.80673 z m 33.68909,-0.66179 c 0.43695,-0.22596 1.73703,-1.68136 2.89467,-3.2405 1.86428,-2.51087 2.22283,-3.18874 3.17676,-6.00596 0.59141,-1.74661 1.22579,-3.89002 1.40972,-4.76315 0.18393,-0.87312 0.53465,-1.96854 0.77939,-2.43425 0.61771,-1.17547 0.56281,-1.40221 -0.33957,-1.40221 -1.36682,0 -2.48126,1.28012 -3.57749,4.10933 -1.10402,2.84931 -1.42897,3.17607 -4.7027,4.72888 -3.33127,1.5801 -4.90403,4.09309 -4.17836,6.67627 0.66085,2.35244 2.58516,3.34123 4.53758,2.33159 z"
       id="path2" />
  </g>
</svg>
