<?xml version="1.0" encoding="UTF-8" standalone="no"?>
<!-- Created with Inkscape (http://www.inkscape.org/) -->

<svg
   width="343.48972mm"
   height="211.6684mm"
   viewBox="0 0 343.48972 211.6684"
   version="1.1"
   id="svg1"
   xml:space="preserve"
   inkscape:version="1.4.3 (0d15f75, 2025-12-25)"
   sodipodi:docname="wrist-stretch.svg"
   xmlns:inkscape="http://www.inkscape.org/namespaces/inkscape"
   xmlns:sodipodi="http://sodipodi.sourceforge.net/DTD/sodipodi-0.dtd"
   xmlns="http://www.w3.org/2000/svg"
   xmlns:svg="http://www.w3.org/2000/svg"><sodipodi:namedview
     id="namedview1"
     pagecolor="#ffffff"
     bordercolor="#000000"
     borderopacity="0.25"
     inkscape:showpageshadow="2"
     inkscape:pageopacity="0.0"
     inkscape:pagecheckerboard="0"
     inkscape:deskcolor="#d1d1d1"
     inkscape:document-units="mm"
     inkscape:zoom="0.22714745"
     inkscape:cx="898.09507"
     inkscape:cy="140.87766"
     inkscape:window-width="1187"
     inkscape:window-height="691"
     inkscape:window-x="268"
     inkscape:window-y="94"
     inkscape:window-maximized="0"
     inkscape:current-layer="layer1" /><defs
     id="defs1" /><g
     inkscape:label="Layer 1"
     inkscape:groupmode="layer"
     id="layer1"
     transform="translate(45.129044,-266.77192)"><path
       style="fill:#000000"
       d="m -41.807373,478.26512 c 0,-0.0963 0.87627,-1.85248 1.947267,-3.9026 6.412417,-12.27474 13.459166,-21.84059 23.990767,-32.56707 2.571786,-2.61938 4.87204,-5.14354 5.111678,-5.60926 0.8034047,-1.56135 0.591506,-2.54412 -0.861937,-3.99756 -0.884787,-0.88479 -1.67942,-2.09844 -2.497615,-3.81464 -1.217649,-2.55407 -1.514282,-2.85778 -2.774822,-2.84104 -0.994464,0.0132 -1.165861,0.13625 -7.19826,5.1677 -6.082185,5.07298 -11.676008,9.58543 -12.731641,10.27043 -0.412714,0.26781 -0.768142,0.35101 -0.860578,0.20145 -0.272115,-0.4403 14.281127,-14.11031 16.72475,-15.70974 2.521747,-1.65056 2.607242,-1.72646 3.08933,-2.74238 0.756875,-1.595 0.415756,-3.2378 -1.155141,-5.56307 -1.612489,-2.38683 -2.407262,-4.45251 -2.600655,-6.75931 -0.273287,-3.25976 0.568179,-3.39178 1.507843,-0.23656 1.46228,4.91006 6.035808,8.1043 10.2956973,7.19072 2.136752,-0.45825 3.7053093,-1.33774 5.6386888,-3.16159 2.2558474,-2.12805 3.89633372,-4.73952 5.01392222,-7.98161 0.82674448,-2.39836 0.86675708,-2.69541 0.87316358,-6.48229 0.00369,-2.18282 -0.041953,-5.81422 -0.1014346,-8.0698 -0.1635773,-6.20291 0.7517019,-9.98934 3.1779009,-13.14669 2.449574,-3.18777 3.582517,-6.29376 3.842216,-10.53351 0.364575,-5.95193 -1.830692,-11.06411 -5.1823437,-12.06829 -0.927467,-0.27788 -1.1466956,-0.26492 -1.5003105,0.0887 -0.3757822,0.37578 -0.3563523,0.49227 0.2098379,1.25808 0.5357289,0.72462 0.6239663,1.14951 0.6239663,3.00461 0,2.53085 -0.5651393,3.91094 -2.00100978,4.88653 -0.6774568,0.4603 -1.0329637,1.01006 -1.4542866,2.24896 -1.48105012,4.35502 -3.27670562,6.90942 -9.86556982,14.03424 -5.901869,6.38194 -6.551074,7.59152 -9.129053,17.009 -1.583339,5.78401 -2.417735,7.87834 -4.164379,10.45259 -2.33787,3.44562 -7.29621,7.99975 -12.544034,11.52144 -3.095729,2.07747 -8.371126,5.14286 -8.675836,5.04129 -0.171288,-0.0571 -0.01658,-0.28726 0.346866,-0.51604 0.360829,-0.22714 2.203866,-1.36755 4.095637,-2.53424 5.754722,-3.54904 9.067377,-6.0525 12.308816,-9.30207 4.914228,-4.92657 5.900785,-6.77725 8.328683,-15.62376 2.436808,-8.87898 2.987118,-9.87999 9.039079,-16.44198 8.6291128,-9.35634 9.9356489,-11.75773 11.20777442,-20.59969 0.3035809,-2.11005 0.725534,-4.10246 0.93767348,-4.42757 1.0457145,-1.6026 3.6536883,-0.80392 5.5672523,1.70493 1.453908,1.9062 2.445474,5.82655 2.495487,9.86639 l 0.02129,1.71979 0.515358,-1.91814 c 1.0880698,-4.04976 2.9309358,-8.06767 4.1930048,-9.14181 0.606066,-0.51582 0.683495,-0.77789 0.683495,-2.31343 0,-1.37607 0.150536,-2.02169 0.732991,-3.14366 l 0.732991,-1.41194 -1.320411,0.17516 c -2.521879,0.33454 -11.018059,0.92817 -15.35911238,1.07314 -2.40109372,0.0802 -7.95347312,0.27865 -12.33862062,0.44103 -9.376346,0.34721 -9.874957,0.26898 -12.03177,-1.88783 -1.949059,-1.94906 -2.848835,-4.06149 -4.450051,-10.44752 -0.43785,-1.74625 -1.393775,-5.30673 -2.124278,-7.91217 -0.730502,-2.60544 -1.44779,-5.69103 -1.593973,-6.85686 -0.601911,-4.80033 1.087143,-8.64659 3.797083,-8.64659 0.35938,0 1.883339,0.29548 3.386577,0.65662 4.11637,0.98893 8.066879,1.60501 16.0946162,2.50994 4.0018228,0.45111 8.5670871,1.00346 10.14503172,1.22745 1.57794468,0.22398 2.88792728,0.36876 2.91107248,0.32172 0.023145,-0.047 0.6191726,-1.27615 1.3245048,-2.73135 2.699464,-5.56941 5.389391,-9.29636 9.7401588,-13.49522 3.711355,-3.58177 7.05297,-5.98467 11.201106,-8.05453 10.448,-5.2134 21.779948,-6.40773 32.826384,-3.45974 10.581552,2.82394 19.928001,9.30359 26.375949,18.28576 2.194664,3.05723 5.170942,8.95362 6.398806,12.67685 1.648131,4.9976 2.119397,8.31526 2.123463,14.94895 0.004,6.57216 -0.402011,9.36285 -2.12962,14.63677 -2.120352,6.47286 -5.319564,11.86068 -10.396483,17.50881 -0.718778,0.79965 -1.249673,1.54645 -1.179765,1.65957 0.486658,0.78742 5.282734,2.52035 8.249867,2.98086 0.632419,0.0982 1.049138,0.27227 0.926042,0.38692 -0.123097,0.11466 -1.890686,0.46999 -3.927978,0.78964 -8.908698,1.39775 -17.420287,4.43614 -24.441953,8.72508 -1.219324,0.74478 -2.283709,1.28739 -2.365298,1.2058 -0.08159,-0.0816 0.39304,-0.71115 1.054732,-1.39902 6.203374,-6.44879 10.187061,-13.73452 11.973765,-21.89871 0.380892,-1.74046 0.753156,-3.43723 0.827254,-3.7706 0.241556,-1.08679 0.565794,-0.37826 0.733206,1.60221 0.174423,2.06342 1.104527,5.48622 1.490814,5.48622 0.865054,0 5.243896,-6.33564 7.049821,-10.20022 5.727894,-12.25735 5.631583,-25.64374 -0.26944,-37.4496 -5.806146,-11.61606 -16.26807,-19.58474 -29.52269,-22.48696 -2.368804,-0.51867 -3.538291,-0.60841 -7.9375,-0.60907 -4.334053,-6.5e-4 -5.593249,0.0929 -7.871679,0.58491 -11.682315,2.5226 -21.244425,8.89096 -27.7711948,18.4956 -1.745993,2.56936 -3.427422,5.54063 -3.239779,5.72505 0.06666,0.0655 1.549946,0.374 3.296196,0.68553 3.8241888,0.68224 7.2619648,1.52806 12.0385408,2.96191 1.964532,0.58972 5.11938,1.42193 7.010775,1.84936 4.15202,0.93829 5.816503,1.66309 7.357028,3.20361 2.114307,2.11431 4.816338,7.42844 6.12462,12.04539 0.917269,3.23706 1.364674,6.16597 1.989423,13.02365 1.05841,11.61786 1.686276,16.06421 3.328996,23.57492 0.501641,2.29357 0.912074,4.46863 0.912074,4.83347 0,0.58927 0.140358,0.68382 1.256771,0.84655 2.734871,0.39864 4.544662,1.15142 5.878081,2.44496 1.47337,1.42931 1.744937,2.18537 2.141414,5.96184 0.28081,2.67474 0.06317,4.23535 -0.626041,4.48914 -0.624521,0.22998 0.221789,0.68147 2.594567,1.38418 6.320698,1.8719 16.482622,0.8116 27.06974,-2.82445 5.996979,-2.05961 11.499497,-5.09564 19.026581,-10.49797 7.77656,-5.58137 11.34199,-7.25051 14.49326,-6.78494 0.81532,0.12046 1.40856,-0.005 2.58356,-0.54433 0.83887,-0.38539 3.16059,-1.0364 5.15937,-1.44671 4.30173,-0.88305 4.74139,-1.03896 5.96885,-2.11669 1.24736,-1.0952 1.70354,-2.5823 2.03072,-6.61997 0.1474,-1.81901 0.39352,-4.0026 0.54694,-4.85244 1.41248,-7.82418 7.43461,-17.16144 14.13765,-21.92028 2.78721,-1.9788 4.71555,-2.98551 9.31307,-4.86202 2.35759,-0.96227 5.56521,-2.53354 7.35568,-3.60322 1.74625,-1.04326 3.29406,-1.96306 3.43958,-2.044 0.14552,-0.0809 0.83591,-0.2088 1.53421,-0.28416 l 1.26963,-0.137 -0.70429,-0.92604 c -1.21874,-1.6025 -1.93531,-3.48764 -2.27568,-5.98689 -0.30969,-2.27385 -0.37782,-2.44488 -1.19779,-3.00674 -1.56209,-1.07035 -2.89376,-1.01256 -5.77393,0.25058 -5.15793,2.2621 -18.08567,6.09722 -20.55299,6.09722 -2.74477,0 -3.51771,-3.51372 -2.02652,-9.21245 0.9301,-3.55451 2.0385,-5.85899 3.54255,-7.36536 1.51153,-1.51387 3.05489,-2.12713 8.19314,-3.2556 4.05111,-0.88972 6.85227,-1.78777 10.18646,-3.26579 7.03771,-3.11976 8.53657,-4.35927 12.54461,-10.37396 3.18368,-4.77762 4.96503,-6.81686 7.30838,-8.36643 0.79528,-0.52589 4.42253,-2.47815 8.06055,-4.33835 3.63802,-1.8602 7.38849,-3.82791 8.33438,-4.37269 3.21876,-1.85385 5.13683,-3.93751 7.24775,-7.87345 0.65152,-1.2148 1.28242,-2.06376 1.5756,-2.12019 0.46588,-0.0897 0.46446,-0.0586 -0.0301,0.65789 -0.2855,0.4136 -1.03773,1.68337 -1.67162,2.8217 -1.39189,2.49952 -3.43214,4.81339 -5.39027,6.11312 -0.79698,0.529 -4.89401,2.73018 -9.10452,4.8915 -4.2105,2.16132 -8.2001,4.30439 -8.86578,4.76239 -1.96163,1.34964 -3.81453,3.40999 -5.73103,6.37267 -0.98841,1.52796 -2.36399,3.58471 -3.05684,4.57055 -1.28003,1.82131 -2.15352,3.86895 -3.07286,7.2034 -0.76015,2.75711 -0.5698,5.63625 0.51874,7.8461 1.32582,2.69155 1.81343,3.00474 9.16815,5.8887 5.47443,2.14665 6.90946,2.60836 8.47489,2.72675 1.66508,0.12593 2.04157,0.063 3.23302,-0.5408 5.33306,-2.70246 10.77598,-9.55983 12.87856,-16.22529 1.05972,-3.35945 1.10305,-4.335 0.32722,-7.36837 -0.77064,-3.01306 -1.85607,-5.29068 -2.88881,-6.06173 -0.92628,-0.69156 -1.08658,-0.50705 -2.50798,2.88673 -1.23294,2.94379 -2.14895,4.30414 -2.67807,3.97713 -0.882,-0.54511 0.50095,-4.17484 2.42228,-6.35759 0.60904,-0.69191 1.36322,-1.80858 1.67595,-2.48149 0.81629,-1.7564 1.77627,-2.78648 3.64242,-3.90839 3.76342,-2.26253 5.3593,-4.19731 6.65626,-8.0698 0.56931,-1.69986 0.74368,-2.72889 0.75554,-4.45882 0.0162,-2.36343 -0.31807,-3.41304 -1.50477,-4.72495 -0.54152,-0.59867 -0.54332,-0.62001 -0.0445,-0.52734 1.46775,0.27267 2.48336,3.64219 2.02556,6.72024 -0.78562,5.28213 -2.98257,8.75934 -7.06763,11.18623 -2.15136,1.2781 -3.06782,2.15623 -3.78595,3.62761 l -0.5117,1.04842 0.82655,0.39687 c 1.07712,0.51718 2.49401,2.91336 3.26736,5.52559 0.56855,1.92045 0.59722,1.96239 0.61073,0.8934 0.0169,-1.34022 -0.74532,-3.46371 -1.68613,-4.69717 -0.84059,-1.10207 -0.84281,-1.19265 -0.0293,-1.19265 0.92294,0 2.62041,0.70998 9.11881,3.81401 4.9403,2.3598 7.71008,3.59432 8.06422,3.59432 0.0533,0 0.18128,-0.56275 0.28443,-1.25056 0.2974,-1.98326 1.00972,-3.11023 2.38739,-3.77715 1.39293,-0.6743 2.90094,-0.58604 4.27615,0.25027 0.9699,0.58984 2.03727,1.95136 2.38751,3.0455 0.17812,0.55643 0.48498,0.84243 1.06521,0.99278 0.44826,0.11616 1.17893,0.62567 1.62372,1.13225 0.76584,0.87225 0.98514,1.41341 1.62683,4.01452 0.31692,1.28463 1.46279,2.40132 3.51498,3.42547 1.53555,0.76631 3.2102,2.24251 3.78396,3.33554 0.6423,1.22358 1.40364,4.92593 1.7101,8.31602 0.31925,3.53163 0.0349,7.29933 -0.67991,9.01019 -0.37654,0.90119 -0.36753,0.93274 0.50137,1.7557 1.88119,1.78173 2.90387,5.30399 2.31022,7.95671 -0.17822,0.79637 -0.55468,1.74116 -0.83657,2.09952 -0.50723,0.64485 -0.50713,0.66346 0.01,1.8021 0.66513,1.46575 0.66459,2.2555 -0.002,3.34925 -0.53373,0.87543 -1.8813,1.63772 -2.89513,1.63772 -0.4008,0 -0.53767,0.17282 -0.53767,0.67886 0,0.89238 -0.4419,1.68716 -1.06655,1.91824 -0.46421,0.17172 -0.39692,0.39797 0.8772,2.94919 1.33021,2.66354 1.42241,2.77699 2.5564,3.14573 1.5725,0.51134 4.20524,0.10524 7.45549,-1.15001 3.19622,-1.23439 4.19482,-1.3815 5.22931,-0.77041 1.17222,0.69245 1.69874,1.97215 1.56606,3.80633 -0.26053,3.60192 -3.04381,6.76263 -8.13064,9.23323 l -3.06331,1.4878 -0.17276,2.64584 c -0.095,1.4552 -0.59396,5.08661 -1.10876,8.06979 -0.51481,2.98317 -1.19135,7.9838 -1.50344,11.1125 -0.62872,6.30304 -1.22666,9.63076 -2.19071,12.192 -2.95529,7.85146 -7.07597,11.50687 -16.38943,14.53886 -1.85539,0.60403 -3.37344,1.13804 -3.37344,1.18671 0,0.18753 4.81511,2.83171 7.43963,4.08542 9.41766,4.49872 20.16549,5.71416 29.28348,3.31159 13.96179,-3.67891 25.40597,-14.22071 29.82071,-27.46934 1.68648,-5.06114 2.0828,-7.61517 2.10009,-13.53378 0.0134,-4.59335 -0.0667,-5.67575 -0.60711,-8.20209 -1.30478,-6.09957 -3.78019,-11.84924 -7.1161,-16.52866 -1.87354,-2.62808 -6.94088,-7.9453 -7.57192,-7.9453 -0.43969,0 -0.96128,3.09249 -0.96128,5.69935 0,0.93994 -0.10277,1.70899 -0.22838,1.70899 -0.12561,0 -0.61286,-1.07486 -1.08279,-2.38858 -2.93199,-8.19658 -7.98484,-15.28803 -15.21592,-21.35485 -0.72245,-0.60613 -1.23498,-1.18062 -1.13896,-1.27664 0.096,-0.096 1.29438,0.30573 2.66301,0.89278 2.91563,1.25061 5.67368,2.11452 10.24054,3.20767 5.53305,1.32442 8.86899,1.72748 14.34044,1.73265 2.72126,0.003 4.86438,0.0837 4.7625,0.18041 -0.10188,0.0966 -1.24064,0.59882 -2.53058,1.11593 -2.25919,0.90568 -5.87643,2.96213 -6.4715,3.67916 -0.22134,0.26669 0.0303,0.5946 1.09373,1.42514 10.31719,8.05782 16.68426,20.02663 17.93296,33.71031 0.90177,9.88197 -2.18726,21.10521 -8.19375,29.76991 -8.03931,11.59717 -19.4046,18.58029 -32.92865,20.23218 -3.23613,0.39527 -10.82673,0.18459 -13.89566,-0.3857 -4.5231,-0.8405 -9.25154,-2.36967 -12.6818,-4.10125 -2.20647,-1.11383 -6.783,-4.2276 -8.56593,-5.82809 -0.82368,-0.7394 -1.68264,-1.34437 -1.90879,-1.34437 -0.22615,0 -3.77895,0.83784 -7.8951,1.86185 -7.16922,1.78356 -25.15535,5.67447 -31.82558,6.88479 -4.40468,0.79923 -10.36679,0.97726 -13.43419,0.40114 -6.31583,-1.18623 -11.38182,-3.84298 -20.43247,-10.71538 -3.3137,-2.51618 -6.13193,-4.12803 -8.59896,-4.91808 -4.86414,-1.55771 -7.19353,-2.88891 -8.20534,-4.68917 -0.82258,-1.46359 -1.0037,-4.25194 -0.42333,-6.51733 1.19753,-4.67443 5.8843,-12.73376 8.54245,-14.68952 l 1.01226,-0.74478 -2.91042,0.1497 c -3.49522,0.17979 -5.96655,0.75797 -10.71562,2.50702 -4.11335,1.51491 -5.64513,1.81653 -6.98296,1.375 -1.31125,-0.43275 -2.27746,-1.65811 -2.27746,-2.88832 0,-1.10884 1.20476,-3.24763 2.09891,-3.72616 1.88893,-1.01092 -1.6353,-0.96477 -4.08177,0.0535 -2.11543,0.88044 -4.96776,2.64578 -9.7911,6.05982 -9.444784,6.68519 -14.817429,9.41502 -23.354056,11.86617 -5.80776,1.66759 -9.45641,2.20476 -15.142817,2.22935 -5.124123,0.0222 -5.551623,-0.0281 -9.128125,-1.07311 -0.396389,-0.11582 -0.288059,0.1018 0.431738,0.86728 1.290767,1.3727 1.552637,1.95197 1.552637,3.43451 0,2.35127 -2.053454,5.27192 -4.449988,6.32927 -1.094954,0.48309 -1.099812,0.4914 -0.603663,1.03194 1.658637,1.80705 2.074032,4.03003 1.107202,5.92518 -0.692536,1.35748 -2.663166,3.11671 -3.909529,3.49013 -1.401425,0.41987 -2.765286,0.022 -4.884014,-1.42481 -1.805832,-1.23314 -5.546033,-3.34453 -5.924643,-3.34453 -0.127023,0 0.758566,0.60896 1.967976,1.35323 6.790448,4.17888 9.647261,10.08593 6.336903,13.10285 -1.470581,1.34023 -3.655663,2.02369 -7.530913,2.35556 -1.480252,0.12676 -2.204774,0.092 -2.330719,-0.11176 -0.123702,-0.20016 0.185648,-0.29741 0.957336,-0.30095 3.459099,-0.0159 6.888616,-0.96171 8.422294,-2.32273 1.03467,-0.91819 1.142864,-1.13493 1.257684,-2.51951 0.108208,-1.30484 0.01266,-1.74436 -0.689113,-3.16986 -1.342482,-2.72697 -4.536264,-5.59364 -8.444661,-7.57975 -2.124708,-1.07969 -2.311445,-1.01719 -0.575778,0.19272 0.788838,0.54989 1.659996,1.418 1.935905,1.92913 0.477347,0.88429 0.479934,0.97509 0.05339,1.87395 -0.997675,2.10245 -3.565412,2.08674 -5.582132,-0.0341 -0.658955,-0.69299 -0.79375,-1.0535 -0.79375,-2.12292 0,-1.06466 0.13483,-1.4289 0.777106,-2.09929 0.427408,-0.44612 0.65422,-0.81112 0.504028,-0.81112 -0.514319,0 -1.205356,1.03043 -1.809222,2.6978 -0.823455,2.27369 -1.147248,1.85963 5.738442,7.33817 1.199728,0.95455 1.903646,1.74099 2.182812,2.43869 0.466767,1.16657 0.541609,2.342 0.149119,2.342 -0.319665,0 -1.707087,-1.86964 -2.428547,-3.27262 -0.295432,-0.57451 -0.626031,-0.92279 -0.753464,-0.79375 -0.124883,0.12645 -0.478546,1.7182 -0.785919,3.53721 -1.025206,6.0671 -1.352545,7.18193 -3.684155,12.54716 -0.700552,1.61203 -1.467659,3.6014 -1.704682,4.42083 -0.606687,2.09741 -1.164967,2.70924 -2.42878,2.66173 -0.559858,-0.0211 -1.655931,-0.35042 -2.435719,-0.73193 -2.553491,-1.24931 -3.425624,-3.57132 -2.62598,-6.99154 0.362396,-1.55004 0.361383,-1.76486 -0.01027,-2.17633 -0.226792,-0.2511 -0.617033,-1.08454 -0.867201,-1.85209 -0.450842,-1.38324 -0.466274,-1.39723 -1.750795,-1.58773 -1.223635,-0.18146 -5.126973,-0.0247 -15.1865668,0.60997 -8.10048918,0.51106 -11.2564714,-0.0627 -17.2640625,-3.13841 -0.1091406,-0.0559 -0.1984375,0.27729 -0.1984375,0.74037 0,1.56151 -0.8900122,2.75655 -5.8113332,7.80297 -10.565022,10.83358 -18.369179,21.53937 -24.251438,33.26826 -0.784886,1.56502 -1.545133,2.84549 -1.689438,2.84549 -0.144305,0 -0.262373,-0.0788 -0.262373,-0.17512 z m 73.346657,-29.39207 c 0.222021,-0.25466 0.674607,-1.29646 1.005746,-2.3151 0.331139,-1.01865 1.196253,-3.22131 1.922474,-4.89479 1.927823,-4.44244 2.239794,-5.48329 3.129141,-10.43996 0.442776,-2.46776 0.930888,-4.72197 1.084693,-5.00936 0.22673,-0.42365 0.167303,-0.61349 -0.314054,-1.00327 -0.326535,-0.26441 -0.669806,-0.47898 -0.762825,-0.47681 -0.09302,0.002 -0.804445,1.81522 -1.580945,4.029 -1.848037,5.2687 -4.151122,10.34829 -5.192596,11.45258 -0.457763,0.48537 -1.17433,0.96833 -1.592372,1.07325 -0.683119,0.17145 -1.053969,0.0936 -2.558047,-0.5369 -0.36679,-0.15376 -0.486622,0.11681 -0.754133,1.70279 -0.174926,1.03709 -0.24368,2.28203 -0.152786,2.76653 0.394973,2.10539 2.278143,3.58453 5.2046,4.08798 0.08659,0.0149 0.339084,-0.18128 0.561104,-0.43594 z m -1.534467,-8.56263 c 1.127366,-0.88679 3.925322,-7.00669 6.247,-13.66392 l 0.85406,-2.44895 -0.761314,-0.59151 c -0.418722,-0.32534 -1.251251,-1.03936 -1.850063,-1.58672 l -1.088749,-0.99519 -0.602449,1.65227 c -1.00065,2.74438 -2.543546,3.85084 -4.363802,3.12942 -0.431828,-0.17114 -0.681583,0.003 -1.35775,0.94717 -0.45572,0.63629 -1.093703,1.86582 -1.41774,2.73228 l -0.589157,1.5754 0.862428,2.06009 c 0.694095,1.658 0.862737,2.4216 0.864014,3.91219 8.73e-4,1.01864 -0.0825,2.11311 -0.18528,2.43214 -0.14887,0.46211 -0.03628,0.6617 0.553726,0.98159 1.038486,0.56305 2.005105,0.51659 2.835076,-0.13626 z m -3.709929,-2.32903 c 0.09488,-0.71528 0.05145,-1.84075 -0.09652,-2.50104 -0.339585,-1.5153 -1.084645,-3.09741 -1.374339,-2.91837 -0.688073,0.42525 0.342266,6.71993 1.099947,6.71993 0.109119,0 0.276031,-0.58524 0.370917,-1.30052 z m -53.814762,-5.14965 c 2.837656,-2.33276 5.814219,-4.82206 6.614583,-5.53176 2.956508,-2.62162 4.509412,-2.93589 6.123394,-1.23924 1.893648,1.99063 3.676844,4.26403 4.316841,5.50353 1.1939916,2.31244 3.513904,3.2486 8.4796722,3.42181 2.89194982,0.10087 4.0965815,0.008 7.540625,-0.58112 6.8865598,-1.17806 8.8523398,-1.87108 10.7340028,-3.78423 1.177596,-1.19729 2.382267,-3.64748 2.752069,-5.59744 0.390298,-2.05803 0.331835,-7.06404 -0.133645,-11.44385 -0.222039,-2.08922 -0.529031,-4.9892 -0.682203,-6.44441 -0.412247,-3.91653 0.02757,-7.64647 0.809435,-6.8646 0.455853,0.45585 3.174514,11.19851 3.444675,13.61147 0.13849,1.23693 0.379773,4.09443 0.536186,6.35 0.283788,4.09243 0.835278,7.84685 1.352064,9.20456 0.267958,0.70398 0.289928,0.68317 1.18136,-1.11898 0.499579,-1.00997 1.148005,-2.09143 1.440948,-2.40325 0.530179,-0.56435 0.530257,-0.57232 0.01697,-1.73558 -1.248401,-2.82923 -1.366815,-7.3689 -0.314326,-12.05039 0.508711,-2.26275 0.51834,-2.54379 0.152656,-4.45505 -0.463931,-2.42475 -0.473285,-4.89877 -0.02404,-6.35901 0.306905,-0.99759 0.283226,-1.11179 -0.412495,-1.98956 -0.797116,-1.00568 -1.324549,-3.09674 -1.088095,-4.31384 0.125922,-0.64816 -0.06845,-0.95486 -1.467198,-2.3151 -0.886793,-0.86238 -1.84116,-1.56796 -2.120816,-1.56796 -1.032536,0 -2.048493,2.41209 -3.733258,8.86354 -1.838952,7.04187 -3.416397,10.43835 -6.188828,13.32551 -2.2113658,2.30287 -5.0126938,3.286 -6.4648788,2.26884 -1.2311221,-0.86231 -1.5139801,-1.86124 -1.4938473,-5.2756 0.022931,-3.88897 0.4036073,-5.53955 2.5000153,-10.83984 2.044611,-5.16933 2.223344,-6.12239 1.984493,-10.58194 -0.213391,-3.98419 -0.378079,-4.3751 -1.843222,-4.3751 -0.480739,0 -1.237983,-0.0728 -1.682766,-0.16174 -0.7607647,-0.15215 -0.8244684,-0.10118 -1.0748266,0.8599 -1.0581472,4.06205 -1.4523657,7.49433 -1.4848476,12.92789 -0.037934,6.34555 -0.3205515,7.75595 -2.33132088,11.63442 -1.38257532,2.66678 -4.63437652,6.06379 -6.80187132,7.1056 -4.0836848,1.96283 -7.9862988,1.27145 -10.9208468,-1.93472 -0.734701,-0.80271 -1.263982,-1.28088 -1.17618,-1.0626 0.0878,0.21829 0.417861,1.23032 0.733465,2.24896 0.315604,1.01865 0.739329,2.36226 0.94161,2.98581 0.894649,2.75783 0.174012,4.42545 -2.744396,6.35081 -1.125956,0.74282 -3.416412,2.62803 -5.089902,4.18934 -5.031705,4.69443 -8.355133,7.89819 -7.935907,7.65017 0.217405,-0.12863 2.717001,-2.14249 5.554657,-4.47525 z m 19.6068457,-11.67193 c -2.3963927,-0.53986 -5.0547627,-1.45664 -5.0547627,-1.74323 0,-0.32929 0.353373,-0.30831 2.513641,0.14927 1.0430142,0.22093 3.2529379,0.39429 5.0592038,0.39688 3.4747789,0.005 6.5660692,-0.60888 9.7573634,-1.93758 1.345987,-0.5604 1.601374,-0.59936 1.678696,-0.25609 0.150162,0.66663 -1.806837,2.42147 -3.3877008,3.03775 -1.90603028,0.74304 -7.940235,0.94463 -10.5664407,0.353 z m 10.4634758,-0.89714 c 0.7496666,-0.33148 1.6336237,-0.89073 1.9643497,-1.24277 0.734162,-0.78148 0.648435,-0.78901 -0.9473161,-0.0831 -1.8846844,0.83369 -5.7809,1.55181 -8.4654803,1.56029 -1.7148941,0.005 -2.2701907,0.0837 -1.984375,0.2798 0.2433437,0.16694 1.8810109,0.23673 4.2333332,0.18039 3.29150922,-0.0788 4.0300696,-0.17749 5.1994885,-0.69458 z m 7.6477655,15.97217 c 5.747443,-0.37987 12.828115,-0.56624 13.540902,-0.3564 0.528645,0.15563 0.672195,-4.79019 0.179559,-6.18647 -0.631046,-1.78857 -1.108828,-5.05217 -1.423664,-9.72465 -0.405552,-6.01881 -0.661582,-7.64766 -2.032749,-12.9323 -1.546766,-5.96141 -1.564707,-6.00722 -1.825983,-4.66249 -0.131472,0.67665 0.04997,3.68237 0.503094,8.33437 1.048802,10.76741 0.91129,14.53888 -0.651311,17.86317 -0.784577,1.66912 -2.622147,3.47892 -4.322843,4.25753 -2.856144,1.30758 -10.7664867,2.73895 -15.2911632,2.76691 -3.0897317,0.0191 -2.8465458,0.35097 0.54157442,0.73908 3.04721928,0.34906 4.16181458,0.33886 10.78258378,-0.0987 z m -22.079158,-5.80946 c -0.607193,-0.80423 -1.163851,-1.46223 -1.237017,-1.46223 -0.216987,0 0.434015,1.11753 1.278685,2.19502 1.232233,1.57188 1.194268,0.90419 -0.04167,-0.73279 z m 53.601627,-2.02894 c -0.206722,-0.48867 -0.630415,-1.11531 -0.941541,-1.39252 -0.662798,-0.59056 -0.725172,-0.40089 -0.168808,0.51334 0.218281,0.35868 0.584982,0.96013 0.81489,1.33656 0.568366,0.93058 0.758255,0.63663 0.295459,-0.45738 z M 260.76205,426.7391 c 11.75274,-2.46929 21.11624,-8.72054 28.57154,-19.0749 2.09429,-2.90868 5.09099,-8.89712 6.17119,-12.3322 1.64558,-5.23296 2.00517,-7.73547 2.01083,-13.99385 0.004,-4.90834 -0.0786,-6.10222 -0.60576,-8.70478 -1.33266,-6.57992 -4.23029,-13.36164 -7.92147,-18.53974 -2.02409,-2.83945 -6.13885,-7.12307 -9.01417,-9.38409 -1.90266,-1.49616 -1.92781,-1.53171 -1.45521,-2.05689 0.71618,-0.79586 2.49457,-1.96685 4.69996,-3.0947 l 1.96199,-1.00337 -3.88427,-0.16516 c -7.08135,-0.30111 -15.24394,-2.00394 -21.87593,-4.56361 -0.29104,-0.11233 0.78052,1.15805 2.38125,2.82306 4.85284,5.04773 7.359,8.70018 9.95463,14.50783 l 1.42245,3.18267 0.1887,-1.38342 c 0.37177,-2.72544 0.76737,-4.16155 1.1464,-4.16155 0.57974,0 3.92862,3.00605 5.84519,5.24682 5.0091,5.85639 8.37333,12.91761 9.79083,20.55006 0.74129,3.99145 0.67066,12.21245 -0.13753,16.00729 -1.82465,8.56765 -5.64042,15.65212 -11.68232,21.68971 -5.69915,5.6951 -12.17207,9.45062 -19.81356,11.49561 -3.74455,1.00211 -6.94709,1.30569 -11.90088,1.12813 -8.06161,-0.28897 -14.87468,-2.3688 -22.75396,-6.94613 -2.42716,-1.41001 -1.81977,-0.78014 1.4825,1.53735 6.21788,4.36366 12.0146,6.62268 19.8966,7.75384 4.01197,0.57576 11.50555,0.32568 15.521,-0.51798 z M 30.906389,424.86077 c 1.055152,-0.88785 2.346939,-4.32056 1.923585,-5.1116 -0.159188,-0.29745 -0.289433,-1.14207 -0.289433,-1.87695 0,-1.08548 0.137207,-1.4897 0.731411,-2.15472 0.402276,-0.45023 1.146417,-0.91742 1.653646,-1.0382 0.89511,-0.21315 0.90278,-0.22557 0.260776,-0.42222 -1.594523,-0.4884 -4.375672,-2.1659 -5.113911,-3.08455 -1.675106,-2.08446 -1.015185,-5.53701 1.277453,-6.68333 0.582083,-0.29105 1.10305,-0.55404 1.157703,-0.58444 0.05465,-0.0304 -0.277046,-0.37201 -0.737108,-0.75912 -2.095951,-1.76363 -2.365186,-4.68141 -0.62302,-6.75186 1.021874,-1.21442 2.526142,-1.81375 4.56971,-1.82065 l 1.721451,-0.006 0.0286,-2.05052 c 0.02885,-2.06878 1.009749,-5.75469 1.531445,-5.75469 0.2402,0 0.2347,7.0288 -0.006,7.65603 -0.08938,0.23293 0.694058,0.44115 2.730517,0.7257 1.570725,0.21948 2.891007,0.37261 2.933961,0.34029 0.04295,-0.0323 -0.459027,-0.37354 -1.115513,-0.75827 -2.74584,-1.60917 -3.789765,-4.69924 -2.468314,-7.30632 0.707662,-1.39614 1.775966,-2.07371 3.612485,-2.29122 1.166274,-0.13813 1.348453,-0.23865 1.348453,-0.74402 0,-0.32137 -0.471386,-2.77533 -1.047525,-5.45325 -1.342802,-6.2414 -2.197617,-12.2769 -3.05041,-21.53769 -0.375213,-4.07458 -0.807416,-8.18224 -0.960451,-9.12812 -0.528532,-3.26677 -1.627994,-7.02152 -2.891057,-9.87317 -3.087637,-6.97104 -5.012429,-8.80826 -10.465959,-9.98981 -1.417915,-0.30721 -5.259144,-1.32161 -8.536064,-2.25424 -5.273555,-1.50089 -13.1650938,-3.28278 -14.5385558,-3.28278 -0.5316651,0 -0.7759214,0.42012 -1.9184921,3.29979 -0.402532,1.01452 -0.8610696,1.88764 -1.0189723,1.94028 -0.4137011,0.1379 -0.3731938,-0.0968 0.4943379,-2.86388 0.7962146,-2.53941 0.7656695,-2.89071 -0.2522621,-2.90112 -0.2182813,-0.002 -4.5045312,-0.48039 -9.5249998,-1.06257 -10.2024858,-1.1831 -14.4970618,-1.84163 -18.3885408,-2.81971 -3.752837,-0.94322 -4.989245,-0.62892 -5.888865,1.49698 -1.181969,2.79313 -0.894731,5.9608 1.247579,13.75833 0.859584,3.1287 1.981274,7.25692 2.492644,9.17383 1.402162,5.25612 2.743996,7.60525 5.15309,9.02147 1.211265,0.71205 1.289582,0.72175 5.462218,0.67662 7.481164,-0.0809 20.7515544,-0.59734 26.0614572,-1.01417 7.3010628,-0.57313 8.2372898,-0.73605 9.1551538,-1.5931 2.042008,-1.90673 7.015874,-4.62074 9.163534,-5.00012 1.076207,-0.19011 2.054229,0.17317 2.054229,0.76302 0,0.58738 -1.235321,1.89375 -2.481126,2.62384 -1.370476,0.80316 -4.308226,1.81543 -7.043874,2.42715 -1.091406,0.24404 -2.205404,0.63863 -2.47555,0.87686 -0.859824,0.75824 -1.55998,2.48399 -1.675393,4.12953 -0.108217,1.54294 -0.07016,1.6575 1.159632,3.49134 0.699335,1.04284 1.474341,2.26323 1.722234,2.71198 0.656013,1.18757 1.777507,1.13765 2.624034,-0.1168 0.722473,-1.07061 2.754887,-2.53921 4.410707,-3.18713 2.469484,-0.96631 1.395257,0.34572 -2.632721,3.21554 -1.380207,0.98335 -2.116493,1.70212 -2.308848,2.25391 -0.506374,1.45258 -0.614417,3.24736 -0.301015,5.0004 0.455877,2.54998 3.420818,11.24504 5.277713,15.47755 l 1.624845,3.70359 -0.301945,1.87175 c -0.380309,2.35752 -0.246759,3.83988 0.626808,6.95738 0.679319,2.42428 0.685409,2.51601 0.281049,4.23333 -0.419658,1.78229 -0.374641,3.93322 0.150256,7.17932 0.167878,1.0382 0.1328,1.87221 -0.122411,2.91041 -0.618075,2.51435 -0.988576,6.14202 -0.82399,8.0679 0.421904,4.93685 2.206855,7.10364 4.359609,5.29222 z m 146.096651,0.10311 c 3.53364,-0.47293 19.34587,-3.67964 28.04583,-5.68767 5.49858,-1.26912 14.33185,-3.49837 14.49042,-3.65694 0.0701,-0.0701 -0.18179,-0.4951 -0.55982,-0.94436 -0.37803,-0.44927 -0.82497,-1.27625 -0.9932,-1.83774 -0.83292,-2.78004 1.00383,-4.97619 5.85881,-7.0052 3.80048,-1.58832 5.99133,-2.78934 7.55173,-4.13985 4.5269,-3.918 7.03187,-9.47497 11.322,-25.11647 0.65857,-2.40109 1.52293,-5.49672 1.92082,-6.87916 1.36644,-4.74771 0.69541,-8.3925 -2.8434,-15.44437 -3.0728,-6.12325 -5.25779,-11.71721 -6.16225,-15.77647 -0.21076,-0.94588 -0.70199,-3.86291 -1.09163,-6.48229 -0.55578,-3.73629 -0.67404,-5.28985 -0.54887,-7.20989 0.0878,-1.34607 0.23229,-3.55551 0.32118,-4.90987 0.14271,-2.17451 0.093,-2.622 -0.42527,-3.8267 -0.88361,-2.05401 -3.12154,-3.47218 -4.37357,-2.77151 -0.39392,0.22045 -0.35263,0.28141 0.30185,0.44568 0.99206,0.24899 1.15262,0.54662 1.15051,2.13271 -0.003,2.29843 -1.14879,4.10104 -2.60659,4.10104 -0.39801,0 -0.57033,0.21968 -0.67454,0.8599 -0.077,0.47294 -0.26097,1.56637 -0.40887,2.42984 -0.33726,1.96914 -0.33932,10.86365 -0.004,15.18227 0.22454,2.88766 0.42206,3.76082 1.73571,7.67292 1.08908,3.24334 1.52163,4.95843 1.63051,6.46497 0.12816,1.77343 0.0904,2.05052 -0.27971,2.05052 -0.89797,0 -1.6112,-2.30649 -2.68588,-8.68578 -0.37577,-2.23057 -0.88508,-4.84994 -1.1318,-5.82084 -0.3605,-1.41859 -0.44544,-2.96034 -0.43253,-7.85068 0.0138,-5.24536 0.11367,-6.70631 0.72318,-10.58332 0.38891,-2.47386 0.82071,-5.26368 0.95954,-6.19961 0.33882,-2.28414 0.86874,-2.80764 2.79575,-2.76184 l 1.44693,0.0344 0.003,-0.82814 c 0.002,-0.45547 0.23963,-2.18199 0.52917,-3.83669 0.68862,-3.93549 0.66591,-5.13415 -0.13603,-7.18044 -0.58853,-1.50175 -1.77692,-3.17246 -2.2566,-3.17246 -0.0958,0 -0.44113,1.12329 -0.76735,2.49621 -0.88173,3.71076 -2.01601,5.1767 -4.00551,5.1767 -0.90702,0 -1.05224,0.27344 -1.86197,3.5058 -0.83409,3.32957 -2.35236,13.53037 -2.35236,15.80472 0,1.35389 0.56887,5.45924 1.59784,11.531 0.87881,5.18573 1.66925,10.35462 1.75653,11.48644 0.16357,2.12117 -0.004,3.44496 -0.43656,3.44496 -0.4115,0 -0.78735,-1.74614 -1.48073,-6.87916 -0.36365,-2.69214 -1.02479,-6.85933 -1.46919,-9.26042 -1.16705,-6.3056 -1.33937,-7.81814 -1.1605,-10.18646 0.33279,-4.40621 1.86611,-12.68966 3.30589,-17.85938 0.42555,-1.52796 0.96514,-3.90921 1.19911,-5.29166 0.23396,-1.38245 0.60289,-2.78712 0.81983,-3.12149 0.50284,-0.775 1.84,-1.59308 2.94538,-1.80198 0.968,-0.18294 1.02235,-0.34491 0.47252,-1.40816 -0.53053,-1.02594 -1.81895,-2.06139 -3.00844,-2.41777 -1.13106,-0.33887 -2.93006,0.0129 -3.48493,0.6815 -0.27674,0.33346 -0.21786,0.39498 0.37808,0.39498 1.026,0 2.00475,1.08726 2.00475,2.22701 0,1.30267 -0.99039,3.80343 -1.64506,4.15379 -0.30134,0.16128 -0.99299,0.23353 -1.53701,0.16056 l -0.98912,-0.13267 -0.93423,3.60868 c -1.42472,5.50323 -1.79409,8.51146 -2.18122,17.76388 -0.15182,3.62854 -0.078,4.86314 0.64059,10.71563 1.03239,8.40807 1.42698,12.52458 1.29493,13.50912 -0.16112,1.2013 -0.35192,0.41767 -1.09892,-4.51329 -0.37476,-2.47385 -0.99104,-6.22432 -1.36949,-8.33437 -0.82714,-4.61164 -0.8882,-8.16099 -0.2663,-15.47813 0.49148,-5.78259 0.92217,-8.52839 2.02742,-12.92552 l 0.78823,-3.13594 -0.68179,-0.89388 c -0.77137,-1.01132 -2.00352,-1.45209 -3.15831,-1.12981 -0.99036,0.27639 -1.50725,0.75494 -0.81542,0.75494 0.27439,0 0.77445,0.25888 1.11125,0.57529 0.6828,0.64145 0.80925,2.01256 0.34106,3.69814 -0.25274,0.90995 -1.83477,2.6463 -2.66248,2.92221 -0.29483,0.0983 -0.39664,2.02758 -0.54284,10.28714 -0.20338,11.49009 -0.19802,11.54874 1.76173,19.29431 2.30815,9.12251 2.23987,8.01853 1.4476,23.40489 -0.83165,16.15131 -1.18903,20.43065 -1.83138,21.92918 -0.86342,2.01427 -0.76219,2.43584 0.70961,2.95536 4.82891,1.70449 9.32657,4.74264 9.32657,6.30004 0,1.09929 -0.93173,1.4121 -3.0999,1.04071 -2.59806,-0.44503 -4.86466,-1.68729 -7.26792,-3.98336 l -2.08217,-1.98929 -0.53219,0.57123 c -0.60276,0.64699 -1.00159,0.68753 -2.85451,0.29015 -1.07775,-0.23113 -1.86759,-0.17871 -4.4448,0.29499 -2.81861,0.51807 -3.72014,0.56127 -8.95497,0.42908 -5.70484,-0.14405 -9.33567,-0.48837 -23.94479,-2.27074 -8.03817,-0.98069 -17.63304,-2.03589 -21.82813,-2.40055 -1.74625,-0.1518 -4.11339,-0.40144 -5.26031,-0.55476 -4.27264,-0.57118 -6.23209,0.44734 -9.09105,4.72549 -3.52003,5.26737 -5.62468,10.34897 -5.62468,13.58059 0,3.92219 1.26825,5.17955 7.46252,7.39848 4.54669,1.62873 6.07778,2.46531 10.10648,5.52209 10.0565,7.6304 14.88711,9.90259 23.30913,10.96397 1.0253,0.12921 4.22368,-0.0587 6.74687,-0.39641 z M 39.971802,421.48026 c 0.457331,-0.35113 1.035406,-1.32249 1.035406,-1.73983 0,-0.48255 -1.391823,-1.92212 -2.729051,-2.82266 -1.494087,-1.00618 -2.004915,-0.93058 -2.692169,0.39842 -0.552868,1.06913 -0.499916,1.92309 0.172231,2.77758 1.186348,1.5082 3.194437,2.16897 4.213583,1.38649 z m 11.052015,-1.49378 c 1.132346,-0.57768 2.84585,-2.36194 3.224364,-3.35751 0.317133,-0.83412 0.325307,-2.25726 0.01761,-3.06656 -0.355242,-0.93435 -1.875026,-2.32461 -3.147928,-2.87963 -0.623773,-0.27198 -2.469242,-1.25748 -4.101042,-2.18999 -1.816333,-1.03796 -3.839062,-1.95178 -5.215867,-2.3564 -2.142949,-0.62976 -4.564375,-1.25032 -4.878785,-1.25032 -0.0806,0 0.463707,0.5882 1.209569,1.30712 l 1.356113,1.30712 -0.123496,1.48919 c -0.102232,1.23278 -0.268511,1.63412 -0.965717,2.33091 -0.740714,0.74026 -1.01199,0.84011 -2.250812,0.82849 -1.656083,-0.0155 -4.219352,-1.17223 -5.003217,-2.25773 -0.471328,-0.65269 -0.47386,-0.75935 -0.05627,-2.37087 0.240491,-0.92809 0.687886,-2.03941 0.99421,-2.4696 l 0.556952,-0.78217 -0.879834,0.50721 c -1.641587,0.94634 -2.44884,3.02835 -1.893218,4.88285 0.463605,1.54738 1.985299,2.66539 5.394528,3.96345 4.329746,1.64853 8.162377,3.49772 10.187009,4.91508 2.977213,2.08423 3.874309,2.31741 5.575829,1.44936 z m -17.224683,-1.972 c 0.170506,-0.63751 0.622502,-1.53048 1.004437,-1.98438 0.648074,-0.77019 0.659105,-0.82528 0.16526,-0.82528 -0.906441,0 -1.899123,1.46275 -1.899123,2.79843 0,1.49405 0.331467,1.49915 0.729426,0.0112 z m -52.739093,-2.84441 c -0.388251,-1.07229 -1.052797,-2.90212 -1.476769,-4.06629 l -0.770858,-2.11667 0.10667,1.73599 c 0.06101,0.99289 0.353945,2.29533 0.684339,3.04271 0.750218,1.69704 1.885685,3.63072 2.040858,3.47555 0.06692,-0.0669 -0.19599,-0.999 -0.58424,-2.07129 z m 27.5386072,-0.0817 c 1.347483,-0.56301 3.4835918,-2.66839 4.9052358,-4.83465 1.404123,-2.13957 2.553706,-5.09488 3.73468,-9.60098 1.828497,-6.97679 3.142569,-10.05417 4.293225,-10.05417 0.744126,0 2.525114,1.25068 3.159316,2.21859 0.615371,0.93918 0.97027,0.659 0.97027,-0.76597 0,-0.6391 0.123268,-1.73677 0.273929,-2.43928 0.261535,-1.2195 0.221027,-1.39069 -0.89523,-3.78334 -2.672697,-5.72881 -5.600998,-14.66513 -5.87861,-17.93979 -0.09608,-1.13335 -0.01773,-2.25138 0.219123,-3.12671 l 0.368681,-1.36255 -1.005794,-0.16083 c -1.783283,-0.28516 -2.971695,-1.71922 -3.832401,-4.62457 -0.339588,-1.1463 -2.74983,3.13083 -4.026606,7.14547 -2.0246848,6.36633 -2.6674608,12.58068 -2.1729568,21.00813 0.390329,6.65207 0.274239,7.54012 -1.599694,12.23723 -1.920256,4.81322 -2.622625,7.45288 -2.80117,10.52744 -0.2903181,4.99931 1.150927,6.86673 4.288002,5.55598 z M 225.9174,413.7254 c 6.82399,-2.25998 10.86486,-5.49912 13.50273,-10.8237 1.99168,-4.02025 2.60066,-6.66069 3.47827,-15.08125 0.30334,-2.91042 0.95118,-7.73245 1.43964,-10.71563 0.96414,-5.88814 1.33425,-8.67416 1.12478,-8.46667 -0.0735,0.0728 -0.79825,2.63261 -1.61064,5.68855 -6.00468,22.5875 -8.81902,27.43468 -18.15763,31.27308 -7.27382,2.98974 -8.94249,5.49398 -5.99218,8.99273 l 0.71077,0.8429 1.37985,-0.40053 c 0.75891,-0.22029 2.6149,-0.80956 4.12441,-1.30948 z M 37.990958,410.86565 c 0.743062,-0.74306 0.899583,-1.09679 0.899583,-2.03301 0,-1.00912 -0.140815,-1.26916 -1.283861,-2.37091 -1.461872,-1.40906 -3.54447,-2.35742 -4.234728,-1.92839 -0.758644,0.47154 -1.575811,1.91458 -1.875492,3.31195 -0.252916,1.1793 -0.230142,1.41855 0.177963,1.8695 0.564136,0.62336 1.685396,1.22819 3.115076,1.68034 1.689692,0.53438 2.226359,0.44562 3.201459,-0.52948 z m 15.624388,-0.96787 c 1.295378,-0.4925 2.931534,-2.05431 3.638656,-3.47332 1.296818,-2.60238 0.785833,-4.37509 -1.833235,-6.35988 -1.450499,-1.09922 -4.871769,-2.62691 -7.281251,-3.25127 -2.204615,-0.57127 -7.856456,-1.39804 -10.991533,-1.60788 -3.167956,-0.21204 -4.234073,0.0574 -5.376833,1.35895 -1.679077,1.91236 -1.623517,4.44428 0.129228,5.88904 1.146717,0.94522 2.167474,1.25672 5.402663,1.64869 1.382448,0.16749 3.114579,0.46828 3.84918,0.6684 1.548614,0.42189 8.66354,3.75819 10.108374,4.73998 1.102652,0.74927 1.312086,0.78371 2.354751,0.38729 z m -17.238347,-6.76804 c -2.406175,-0.48856 -3.897245,-1.01913 -4.240214,-1.50878 -0.54268,-0.77479 -0.501269,-3.25826 0.07344,-4.40413 0.640435,-1.27691 1.463548,-1.6472 3.28591,-1.47822 3.1954,0.2963 5.155534,1.75787 4.90114,3.65451 -0.07489,0.55836 -0.329774,1.31068 -0.566406,1.67182 -0.422526,0.64486 -2.454444,2.26317 -2.765961,2.20294 -0.08731,-0.0169 -0.396865,-0.079 -0.687907,-0.13814 z m 2.435171,-1.73953 c 2.349441,-2.26603 0.72634,-4.79429 -3.312998,-5.16056 -1.351531,-0.12256 -1.619654,-0.0633 -2.279157,0.50402 -0.589124,0.50674 -0.775093,0.93078 -0.878029,2.00206 -0.20006,2.08206 0.02382,2.60309 1.322535,3.07792 2.905273,1.06221 3.672764,0.99908 5.147649,-0.42344 z m 11.720037,8.39996 c 0,-0.0676 -0.26789,-0.2528 -0.595312,-0.41147 -0.571666,-0.27703 -0.574912,-0.27214 -0.08172,0.12298 0.539819,0.43249 0.677034,0.49096 0.677034,0.28849 z M 26.558938,397.30255 c -0.571867,-1.89125 -1.010986,-2.48393 -0.752329,-1.01544 0.228669,1.29825 0.866209,2.91321 1.069712,2.70971 0.08232,-0.0823 -0.0605,-0.84474 -0.317383,-1.69427 z m 28.193206,0.44694 c 0.695877,-0.37242 0.857633,-1.72379 0.540952,-4.51931 -0.476613,-4.20733 -1.659375,-5.8462 -4.95485,-6.86556 -4.484049,-1.38702 -7.783264,-0.87052 -8.803886,1.37826 -0.625931,1.37915 -0.661705,2.55066 -0.117649,3.85277 0.836975,2.00316 2.706107,3.24522 7.033182,4.67361 2.632593,0.86904 2.711609,0.8797 1.950023,0.26315 -0.436563,-0.35343 -1.686719,-1.01419 -2.778125,-1.46837 -1.091407,-0.45417 -2.528093,-1.09986 -3.192636,-1.43487 l -1.208261,-0.6091 0.05578,-3.12898 c 0.055,-3.08476 0.06524,-3.1324 0.724616,-3.37124 0.909099,-0.32929 2.96001,0.46584 4.083517,1.58315 0.735722,0.73166 0.859896,1.04151 0.859896,2.14566 0,2.14669 -1.090232,3.33319 -2.910416,3.1674 -1.016962,-0.0926 -1.094146,-0.0683 -0.529167,0.16705 2.19855,0.91567 5.606599,2.68817 6.709619,3.48963 1.357509,0.98637 1.758859,1.09341 2.537401,0.67675 z m -16.142957,-5.76186 c -0.01108,-1.70452 -0.09356,-2.38958 -0.243132,-2.01931 -0.38368,0.94982 -0.595809,2.92082 -0.406916,3.78085 0.354797,1.61538 0.66651,0.77068 0.650048,-1.76154 z m 8.995424,0.4802 c 0.666673,-0.66667 1.107819,-2.2817 0.823892,-3.01626 -0.308673,-0.79857 -1.298344,-1.66418 -2.455471,-2.14766 -1.043045,-0.43582 -2.050789,-0.53894 -2.06249,-0.21107 -0.0039,0.10914 -0.0286,1.32061 -0.05491,2.69216 l -0.04783,2.49372 0.914805,0.33042 c 1.341996,0.48472 2.303094,0.4376 2.881999,-0.14131 z m 176.177119,-0.70804 c 0.10279,-0.72012 -1.95437,-2.59988 -4.08421,-3.732 -2.66066,-1.41428 -6.46041,-2.73209 -7.01769,-2.43384 -0.26797,0.1434 -0.48721,0.35549 -0.48721,0.4713 0,0.41981 3.86933,3.93418 5.15592,4.68294 1.90343,1.10774 3.79693,1.70698 5.16283,1.63389 0.98524,-0.0527 1.20438,-0.16008 1.27036,-0.62229 z M 2.3815181,389.72306 c 0.00615,-1.02585 1.0113337,-5.50012 1.3189094,-5.87072 0.2104407,-0.25357 0.5060667,-0.29288 1.0089867,-0.13416 0.391235,0.12347 1.259102,0.27669 1.928594,0.34048 l 1.217258,0.116 0.174808,-4.26252 c 0.09614,-2.34439 0.289929,-4.96957 0.430631,-5.83374 0.140703,-0.86416 0.216832,-1.6102 0.169177,-1.65785 -0.04765,-0.0477 -0.394,0.74584 -0.769655,1.76332 -0.637179,1.72584 -1.230452,2.72901 -3.483638,5.89047 -0.6688847,0.93851 -1.0555123,1.95976 -1.5525887,4.10104 -0.7671002,3.30447 -1.1389108,6.55565 -0.7201162,6.29682 0.1507868,-0.0932 0.2757221,-0.43031 0.2776338,-0.74914 z M 203.27409,387.57834 c 3.47711,-0.68263 3.91481,-0.7166 5.36202,-0.41616 1.83751,0.38146 2.27109,0.22748 2.99717,-1.06441 0.37273,-0.66317 0.78359,-1.05545 1.10544,-1.05545 0.36794,0 0.51224,-0.18357 0.51224,-0.65166 0,-0.35842 0.22741,-1.22863 0.50537,-1.9338 0.69123,-1.75367 0.75695,-2.37196 1.34223,-12.62808 0.86473,-15.15304 1.11331,-20.56949 1.02,-22.225 l -0.0895,-1.5875 -1.45521,-0.48386 c -0.96858,-0.32205 -2.82659,-0.55946 -5.55625,-0.70995 -4.63854,-0.25573 -7.08565,-0.77471 -11.00798,-2.33456 -1.43993,-0.57264 -5.59462,-1.95613 -9.23264,-3.07442 -7.37418,-2.26676 -9.60215,-3.21663 -14.03428,-5.98332 -2.91678,-1.82076 -3.09825,-1.89458 -4.35946,-1.77339 -0.97953,0.0941 -1.84047,0.45485 -3.36737,1.41092 -3.03041,1.89749 -6.02311,3.42287 -8.77821,4.47426 -3.36854,1.28548 -7.2037,3.30746 -9.41276,4.9626 -4.25462,3.18777 -8.00189,7.87202 -10.85236,13.56588 -2.07808,4.15102 -2.90469,7.17664 -3.30683,12.10388 -0.45102,5.5261 -1.15908,7.23994 -3.48038,8.42418 -0.5701,0.29084 -2.73168,0.86382 -4.80351,1.27328 -2.07183,0.40946 -4.33309,0.99489 -5.02501,1.30096 l -1.25804,0.55649 0.80317,1.10874 c 0.4451,0.61446 0.79112,1.41542 0.77616,1.79665 -0.0257,0.65477 -0.0401,0.64733 -0.29779,-0.15429 -0.14892,-0.46322 -0.61641,-1.17335 -1.03885,-1.57807 -0.74243,-0.7113 -0.79212,-0.72144 -1.48815,-0.30367 -1.15364,0.69243 -2.20464,2.17047 -2.35837,3.31663 -0.12009,0.89532 -0.027,1.17975 0.62488,1.90933 1.1492,1.28618 2.51868,1.35541 5.52492,0.2793 8.14289,-2.91482 8.87732,-3.0926 14.4062,-3.48723 1.96453,-0.14022 4.43917,-0.31619 5.49919,-0.39105 1.51712,-0.10714 2.27419,-0.019 3.5571,0.41428 0.89639,0.30271 2.05679,0.55039 2.57868,0.55039 1.35208,0 14.513,1.41445 24.61294,2.64525 7.3583,0.89669 13.26701,1.54601 17.5948,1.93353 3.04584,0.27273 10.61365,0.15617 12.38042,-0.19068 z M 67.994707,382.32235 c 4.945579,-2.17101 9.69856,-3.5958 14.684374,-4.40191 3.692271,-0.59697 3.63775,-0.55178 1.443364,-1.19624 -2.03104,-0.59648 -5.107253,-2.03652 -5.415352,-2.53504 -0.09574,-0.15491 0.520662,-1.05677 1.369788,-2.00412 4.009244,-4.47302 6.258417,-7.76992 8.43427,-12.36319 4.361415,-9.20704 5.483609,-19.99614 3.160223,-30.38331 -1.226271,-5.4823 -4.06988,-11.80338 -7.480043,-16.62747 -2.402426,-3.39851 -7.450272,-8.42797 -10.904958,-10.86523 -8.965393,-6.32502 -20.034626,-9.42413 -30.337066,-8.49361 -11.859382,1.07114 -21.685399,5.79334 -29.789129,14.31609 -2.388291,2.51179 -5.6868218,6.98143 -6.6503608,9.0115 -0.42689,0.89941 -0.426043,0.90722 0.02945,0.27151 3.8006698,-5.30441 7.2927078,-9.00662 11.3113428,-11.99212 4.606685,-3.42236 11.156225,-6.31382 17.203471,-7.5949 3.375378,-0.71505 10.148072,-0.99016 13.46963,-0.54715 7.154147,0.9542 14.260668,3.82894 20.322779,8.221 2.355074,1.70627 6.755495,6.1233 8.595195,8.62764 10.938135,14.88978 11.296804,34.66655 0.909301,50.13823 -1.015384,1.51236 -2.386075,3.27502 -3.045981,3.91702 -1.016261,0.98869 -1.262337,1.1154 -1.608391,0.8282 -0.464713,-0.38568 -1.468576,-3.42663 -1.468576,-4.44869 0,-1.12885 -0.253504,-0.52576 -1.045733,2.48784 -1.641193,6.243 -4.635602,12.13969 -8.581374,16.89871 -2.004325,2.41743 -2.00447,2.41563 0.102107,1.26807 1.091406,-0.59454 3.472656,-1.73432 5.291667,-2.53283 z M 248.59714,364.37871 c 1.291,-0.59644 3.03926,-1.56984 3.88502,-2.16311 2.55284,-1.79071 4.40845,-4.79316 4.41923,-7.15048 0.008,-1.69277 -0.55276,-2.71248 -1.69889,-3.09074 -0.82459,-0.27214 -1.24889,-0.1902 -4.08539,0.78895 -3.59834,1.24213 -5.93588,1.65445 -7.60825,1.34202 -0.63455,-0.11855 -1.15374,-0.18248 -1.15374,-0.14208 0,0.0404 0.35979,0.87536 0.79952,1.85545 1.22291,2.72564 2.32694,6.01505 2.65919,7.92294 0.16488,0.94682 0.33044,1.72149 0.36791,1.72149 0.0375,0 1.1244,-0.488 2.4154,-1.08444 z M 1.1537297,364.13202 c 0.8189309,-0.97324 1.2221728,-2.32721 1.2189365,-4.09283 -0.00244,-1.33186 -0.4407434,-2.6011 -0.908262,-2.63016 -0.1386989,-0.009 -0.4482031,1.41308 -0.68778728,3.15933 -0.2395842,1.74625 -0.5210797,3.44289 -0.6255457,3.77031 -0.2683572,0.8411 0.2027344,0.74401 1.00265848,-0.20665 z M 16.632249,360.6874 c -0.452184,-0.73489 -0.882267,-1.27605 -0.955742,-1.20257 -0.189445,0.18944 1.223524,2.53874 1.526909,2.53874 0.138041,0 -0.118984,-0.60127 -0.571167,-1.33617 z m 7.51972,-0.74496 c 0.277212,-0.33632 0.232527,-0.34096 -0.342678,-0.0356 -0.91979,0.48836 -2.381232,1.67574 -2.381242,1.93469 -9e-6,0.24699 2.245323,-1.31847 2.72392,-1.89913 z m 205.962861,-7.51002 c -0.14159,-1.64981 -1.43579,-6.18971 -1.69161,-5.9339 -0.2616,0.26161 1.37965,7.58755 1.69987,7.58755 0.0735,0 0.0698,-0.74414 -0.008,-1.65365 z M 22.340251,349.47189 c 3.229812,-0.94022 6.66703,-3.2563 5.710187,-3.84766 -0.810312,-0.5008 -3.351558,0.40345 -6.754688,2.40351 -1.164167,0.68419 -2.392323,1.53948 -2.729237,1.90064 l -0.612569,0.65666 1.406319,-0.32752 c 0.773476,-0.18014 2.114471,-0.53367 2.979988,-0.78563 z M 222.40463,337.02044 c -2.06557,-12.4191 -2.00915,-12.12833 -1.87201,-9.64842 0.0606,1.09629 0.52158,4.25144 1.02433,7.01146 0.50275,2.76002 1.10728,6.56603 1.34342,8.4578 0.23613,1.89177 0.57262,4.21349 0.74777,5.15937 l 0.31844,1.71979 0.0771,-1.19062 c 0.0424,-0.65484 -0.69516,-5.83406 -1.63909,-11.50938 z m 17.83383,8.43736 c 0,-0.34768 -0.13759,-0.63215 -0.30576,-0.63215 -0.16816,0 -0.696,-0.29765 -1.17297,-0.66146 -0.47697,-0.3638 -0.92325,-0.66145 -0.99174,-0.66145 -0.13856,0 0.76217,2.45491 1.20284,3.27831 0.27683,0.51726 0.29031,0.51583 0.77468,-0.0823 0.27112,-0.33482 0.49295,-0.89323 0.49295,-1.24091 z m -24.59821,-2.1535 c -0.25509,-1.12779 -0.68759,-3.03279 -0.96112,-4.23333 -0.27353,-1.20055 -0.57222,-2.18282 -0.66376,-2.18282 -0.0915,0 -0.224,0.5108 -0.29437,1.13511 -0.183,1.62354 -0.78776,2.73831 -2.54465,4.69057 l -1.54331,1.71495 1.8751,0.063 c 1.03131,0.0346 2.41089,0.23122 3.06573,0.43686 0.65485,0.20564 1.26702,0.38566 1.3604,0.40005 0.0934,0.0144 -0.0389,-0.89657 -0.29402,-2.02436 z m 27.84746,-0.063 c 0.66038,-0.73909 0.75803,-1.02906 0.64083,-1.90285 -0.227,-1.69242 -0.80557,-2.33311 -2.11025,-2.33683 -0.70176,-0.002 -1.54732,-0.2484 -2.26986,-0.66146 -0.63332,-0.36205 -1.25534,-0.65827 -1.38227,-0.65827 -0.42849,0 -1.03812,1.55376 -1.03812,2.64584 0,1.33168 0.50643,2.35703 1.63192,3.30406 0.75957,0.63914 1.0218,0.70762 2.30291,0.60138 1.22487,-0.10158 1.56475,-0.2531 2.22484,-0.99187 z m -38.715,-0.18906 c -1.83267,-2.0873 -3.16549,-6.0215 -3.16028,-9.32854 0.004,-2.50495 0.46549,-4.21321 1.67384,-6.1951 1.21585,-1.99422 1.75174,-3.64932 3.19425,-9.86558 0.64707,-2.78846 1.36357,-5.43169 1.59221,-5.87384 0.22865,-0.44216 0.41573,-0.98843 0.41573,-1.21394 0,-0.2255 0.10097,-0.38024 0.22437,-0.34386 0.12341,0.0364 0.71798,-0.42512 1.32126,-1.02555 0.60329,-0.60043 1.44768,-1.237 1.87644,-1.4146 0.69923,-0.28963 0.79598,-0.47705 0.93889,-1.81872 0.63172,-5.93098 0.81187,-6.4514 2.38341,-6.88533 1.24216,-0.34297 2.66005,0.0688 3.6519,1.0607 0.42937,0.42937 0.81671,0.74464 0.86076,0.7006 0.044,-0.044 0.11884,-0.6546 0.16621,-1.35678 l 0.0861,-1.2767 -1.5875,-0.60302 c -0.87312,-0.33166 -2.65906,-1.13754 -3.96875,-1.79084 -4.15116,-2.0707 -10.73595,-5.03836 -10.8737,-4.90061 -0.073,0.073 0.16167,0.56637 0.5214,1.09647 1.23174,1.81507 1.47047,4.19058 0.84088,8.36707 -1.28144,8.50052 -7.62354,17.32403 -14.86704,20.68391 -1.68229,0.78033 -2.00913,0.83965 -4.46112,0.80968 -5.154,-0.063 -9.55242,-1.79229 -12.74388,-5.01037 -3.74747,-3.77873 -4.71619,-5.89476 -4.52173,-9.87706 0.0935,-1.91388 0.32132,-3.07926 0.95511,-4.88479 0.45781,-1.30419 0.83237,-2.4278 0.83237,-2.4969 0,-0.0691 -0.32742,0.18152 -0.7276,0.55694 -1.90737,1.78937 -7.79681,4.79528 -12.23698,6.24563 -1.38245,0.45156 -4.18042,1.19682 -6.21771,1.65612 -7.45252,1.68015 -8.53458,2.51769 -10.56721,8.1793 -1.97987,5.51464 -1.91234,9.54093 0.17665,10.53272 0.93829,0.44547 2.2319,0.10717 5.08907,-1.33086 8.96769,-4.5135 17.85179,-6.76749 21.18489,-5.37483 1.42678,0.59615 2.75571,1.72693 3.31275,2.81883 0.2795,0.54786 0.85846,2.28392 1.28659,3.85791 0.42813,1.57399 0.89445,3.15946 1.03627,3.52326 0.51614,1.32405 2.94518,3.16394 6.59888,4.99837 2.78647,1.39901 3.88668,1.80289 9.77535,3.58852 2.65118,0.80392 6.46118,2.06983 8.46667,2.81314 3.52019,1.30471 6.82311,2.28858 7.84094,2.33563 0.40492,0.0187 0.34046,-0.14813 -0.36972,-0.95698 z m -2.05411,-18.0042 c 1.72465,-6.75267 2.69945,-11.67504 3.52369,-17.79323 0.73338,-5.44374 0.9007,-6.47306 1.02659,-6.31507 0.30618,0.38426 -1.04301,10.99015 -1.97716,15.54225 -1.13435,5.52771 -3.30218,13.52699 -3.66584,13.52699 -0.0959,0 0.39585,-2.23242 1.09272,-4.96094 z m 6.44226,18.48653 c 1.51964,-0.69028 2.40891,-1.86802 2.76897,-3.66722 0.50917,-2.54428 0.86216,-3.52754 1.40218,-3.90578 0.51035,-0.35746 0.51001,-0.38214 -0.033,-2.42926 -0.92877,-3.50131 -1.04638,-5.62 -0.87123,-15.69416 0.0923,-5.31151 0.15682,-9.68683 0.14327,-9.72294 -0.0136,-0.0361 -0.57578,0.29943 -1.24941,0.74562 -1.83546,1.21576 -2.18662,1.99799 -2.54538,5.67003 -0.37754,3.86431 -0.98562,6.88359 -2.74424,13.62604 -1.32016,5.06141 -1.34604,5.23472 -1.36286,9.12812 -0.0195,4.51156 0.26652,5.42097 1.97622,6.28344 1.12675,0.5684 1.19147,0.56753 2.51549,-0.0339 z m -5.01231,-6.18393 c 0.0241,-3.53017 0.096,-4.03887 1.13147,-8.00312 1.28348,-4.9137 2.56272,-10.95075 2.80325,-13.22916 0.0922,-0.87313 0.22606,-2.06375 0.29752,-2.64584 0.27127,-2.20958 -0.38603,-0.16435 -1.47417,4.58696 -1.29345,5.64778 -2.07011,8.06881 -3.15307,9.82885 -1.15118,1.8709 -1.61509,3.49269 -1.61509,5.64618 0,2.06236 0.46336,4.20732 1.35826,6.28757 0.30744,0.71467 0.57409,1.29916 0.59255,1.29887 0.0185,-2.9e-4 0.0451,-1.69693 0.0593,-3.77031 z m 8.65859,2.38177 c 0.44256,-1.06585 0.7535,-2.90337 0.46069,-2.7224 -0.11901,0.0735 -0.35546,0.70129 -0.52546,1.39499 -0.17,0.6937 -0.37126,1.46963 -0.44725,1.72429 -0.23751,0.79599 0.13738,0.50541 0.51202,-0.39688 z m 24.60931,-1.88839 c 0.42878,-0.6544 0.42179,-0.69152 -0.20775,-1.10402 -0.3583,-0.23476 -0.89274,-0.80349 -1.18764,-1.26383 -0.64771,-1.01106 -0.64545,-1.03977 -0.13498,1.71347 0.58793,3.17105 0.71248,3.4832 0.91808,2.30096 0.0927,-0.53317 0.36826,-1.27413 0.61229,-1.64658 z m 4.40951,0.5242 c 0,-0.0591 -0.53579,-0.28998 -1.19063,-0.5131 -1.34967,-0.45988 -1.53605,-0.37752 -0.46302,0.2046 0.67998,0.3689 1.65365,0.55054 1.65365,0.3085 z m 0.766,-1.76823 c -0.56668,-1.82075 -0.63458,-3.21967 -0.21472,-4.42405 0.28439,-0.81583 1.05007,-1.29482 1.56301,-0.9778 0.50584,0.31262 0.26477,-0.33882 -0.59294,-1.60236 -1.07886,-1.58932 -1.62241,-1.95137 -2.24896,-1.49802 -1.03432,0.74841 -2.63492,1.37076 -3.53948,1.37624 -0.52788,0.003 -1.10806,0.18447 -1.28928,0.40283 -0.42603,0.51333 -0.64445,2.47675 -0.41286,3.71124 0.24126,1.28602 2.07725,3.29554 3.02636,3.3124 0.38165,0.007 1.34875,0.29407 2.14912,0.63841 2.11116,0.90828 2.13095,0.89637 1.55975,-0.93889 z m 1.88081,-0.49338 c 0.5588,-2.01149 -0.0246,-4.64629 -0.98774,-4.46081 -0.80198,0.15445 -0.99873,1.97106 -0.47058,4.345 0.41771,1.87751 0.49256,2.01837 0.82843,1.55903 0.20308,-0.27772 0.48653,-0.92717 0.62989,-1.44322 z m -27.10129,-4.96447 c -0.24652,-2.00568 -0.55431,-4.24201 -0.68399,-4.96962 -0.19757,-1.10855 -0.21624,-0.95849 -0.11522,0.92604 0.13843,2.58247 0.91255,8.02516 1.11293,7.82478 0.074,-0.074 -0.0672,-1.77552 -0.31372,-3.7812 z m 17.79925,-2.15453 -0.56231,-0.69842 0.16919,1.29369 c 0.0931,0.71154 0.17757,1.48544 0.18782,1.71979 0.0103,0.23436 0.18716,-0.0335 0.39313,-0.59527 0.34856,-0.95067 0.33556,-1.06971 -0.18783,-1.71979 z m -64.04226,-1.55723 c -0.78781,-2.89838 -1.62675,-5.09432 -1.94625,-5.09432 -0.29668,0 0.17025,2.96042 0.67793,4.29813 0.44601,1.17523 1.77128,3.63937 1.95733,3.63937 0.0461,0 -0.26397,-1.27943 -0.68901,-2.84318 z m 65.42187,1.10405 c 0.58811,-0.70863 2.41699,-1.49832 3.64972,-1.57592 1.03226,-0.065 1.21804,-0.17352 1.51802,-0.88697 1.11665,-2.65572 0.91595,-9.82459 -0.42403,-15.14613 -0.27873,-1.10694 -0.38133,-1.21155 -1.47513,-1.5041 -2.21041,-0.59119 -3.23022,-0.4317 -4.33379,0.67777 -0.58753,0.59067 -1.17186,1.5526 -1.44394,2.37701 -0.4543,1.37656 -0.45296,1.39499 0.22429,3.08784 0.7759,1.93945 0.87657,3.93128 0.37502,7.41986 -0.35777,2.48854 -0.14731,4.33229 0.6035,5.28678 0.62177,0.79046 0.83377,0.83328 1.30634,0.26386 z m 3.02954,-0.14209 c 0.65326,-0.30706 1.18774,-0.66425 1.18774,-0.79375 0,-0.58805 -2.15366,0.0101 -3.30729,0.91853 -0.51623,0.40651 -0.51132,0.4169 0.20132,0.42511 0.40177,0.005 1.26497,-0.24282 1.91823,-0.54989 z m -87.53863,-4.21666 c 4.64911,-1.40208 9.76763,-3.29495 10.02175,-3.70612 0.31934,-0.51672 -4.12025,0.55111 -7.94642,1.9113 -2.99447,1.06452 -7.39276,3.06768 -6.82351,3.10769 0.17614,0.0124 2.31282,-0.57841 4.74818,-1.31287 z m 34.75137,-2.73989 c 0,-0.0586 -0.8632,-0.3679 -1.91823,-0.68736 -1.05502,-0.31946 -4.11002,-1.46309 -6.78888,-2.5414 -2.67886,-1.0783 -4.92082,-1.91039 -4.98213,-1.84908 -0.18359,0.18359 2.58699,2.27038 3.884,2.92541 1.68738,0.85218 3.54095,1.45582 5.7042,1.85766 1.8253,0.33907 4.10104,0.50264 4.10104,0.29477 z m 43.06954,-3.33306 c 0.809,-1.59494 0.7484,-3.79452 -0.10791,-3.91668 -0.92204,-0.13155 -1.33687,0.57115 -1.53716,2.60386 -0.10277,1.04286 -0.25434,2.07201 -0.33685,2.28701 -0.11497,0.29963 0.0284,0.37053 0.614,0.30367 0.60261,-0.0688 0.89158,-0.33875 1.36792,-1.27786 z m 3.79602,-6.6389 c 1.08207,-2.03016 2.26202,-2.8861 3.97864,-2.8861 0.68435,0 1.56619,0.12239 1.95965,0.27199 1.97321,0.75021 0.3888,-1.21246 -2.04251,-2.53014 -1.0647,-0.57703 -2.37053,-1.4373 -2.90184,-1.91172 l -0.96603,-0.86258 -0.19019,1.78862 c -0.1046,0.98374 -0.35673,2.6623 -0.56028,3.73013 -0.35796,1.87789 -0.49269,4.01162 -0.2533,4.01162 0.0642,0 0.50336,-0.72532 0.97586,-1.61182 z m -19.24182,-5.13485 c 1.38779,-1.28616 1.94783,-3.93998 1.04255,-4.9403 -0.50224,-0.55497 -1.37375,-0.64102 -1.55089,-0.15313 -0.21244,0.5851 -0.54806,5.75469 -0.3736,5.75469 0.0926,0 0.48951,-0.29757 0.88194,-0.66126 z m 12.70971,-2.3153 c 1.06751,-1.07035 1.98533,-3.58167 1.43614,-3.92958 -0.19926,-0.12623 -0.62244,-0.23133 -0.94038,-0.23356 -0.31795,-0.002 -0.90001,-0.12644 -1.29347,-0.27604 -0.39346,-0.14959 -0.75076,-0.2366 -0.79401,-0.19335 -0.0696,0.0696 -0.90631,5.01541 -0.90631,5.35728 0,0.0743 0.36909,0.13514 0.82021,0.13514 0.57305,0 1.07863,-0.25911 1.67782,-0.85989 z m -3.74541,-5.00114 c 0.25983,-0.53142 0.5406,-1.54346 0.62394,-2.24895 0.16874,-1.4284 -0.20786,-1.98959 -1.54879,-2.30791 -0.93912,-0.22293 -1.19047,0.25778 -1.58186,3.02538 -0.34116,2.41245 -0.20592,2.69226 1.24055,2.56665 0.61959,-0.0538 0.8974,-0.28093 1.26616,-1.03517 z m 5.8652,-0.38371 c 0.0983,-0.52419 0.11714,-1.01474 0.0418,-1.0901 -0.0754,-0.0754 -0.55079,-0.0594 -1.05652,0.0355 -0.964,0.18085 -2.26378,1.05197 -1.98598,1.33102 0.12906,0.12964 1.30124,0.41581 2.65292,0.64768 0.093,0.0159 0.24945,-0.39989 0.34779,-0.92409 z m -31.69523,-4.48938 c 0.65969,-1.39263 1.13986,-2.59162 1.06705,-2.66443 -0.39596,-0.39597 -2.56464,3.81003 -2.56464,4.97394 0,0.61984 0.40798,-0.009 1.49759,-2.30951 z"
       id="path1" /></g></svg>
