<?xml version="1.0" encoding="UTF-8" standalone="no"?>
<!-- Created with Inkscape (http://www.inkscape.org/) -->

<svg
   width="108.91206mm"
   height="45.578972mm"
   viewBox="0 0 108.91205 45.578972"
   version="1.1"
   id="svg1"
   xml:space="preserve"
   inkscape:version="1.4.3 (0d15f75, 2025-12-25)"
   sodipodi:docname="figure-eight.svg"
   xmlns:inkscape="http://www.inkscape.org/namespaces/inkscape"
   xmlns:sodipodi="http://sodipodi.sourceforge.net/DTD/sodipodi-0.dtd"
   xmlns="http://www.w3.org/2000/svg"
   xmlns:svg="http://www.w3.org/2000/svg"><sodipodi:namedview
     id="namedview1"
     pagecolor="#ffffff"
     bordercolor="#000000"
     borderopacity="0.25"
     inkscape:showpageshadow="2"
     inkscape:pageopacity="0.0"
     inkscape:pagecheckerboard="0"
     inkscape:deskcolor="#d1d1d1"
     inkscape:document-units="mm"
     inkscape:zoom="0.39478094"
     inkscape:cx="-163.38175"
     inkscape:cy="-331.8296"
     inkscape:window-width="1287"
     inkscape:window-height="717"
     inkscape:window-x="0"
     inkscape:window-y="34"
     inkscape:window-maximized="0"
     inkscape:current-layer="layer1" /><defs
     id="defs1" /><g
     inkscape:label="Layer 1"
     inkscape:groupmode="layer"
     id="layer1"
     transform="translate(256.38142,-287.68933)"><path
       id="path39"
       style="fill:#000000"
       d="m -234.54774,333.14375 c -3.87959,-0.41926 -7.3586,-1.70728 -10.32067,-3.82097 -2.20815,-1.5757 -3.37412,-2.98011 -4.71268,-5.67638 l -1.10623,-2.2283 v -3.07576 c 0,-3.02013 0.0179,-3.11205 0.99118,-5.08261 1.38509,-2.80438 3.5806,-4.81878 7.15476,-6.5645 4.15589,-2.02987 9.55823,-2.95009 12.36101,-2.10555 0.50836,0.15318 1.51961,0.33322 2.24721,0.40009 3.63122,0.3337 7.69835,2.53175 11.56371,6.2495 3.2345,3.11099 3.09878,4.34476 -0.44348,4.0313 -1.77247,-0.15685 -1.99649,-0.10883 -4.77023,1.02255 -4.48246,1.82835 -6.06339,2.16591 -10.05416,2.14677 -2.95786,-0.0142 -3.77127,-0.11739 -5.80778,-0.73684 -1.30251,-0.39618 -3.27805,-1.19369 -4.39009,-1.77224 -2.29572,-1.19436 -4.94868,-3.41297 -4.65309,-3.89125 0.12924,-0.20911 0.75651,0.1549 1.91828,1.11319 2.2416,1.84897 4.18967,2.86971 7.11896,3.73013 5.02747,1.47673 9.49098,1.09788 15.6071,-1.32468 3.04287,-1.20527 3.24882,-1.2496 5.08943,-1.09557 1.05502,0.0883 1.91745,0.0728 1.91649,-0.0345 -0.007,-0.83057 -3.23893,-3.95178 -6.11009,-5.90154 -1.66172,-1.12845 -3.76729,-2.14549 -5.12694,-2.47643 -0.75282,-0.18323 -0.73389,-0.14434 0.42716,0.87765 1.53549,1.35159 1.91009,2.25039 1.76632,4.238 -0.18593,2.5705 -2.17634,4.80693 -4.9685,5.58263 -1.2443,0.34568 -3.9044,0.29836 -4.95262,-0.0881 -3.85856,-1.4226 -5.93705,-6.08282 -4.31112,-9.66606 0.28785,-0.63435 0.52336,-1.19348 0.52336,-1.2425 0,-0.27512 -3.11015,0.89813 -5.15937,1.94629 -2.92337,1.49526 -5.2504,3.69613 -6.35011,6.00584 -0.98475,2.06826 -1.21407,5.3456 -0.53869,7.69892 1.69008,5.889 7.43,10.02078 15.24025,10.97041 7.27487,0.88454 15.81031,-2.5958 23.36671,-9.52781 2.10591,-1.9319 6.51413,-6.59793 6.51413,-6.8951 0,-0.0828 -1.03823,0.3577 -2.30718,0.97898 -1.47947,0.72435 -2.39862,1.03817 -2.56205,0.87474 -0.3318,-0.3318 -0.50591,-0.21752 3.14944,-2.06743 2.75628,-1.39492 3.31061,-1.78868 4.20329,-2.98574 0.94531,-1.26764 0.99869,-1.42761 0.66146,-1.98233 -0.8338,-1.37154 -7.13972,-8.55436 -10.11173,-11.51787 -5.31451,-5.29931 -9.98016,-8.35421 -15.14537,-9.91666 -2.0533,-0.62111 -2.8457,-0.7177 -6.06599,-0.73946 -3.92618,-0.0265 -5.4336,0.24161 -8.64071,1.53702 -6.44401,2.60285 -11.87987,9.32707 -11.5496,14.28698 l 0.082,1.23112 1.19062,-2.02557 c 1.12598,-1.91558 1.67358,-2.49003 2.032,-2.13161 0.0864,0.0864 -0.32916,0.90479 -0.92347,1.81863 -1.72333,2.64987 -2.51941,4.57466 -2.16552,5.23591 0.81194,1.51713 2.71234,1.05998 5.37492,-1.29295 7.72066,-6.82278 17.53567,-8.25636 25.25837,-3.68922 2.85999,1.69137 7.6372,7.0522 6.9049,7.74846 -0.20123,0.19133 -0.37954,0.12259 -0.59141,-0.228 -1.01207,-1.67464 -3.59958,-4.58203 -5.0084,-5.62756 -3.51643,-2.60964 -6.76293,-3.6541 -11.30222,-3.63611 -5.57151,0.0221 -9.1753,1.50689 -14.92613,6.14979 -3.19677,2.58089 -4.6182,2.94438 -5.95394,1.52255 -0.84085,-0.89504 -3.74748,-7.37704 -3.44523,-7.68311 0.34183,-0.34615 0.55474,-0.0518 1.42554,1.97114 1.01291,2.35304 1.20338,2.4762 1.20707,0.78052 0.006,-2.9365 1.23213,-5.98099 3.60919,-8.96453 5.52663,-6.93669 15.69806,-9.70623 24.65496,-6.71321 6.9797,2.33231 13.19069,7.43717 22.1491,18.20451 1.45287,1.74625 2.71813,3.23454 2.81168,3.3073 0.0936,0.0728 0.86543,-0.76068 1.71528,-1.85209 1.35248,-1.73689 1.68772,-2.42159 2.68799,-5.4901 0.76016,-2.33195 1.26954,-3.50573 1.52135,-3.50573 0.46598,0 0.49619,-0.24918 -0.27138,2.23847 -0.35742,1.15839 -0.61004,2.146 -0.56136,2.19468 0.0487,0.0487 0.68749,-0.66098 1.41956,-1.57701 1.89905,-2.37625 6.17612,-6.47876 8.67788,-8.32371 3.76061,-2.77331 8.90031,-5.08446 13.20657,-5.93856 4.24567,-0.84208 10.19683,-0.21904 14.00827,1.46655 6.86243,3.0349 11.56455,9.80577 10.47028,15.07681 -0.36182,1.74291 -1.24698,2.90992 -2.52771,3.3326 -1.37982,0.45538 -2.28851,0.12193 -4.82514,-1.7706 -2.68015,-1.9996 -6.28241,-3.80633 -8.92362,-4.47568 -2.39108,-0.60596 -6.53664,-0.61364 -8.86354,-0.0164 -0.94588,0.24277 -2.71866,0.93104 -3.93949,1.52948 -2.54148,1.24581 -5.27312,3.74291 -7.15608,6.54164 -0.81091,1.20529 -1.21069,1.59841 -1.41634,1.39275 -0.4398,-0.43979 1.90249,-3.67436 4.2448,-5.86181 3.50556,-3.27381 7.66666,-4.85071 12.76503,-4.83747 4.63664,0.012 9.24908,1.65968 13.20707,4.71779 3.21402,2.48328 4.31492,2.74172 5.71503,1.3416 1.5419,-1.5419 1.44082,-4.81437 -0.25468,-8.24498 -3.27063,-6.61767 -11.92226,-10.6935 -20.488,-9.65201 -6.38511,0.77636 -13.13074,4.14237 -18.64992,9.30615 -2.19066,2.0496 -6.38838,6.80363 -6.1861,7.00591 0.0541,0.0541 1.04357,-0.31428 2.19883,-0.8186 1.15526,-0.50432 2.31876,-0.91841 2.58555,-0.92018 1.05438,-0.007 0.16369,0.66078 -2.08732,1.56499 -1.30158,0.52283 -2.78218,1.1936 -3.29022,1.4906 -0.80917,0.47303 -4.19442,4.42834 -4.22445,4.93583 -0.0231,0.39025 4.21591,5.23426 7.7927,8.90492 7.84929,8.05526 13.82625,11.45088 21.45408,12.18845 6.22289,0.60173 12.39988,-1.41449 16.31649,-5.32583 0.98226,-0.98094 1.78594,-1.89319 1.78594,-2.02722 0,-0.13402 -1.0418,0.20819 -2.31511,0.76047 -1.40583,0.60976 -2.41382,0.90972 -2.56646,0.76373 -0.3554,-0.33995 -0.005,-0.58768 1.83886,-1.3016 0.87312,-0.33799 2.26594,-0.95047 3.09516,-1.36107 0.90749,-0.44936 1.57254,-0.64155 1.67066,-0.4828 0.19886,0.32176 -0.90107,6.37794 -1.22119,6.72386 -0.48693,0.52619 -0.57331,-0.18963 -0.24515,-2.03142 0.18812,-1.05583 0.39545,-2.06019 0.46072,-2.23191 0.0653,-0.17172 -0.81361,0.60445 -1.95306,1.72482 -4.27537,4.20377 -9.9169,6.06992 -16.8232,5.56491 -3.38541,-0.24755 -6.08049,-1.01613 -9.63836,-2.74866 -5.3457,-2.60313 -11.25587,-7.71064 -17.53462,-15.15324 -1.50865,-1.78831 -2.82172,-3.15753 -2.91793,-3.04271 -1.62676,1.94158 -1.89658,2.53185 -2.64509,5.78649 -0.4259,1.85187 -0.89506,3.48773 -1.04258,3.63525 -0.55885,0.55885 -0.56819,-0.58748 -0.0222,-2.72584 0.30652,-1.20053 0.52149,-2.21718 0.47771,-2.25921 -0.0438,-0.042 -1.24465,1.22242 -2.66859,2.80988 -8.74178,9.74564 -18.92136,14.71722 -28.10268,13.72499 z m 5.93086,-17.2482 c 1.14199,-0.35039 3.16399,-2.19122 3.6332,-3.30765 0.79894,-1.90103 0.19272,-4.24318 -1.36198,-5.26199 -0.50984,-0.3341 -0.52586,-0.29418 -0.43878,1.09307 0.1187,1.89101 -0.62189,3.15576 -2.27649,3.88766 -3.58757,1.58695 -6.81672,-2.3743 -4.45723,-5.46775 0.3619,-0.47447 1.04854,-1.02445 1.52588,-1.22217 0.86104,-0.35665 0.86273,-0.36087 0.21454,-0.53581 -0.78065,-0.21068 -3.64813,0.005 -4.26541,0.32047 -0.24039,0.12295 -0.7464,0.8443 -1.12448,1.60299 -1.18723,2.38246 -0.83034,4.93541 0.97696,6.98862 1.98467,2.2547 4.42676,2.86816 7.57379,1.90256 z m -0.66756,-4.31261 c 1.69979,-0.80661 2.38665,-3.37693 1.29476,-4.84524 -1.10352,-1.48396 -4.30802,-0.77106 -5.22556,1.16252 -0.51064,1.07609 -0.50768,1.27704 0.0357,2.42203 0.43438,0.91538 1.54227,1.62992 2.56061,1.65148 0.26905,0.006 0.8696,-0.17016 1.33454,-0.39079 z m 79.18391,9.06625 c 0.1207,-0.47294 0.21946,-1.87193 0.21946,-3.10885 0,-1.98533 -0.10012,-2.46033 -0.85405,-4.05211 -1.05868,-2.23518 -2.97179,-4.14969 -5.64612,-5.65025 -1.87044,-1.0495 -5.963,-2.66121 -6.18748,-2.43673 -0.058,0.058 0.13604,0.81876 0.43125,1.69052 0.6718,1.98384 0.50367,3.8987 -0.50506,5.75206 -0.85177,1.56499 -1.84509,2.44621 -3.73835,3.31649 -1.20903,0.55575 -1.69755,0.63385 -3.3073,0.5287 -6.42007,-0.41934 -9.47655,-7.36658 -4.58121,-10.4129 1.024,-0.63722 1.04681,-0.67533 0.31124,-0.52 -1.35148,0.2854 -4.42146,1.86043 -6.08542,3.12209 -1.76703,1.3398 -5.42396,5.01112 -5.42396,5.4453 0,0.17745 0.84349,0.2653 2.3151,0.24113 2.14507,-0.0352 2.50944,0.0414 4.96094,1.04307 3.93057,1.60604 6.1888,2.03107 9.89275,1.86197 4.84578,-0.22124 9.17452,-1.90984 12.41631,-4.84349 1.10001,-0.99545 1.65987,-1.34627 1.79628,-1.12556 0.29755,0.48145 -2.76811,3.17029 -4.85805,4.26093 -3.04939,1.59133 -5.8758,2.34794 -9.35454,2.50416 -3.69443,0.16591 -5.7396,-0.21861 -10.4137,-1.95793 -2.91325,-1.08406 -3.2974,-1.16443 -4.79804,-1.00372 -0.89718,0.0961 -1.88314,0.0947 -2.19102,-0.003 -1.74049,-0.55241 0.63689,-3.62386 5.79405,-7.4856 3.15908,-2.36556 6.52349,-3.3894 12.11058,-3.68543 3.7239,-0.19731 6.7435,0.50295 10.69189,2.47952 5.14301,2.5746 7.81626,5.96979 8.09277,10.2783 0.14377,2.2403 -0.3283,4.62121 -0.91627,4.62121 -0.31033,0 -0.34601,-0.1783 -0.17205,-0.8599 z m -16.44342,-5.19141 c 1.3184,-0.59891 2.6123,-1.86893 3.368,-3.30583 1.11852,-2.12679 0.50353,-6.19237 -1.05963,-7.00502 -0.73405,-0.38161 -3.2971,-0.59854 -4.16632,-0.35262 -0.74002,0.20936 -0.75485,0.2372 -0.21902,0.41118 0.3161,0.10263 1.00071,0.65812 1.52135,1.23441 0.77334,0.85599 0.94644,1.25349 0.94563,2.17151 -0.003,2.89208 -2.75167,4.62128 -5.27518,3.31808 -1.6765,-0.86578 -2.26445,-1.78381 -2.26445,-3.53572 0,-0.78936 -0.067,-1.43556 -0.14894,-1.43599 -0.31672,-0.002 -1.55099,1.49096 -1.8186,2.19926 -0.89987,2.38171 0.92663,5.29873 4.03551,6.44494 1.30834,0.48237 3.86187,0.40991 5.08165,-0.1442 z m -2.14862,-4.1072 c 1.16117,-0.48517 1.74587,-1.36491 1.74587,-2.62682 0,-1.30375 -1.24879,-2.64224 -2.87326,-3.07967 -1.42152,-0.38278 -2.0602,-0.17617 -2.70025,0.87352 -1.17513,1.9272 -0.15844,4.4574 2.01267,5.00889 0.84244,0.214 0.89364,0.20903 1.81497,-0.17592 z" /></g></svg>
