<?xml version="1.0" encoding="UTF-8" standalone="no"?>
<!-- Created with Inkscape (http://www.inkscape.org/) -->

<svg
   width="61.253666mm"
   height="74.049522mm"
   viewBox="0 0 61.253666 74.049522"
   version="1.1"
   id="svg1"
   inkscape:version="1.4.3 (0d15f75, 2025-12-25)"
   sodipodi:docname="focus-shift.svg"
   xmlns:inkscape="http://www.inkscape.org/namespaces/inkscape"
   xmlns:sodipodi="http://sodipodi.sourceforge.net/DTD/sodipodi-0.dtd"
   xmlns="http://www.w3.org/2000/svg"
   xmlns:svg="http://www.w3.org/2000/svg">
  <sodipodi:namedview
     id="namedview1"
     pagecolor="#ffffff"
     bordercolor="#000000"
     borderopacity="0.25"
     inkscape:showpageshadow="2"
     inkscape:pageopacity="0.0"
     inkscape:pagecheckerboard="0"
     inkscape:deskcolor="#d1d1d1"
     inkscape:document-units="mm"
     inkscape:zoom="0.042760943"
     inkscape:cx="105.23622"
     inkscape:cy="128.62205"
     inkscape:window-width="944"
     inkscape:window-height="250"
     inkscape:window-x="0"
     inkscape:window-y="34"
     inkscape:window-maximized="0"
     inkscape:current-layer="layer1" />
  <defs
     id="defs1" />
  <g
     inkscape:label="Layer 1"
     inkscape:groupmode="layer"
     id="layer1"
     transform="translate(-71.437499,-108.47915)">
    <path
       id="path3"
       style="fill:#000000"
       d="m 113.48841,178.62606 c -0.0207,-3.39468 -0.11659,-4.22977 -0.73666,-6.41617 -0.39206,-1.38244 -1.02517,-3.72491 -1.4069,-5.20547 l -0.69405,-2.69194 -1.87719,1.26671 c -5.53225,3.73313 -11.41946,6.96266 -15.11072,8.28926 -2.69986,0.9703 -6.85868,1.82451 -8.99192,1.84691 -3.5426,0.0372 -6.30941,-1.55631 -7.56223,-4.35539 -0.82969,-1.85373 -0.82797,-4.69972 0.004,-6.87634 1.07678,-2.81655 4.3118,-5.65192 7.77394,-6.81355 2.35577,-0.79042 2.51735,-0.92033 1.93923,-1.55915 -1.69067,-1.86817 -6.18118,-2.19279 -9.7602,-0.70557 -0.31825,0.13224 -0.46302,0.0708 -0.46302,-0.19656 0,-0.65233 2.76076,-1.37035 5.29167,-1.37626 1.79931,-0.004 2.4902,0.11305 3.45558,0.58642 1.4579,0.71488 2.75455,2.00304 2.55078,2.53407 -0.0813,0.21182 -0.78136,0.59078 -1.55573,0.84212 -5.45835,1.77167 -8.8874,5.36157 -9.16645,9.59647 -0.16198,2.45812 0.33598,3.88626 1.92212,5.51266 2.19643,2.25217 4.5623,2.67441 9.42854,1.68273 4.39274,-0.89518 8.69453,-2.6837 13.73807,-5.71177 2.41193,-1.44808 12.00627,-7.59281 13.09138,-8.38441 0.49975,-0.36458 0.46033,-0.421 -0.86326,-1.23541 -0.90791,-0.55864 -1.63705,-1.27888 -2.11116,-2.08539 -0.66241,-1.12681 -0.72309,-1.45793 -0.71069,-3.87784 0.0142,-2.76374 0.22283,-4.10104 0.63989,-4.10104 0.14717,0 0.18344,1.25417 0.09,3.11252 -0.14316,2.84727 -0.10761,3.20833 0.41711,4.23688 0.31551,0.61845 1.07633,1.47487 1.6909,1.90336 0.61451,0.42845 1.33376,0.93287 1.59833,1.12093 0.73715,0.52397 0.3412,1.07229 -1.69946,2.35346 -3.08358,1.93594 -3.14917,2.00116 -2.97821,2.9615 0.083,0.46629 0.55104,2.21702 1.04006,3.89051 1.31679,4.50619 1.74075,6.74114 1.78175,9.39271 0.0372,2.4043 -0.21233,4.3656 -0.5554,4.36565 -0.10254,1e-5 -0.19716,-1.75616 -0.21025,-3.90261 z M 73.30152,180.875 c -0.0968,-0.76399 -0.54272,-3.65125 -0.99093,-6.41615 -2.35042,-14.49888 -0.19298,-19.72675 9.38781,-22.74845 1.27459,-0.40199 2.98566,-1.13327 3.80237,-1.62507 1.68309,-1.01351 2.26053,-1.14671 1.54539,-0.35648 -0.82539,0.91205 -1.98938,1.49426 -5.18898,2.59544 -3.97483,1.36799 -4.91978,1.86574 -6.45335,3.39932 -3.47876,3.47876 -4.06984,8.73555 -2.25535,20.05816 0.44308,2.76489 0.80626,5.3545 0.80707,5.75469 0.002,1.26513 -0.47057,0.78665 -0.65403,-0.66146 z m 10.02831,-15.66162 c -0.44839,-1.78652 1.02161,-4.64351 3.19071,-6.20123 1.67521,-1.20305 3.56591,-1.98411 8.1597,-3.37083 4.73672,-1.42986 5.20842,-1.64301 3.2826,-1.4833 -1.77292,0.14702 -3.96889,-0.44643 -6.14645,-1.66106 -1.92194,-1.07204 -3.57188,-2.54486 -3.57188,-3.18845 0,-0.26 0.31166,-1.25175 0.69258,-2.2039 0.6376,-1.59375 0.68296,-1.96295 0.5714,-4.65096 -0.0771,-1.85747 -0.27719,-3.28356 -0.54997,-3.91961 -0.37575,-0.87612 -0.51215,-0.9789 -1.1025,-0.83073 -1.02455,0.25715 -1.94233,-0.51582 -2.8074,-2.36444 -0.76373,-1.63205 -1.376,-4.07023 -1.12435,-4.47741 0.0729,-0.11788 0.0203,-0.35794 -0.11671,-0.53347 -0.36389,-0.46606 -0.79379,-2.43365 -0.99467,-4.55247 -0.20421,-2.15386 0.18459,-5.34055 0.89989,-7.3757 1.38052,-3.92782 5.38877,-7.71756 9.78992,-9.25623 1.85756,-0.64941 5.97818,-0.87486 8.06647,-0.44133 3.72759,0.77384 7.44916,3.49739 9.02306,6.60332 0.95571,1.88601 1.72937,5.04039 1.72937,7.05104 0,3.19917 -0.71827,3.3835 -1.6998,0.43623 -1.20338,-3.61341 -3.43424,-6.22385 -6.0765,-7.1104 -3.62589,-1.21658 -8.93979,0.29481 -11.57037,3.29087 -1.4723,1.67686 -2.07132,3.39628 -2.47888,7.11534 -0.40479,3.69372 -0.74238,5.15604 -1.29649,5.61591 -0.54041,0.44851 -1.02194,0.13872 -1.80848,-1.16345 -0.84385,-1.39704 -1.91302,-1.83618 -2.51821,-1.0343 -0.87428,1.15844 0.20805,5.56809 1.76359,7.18529 0.45146,0.46936 0.68232,0.54044 1.07416,0.33073 0.83387,-0.44627 1.07177,-0.31468 1.60325,0.88682 1.25639,2.84027 1.24845,7.15262 -0.0186,10.10855 l -0.54037,1.26065 0.85019,0.87718 c 1.18021,1.21766 4.5358,2.90089 6.48483,3.25291 1.73892,0.31407 3.43656,0.0874 4.86075,-0.64911 1.27972,-0.66177 2.12503,-2.25719 2.45772,-4.63863 l 0.13099,-0.93764 -1.8683,-0.29418 c -3.80136,-0.59857 -9.15042,-4.05944 -10.90707,-7.05694 -0.77722,-1.32622 -1.55174,-4.41489 -1.19623,-4.7704 0.27461,-0.2746 0.3306,-0.14614 0.78263,1.79538 0.80308,3.4493 3.50854,6.27995 7.97647,8.34555 1.95981,0.90606 4.92453,1.52253 5.33725,1.10981 0.14766,-0.14766 0.32528,-1.15368 0.39472,-2.2356 l 0.12624,-1.96712 -0.95883,-0.31644 c -0.52735,-0.17404 -0.95882,-0.3965 -0.95882,-0.49436 0,-0.0978 1.06144,-0.17792 2.35875,-0.17792 1.857,0 2.30036,0.0704 2.08427,0.33073 -0.15097,0.1819 -0.52779,0.33256 -0.8374,0.33478 -0.8835,0.006 -1.30279,0.39041 -1.10536,1.01245 0.0966,0.30437 0.0501,1.23236 -0.10327,2.06221 -0.15341,0.82984 -0.24947,1.53752 -0.21348,1.57261 0.19123,0.18645 2.19104,-0.72299 2.75515,-1.25294 1.0229,-0.96098 2.67692,-4.5939 3.39971,-7.4672 0.65374,-2.59882 0.81605,-5.01905 0.49411,-7.36785 l -0.16335,-1.19178 -0.79529,0.39674 c -0.58474,0.29171 -1.277,0.35636 -2.61478,0.24421 -1.00071,-0.0839 -1.81948,-0.0843 -1.81948,-9e-4 0,0.0834 0.3621,1.20623 0.80466,2.49516 0.90439,2.634 0.81299,3.24037 -0.56058,3.7192 -0.82149,0.28638 -0.92062,0.58947 -0.52936,1.61856 0.15776,0.41495 0.52641,0.69798 1.04394,0.80149 0.71659,0.14331 1.58698,1.09655 1.28081,1.40272 -0.26151,0.26151 -7.41397,0.22472 -7.5055,-0.0386 -0.10647,-0.30628 3.41216,-1.57752 4.20173,-1.51804 0.38311,0.0289 0.47121,-0.0765 0.34238,-0.40943 -0.0954,-0.24655 -0.24073,-0.78164 -0.32294,-1.18907 -0.1313,-0.65072 -0.23857,-0.72121 -0.88233,-0.57982 -1.03016,0.22626 -1.20569,-0.26959 -0.23741,-0.67066 0.6419,-0.26589 0.92747,-0.26663 1.41877,-0.004 1.40212,0.7504 2.21227,-0.68911 1.33863,-2.37854 -0.22053,-0.42645 -0.56097,-1.4028 -0.75655,-2.16968 l -0.35559,-1.39431 -1.95543,-0.14709 c -1.54133,-0.11594 -2.05937,-0.0599 -2.44624,0.26458 -0.73153,0.6136 -4.0595,0.56596 -5.03321,-0.072 -0.70263,-0.46038 -0.71647,-0.50779 -0.2867,-0.98268 1.04908,-1.15922 3.25092,-1.52799 5.1019,-0.85448 0.83127,0.30247 -0.54375,-1.02967 -1.4655,-1.41981 -1.21224,-0.51308 -2.73511,-0.44645 -4.4486,0.19465 -1.65524,0.6193 -2.04451,0.52091 -1.29092,-0.3263 1.56723,-1.76191 5.4975,-2.37775 7.79162,-1.22089 1.29665,0.65386 1.56477,1.44023 0.65138,1.91041 -0.36478,0.18778 -0.50033,0.47788 -0.43635,0.93386 0.12699,0.90497 0.44543,1.04959 2.32151,1.05428 1.60903,0.004 1.62176,-0.002 1.78813,-0.83375 0.37935,-1.89675 2.30006,-3.39553 4.35144,-3.39553 1.64893,0 2.06871,0.6286 1.91266,2.86406 -0.0569,0.8151 -0.008,0.87337 0.66245,0.79375 0.82502,-0.0979 0.95563,-0.28224 1.74275,-2.45899 0.73236,-2.02532 2.79638,-4.17676 4.48703,-4.67709 4.21548,-1.24752 8.22586,0.81988 9.34795,4.819 0.92585,3.2997 -0.70376,6.81737 -3.7495,8.09368 -1.00363,0.42057 -1.31744,1.30035 -0.96542,2.70658 0.23784,0.95011 0.24703,0.95538 1.52039,0.87361 1.66496,-0.10693 4.77649,0.38123 5.93547,0.93121 1.28228,0.60848 1.82225,1.93287 1.31735,3.23109 -0.34189,0.8791 -0.32452,1.01156 0.24218,1.84608 0.81872,1.20564 0.80861,2.66139 -0.0254,3.65251 -0.57385,0.68198 -0.60057,0.81943 -0.27396,1.40936 0.67157,1.21302 0.3719,2.57239 -0.76638,3.4765 -0.42604,0.33839 -0.53843,0.68391 -0.48103,1.47887 0.10774,1.49218 -1.0513,2.44667 -3.90649,3.21709 -1.19004,0.32111 -3.01785,0.99317 -4.0618,1.49347 -1.30378,0.62481 -2.27323,0.90917 -3.09618,0.90816 -1.66976,-0.002 -3.18247,-0.4609 -3.18247,-0.96531 0,-0.28882 0.13903,-0.35591 0.46302,-0.22346 2.11352,0.86406 3.29585,0.77718 5.65919,-0.41583 0.83858,-0.42331 2.45328,-1.02301 3.58822,-1.33267 2.65179,-0.7235 3.48062,-1.15989 3.80038,-2.00091 0.42955,-1.1298 -0.0287,-1.39845 -1.66241,-0.97467 -0.75921,0.19694 -2.18787,0.35807 -3.17481,0.35807 -1.63291,0 -1.79442,-0.0488 -1.79442,-0.54267 0,-0.9488 1.59354,-1.39364 4.45827,-1.24455 2.27105,0.1182 2.52957,0.0809 3.15295,-0.45535 1.27182,-1.09397 0.6045,-3.34846 -0.86434,-2.92012 -1.13351,0.33054 -5.30877,0.44809 -6.01928,0.16946 -1.03274,-0.405 -0.91236,-1.016 0.26459,-1.34286 1.28299,-0.3563 2.91214,-0.35127 5.01824,0.0155 1.48494,0.25859 1.7485,0.23936 2.18949,-0.15973 0.72883,-0.65958 0.90321,-1.80513 0.4177,-2.74399 -0.22647,-0.43796 -0.53101,-0.86998 -0.67675,-0.96005 -0.14573,-0.0901 -1.21883,-0.0243 -2.38465,0.14617 -2.36183,0.34535 -5.23708,0.14627 -5.99374,-0.415 -0.46903,-0.34791 -0.46967,-0.38149 -0.0161,-0.84156 0.39736,-0.40301 0.90216,-0.47648 3.175,-0.46212 1.4864,0.009 3.1412,0.14646 3.67735,0.3046 0.8255,0.24349 1.03828,0.21742 1.38907,-0.17019 0.22783,-0.25176 0.41424,-0.82667 0.41424,-1.2776 0,-1.8103 -2.42469,-2.56848 -7.65924,-2.39499 -3.91409,0.12972 -5.01115,0.51933 -5.91366,2.10017 -0.32027,0.56099 -0.67161,1.0209 -0.78075,1.02202 -0.37529,0.004 -0.19742,-0.71499 0.39901,-1.61248 0.76699,-1.15413 2.61018,-2.08965 4.11713,-2.08965 0.95169,0 1.13371,-0.076 1.00227,-0.41851 -0.0883,-0.23019 -0.16059,-0.92798 -0.16059,-1.55065 v -1.13213 l -1.25678,-0.16805 c -0.69122,-0.0924 -1.47561,-0.19831 -1.74309,-0.23529 -0.60742,-0.084 -1.72588,2.56358 -2.8657,6.78362 -1.3122,4.85823 -1.8196,5.56969 -5.90839,8.2845 -4.84103,3.21427 -7.94513,4.58292 -15.61042,6.88289 -2.61937,0.78594 -5.11969,1.63411 -5.55625,1.88483 -0.58783,0.33758 -1.2745,1.38024 -2.64687,4.01909 -1.62506,3.12472 -1.9414,3.57344 -2.57046,3.64607 -0.58202,0.0672 -0.74953,-0.0454 -0.88798,-0.59705 z m 2.56849,-2.75674 c 0.60478,-1.25691 1.20569,-2.49365 1.33533,-2.74831 0.35438,-0.69607 0.0678,-0.56577 -1.1242,0.51112 -1.51406,1.36786 -2.73539,4.02986 -2.22661,4.85309 0.30821,0.4987 0.86379,-0.22239 2.01548,-2.6159 z m 18.58059,-10.34911 c 1.48679,-0.72433 4.12836,-2.24898 5.87013,-3.38811 2.90643,-1.90082 3.23575,-2.20051 4.00439,-3.64399 0.46063,-0.86505 1.20284,-2.94288 1.64936,-4.61739 0.44652,-1.67451 1.15697,-3.86259 1.57878,-4.86241 l 0.76694,-1.81785 -0.91238,-0.80108 c -1.45888,-1.28092 -2.05486,-2.67268 -2.06397,-4.81993 -0.007,-1.55975 0.10889,-2.05069 0.7318,-3.11038 1.74709,-2.97215 6.21656,-3.81725 8.23104,-1.55634 0.64403,0.72281 0.0873,0.75706 -0.81165,0.0499 -2.41282,-1.89792 -6.63243,-0.0324 -7.47246,3.30371 -0.50181,1.99284 0.59175,5.14063 2.05861,5.92567 0.6786,0.36317 0.81847,-0.21958 0.82307,-3.42924 0.004,-2.94429 0.33829,-3.69689 1.64102,-3.69689 0.58283,0 1.0547,0.25559 1.66338,0.90098 1.11386,1.18103 1.56668,2.85893 1.40006,5.18775 -0.0728,1.01682 -0.0803,1.84877 -0.0168,1.84877 0.0635,0 0.63392,-0.35673 1.26763,-0.79273 2.57304,-1.7703 3.28795,-5.58638 1.56872,-8.37354 -0.53031,-0.85973 -1.2669,-1.56925 -2.22649,-2.14467 -1.23132,-0.73836 -1.68074,-0.85989 -3.1797,-0.85989 -3.24523,0 -5.70036,1.87702 -6.72784,5.14363 -0.48023,1.52679 -1.39874,2.52928 -2.31739,2.52928 -0.4618,0 -0.48953,0.11811 -0.29505,1.25677 0.81213,4.75504 -1.35422,12.72152 -4.14505,15.24286 -0.59201,0.53484 -1.59206,1.10607 -2.23962,1.27927 -1.1499,0.30755 -1.17309,0.33594 -1.3496,1.65191 -0.24163,1.80162 -0.77444,3.01852 -1.77368,4.05096 -0.45774,0.47295 -0.74095,0.8599 -0.62937,0.8599 0.11159,0 1.41936,-0.59263 2.90615,-1.31695 z m 22.49013,0.88411 c 1.88651,-0.25858 1.51194,-0.72077 -0.4561,-0.5628 -1.98874,0.15964 -3.3025,0.70974 -1.72671,0.72301 0.52539,0.004 1.50766,-0.0677 2.18281,-0.16021 z m 1.35985,-4.99213 c 0.14552,-0.0492 -0.74745,-0.0848 -1.98438,-0.0791 -1.4306,0.007 -1.96013,0.0765 -1.45521,0.19204 0.7301,0.16707 2.81412,0.0986 3.43959,-0.11295 z m 0.39687,-5.15836 c -0.53152,-0.3435 -5.02708,-0.3435 -5.02708,0 0,0.15944 1.07768,0.26297 2.71198,0.26053 1.84872,-0.003 2.58565,-0.0857 2.3151,-0.26053 z m -23.59394,-3.34423 c 0.8905,-0.0931 1.56906,-0.25019 1.50791,-0.34913 -0.22625,-0.36608 -3.2183,-0.27159 -3.73301,0.11789 -0.49466,0.3743 -0.49346,0.38384 0.0495,0.39205 0.30607,0.005 1.28509,-0.0677 2.1756,-0.16081 z m 17.69863,-6.37921 c 0.25562,-0.92912 0.25856,-3.42635 0.005,-4.34523 -0.29876,-1.08315 -1.47513,-2.3355 -2.19381,-2.3355 -0.91029,0 -1.25172,0.83866 -1.06066,2.60528 0.089,0.82267 0.0525,2.15061 -0.0811,2.95097 -0.28897,1.7317 -0.18439,1.84238 1.74621,1.84803 1.28635,0.004 1.39814,-0.0473 1.5842,-0.72355 z M 89.2712,130.14243 c 0.17418,-0.58137 0.42921,-2.33914 0.56672,-3.90615 0.13751,-1.567 0.43368,-3.46755 0.65815,-4.22342 0.41485,-1.39695 1.72144,-3.34189 2.99708,-4.46135 2.14127,-1.87909 6.12575,-3.18174 8.95298,-2.92701 4.00431,0.36079 6.60267,2.55687 8.46887,7.15772 l 0.86853,2.14122 -1.5e-4,-1.32292 c -2e-4,-1.92265 -0.65935,-4.7335 -1.56267,-6.66386 -2.0532,-4.38758 -7.30863,-7.2322 -12.71949,-6.88471 -6.50037,0.41745 -12.211,5.10274 -13.64442,11.19458 -0.31762,1.34986 -0.39894,2.65472 -0.31243,5.01328 0.1264,3.44607 0.38593,4.42577 0.9821,3.70743 0.79704,-0.96037 2.75708,-0.16398 3.59783,1.46185 0.53306,1.03081 0.76991,0.97161 1.1469,-0.28666 z m 7.65156,-1.31075 c -0.24546,-0.39304 -0.40631,-0.4458 -0.67622,-0.22179 -0.28882,0.2397 -0.29083,0.33409 -0.0109,0.51166 0.18878,0.11976 0.49309,0.21957 0.67622,0.22179 0.26386,0.003 0.26612,-0.10298 0.0109,-0.51166 z m 2.16005,0.13043 c 0.45034,-0.54263 0.11343,-0.93763 -0.79975,-0.93763 -0.59047,0 -0.77813,0.1223 -0.77813,0.50712 0,0.79464 1.04015,1.07843 1.57788,0.43051 z m 1.52562,-0.0617 c 0.0516,-0.15488 -0.0898,-0.35206 -0.31419,-0.43818 -0.28599,-0.10975 -0.40806,0.006 -0.40806,0.38632 0,0.54434 0.54504,0.58348 0.72225,0.0519 z m 6.78176,0.0501 c -0.17128,-0.44636 -0.51833,-0.51869 -0.74317,-0.15489 -0.0823,0.13309 1e-5,0.30229 0.18282,0.37599 0.58603,0.23626 0.71616,0.18492 0.56035,-0.2211 z m 1.75641,-0.27289 c 0,-0.22284 -0.1866,-0.47678 -0.41466,-0.56429 -0.49762,-0.19096 -1.04026,0.27726 -0.79022,0.68184 0.26954,0.43611 1.20488,0.34486 1.20488,-0.11755 z m -2.65521,-1.43367 c 0.0155,-0.63612 -0.46624,0.0421 -0.64846,0.91281 l -0.16611,0.79375 0.40259,-0.66146 c 0.22143,-0.3638 0.40682,-0.8341 0.41198,-1.0451 z m 4.50729,-0.35719 c 0,-0.62574 -0.14288,-1.28058 -0.3175,-1.45521 -0.93348,-0.93347 -3.70923,0.24665 -3.87078,1.64568 -0.0739,0.64034 -0.0135,0.72632 0.39688,0.56425 1.00427,-0.39664 2.09405,-0.41617 2.73307,-0.049 0.99286,0.57052 1.05833,0.52686 1.05833,-0.70574 z m -9.41066,-0.68533 c 0.21895,-0.35427 -1.67236,-1.16105 -3.02476,-1.29028 -0.65484,-0.0626 -1.60734,0.006 -2.11666,0.153 -0.8896,0.25626 -0.86356,0.26814 0.66145,0.30171 1.00908,0.0222 1.92492,0.21968 2.51355,0.54194 1.01004,0.55298 1.73887,0.66181 1.96642,0.29363 z" />
  </g>
</svg>
