<?xml version="1.0" encoding="UTF-8" standalone="no"?>
<!-- Created with Inkscape (http://www.inkscape.org/) -->

<svg
   width="133.08455mm"
   height="83.714706mm"
   viewBox="0 0 133.08455 83.714706"
   version="1.1"
   id="svg1"
   inkscape:version="1.4.3 (0d15f75, 2025-12-25)"
   sodipodi:docname="look-far.svg"
   xmlns:inkscape="http://www.inkscape.org/namespaces/inkscape"
   xmlns:sodipodi="http://sodipodi.sourceforge.net/DTD/sodipodi-0.dtd"
   xmlns="http://www.w3.org/2000/svg"
   xmlns:svg="http://www.w3.org/2000/svg">
  <sodipodi:namedview
     id="namedview1"
     pagecolor="#ffffff"
     bordercolor="#000000"
     borderopacity="0.25"
     inkscape:showpageshadow="2"
     inkscape:pageopacity="0.0"
     inkscape:pagecheckerboard="0"
     inkscape:deskcolor="#d1d1d1"
     inkscape:document-units="mm"
     inkscape:zoom="0.042760943"
     inkscape:cx="245.55118"
     inkscape:cy="152.00787"
     inkscape:window-width="944"
     inkscape:window-height="250"
     inkscape:window-x="0"
     inkscape:window-y="34"
     inkscape:window-maximized="0"
     inkscape:current-layer="layer1" />
  <defs
     id="defs1" />
  <g
     inkscape:label="Layer 1"
     inkscape:groupmode="layer"
     id="layer1"
     transform="translate(-35.454181,-103.45209)">
    <path
       id="path65"
       style="fill:#000000"
       d="m 75.14084,187.04072 c -1.99529,-0.29132 -3.72341,-0.75428 -4.93259,-1.32142 -1.48054,-0.69442 -3.42184,-2.60086 -3.67484,-3.60886 l -0.15869,-0.63228 -1.18279,0.5988 c -1.91102,0.96748 -3.45796,1.02138 -8.04275,0.28025 -2.25558,-0.36462 -4.99965,-0.74346 -6.09794,-0.84187 -3.86691,-0.34649 -9.43323,0.767 -13.43815,2.68818 -1.82247,0.87425 -2.41889,0.99336 -2.05911,0.41123 0.27941,-0.45209 4.69349,-2.20589 7.27871,-2.89197 3.54158,-0.93989 8.80608,-0.97535 13.39044,-0.0902 4.22709,0.81618 6.71083,0.82374 8.54386,0.026 l 1.40011,-0.60932 -0.52729,-0.56128 c -1.94325,-2.0685 -2.36805,-6.30329 -1.22677,-12.22978 1.84132,-9.56166 3.17016,-14.62525 4.56581,-17.39805 1.29998,-2.58274 3.65027,-4.53607 6.55887,-5.45109 1.65675,-0.52121 2.91841,-1.30953 3.39965,-2.1242 0.40633,-0.68786 0.4075,-0.78161 0.0146,-1.17446 -0.39286,-0.39286 -0.47651,-0.37344 -1.04808,0.2433 -0.73272,0.79061 -2.29694,0.91426 -3.23693,0.25587 -0.74233,-0.51995 -1.64283,-2.25445 -1.64283,-3.16437 0,-1.27468 0.73504,-2.23099 1.7198,-2.2375 0.4845,-0.003 0.52158,-0.15085 0.43931,-1.74946 -0.0786,-1.52653 0.0149,-1.95872 0.74353,-3.43882 0.92795,-1.88493 1.94461,-2.79985 3.96374,-3.56705 3.36206,-1.27749 8.74404,0.0455 8.74404,2.14942 0,0.31157 0.25474,0.92424 0.56608,1.36148 0.35095,0.49287 0.63251,1.41332 0.74089,2.42209 0.18159,1.69019 0.49179,2.4891 1.19213,3.07033 0.51016,0.4234 0.53475,1.43226 0.0448,1.83887 -0.219,0.18175 -0.41122,1.00634 -0.4776,2.04876 -0.13983,2.19606 -0.51766,2.54195 -2.64883,2.42491 l -1.50857,-0.0828 -0.57645,1.70829 c -0.37657,1.11593 -0.47736,1.74132 -0.29065,1.80356 1.25911,0.4197 2.34,2.05821 3.0993,4.69819 0.24986,0.86875 0.62589,1.91634 0.83562,2.32799 0.71156,1.39658 3.67841,2.12543 7.53694,1.85154 2.31759,-0.16451 2.33425,-0.17078 2.33425,-0.87881 0,-0.78231 0.71571,-1.58889 1.40989,-1.58889 0.60078,0 0.55575,0.67985 -0.11716,1.76863 -0.30764,0.49777 -0.49504,0.96934 -0.41644,1.04794 0.0786,0.0786 0.79659,0.16163 1.59555,0.18452 1.07261,0.0307 1.67693,0.20745 2.31,0.67552 0.82264,0.60823 0.87176,0.61421 1.21276,0.14787 0.19547,-0.26732 0.3554,-0.89139 0.3554,-1.38683 0,-2.50568 -2.21591,-3.76801 -9.62211,-5.48137 -1.58137,-0.36584 -4.27862,-1.25941 -5.99387,-1.98572 -1.71526,-0.72631 -3.27891,-1.32238 -3.47478,-1.32461 -0.19586,-0.002 -0.53471,-0.12571 -0.75299,-0.2744 -0.8948,-0.60953 1.86359,0.13423 5.09927,1.37495 1.85871,0.71272 4.92623,1.64461 6.81671,2.07087 4.17764,0.94197 6.29805,1.85286 7.55698,3.24635 0.87336,0.9667 0.93906,1.1549 0.85678,2.45423 l -0.0891,1.40724 1.35346,0.16866 c 0.74441,0.0928 2.41128,0.024 3.70417,-0.15275 3.23578,-0.44243 12.77167,-0.44205 21.80569,8.9e-4 8.52149,0.4178 15.62124,0.30457 16.78989,-0.26778 0.97108,-0.47559 1.69433,-1.47082 2.01198,-2.76864 0.13972,-0.57083 0.32815,-4.79236 0.41873,-9.3812 l 0.1647,-8.34334 -1.26729,-1.11551 c -1.40071,-1.23296 -2.05673,-1.35929 -3.04487,-0.58635 -1.21138,0.94755 -1.82859,0.70917 -4.51867,-1.74524 l -2.49279,-2.27441 -1.78594,1.92539 c -1.30859,1.41078 -1.78594,1.78531 -1.78594,1.40128 0,-0.28826 0.14883,-0.68445 0.33073,-0.88042 0.46505,-0.50102 0.0472,-0.24779 -2.97656,1.80397 -2.80707,1.90472 -6.75866,3.88956 -8.26823,4.15305 -1.68008,0.29326 -1.08966,-0.24873 0.98686,-0.9059 1.08326,-0.34283 3.07542,-1.29807 4.42703,-2.12276 2.85276,-1.74064 7.76331,-5.18313 8.04605,-5.64061 0.11947,-0.19331 -0.33221,-0.78514 -1.17595,-1.54085 -0.75346,-0.67484 -1.36993,-1.38088 -1.36993,-1.56897 0,-0.39879 0.30802,-0.204 2.2108,1.39808 l 1.2044,1.01406 1.66201,-1.34479 c 0.9141,-0.73964 1.75303,-1.3448 1.86428,-1.3448 0.50766,0 0.0817,0.59392 -1.36511,1.90316 l -1.56737,1.41839 2.36163,2.10954 c 1.29889,1.16024 2.5393,2.1479 2.75646,2.19479 0.21717,0.0469 0.74133,-0.16147 1.16482,-0.46302 1.14966,-0.81863 2.13251,-0.70263 3.42573,0.40432 1.88722,1.61539 1.85338,1.40219 1.61738,10.18961 -0.11574,4.30921 -0.2937,8.39025 -0.39549,9.06899 -0.24119,1.60842 -1.06516,2.81176 -2.37532,3.46901 -0.98412,0.49369 -1.57819,0.52889 -8.86005,0.52505 -4.29287,-0.002 -10.91955,-0.15212 -14.72597,-0.33301 -6.02017,-0.2861 -14.08246,-0.20498 -13.73924,0.13824 0.26882,0.26882 11.64258,0.86432 21.85063,1.14405 17.04112,0.46696 19.71591,0.11341 21.16285,-2.79724 0.61115,-1.22939 0.66403,-1.65027 0.74798,-5.95313 0.0622,-3.18702 -0.0886,-6.77436 -0.48375,-11.50937 -0.8521,-10.21035 -0.98529,-19.53635 -0.36131,-25.30005 0.68029,-6.28382 0.6562,-7.95847 -0.12646,-8.79157 -0.3345,-0.35607 -0.92621,-0.71175 -1.3149,-0.79041 -0.38869,-0.0787 -2.90936,0.25948 -5.6015,0.75142 -10.84621,1.98193 -29.31848,4.32149 -47.93279,6.0708 -7.09454,0.66672 -8.03184,0.8901 -8.827,2.10367 -0.84605,1.29124 -0.88886,2.15806 -0.37012,7.49489 0.2797,2.87765 0.61673,8.20864 0.74896,11.84666 0.23287,6.40683 0.11461,14.59758 -0.21368,14.80048 -0.0885,0.0547 -0.11783,-1.66742 -0.0652,-3.82692 0.15383,-6.30731 -0.79446,-24.53571 -1.38278,-26.58021 -0.0413,-0.14345 -0.19474,2.2661 -0.34102,5.35454 -0.22846,4.8235 -0.33391,5.69044 -0.74782,6.1478 -0.62682,0.69262 -1.59987,0.66826 -2.90836,-0.0728 -1.72614,-0.97762 -1.72828,-0.99104 -1.54996,-9.71348 0.13655,-6.67947 0.0953,-8.14345 -0.28637,-10.15027 -0.44878,-2.36001 -0.40075,-3.23564 0.10458,-1.90653 0.70015,1.84155 0.86833,4.68482 0.71984,12.17014 -0.0896,4.51538 -0.0512,7.8419 0.0935,8.11229 0.35502,0.66337 1.92154,1.56395 2.72041,1.56395 0.95423,0 1.11321,-0.82605 1.44603,-7.51365 0.26366,-5.29797 0.30686,-5.59124 1.03287,-7.01085 1.20258,-2.35146 1.91039,-2.62479 8.36204,-3.22917 19.09922,-1.78919 38.90607,-4.29837 49.12484,-6.22324 3.19312,-0.60147 5.22852,-0.86296 5.87155,-0.75432 1.22794,0.20745 2.27169,1.22231 2.49805,2.4289 0.18231,0.9718 0.14748,1.50371 -0.56813,8.67628 -0.55615,5.57433 -0.41019,13.85164 0.41523,23.54793 0.65497,7.69392 0.77628,14.65852 0.29351,16.85086 -1.0644,4.83369 -3.22609,5.29343 -22.39338,4.76252 -6.25739,-0.17333 -13.81786,-0.50397 -16.80104,-0.73477 -6.88934,-0.533 -9.45022,-0.56822 -10.45104,-0.14371 -0.62285,0.26419 -0.7083,0.38328 -0.39688,0.55313 1.12516,0.61363 8.24585,1.0228 23.01875,1.32269 16.33149,0.33153 34.5805,1.00751 36.84323,1.36475 1.2956,0.20454 1.78594,0.3921 1.78594,0.68311 0,0.27561 -0.14491,0.34369 -0.46302,0.21755 -1.625,-0.64439 -9.29584,-1.01837 -29.96406,-1.46085 -20.42655,-0.4373 -30.23896,-0.94384 -31.55157,-1.62876 -0.67781,-0.35368 -0.5658,-0.94407 0.26459,-1.39456 0.68994,-0.3743 0.69657,-0.39528 0.12812,-0.40533 -0.93282,-0.0165 -2.68441,0.60514 -2.8388,1.00746 -0.0765,0.19942 0.0619,1.4112 0.30757,2.69284 0.3812,1.98858 0.39767,2.54936 0.11227,3.82465 -0.35712,1.59577 -0.89363,2.08445 -1.45125,1.32186 -0.31124,-0.42565 -0.35966,-0.38722 -0.5196,0.41247 -0.33889,1.6945 -1.75758,2.37068 -1.75758,0.83771 0,-0.65963 -0.014,-0.66562 -0.39688,-0.17013 -0.39228,0.50764 -0.40171,0.50746 -0.81451,-0.0156 -0.28585,-0.36217 -0.38008,-0.87979 -0.2986,-1.64023 0.11806,-1.10185 0.11275,-1.1098 -0.64069,-0.95911 -0.50128,0.10025 -0.75974,0.0432 -0.75974,-0.16777 0,-0.67519 1.07478,-4.48715 1.57763,-5.59545 0.6404,-1.41145 0.68876,-2.50358 0.12052,-2.72163 -0.23018,-0.0883 -1.00883,-0.1606 -1.73033,-0.1606 -2.38891,0 -4.24611,1.3721 -7.82521,5.78125 -1.258,1.54974 -2.7655,3.32123 -3.35,3.93664 -0.5845,0.61541 -1.01063,1.15274 -0.94694,1.19407 0.0637,0.0413 0.77063,0.29485 1.571,0.56339 2.16778,0.72735 5.33464,2.23111 5.98467,2.84179 0.50923,0.47839 0.77823,0.51695 2.45427,0.3518 1.74203,-0.17165 1.95624,-0.13517 2.87327,0.4894 0.545,0.37119 1.46716,1.1276 2.04925,1.68091 0.58208,0.55332 1.60596,1.26331 2.27528,1.57777 2.91318,1.36865 3.43409,4.76051 1.25806,8.19174 -1.13496,1.78965 -1.40781,1.15067 -0.33898,-0.79383 1.68795,-3.07085 1.40323,-5.45084 -0.79872,-6.67665 -1.95437,-1.08798 -3.90931,-1.27078 -13.64044,-1.27545 -10.47771,-0.005 -11.47953,-0.15367 -13.59669,-2.01727 -2.21012,-1.94543 -4.06819,-6.51187 -5.19426,-12.76555 -0.9512,-5.28251 -0.58284,-8.24796 1.1986,-9.64924 1.07189,-0.84315 2.06489,-0.73724 3.26656,0.3484 1.50764,1.36207 2.30122,3.4378 4.12778,10.79695 l 1.63965,6.60606 2.03034,0.74022 c 1.11669,0.40712 3.53861,1.12876 5.38204,1.60365 3.67942,0.94784 4.70965,1.54466 4.52645,2.62218 l -0.111,0.65281 -0.29915,-0.71152 c -0.37226,-0.8854 -0.72807,-1.07367 -3.36719,-1.78165 -1.16417,-0.3123 -3.51553,-1.0013 -5.22524,-1.5311 l -3.10857,-0.96329 -0.5956,0.53613 c -0.32757,0.29486 -0.81258,0.61297 -1.07778,0.70689 -0.52696,0.18663 -1.50219,-0.22262 -1.50219,-0.63039 0,-0.5394 1.09157,-1.31361 1.85209,-1.31361 0.46106,0 0.79182,-0.13862 0.78916,-0.33073 -0.0134,-0.96221 -3.22058,-12.81177 -3.84314,-14.19902 -0.7792,-1.73628 -2.17795,-3.19733 -3.061,-3.19733 -0.775,0 -1.98898,1.32315 -2.32527,2.53439 -0.44911,1.61758 -0.34695,3.74204 0.36543,7.59912 1.30324,7.05626 3.66837,11.87169 6.32365,12.87508 2.18051,0.82397 3.41773,0.91761 12.3345,0.93356 5.02047,0.009 9.54484,0.1109 10.05417,0.2265 l 0.92604,0.21017 -1.05833,-0.9558 c -1.74242,-1.57361 -2.36089,-1.80518 -4.274,-1.60031 -1.59757,0.17109 -1.74007,0.13866 -2.79268,-0.63543 -0.61006,-0.44864 -2.36525,-1.30379 -3.90043,-1.90033 -2.9083,-1.13011 -3.98185,-1.848 -3.98185,-2.66266 0,-0.26477 0.54275,-1.68901 1.20611,-3.165 1.72418,-3.83632 2.12074,-5.8088 1.77225,-8.81517 -0.25883,-2.23293 -0.24681,-2.79451 0.0534,-2.4943 0.0667,0.0667 0.25916,1.00933 0.42759,2.09462 0.51557,3.32218 0.13192,5.28657 -1.92674,9.86534 -0.57761,1.2847 -0.97817,2.40786 -0.89013,2.4959 0.19361,0.1936 0.10518,0.29192 2.68004,-2.97964 2.61889,-3.32749 3.89197,-4.71869 5.45162,-5.95743 l 1.23353,-0.97972 -2.08646,-0.41105 c -2.77803,-0.5473 -3.56964,-1.13724 -4.09637,-3.05278 -0.74758,-2.71867 -1.24123,-3.82157 -2.17127,-4.85101 -0.50459,-0.55853 -1.0142,-0.95571 -1.13246,-0.88262 -0.11825,0.0731 -0.29788,0.93531 -0.39916,1.91604 -0.22578,2.18621 -0.64598,2.77569 -1.71336,2.4036 -0.94092,-0.328 -2.94053,-2.43855 -3.67571,-3.87962 -0.30455,-0.59695 -0.55372,-1.51162 -0.55372,-2.03259 0,-0.81733 0.22082,-1.1544 1.61024,-2.45794 0.88562,-0.83089 1.83218,-1.9408 2.10345,-2.46645 l 0.49321,-0.95574 -0.63397,-0.28886 c -0.82834,-0.37741 -1.38729,-2.09915 -0.94798,-2.92002 0.35804,-0.669 1.38844,-0.75512 1.88442,-0.15751 0.29854,0.35972 0.51857,0.2366 1.77319,-0.99219 1.74372,-1.70782 2.36233,-2.8443 2.48644,-4.56802 0.0945,-1.31222 0.0938,-1.31353 -1.09608,-1.98438 -1.04291,-0.58801 -1.50247,-0.67129 -3.70417,-0.67129 -2.29315,0 -2.63812,0.069 -3.93442,0.78697 -2.33624,1.29395 -3.47391,3.32701 -3.47391,6.20799 0,1.37138 0.0716,1.55743 0.80957,2.10302 0.9817,0.7258 1.83393,2.0632 1.83527,2.88009 6.3e-4,0.38033 0.23884,0.70935 0.6488,0.89614 0.35629,0.16234 0.693,0.54674 0.74824,0.85422 0.20569,1.14499 1.06567,-1.44594 1.0273,-3.09503 -0.0197,-0.84559 0.12828,-1.93005 0.32879,-2.40993 0.38307,-0.91681 1.38992,-2.00576 1.85454,-2.00576 0.15046,0 0.0245,0.17447 -0.27998,0.38771 -0.91256,0.63919 -1.41628,2.04842 -1.41628,3.96229 0,2.99218 -1.76918,5.38904 -4.7956,6.497 -6.58149,2.40948 -7.74832,4.55852 -10.92195,20.11602 -1.64235,8.05097 -1.6111,10.86729 0.15143,13.6465 l 0.80536,1.26993 0.33364,-0.79347 c 0.76851,-1.82777 4.57734,-4.29208 7.61269,-4.92541 1.82259,-0.38029 2.30905,-0.11828 1.90504,1.02604 -0.53396,1.51242 -6.67175,5.38005 -8.53795,5.38005 -0.99858,0 -1.03028,0.17164 -0.24485,1.32537 1.95201,2.86734 6.40598,4.21674 12.72162,3.8542 3.96044,-0.22734 7.51535,-0.96727 12.28579,-2.55721 2.2351,-0.74494 4.13856,-1.27969 4.2299,-1.18835 0.82558,0.82558 -6.83051,3.15418 -13.16387,4.00381 -2.54506,0.34142 -6.85,0.45042 -8.46667,0.21437 z m -5.04178,-6.98841 c 2.90727,-1.37536 6.2787,-4.12964 5.72848,-4.67986 -0.2961,-0.2961 -3.62112,0.79951 -5.11522,1.68547 -1.68644,1.00002 -3.50898,2.76301 -3.50898,3.39432 0,0.63212 1.00858,0.49283 2.89572,-0.39993 z m 9.5397,-11.23149 c 0.26854,-0.32357 0.25408,-0.39687 -0.0782,-0.39687 -0.60239,0 -1.24466,0.28767 -1.24466,0.55747 0,0.38591 0.96675,0.26855 1.32291,-0.1606 z m 22.59418,-1.92134 c 0.2253,-0.68951 0.48775,-1.75967 0.58321,-2.37814 0.29026,-1.88043 0.87145,-1.29101 0.93445,0.94768 l 0.0348,1.23514 0.26658,-1.38632 c 0.20755,-1.07934 0.16921,-1.87658 -0.17315,-3.60048 -0.24185,-1.21779 -0.36906,-2.39835 -0.28267,-2.62346 0.11464,-0.29875 -0.0623,-0.4518 -0.65536,-0.5667 -2.52749,-0.48973 -2.19242,-0.69217 -3.11975,1.88484 -0.45983,1.27785 -0.90219,2.63973 -0.98302,3.02639 -0.0808,0.38666 -0.22931,0.92244 -0.32993,1.19062 -0.16117,0.42952 -0.12978,0.44435 0.26345,0.12448 0.24553,-0.19972 0.44642,-0.45986 0.44642,-0.57809 0,-0.11823 0.12348,-0.53976 0.27441,-0.93673 0.46972,-1.23546 0.72848,-0.33895 0.49743,1.72342 -0.1226,1.0943 -0.11801,2.14408 0.0104,2.3735 0.2381,0.42547 0.27907,0.2847 0.74887,-2.57296 0.31928,-1.94208 0.6925,-1.10563 0.61394,1.37596 -0.082,2.59009 0.19352,2.83105 0.86997,0.76085 z m 1.69916,-9.22058 c -0.51647,-0.51647 -2.71658,-0.81695 -2.97072,-0.40573 -0.17874,0.2892 0.31117,0.46435 1.82842,0.65369 1.648,0.20565 1.60521,0.21494 1.1423,-0.24796 z m -3.12667,-3.36084 c 0,-0.13552 -0.1786,-0.0982 -0.39688,0.083 -0.21828,0.18116 -0.39309,0.52316 -0.38846,0.76 0.007,0.36177 0.0705,0.34851 0.39687,-0.083 0.21366,-0.28248 0.38847,-0.62448 0.38847,-0.76001 z M 84.1511,151.68905 c 0.008,-0.0364 0.17135,-1.01864 0.36316,-2.18281 0.31955,-1.93945 0.91605,-4.3668 1.34475,-5.47222 0.12516,-0.32273 -0.0573,-0.56403 -0.6634,-0.87747 -0.49519,-0.25607 -0.99781,-0.81951 -1.23284,-1.38201 l -0.3968,-0.94967 -0.62066,1.03339 c -0.34136,0.56837 -1.17308,1.49218 -1.84825,2.05291 -1.68379,1.39839 -1.88941,2.04113 -1.1451,3.57943 0.84182,1.73984 4.03835,4.93585 4.19914,4.19845 z m 5.75349,-8.71802 c 0.17842,-0.17841 0.3175,-1.03349 0.3175,-1.95198 0,-1.13009 0.12247,-1.73612 0.39688,-1.96385 0.53637,-0.44515 0.50315,-0.68631 -0.23021,-1.6713 -0.40841,-0.54854 -0.68694,-1.38071 -0.79874,-2.38638 -0.0944,-0.84928 -0.36659,-1.92085 -0.60484,-2.38125 l -0.43318,-0.83711 -0.42172,1.18291 c -0.41583,1.16637 -3.4914,4.77021 -4.07097,4.77021 -0.15281,0 -0.49114,-0.19303 -0.75184,-0.42896 -0.74183,-0.67135 -1.38742,-0.26927 -1.18586,0.73855 0.20547,1.02731 0.61391,1.5425 1.22292,1.5425 0.51908,0 2.00482,1.57859 2.69807,2.8667 0.42697,0.79334 0.53222,0.83746 1.9976,0.83746 0.85079,0 1.68977,-0.14287 1.86439,-0.3175 z m -4.98955,-1.36894 c -0.6101,-1.03405 -0.77836,-1.16337 -0.77836,-0.5982 0,0.40878 1.05806,1.84394 1.23154,1.67046 0.0621,-0.0621 -0.14185,-0.5446 -0.45318,-1.07226 z m -7.5281,0.46088 c 0.39935,-0.39935 0.38195,-0.48386 -0.2315,-1.12447 -0.36482,-0.38097 -0.91339,-1.25822 -1.21904,-1.94945 -0.62393,-1.411 -1.29243,-1.63779 -1.97118,-0.66873 -0.52337,0.74721 -0.52002,1.33967 0.0136,2.40166 0.82855,1.64908 2.45867,2.29048 3.40816,1.34099 z m 0.0398,-2.40714 c -0.39436,-0.7626 -1.22758,-1.62943 -1.22758,-1.27709 0,0.53269 1.29727,2.37779 1.51719,2.15788 0.0601,-0.0601 -0.0702,-0.45649 -0.28961,-0.88079 z m 17.29325,-4.53476 c 0,-0.30387 -0.74899,-0.2016 18.84739,-2.57357 9.42018,-1.14022 17.04018,-2.15213 16.93334,-2.24867 -0.10685,-0.0966 -0.64076,-0.31822 -1.18646,-0.4926 -0.5457,-0.17439 -0.99219,-0.4269 -0.99219,-0.56113 0,-0.13424 0.0893,-0.24209 0.19844,-0.23968 0.48194,0.0107 3.62274,1.27471 3.68622,1.48355 0.10161,0.3343 -3.31794,2.60789 -3.55439,2.36324 -0.10889,-0.11267 0.0932,-0.4002 0.44912,-0.63895 0.3559,-0.23876 0.8912,-0.63155 1.18954,-0.87287 0.53746,-0.43474 0.53638,-0.43774 -0.11793,-0.32692 -0.6046,0.10241 -35.12265,4.33756 -35.35271,4.33756 -0.0552,0 -0.10037,-0.10348 -0.10037,-0.22996 z" />
  </g>
</svg>
