<?xml version="1.0" encoding="UTF-8" standalone="no"?>
<!-- Created with Inkscape (http://www.inkscape.org/) -->

<svg
   width="61.872196mm"
   height="88.126038mm"
   viewBox="0 0 61.872196 88.126038"
   version="1.1"
   id="svg1"
   inkscape:version="1.4.3 (0d15f75, 2025-12-25)"
   sodipodi:docname="palming.svg"
   xmlns:inkscape="http://www.inkscape.org/namespaces/inkscape"
   xmlns:sodipodi="http://sodipodi.sourceforge.net/DTD/sodipodi-0.dtd"
   xmlns="http://www.w3.org/2000/svg"
   xmlns:svg="http://www.w3.org/2000/svg">
  <sodipodi:namedview
     id="namedview1"
     pagecolor="#ffffff"
     bordercolor="#000000"
     borderopacity="0.25"
     inkscape:showpageshadow="2"
     inkscape:pageopacity="0.0"
     inkscape:pagecheckerboard="0"
     inkscape:deskcolor="#d1d1d1"
     inkscape:document-units="mm"
     inkscape:zoom="0.042760943"
     inkscape:cx="105.23622"
     inkscape:cy="175.3937"
     inkscape:window-width="944"
     inkscape:window-height="250"
     inkscape:window-x="0"
     inkscape:window-y="34"
     inkscape:window-maximized="0"
     inkscape:current-layer="layer1" />
  <defs
     id="defs1" />
  <g
     inkscape:label="Layer 1"
     inkscape:groupmode="layer"
     id="layer1"
     transform="translate(-71.172929,-101.33542)">
    <path
       id="path42"
       style="fill:#000000"
       d="m 122.78859,177.09161 c -1.80743,-2.31394 -3.40594,-5.91085 -4.30019,-9.67613 -0.29381,-1.23707 -0.96128,-3.18254 -1.48328,-4.32327 -1.33528,-2.91796 -4.36982,-10.72527 -4.22499,-10.8701 0.3074,-0.30741 0.72072,0.39943 1.62597,2.78064 1.47321,3.87519 3.33933,8.36446 3.59486,8.64803 0.13253,0.14708 0.23014,-0.0176 0.23528,-0.39687 0.0121,-0.89556 1.58143,-4.90541 2.45409,-6.27063 0.73376,-1.14793 1.4021,-1.4382 1.67486,-0.72741 0.0838,0.21839 -0.27755,1.79597 -0.803,3.50573 -1.20227,3.91208 -1.50492,5.54364 -1.24209,6.69607 0.11421,0.50078 1.01551,2.14133 2.00288,3.64567 2.797,4.26141 3.65984,7.98046 1.85153,7.98046 -0.39178,0 -0.88891,-0.35589 -1.38592,-0.99219 z m 0.77968,-3.59239 c -0.4264,-0.89822 -1.44194,-2.62604 -2.25674,-3.83959 -2.17674,-3.24199 -2.23041,-4.13227 -0.56057,-9.29762 0.52319,-1.61837 0.89716,-3.0853 0.83105,-3.25983 -0.18273,-0.48239 -2.19963,3.94674 -2.69313,5.91413 -0.41839,1.66794 -0.41362,1.81671 0.12604,3.93036 1.04164,4.07969 2.75511,7.94849 4.3038,9.71741 l 0.86187,0.98443 0.0815,-1.25808 c 0.0621,-0.95972 -0.10239,-1.6454 -0.6938,-2.89121 z m -43.28451,15.54541 c -3.4331,-1.25787 -6.06821,-5.01496 -7.13218,-10.16895 -0.2251,-1.09038 -0.53885,-4.18516 -0.69723,-6.87729 -0.15839,-2.69214 -0.53558,-6.91249 -0.83822,-9.37857 -0.96027,-7.82498 -0.41897,-11.14527 2.20321,-13.51425 1.50238,-1.35731 2.75538,-1.8488 6.71672,-2.63464 5.16718,-1.02506 9.31774,-2.30305 9.74972,-3.00202 0.0693,-0.11219 -0.39703,-1.09163 -1.03638,-2.17654 -1.49375,-2.53473 -2.68961,-6.75507 -2.26182,-7.98225 0.156,-0.44749 0.28363,-1.50048 0.28363,-2.33999 0,-1.88489 0.17217,-2.36341 0.85037,-2.36341 0.40547,0 0.48137,-0.10823 0.3247,-0.46302 -0.42444,-0.96117 -1.41278,-4.99568 -1.42594,-5.82083 -0.008,-0.52222 0.19452,-1.06813 0.51654,-1.39015 0.46146,-0.46146 0.49663,-0.67601 0.27105,-1.65365 -0.64989,-2.81663 -0.0324,-7.02261 1.50515,-10.25151 1.09379,-2.29708 3.61932,-4.97739 5.7881,-6.14286 3.85482,-2.07152 9.57848,-2.06507 13.85676,0.0156 1.84179,0.89573 4.46621,3.33732 5.35766,4.98443 1.47109,2.71808 2.26994,7.49214 1.78099,10.64349 -0.24644,1.58833 -0.22765,1.9517 0.12709,2.45816 0.24646,0.35186 0.41469,1.13699 0.41237,1.92452 -0.004,1.44259 -0.65522,4.55335 -1.05323,5.03291 -0.16162,0.19475 -0.0676,0.45044 0.27298,0.74201 0.39938,0.34196 0.51958,0.78124 0.51958,1.89888 0,0.7997 0.14098,1.98111 0.31329,2.62535 0.4533,1.69486 -0.43177,5.13152 -2.02995,7.88207 -0.65657,1.12998 -1.19376,2.1116 -1.19376,2.18138 0,0.26098 4.29568,1.47042 7.57894,2.13383 7.12564,1.43979 9.12779,2.52218 10.76786,5.82125 1.71509,3.45 1.6462,9.34893 -0.23638,20.24063 -1.32007,7.6373 -3.25968,12.92402 -5.79227,15.78776 -1.56875,1.77387 -2.9477,2.32766 -5.3215,2.13712 -3.44953,-0.2769 -6.83321,-2.64542 -9.49563,-6.64679 -2.50214,-3.76049 -4.1582,-8.80012 -6.11687,-18.61461 -1.19907,-6.00829 -1.35973,-7.43199 -0.92937,-8.23611 0.15654,-0.29251 0.11209,-1.16576 -0.1237,-2.43 -0.40844,-2.18986 -1.70299,-6.33904 -1.9778,-6.33904 -0.27304,0 -1.56488,4.42451 -1.87678,6.42792 -0.196,1.25889 -0.1961,2.03377 -3.5e-4,2.59529 0.22182,0.63633 0.11486,1.67891 -0.52146,5.08293 -2.31193,12.36767 -3.93667,17.57913 -6.78907,21.77634 -3.44612,5.07088 -8.38663,7.48558 -12.34682,6.0346 z m 5.79683,-1.01359 c 4.27954,-1.9627 7.60351,-6.72658 9.79084,-14.03214 0.97216,-3.24697 3.57062,-15.63088 3.57062,-17.01712 0,-0.42701 -0.20836,-0.95694 -0.46303,-1.17764 -0.59178,-0.51284 -6.7032,-3.12034 -7.31342,-3.12034 -1.05759,0 -1.45075,0.58153 -2.6863,3.97336 -1.62928,4.47269 -3.51241,8.25076 -4.2805,8.58781 -0.43867,0.1925 -0.62916,0.56216 -0.7499,1.45521 -0.54395,4.0234 -2.33459,8.76283 -4.0124,10.61997 -1.086,1.20207 -1.55564,1.28465 -1.98217,0.34852 -0.72359,-1.58812 0.73295,-5.20724 3.70653,-9.20972 2.32572,-3.13047 2.40317,-3.90581 0.87006,-8.71035 -1.162,-3.64152 -1.23352,-4.02861 -0.79446,-4.29996 0.49322,-0.30482 1.73647,1.17 2.65,3.14359 0.66405,1.4346 0.88071,2.26845 0.88918,3.42212 0.009,1.19463 0.0756,1.43739 0.30842,1.11973 0.28594,-0.3902 2.11592,-4.92056 3.30614,-8.18476 0.31504,-0.86402 0.84593,-1.84407 1.17974,-2.17788 0.43994,-0.43995 0.75984,-1.34486 1.16272,-3.28905 0.51996,-2.50924 0.52944,-2.77277 0.14699,-4.08836 l -0.40881,-1.40623 -1.67579,0.75984 c -1.83083,0.83014 -4.28741,1.49815 -8.77071,2.38502 -1.60073,0.31664 -3.47947,0.81839 -4.17498,1.11499 -1.6251,0.69302 -3.44736,2.71061 -4.07353,4.51017 -0.59831,1.71951 -0.59736,5.63546 0.002,9.84786 0.22791,1.60073 0.54427,5.1726 0.70302,7.9375 0.41678,7.25879 0.89103,9.86833 2.30602,12.6887 2.45901,4.9013 6.57759,6.73259 10.79332,4.79916 z m 36.50833,0.60507 c 2.59235,-0.71969 4.66832,-3.68332 6.50206,-9.28229 2.43537,-7.43589 4.00769,-22.00206 2.80745,-26.00856 -1.33002,-4.43971 -3.36121,-5.70756 -12.08347,-7.54239 -1.52797,-0.32143 -3.66235,-0.86328 -4.74308,-1.2041 -1.08072,-0.34083 -2.04666,-0.56919 -2.14652,-0.50748 -0.39982,0.2471 -0.84313,2.57068 -0.69288,3.63164 0.52209,3.68658 0.52146,3.63716 0.0526,4.15523 -0.25102,0.27737 -1.2491,0.82008 -2.21795,1.20603 -2.99677,1.19377 -5.57854,2.73716 -5.75504,3.44037 -0.28619,1.14028 2.04979,12.49531 3.64598,17.72278 2.10349,6.88891 5.22219,11.47245 9.16568,13.47077 2.24315,1.13669 3.75978,1.39144 5.46515,0.918 z M 79.68753,176.69474 c 0.35493,-0.47294 0.95484,-1.47813 1.33313,-2.23375 0.6884,-1.37504 2.01722,-5.58382 2.01722,-6.38914 0,-0.65433 -2.59861,3.02838 -3.60552,5.1097 -0.87817,1.81521 -1.25327,4.37309 -0.64128,4.37309 0.13812,0 0.54152,-0.38696 0.89645,-0.8599 z m 4.93785,-14.70745 c 0,-1.17683 -0.20023,-1.93101 -0.90073,-3.39271 -0.79343,-1.65562 -1.48052,-2.6065 -1.48052,-2.04894 0,0.10389 0.41672,1.47794 0.92604,3.05343 0.50932,1.57549 0.92604,3.17142 0.92604,3.5465 0,0.38727 0.11434,0.6113 0.26459,0.51844 0.14552,-0.0899 0.26458,-0.84446 0.26458,-1.67672 z m 14.76792,-9.07363 c 0.17796,-1.03774 0.61891,-2.76666 0.9799,-3.84203 1.14652,-3.41543 0.72595,-7.73601 -0.91252,-9.37448 -0.40082,-0.40082 -1.2536,-0.86071 -1.89506,-1.02196 -1.3143,-0.33041 -4.16471,-1.37409 -6.29149,-2.30363 -0.78156,-0.3416 -1.63203,-0.62109 -1.88992,-0.62109 -0.25788,0 -0.54115,-0.18833 -0.62948,-0.41851 -0.29587,-0.77102 -0.16466,-2.94304 0.24841,-4.11229 0.39788,-1.12625 0.39248,-1.17122 -0.19844,-1.6532 l -0.60745,-0.49546 -0.0621,0.89233 c -0.0341,0.49079 -0.19392,1.69687 -0.35509,2.68018 -0.26119,1.59351 -0.22739,2.03636 0.31099,4.07436 0.389,1.47253 1.03688,3.00244 1.81991,4.29757 2.41734,3.99827 2.77418,5.48476 2.01629,8.39925 -0.61698,2.37262 -0.57412,2.65176 0.43715,2.84739 0.47294,0.0915 2.05052,0.6912 3.50573,1.33269 1.4552,0.64149 2.77042,1.1752 2.9227,1.18602 0.15228,0.0108 0.42247,-0.82939 0.60043,-1.86714 z m 7.3902,0.88928 c 0.90911,-0.47379 2.2919,-1.10051 3.07287,-1.39271 0.78097,-0.29219 1.62607,-0.75903 1.87799,-1.0374 0.42913,-0.47419 0.43121,-0.62417 0.0328,-2.37561 -0.25872,-1.13752 -0.35793,-2.29013 -0.25339,-2.94389 0.0946,-0.59166 0.98189,-2.4884 1.97473,-4.22135 2.31918,-4.04806 3.07275,-6.78984 2.47914,-9.0202 -0.20888,-0.78481 -0.38119,-1.93295 -0.38292,-2.55141 -0.003,-1.2305 -0.12557,-1.33514 -0.82234,-0.70458 -0.41928,0.37945 -0.42839,0.52082 -0.0945,1.46713 0.90905,2.57651 0.63988,4.84891 -0.5767,4.86874 -0.30035,0.005 -0.95108,0.35115 -1.44607,0.76945 -2.1168,1.78886 -4.68066,2.3298 -7.62387,1.60853 -1.03129,-0.25273 -1.87506,-0.56574 -1.87506,-0.69559 0,-0.31887 0.21062,-0.30234 2.28895,0.17966 1.03198,0.23933 2.18969,0.34389 2.7284,0.24641 1.29269,-0.2339 3.41717,-1.23222 4.41063,-2.07261 0.81208,-0.68696 0.8313,-0.75676 0.94062,-3.41573 0.10254,-2.49403 0.0504,-2.87387 -0.64158,-4.67807 -1.60514,-4.1848 -4.03828,-8.23488 -4.70111,-7.82522 -0.49272,0.30451 -0.26488,0.99947 1.42197,4.33728 2.2134,4.37973 3.46187,8.22526 2.80263,8.63269 -0.55238,0.3414 -0.97928,-0.49453 -1.82723,-3.57799 -0.86233,-3.13574 -3.45154,-8.88556 -4.49772,-9.98802 -0.31071,-0.32742 -0.75437,-0.59531 -0.98591,-0.59531 -0.84412,0 -0.23107,2.26911 1.63446,6.04969 2.84495,5.7654 3.75559,9.03156 2.5181,9.03156 -0.69866,0 -1.15151,-0.94274 -2.11662,-4.40633 -1.41963,-5.09476 -3.27337,-9.12454 -3.99284,-8.67989 -0.56698,0.35041 -0.14381,2.3096 1.64667,7.62379 1.97534,5.86282 2.14826,7.04993 1.02698,7.04993 -0.27968,0 -0.58377,-0.12178 -0.67576,-0.27063 -0.092,-0.14884 -0.44339,-1.78595 -0.78088,-3.63802 -0.72251,-3.96497 -1.41371,-6.47263 -1.73018,-6.27704 -0.48639,0.30061 -0.55249,3.05263 -0.1551,6.45759 0.37714,3.23148 0.37645,3.86869 -0.008,7.14375 -0.52766,4.49834 -0.36337,6.54653 0.79779,9.9458 0.49708,1.45521 0.98345,3.24115 1.08082,3.96875 0.21964,1.6413 0.34735,2.05338 0.60069,1.93834 0.10907,-0.0495 0.94211,-0.4777 1.85122,-0.95149 z m -5.64266,-15.72851 c -0.40566,-2.53002 -0.42631,-3.305 -0.15692,-5.88935 0.38209,-3.66553 0.40038,-6.93098 0.0401,-7.15366 -0.4498,-0.27799 -0.99228,1.44878 -1.71384,5.45529 -0.74712,4.14844 -1.10532,5.3394 -1.55799,5.18 -0.65127,-0.22934 -0.19939,-3.22252 1.14574,-7.58916 1.52724,-4.9578 1.94051,-7.40833 1.24938,-7.40833 -0.23565,0 -0.6026,0.26789 -0.81543,0.59531 -0.71509,1.10011 -2.48004,5.97022 -3.06205,8.44923 -0.72873,3.10402 -1.17853,4.18463 -1.74182,4.18463 -0.65676,0 -0.38458,-2.34201 0.52274,-4.49792 0.39808,-0.94588 1.44784,-3.60261 2.33281,-5.90384 1.42184,-3.69732 1.56339,-4.22967 1.21675,-4.57631 -0.34664,-0.34664 -0.45772,-0.33698 -0.95484,0.083 -0.86295,0.72904 -2.91159,5.11495 -4.0468,8.66371 -0.561,1.75376 -1.17238,3.6649 -1.35862,4.24698 -0.39023,1.21968 -0.89423,1.1912 -0.81189,-0.0459 0.0932,-1.39967 2.15967,-7.3867 3.27853,-9.49849 1.01357,-1.91304 1.10767,-2.49417 0.40389,-2.49417 -0.74042,0 -2.53022,3.23878 -4.13688,7.48599 -0.90148,2.38307 -0.95998,2.70184 -0.72835,3.96875 0.13853,0.75765 0.1952,1.8862 0.12593,2.50788 -0.10836,0.97252 -0.0331,1.20338 0.53935,1.65364 0.36591,0.28783 0.78151,0.52332 0.92354,0.52332 0.14203,0 1.28684,0.40663 2.54401,0.90361 1.25717,0.49698 2.73479,0.9791 3.2836,1.07138 1.27573,0.2145 2.65388,1.42504 3.25261,2.85703 0.69635,1.66549 0.77794,0.66673 0.22647,-2.77264 z m 0.7806,-4.96979 -0.20446,-1.71979 -0.17542,1.5875 c -0.17926,1.62227 -0.0887,3.44921 0.22956,4.6302 0.27542,1.02212 0.39198,-2.4653 0.15032,-4.49791 z m -12.28757,0.33073 c -0.0129,-1.24313 -0.0877,-1.62511 -0.24599,-1.25677 -0.41709,0.97061 -0.29697,3.0427 0.17639,3.0427 0.0485,0 0.0798,-0.80367 0.0696,-1.78593 z m 24.87083,0.39687 c -0.0305,-2.2812 -0.4704,-2.75432 -0.49198,-0.52917 -0.0108,1.11483 0.0922,1.91823 0.24599,1.91823 0.14552,0 0.25622,-0.62507 0.24599,-1.38906 z m -8.97891,-1.26298 c -0.44178,-1.64064 -0.62748,-1.07296 -0.23319,0.71283 0.20798,0.94195 0.37759,1.31858 0.43571,0.96752 0.0523,-0.31615 -0.0388,-1.07231 -0.20252,-1.68035 z m 3.5607,-0.19223 c -0.23011,-1.07865 -1.47502,-4.56406 -1.63018,-4.56406 -0.16197,0 0.027,0.83249 0.76561,3.37344 0.3067,1.05502 0.66161,1.91823 0.78871,1.91823 0.12709,0 0.16123,-0.32742 0.0759,-0.72761 z m -13.65009,-1.78593 0.003,-0.52917 -0.21349,0.52917 c -0.11742,0.29104 -0.28742,0.94588 -0.37779,1.4552 l -0.1643,0.92605 0.37443,-0.92605 c 0.20594,-0.50932 0.37594,-1.16416 0.37779,-1.4552 z m -2.72023,-8.81505 c 0.39163,-0.68152 0.95483,-1.50701 1.25155,-1.83443 0.55357,-0.61086 1.61352,-0.79823 1.89934,-0.33577 0.0882,0.14276 0.5243,-0.1549 0.96906,-0.66145 0.44476,-0.50656 1.02595,-0.92101 1.29152,-0.92101 0.66973,0 1.31441,0.71085 1.31441,1.44934 0,0.46714 0.11741,0.58708 0.4815,0.49187 0.74878,-0.19581 1.17811,0.57233 1.14486,2.04831 -0.0166,0.73623 -0.096,1.44511 -0.17646,1.5753 -0.22765,0.36836 0.87008,1.32125 1.32222,1.14774 0.48123,-0.18466 0.48349,-0.22521 0.10979,-1.9677 -0.39519,-1.84271 -0.0189,-2.75673 1.04724,-2.54351 0.68543,0.13708 0.72919,0.0947 0.62626,-0.60659 -0.0858,-0.58452 0.04,-0.85269 0.55964,-1.19318 0.78986,-0.51754 1.5012,-0.25505 2.20032,0.81194 0.305,0.4655 0.51987,0.58207 0.71437,0.38756 0.55978,-0.55977 1.45481,-0.28046 2.28802,0.71402 0.84363,1.00691 3.26613,5.76131 3.58705,7.03993 0.31548,1.257 0.51363,0.73718 0.5911,-1.55069 0.0466,-1.37673 -0.0267,-2.24809 -0.18913,-2.24809 -0.45073,0 -0.76386,-0.86622 -1.34628,-3.72417 -0.6247,-3.06549 -1.48793,-4.9007 -2.88008,-6.12302 -2.82524,-2.48059 -8.79183,-3.29331 -12.89827,-1.75689 -1.09488,0.40964 -1.97155,1.00757 -3.01443,2.05596 -1.6288,1.63741 -2.07957,2.71848 -2.74709,6.58826 -0.37529,2.17563 -0.78164,3.09244 -1.24398,2.8067 -0.13111,-0.081 -0.47723,-0.6155 -0.76915,-1.18771 -0.29192,-0.57221 -0.6474,-1.04038 -0.78997,-1.04038 -0.75234,0 0.163,5.20744 1.19116,6.77661 l 0.47058,0.71819 1.1414,-2.83901 c 0.62777,-1.56145 1.46182,-3.39661 1.85345,-4.07813 z m 22.71198,4.63439 c 0.81084,-2.91499 0.82616,-5.21205 0.0348,-5.21205 -0.52072,0 -0.93962,2.06446 -0.93962,4.63069 0,2.55561 0.30176,2.74949 0.90485,0.58136 z m -0.4781,-6.14656 c 1.15042,-1.75577 0.63004,-8.06249 -0.94254,-11.42301 -2.30466,-4.92496 -8.7467,-7.82637 -14.86008,-6.6928 -2.18159,0.40452 -4.93395,1.88367 -6.62292,3.55923 -3.10331,3.07865 -4.91512,8.53165 -4.23059,12.73274 0.27278,1.67413 1.26568,4.26232 1.53271,3.9953 0.0885,-0.0885 0.32227,-1.16887 0.51956,-2.40087 0.70439,-4.39882 1.98774,-6.5529 4.77626,-8.01683 2.25925,-1.18606 3.93777,-1.49683 7.20243,-1.33348 6.74905,0.33768 9.75699,3.02981 10.87319,9.73157 0.41427,2.4873 0.54407,2.69437 0.95143,1.51774 0.1808,-0.52222 0.54105,-1.27354 0.80055,-1.66959 z" />
  </g>
</svg>
