<?xml version="1.0" encoding="UTF-8" standalone="no"?>
<!-- Created with Inkscape (http://www.inkscape.org/) -->

<svg
   width="86.080406mm"
   height="77.866737mm"
   viewBox="0 0 86.080406 77.866737"
   version="1.1"
   id="svg1"
   inkscape:version="1.4.3 (0d15f75, 2025-12-25)"
   sodipodi:docname="palm-rub.svg"
   xmlns:inkscape="http://www.inkscape.org/namespaces/inkscape"
   xmlns:sodipodi="http://sodipodi.sourceforge.net/DTD/sodipodi-0.dtd"
   xmlns="http://www.w3.org/2000/svg"
   xmlns:svg="http://www.w3.org/2000/svg">
  <sodipodi:namedview
     id="namedview1"
     pagecolor="#ffffff"
     bordercolor="#000000"
     borderopacity="0.25"
     inkscape:showpageshadow="2"
     inkscape:pageopacity="0.0"
     inkscape:pagecheckerboard="0"
     inkscape:deskcolor="#d1d1d1"
     inkscape:document-units="mm"
     inkscape:zoom="0.042760943"
     inkscape:cx="152.00787"
     inkscape:cy="152.00787"
     inkscape:window-width="944"
     inkscape:window-height="250"
     inkscape:window-x="0"
     inkscape:window-y="34"
     inkscape:window-maximized="0"
     inkscape:current-layer="layer1" />
  <defs
     id="defs1" />
  <g
     inkscape:label="Layer 1"
     inkscape:groupmode="layer"
     id="layer1"
     transform="translate(-59.00208,-106.3625)">
    <path
       id="path44"
       style="fill:#000000"
       d="m 96.9685,184.05953 c -0.2107,-0.34091 2.31549,-5.15586 4.06043,-7.73923 2.88249,-4.26751 4.61322,-5.66012 9.78741,-7.87531 7.00276,-2.99806 12.83377,-6.89114 16.81231,-11.22475 4.23173,-4.60941 5.9655,-6.28412 8.23487,-7.95437 2.71178,-1.99587 8.03523,-7.1755 8.24864,-8.0258 0.53853,-2.14571 -4.43169,-1.6973 -8.49708,0.76658 -0.79395,0.48118 -2.55113,1.87659 -3.90484,3.10091 -1.35372,1.22431 -3.14063,2.76417 -3.97092,3.42191 -1.2795,1.0136 -1.61351,1.46778 -2.19121,2.9796 -0.81471,2.13207 -2.01692,4.0975 -2.74454,4.48691 -1.23853,0.66284 -1.93606,-0.57431 -1.24983,-2.2167 0.22721,-0.54379 1.23519,-1.84062 2.23996,-2.88185 1.52315,-1.57842 1.98938,-2.28901 2.80449,-4.27439 1.69855,-4.13723 2.79587,-5.94673 6.9044,-11.3855 7.00279,-9.27012 9.87508,-13.95597 9.98312,-16.28651 0.0656,-1.41539 -0.52867,-1.89329 -1.60521,-1.29083 -0.39892,0.22324 -2.27313,2.26104 -4.1649,4.52843 -1.89177,2.26739 -4.34675,5.12083 -5.45552,6.34097 -1.10876,1.22014 -3.64623,4.18297 -5.63882,6.58406 -3.7287,4.49313 -4.52266,5.23347 -5.29478,4.93718 -1.26087,-0.48384 1.46519,-4.27921 9.92054,-13.81192 6.62412,-7.46815 8.29849,-9.82415 8.83335,-12.42936 0.22355,-1.08887 -0.34395,-1.8535 -1.19913,-1.61567 -0.59995,0.16685 -13.47491,12.7654 -21.00939,20.55835 -3.10897,3.21562 -5.14633,4.84391 -5.55255,4.43769 -0.21201,-0.21201 1.46761,-3.10945 2.93218,-5.0582 0.68132,-0.90655 4.47048,-4.86296 8.42036,-8.79202 7.63697,-7.59672 8.92045,-9.20545 8.04376,-10.08214 -0.90451,-0.90451 -2.12813,-0.10651 -7.88472,5.14215 -1.96778,1.79415 -4.6737,4.14814 -6.01316,5.23109 -1.63554,1.32232 -3.40854,3.14984 -5.39847,5.56449 -3.59331,4.36022 -6.87084,7.77045 -7.4681,7.77045 -0.59932,0 -0.5627,-0.84039 0.0926,-2.12483 0.65828,-1.29034 4.84391,-5.68336 7.83272,-8.22082 3.71979,-3.15804 7.17423,-8.70435 5.42139,-8.70435 -1.64123,0 -14.75299,12.40881 -17.88067,16.92205 l -0.72082,1.04016 0.43396,1.73038 c 0.76547,3.05221 -0.24285,4.78025 -3.46958,5.94609 -0.84867,0.30663 -1.72163,0.65797 -1.93991,0.78075 -0.30709,0.17273 -3.55595,5.67302 -3.78764,6.41242 -0.0269,0.0857 0.86462,0.88341 1.98104,1.77271 3.47608,2.76887 5.5912,5.71557 6.43901,8.97054 1.33536,5.12679 -0.83044,8.79722 -5.19734,8.80804 -2.30707,0.006 -3.83025,-0.50604 -8.34848,-2.80491 l -3.75403,-1.91005 -0.42653,0.65097 c -0.2346,0.35803 -0.83785,1.91999 -1.34057,3.47102 -0.50273,1.55103 -1.3402,3.65939 -1.86106,4.68525 -1.69914,3.34654 -4.34191,6.65636 -4.34191,5.43782 0,-0.14511 0.54202,-1.00011 1.20448,-1.9 1.8627,-2.5303 2.93477,-4.62537 3.94508,-7.70957 0.51006,-1.55708 1.16742,-3.30156 1.46079,-3.87662 0.29337,-0.57505 0.5334,-1.10411 0.5334,-1.17568 0,-0.0716 -0.56554,-0.51328 -1.25677,-0.98159 -0.69122,-0.46831 -2.98317,-2.5326 -5.09323,-4.5873 -2.11005,-2.05471 -4.45679,-4.24423 -5.21498,-4.8656 -1.32574,-1.08651 -1.90357,-1.79241 -5.10377,-6.23497 -0.8023,-1.11376 -2.37521,-2.79319 -3.50573,-3.74312 -1.81204,-1.5226 -2.05052,-1.8268 -2.05052,-2.6157 0,-1.80207 2.4189,-2.88837 5.03445,-2.26091 1.91957,0.4605 3.99789,1.93748 7.13639,5.07157 1.94875,1.94602 3.23491,2.99567 4.30824,3.51599 0.84156,0.40797 1.61057,0.6613 1.70891,0.56297 0.18843,-0.18843 -1.20509,-3.02083 -5.34901,-10.87209 -4.43301,-8.39898 -6.64143,-14.24981 -6.43835,-17.05731 0.13971,-1.93148 0.68974,-2.65415 2.02011,-2.65415 1.59907,0 2.85459,1.63608 5.59596,7.29215 2.43988,5.03405 5.04323,9.76562 6.38875,11.61154 1.21018,1.66024 0.88745,0.78995 -0.97596,-2.63181 -5.09378,-9.35367 -7.84658,-16.42981 -7.89696,-20.29937 -0.0208,-1.59838 0.0498,-1.85163 0.69697,-2.50005 0.54483,-0.54587 0.96143,-0.71466 1.71143,-0.6934 1.43023,0.0405 2.61176,1.4285 4.00725,4.7074 1.40629,3.30427 3.88319,8.3406 4.43425,9.01625 0.50382,0.61773 0.58798,0.87505 -1.30475,-3.98916 -1.16118,-2.98419 -1.34023,-3.69658 -1.3523,-5.38062 -0.0124,-1.72944 0.0542,-1.99622 0.61071,-2.44739 0.89694,-0.72713 1.48431,-0.6315 2.66328,0.43364 1.59523,1.44119 2.4182,2.92068 5.59547,10.05917 3.1978,7.18459 5.85644,12.51472 6.011,12.05105 0.15015,-0.45045 -0.67467,-2.77064 -2.12751,-5.9846 -1.8371,-4.06404 -2.61515,-6.39001 -2.66765,-7.97489 -0.0769,-2.32285 1.32927,-3.17796 2.96402,-1.8024 0.92923,0.7819 3.51056,5.72737 5.72478,10.96791 0.83005,1.96453 1.59712,3.66659 1.7046,3.78235 0.10748,0.11576 0.6721,-0.42002 1.2547,-1.19062 2.42076,-3.20192 12.092,-12.68373 15.48427,-15.18098 1.76958,-1.30269 2.9118,-1.51841 3.38255,-0.63881 0.3668,0.68538 -0.0675,2.41247 -0.94636,3.76353 -0.35295,0.54259 -0.64173,1.06038 -0.64173,1.15066 0,0.2197 2.79886,-2.19414 5.41924,-4.67376 5.15581,-4.87883 7.28642,-6.2418 8.72945,-5.58431 0.96376,0.43912 1.09218,1.40268 0.38494,2.88847 -0.44249,0.92959 -2.53248,3.18731 -7.90531,8.53972 -6.68291,6.65753 -8.57198,8.73991 -9.96085,10.98021 -0.47768,0.7705 -0.45938,0.76476 0.62478,-0.19622 0.61428,-0.54449 2.51389,-2.50902 4.22136,-4.36563 1.70747,-1.85661 4.35737,-4.55844 5.88867,-6.00407 1.53129,-1.44563 4.99102,-4.85999 7.68828,-7.58746 5.03959,-5.09606 5.75963,-5.61193 7.02697,-5.03449 1.29196,0.58865 1.34276,2.64254 0.12443,5.03066 -0.7863,1.54127 -3.83299,5.34145 -8.08733,10.08742 -5.72737,6.38922 -11.04813,13.16306 -9.67075,12.31179 0.16185,-0.10002 2.05878,-2.28941 4.21541,-4.86529 2.15664,-2.57589 4.74352,-5.57302 5.74864,-6.66028 1.00511,-1.08727 2.88884,-3.28653 4.18606,-4.88726 3.90055,-4.81316 5.13931,-5.95313 6.46908,-5.95313 0.65715,0 1.61984,1.19465 1.61984,2.01013 0,2.29538 -2.88997,7.1818 -9.32715,15.77049 -3.95508,5.27701 -5.31419,7.30919 -6.42291,9.60376 -0.77346,1.60072 -1.48996,3.20807 -1.59223,3.57187 l -0.18593,0.66146 0.62817,-0.56621 c 3.62049,-3.26331 6.53138,-5.67293 7.72595,-6.39549 3.02856,-1.83191 6.97043,-2.67694 8.7356,-1.87267 0.95769,0.43636 1.32219,1.41304 0.85789,2.29875 -0.55041,1.04999 -6.31271,6.59767 -8.68921,8.36558 -1.12866,0.83962 -3.39085,2.96823 -5.02708,4.73023 -4.53193,4.88028 -5.71096,5.98881 -8.41784,7.91447 -3.53669,2.51598 -7.56532,4.76686 -11.76581,6.5738 -1.99384,0.8577 -4.05648,1.88844 -4.58365,2.29053 -2.51513,1.91839 -5.35238,5.71927 -7.5966,10.17668 -1.19005,2.36366 -1.53951,2.80847 -1.83317,2.33332 z m -0.54529,-14.81069 c 3.20758,-1.56616 3.53705,-6.71384 0.71996,-11.24872 -1.2439,-2.0024 -5.70809,-6.21771 -6.58482,-6.21771 -0.14031,0 -1.43405,2.16574 -2.87497,4.81274 -1.44093,2.64701 -3.102,5.47475 -3.69128,6.28386 -0.58928,0.80911 -1.15702,1.61213 -1.26166,1.78448 -0.24503,0.40362 5.54204,3.49337 8.2862,4.42405 2.40012,0.81401 3.97364,0.86095 5.40657,0.1613 z m -12.9144,-7.21482 c 1.44223,-2.17753 6.18491,-10.53252 6.18491,-10.8957 0,-0.31504 -3.33999,-1.79676 -6.53301,-2.89824 -4.45857,-1.53805 -4.31491,-1.47108 -4.31491,-2.01137 0,-0.6624 0.72092,-0.78856 4.52941,-0.79268 3.33485,-0.004 6.59966,-0.42742 9.09664,-1.18084 1.27427,-0.38449 1.37092,-0.48451 2.62842,-2.71983 0.71802,-1.27636 1.83775,-3.12573 2.48828,-4.10971 l 1.18279,-1.78906 -1.14221,-2.70886 c -1.92742,-4.57102 -5.15763,-11.12867 -5.9285,-12.03542 -1.66497,-1.95847 -2.76412,-0.46765 -1.91279,2.5944 0.23585,0.8483 1.14448,3.15996 2.01917,5.13703 2.45361,5.54585 3.09381,7.77142 2.36504,8.22182 -0.83279,0.5147 -3.09555,-3.45199 -6.72328,-11.78606 -3.40113,-7.81355 -5.6625,-11.64167 -6.87701,-11.64167 -0.7211,0 -1.19679,0.81331 -1.19679,2.0462 0,2.45796 2.80393,9.51902 5.99542,15.09809 2.87662,5.02866 3.31997,6.66821 1.80311,6.66821 -0.79127,0 -1.41743,-1.04782 -3.32036,-5.55625 -0.76778,-1.81901 -2.01413,-4.38022 -2.76967,-5.69159 -1.8464,-3.20472 -2.97977,-5.49963 -4.48712,-9.08578 -1.2845,-3.05598 -2.74268,-5.06638 -3.67473,-5.06638 -0.24743,0 -0.74211,0.29225 -1.0993,0.64943 -0.84351,0.84352 -0.8443,1.98502 -0.004,5.20859 1.17055,4.48833 3.16043,9.12695 6.61615,15.42294 2.10635,3.83758 2.92162,5.7535 2.58954,6.08557 -0.6821,0.68211 -1.72512,-0.44358 -4.03058,-4.35002 -1.70288,-2.88542 -2.78536,-4.95925 -5.69264,-10.90609 -1.57266,-3.21686 -2.78677,-4.70209 -3.84378,-4.70209 -3.06481,0 -0.88607,7.46707 5.90329,20.23201 1.7827,3.35172 3.652,6.96123 4.15401,8.02113 0.70973,1.49847 1.06224,1.95977 1.58493,2.074 2.73398,0.5975 4.77325,1.76853 4.77325,2.74099 0,0.92193 -1.63596,1.06529 -3.33773,0.29249 -0.59882,-0.27194 -1.48195,-0.9837 -1.96251,-1.58169 -0.48056,-0.59799 -1.06218,-1.08735 -1.29248,-1.08747 -0.23031,-1.1e-4 -1.15996,-0.35086 -2.06589,-0.77944 -1.23105,-0.58239 -2.50113,-1.60163 -5.02764,-4.03469 -3.95169,-3.80552 -5.24322,-4.57837 -7.65108,-4.57837 -1.22754,0 -1.76231,0.12349 -2.18281,0.50403 -0.98532,0.8917 -0.71515,1.55546 1.30625,3.20923 1.7038,1.39394 2.71142,2.59976 6.0331,7.21993 0.63219,0.87932 2.23953,2.49987 3.57188,3.60124 1.33235,1.10136 3.40413,3.06403 4.60397,4.36147 1.81906,1.96704 5.40506,5.03969 5.88827,5.04536 0.0728,8.5e-4 0.86143,-1.09934 1.75259,-2.44486 z m 39.44711,-7.40734 c 0.52648,-0.57392 1.92739,-3.15336 1.92739,-3.54883 0,-0.4098 -1.92439,1.68091 -2.40444,2.61225 -0.81307,1.57743 -0.56236,2.06966 0.47705,0.93658 z M 82.93004,152.0198 c -0.24479,-0.39607 -2.77152,-1.55451 -3.39764,-1.55772 -0.49565,-0.003 -0.49565,0.007 0,0.56273 0.27722,0.31093 0.86122,0.72298 1.29778,0.91569 0.98924,0.43666 2.35254,0.48815 2.09986,0.0793 z m 8.71664,-4.26593 c 0.80038,-1.4881 1.42713,-2.73373 1.39279,-2.76807 -0.0343,-0.0343 -1.24767,0.18173 -2.69628,0.48015 -1.47876,0.30464 -4.37436,0.62237 -6.6026,0.72449 l -3.96874,0.18189 3.0427,0.97926 c 1.67349,0.5386 3.93568,1.44435 5.02709,2.01277 1.0914,0.56843 2.0666,1.04737 2.1671,1.06432 0.1005,0.017 0.83757,-1.18672 1.63794,-2.67481 z m 7.24132,-6.42242 c 0.60829,-0.64964 0.85946,-1.17109 0.85842,-1.78213 -0.002,-1.16408 -0.5014,-2.89564 -0.78465,-2.72058 -0.25481,0.15748 -3.97638,6.31322 -3.97638,6.57722 0,0.41421 3.13043,-1.24983 3.90261,-2.07451 z m -11.57811,-5.2256 c -10e-4,-0.1819 -0.28214,-0.92604 -0.62381,-1.65364 -0.68874,-1.46672 -2.54686,-4.60721 -2.54793,-4.30637 -10e-4,0.29777 1.53866,4.10075 2.12792,5.2558 0.51454,1.00859 1.04901,1.36917 1.04382,0.70421 z m 21.28069,-3.63891 c 1.53944,-1.74674 2.79898,-3.26135 2.79898,-3.3658 0,-0.32789 -3.43128,3.16403 -4.65342,4.73566 -1.09226,1.40461 -1.32697,1.80603 -1.05598,1.80603 0.0613,0 1.37098,-1.42915 2.91042,-3.17589 z m -11.8413,-11.81716 c -0.097,-0.097 -0.17639,-0.6328 -0.17639,-1.19063 0,-1.10216 -0.49161,-1.76592 -1.81465,-2.45009 -0.43145,-0.22311 -1.0331,-0.72175 -1.33699,-1.10808 -0.658,-0.83651 -0.76121,-2.48315 -0.15565,-2.48315 0.27322,0 0.39687,0.27416 0.39687,0.87992 0,0.96716 0.60532,1.67261 2.07137,2.414 0.99459,0.50297 1.6328,1.74588 1.6328,3.17987 0,0.8831 -0.22101,1.15451 -0.61736,0.75816 z m 10.40694,-0.85055 c 0,-0.12824 0.39928,-0.53772 0.88727,-0.90993 1.23676,-0.94332 1.65419,-2.0413 1.26718,-3.33306 -0.53087,-1.77186 -0.391,-2.88422 0.47103,-3.74626 0.75455,-0.75454 1.60786,-1.02952 1.60786,-0.51812 0,0.1404 -0.23813,0.38271 -0.52917,0.53847 -0.29104,0.15576 -0.71398,0.56526 -0.93986,0.90999 -0.37134,0.56675 -0.371,0.77995 0.004,2.22542 0.3777,1.45761 0.37687,1.69202 -0.009,2.65753 -0.54137,1.35301 -2.75842,3.10192 -2.75842,2.17596 z m -3.70416,-0.96244 c 0,-0.0755 0.35719,-0.80665 0.79375,-1.62474 0.43656,-0.8181 0.79375,-1.78346 0.79375,-2.14525 0,-0.36178 -0.47625,-1.52053 -1.05834,-2.57501 -1.4534,-2.63292 -1.38343,-4.3294 0.23912,-5.79779 0.644,-0.58281 1.08999,-0.34765 0.60761,0.32038 -0.95471,1.32212 -1.37402,2.08567 -1.3749,2.5037 -5.5e-4,0.25622 0.54386,1.49891 1.20978,2.76152 1.00657,1.90848 1.18203,2.44891 1.04032,3.20429 -0.21993,1.17233 -1.49183,3.48144 -1.92036,3.48638 -0.1819,0.002 -0.33073,-0.058 -0.33073,-0.13348 z m -3.2906,-1.67644 c 0.20458,-1.80825 0.0175,-2.27134 -1.64115,-4.06191 -0.9943,-1.07339 -1.15367,-1.40449 -1.15367,-2.39683 0,-0.63326 0.16042,-1.37078 0.35649,-1.63892 0.48742,-0.66658 0.78137,-0.1218 0.43121,0.79918 -0.38836,1.02147 0.11091,2.34887 1.19427,3.17519 1.53156,1.16818 1.99859,2.68221 1.4437,4.68025 -0.43475,1.56545 -0.83135,1.2153 -0.63085,-0.55696 z" />
  </g>
</svg>
