<?xml version="1.0" encoding="UTF-8" standalone="no"?>
<!-- Created with Inkscape (http://www.inkscape.org/) -->

<svg
   width="103.41058mm"
   height="103.26154mm"
   viewBox="0 0 103.41058 103.26154"
   version="1.1"
   id="svg1"
   xml:space="preserve"
   inkscape:version="1.4.3 (0d15f75, 2025-12-25)"
   sodipodi:docname="relax-gaze.svg"
   xmlns:inkscape="http://www.inkscape.org/namespaces/inkscape"
   xmlns:sodipodi="http://sodipodi.sourceforge.net/DTD/sodipodi-0.dtd"
   xmlns="http://www.w3.org/2000/svg"
   xmlns:svg="http://www.w3.org/2000/svg"><sodipodi:namedview
     id="namedview1"
     pagecolor="#ffffff"
     bordercolor="#000000"
     borderopacity="0.25"
     inkscape:showpageshadow="2"
     inkscape:pageopacity="0.0"
     inkscape:pagecheckerboard="0"
     inkscape:deskcolor="#d1d1d1"
     inkscape:document-units="mm"
     inkscape:zoom="0.28598666"
     inkscape:cx="164.34333"
     inkscape:cy="96.158332"
     inkscape:window-width="1083"
     inkscape:window-height="766"
     inkscape:window-x="366"
     inkscape:window-y="34"
     inkscape:window-maximized="0"
     inkscape:current-layer="layer1" /><defs
     id="defs1" /><g
     inkscape:label="Layer 1"
     inkscape:groupmode="layer"
     id="layer1"
     transform="translate(-76.987024,-66.484832)"><path
       id="path27"
       style="fill:#000000"
       d="m 127.40481,169.6052 c -3.42057,-0.46913 -6.18787,-2.09792 -7.31369,-4.30471 -0.79522,-1.55876 -0.60184,-3.76804 0.46264,-5.28539 1.1804,-1.68259 3.34817,-2.66057 8.92622,-4.02702 2.59058,-0.63461 5.38611,-1.48324 6.21228,-1.88583 1.37247,-0.6688 4.54484,-3.34234 4.54484,-3.83019 0,-0.11275 -0.67744,0.20293 -1.50541,0.70151 -5.49825,3.31087 -12.84599,3.54842 -18.38815,0.59448 -1.8227,-0.97148 -5.24186,-3.79621 -5.24186,-4.33054 0,-0.5913 0.19829,-0.48615 1.80969,0.95963 6.33772,5.68636 15.27975,6.29487 22.41115,1.52509 1.08209,-0.72374 2.08062,-1.24594 2.21896,-1.16045 0.83446,0.51573 -1.77451,3.83517 -4.2967,5.46675 -1.84908,1.19616 -3.65801,1.81579 -8.38476,2.87213 -5.5157,1.23264 -7.81133,2.6003 -8.46991,5.04607 -0.81429,3.02405 2.02056,6.02303 6.46798,6.84246 2.10949,0.38867 3.35144,0.36481 6.11728,-0.11751 6.72732,-1.17315 14.71053,-5.4557 20.00416,-10.73114 2.20994,-2.20234 2.71777,-2.88347 3.75106,-5.0312 0.71005,-1.47587 1.57988,-3.9519 2.14319,-6.10077 2.46815,-9.41531 5.17961,-15.22551 8.84045,-18.94363 1.67019,-1.69632 2.85225,-2.32645 3.88022,-2.06845 1.04772,0.26296 1.28288,1.24844 0.82901,3.47409 -1.22346,5.9994 -7.00168,15.76839 -13.52473,22.86566 -0.7401,0.80525 -2.00632,2.35705 -2.81383,3.44846 -2.91566,3.94072 -7.96003,7.84442 -13.86342,10.72852 -5.56161,2.71712 -10.69393,3.85743 -14.81667,3.29198 z m 35.64312,-23.5455 c 4.49118,-5.9847 8.46447,-14.01289 8.86885,-17.91985 0.11642,-1.12485 0.0621,-1.4145 -0.29072,-1.54988 -0.86296,-0.33115 -1.87472,0.21985 -3.59346,1.95699 -3.67102,3.71032 -5.63558,8.14821 -9.09944,20.55545 -0.36564,1.30968 -0.75483,2.61937 -0.86487,2.91041 -0.22059,0.58342 2.64691,-2.84466 4.97964,-5.95312 z m -36.56916,0.20958 c -1.47755,-0.46713 -2.48379,-0.54975 -7.14375,-0.58652 -4.50978,-0.0356 -5.63578,-0.12311 -6.68073,-0.51926 -1.68282,-0.63798 -1.67132,-1.22047 0.0241,-1.22047 1.68485,0 2.98929,-0.41673 6.65664,-2.12662 3.60644,-1.68149 5.30483,-1.94723 7.17216,-1.12219 0.63922,0.28242 1.5194,0.60225 1.95596,0.71073 l 0.79375,0.19724 -0.69527,-0.74781 c -0.98692,-1.06148 -1.2891,-1.75312 -1.2891,-2.95048 0,-1.02351 0.28161,-1.53868 2.31138,-4.22838 l 0.59159,-0.78393 h -1.27954 c -1.54073,0 -2.02547,-0.24056 -3.89347,-1.93223 -1.04925,-0.95021 -1.65425,-1.30383 -2.23068,-1.30383 -0.91239,0 -0.92454,0.0325 -0.39504,1.05646 0.48772,0.94316 0.19871,1.18102 -1.13175,0.93142 -2.01031,-0.37714 -3.23291,-1.85943 -3.23291,-3.91963 0,-1.61008 0.37427,-2.56343 2.17502,-5.54031 1.86832,-3.08857 2.70098,-5.41502 3.24188,-9.0578 1.24409,-8.37851 -0.63149,-20.277637 -3.64203,-23.105893 l -0.63719,-0.598605 -0.17854,2.54006 c -0.32745,4.658296 -1.13223,6.781018 -2.63706,6.955583 -0.62567,0.07258 -1.09586,-0.285579 -3.16645,-2.41199 -3.92068,-4.026377 -6.87468,-5.338445 -11.95667,-5.310743 -2.522597,0.01375 -3.245347,0.126172 -5.423957,0.843691 -3.03282,0.998852 -5.413576,2.353273 -7.390465,4.204469 -1.247099,1.167807 -1.382977,1.380895 -0.885754,1.389063 0.323026,0.0053 2.049433,-0.63376 3.836458,-1.420147 1.787021,-0.786386 3.844451,-1.633426 4.572051,-1.88231 1.97106,-0.67422 4.646847,-0.807105 6.433077,-0.319479 0.82743,0.225881 2.38563,0.542788 3.46265,0.704238 4.56866,0.68486 11.0491,5.090106 11.22176,7.628283 l 0.0492,0.72302 -2.51354,0.15839 c -2.0017,0.12614 -3.18703,0.39026 -5.82084,1.29703 -2.85533,0.98303 -3.68738,1.1555 -6.08872,1.26206 -4.420417,0.19617 -8.160267,-1.07127 -12.139525,-4.1141 l -1.956377,-1.49599 -0.983671,1.10846 c -2.545301,2.86819 -3.831698,6.78074 -3.631317,11.04457 0.14789,3.14689 0.780083,5.05365 2.467107,7.44108 1.297488,1.83616 2.543377,2.92731 6.325216,5.53962 3.98224,2.75073 6.43763,5.30247 7.749577,8.05367 1.08857,2.28276 1.74538,4.23518 1.42337,4.23107 -0.0974,-0.001 -0.39722,-0.70842 -0.66624,-1.57151 -1.20754,-3.87409 -3.693267,-6.74576 -9.051657,-10.45708 -6.891149,-4.77292 -8.918979,-7.95293 -8.947048,-14.0306 -0.0189,-4.09201 0.895279,-6.8854 3.312027,-10.12032 l 1.037742,-1.38906 h -1.415758 c -4.548713,0 -7.599243,-3.056691 -8.768525,-8.786239 -2.078114,-10.182874 3.50255,-19.683908 13.676542,-23.284196 6.42163,-2.272435 13.560407,-1.890013 19.509347,1.045107 3.19276,1.575263 6.25745,4.486413 7.73253,7.345123 1.00795,1.953401 2.15254,5.895869 1.98758,6.846069 -0.0662,0.381333 -0.1597,0.221703 -0.29057,-0.496069 -0.38121,-2.090851 -1.52823,-5.282022 -2.43519,-6.775038 -1.22937,-2.023764 -4.41124,-4.954387 -6.64467,-6.119993 -9.56304,-4.990872 -22.654337,-2.642024 -28.97029,5.197866 -2.873272,3.566546 -4.232802,7.446889 -4.226362,12.062789 0.0061,4.382527 1.071887,7.792592 3.158954,10.107443 1.410459,1.564398 2.655349,2.050585 5.268458,2.057579 2.125742,0.0057 2.203068,-0.01706 3.704167,-1.089651 0.843206,-0.602504 1.294978,-1.002993 1.003936,-0.889975 -3.1905,1.238934 -3.320315,1.270692 -3.974916,0.972436 -0.872907,-0.397723 -0.831232,-0.642813 0.327364,-1.925241 2.003847,-2.218018 5.781362,-4.320959 9.444562,-5.257784 2.53166,-0.647445 6.733337,-0.714669 8.887357,-0.142191 3.1058,0.82543 5.24724,2.15353 7.9712,4.943655 1.73886,1.781106 2.67696,2.559331 2.956,2.452251 0.92361,-0.354422 1.76727,-3.967495 1.77081,-7.583706 0.002,-2.3746 0.0279,-2.349338 -3.43759,-3.394258 -1.0914,-0.329082 -3.2484,-1.104292 -4.79331,-1.722687 -3.36151,-1.345538 -7.96612,-2.845802 -10.155647,-3.308891 -2.22671,-0.470955 -5.76373,-0.419731 -7.8052,0.113037 -1.940207,0.506338 -4.605603,1.754199 -7.128659,3.337429 -1.987988,1.247473 -2.559747,1.108076 -1.735184,-0.423045 0.829283,-1.539885 3.654024,-3.922017 6.036647,-5.090764 3.457956,-1.696231 4.963666,-2.002039 9.838646,-1.998223 4.567777,0.0036 7.216437,0.429178 11.425437,1.835906 4.3982,1.469961 7.16795,3.925595 8.05619,7.142554 0.15254,0.552457 0.70562,1.353687 1.31359,1.902949 3.36853,3.043261 5.4605,13.719298 4.4551,22.735838 -0.53502,4.79803 -1.29587,6.99771 -4.03505,11.66569 -0.78794,1.34277 -1.50215,2.86982 -1.58712,3.39345 -0.22467,1.38446 0.32524,2.77279 1.37921,3.48205 1.13854,0.76616 1.39947,0.76216 1.20355,-0.0184 -0.0999,-0.39784 9e-4,-0.78079 0.27844,-1.05834 0.86471,-0.86471 2.3187,-0.40811 4.1474,1.30242 1.86733,1.74667 3.17322,2.10338 4.73798,1.29421 0.59988,-0.31021 1.11403,-1.07491 2.1444,-3.18937 1.60379,-3.2912 2.87736,-4.60467 4.46481,-4.60467 1.84296,0 3.41037,2.49025 3.02037,4.79865 -0.31268,1.85077 -2.09435,3.40344 -3.9054,3.40344 -1.2726,0 -1.34452,-0.21693 -0.42076,-1.26904 0.68352,-0.77848 0.74998,-0.96472 0.41181,-1.15397 -1.07498,-0.60158 -3.39752,1.06998 -6.0246,4.33599 -1.84423,2.29276 -2.09348,2.73061 -2.09348,3.67744 0,1.19316 0.5202,2.2428 1.4565,2.93887 0.58953,0.43828 0.67101,0.43549 1.76361,-0.0603 1.96624,-0.89229 3.64327,-0.71924 6.70176,0.69153 4.49414,2.07298 5.69492,2.52007 7.18011,2.67335 1.59552,0.16468 1.87622,0.37099 1.29524,0.95198 -0.63669,0.63668 -3.78978,1.06862 -6.40075,0.87683 -1.28655,-0.0945 -3.29438,-0.24443 -4.46184,-0.33317 -1.83496,-0.13947 -2.41955,-0.0676 -4.31314,0.53063 -2.5704,0.81199 -2.58091,0.81223 -4.80899,0.10781 z m 4.83872,-0.87442 c 2.40399,-0.76774 3.00105,-0.78905 7.0655,-0.25213 1.67237,0.22093 3.33925,0.34705 3.70417,0.28028 0.36491,-0.0668 1.13973,-0.2025 1.72182,-0.30162 l 1.05833,-0.18022 -1.32292,-0.34619 c -0.7276,-0.19041 -2.69213,-0.99778 -4.36562,-1.79417 -4.64816,-2.21199 -5.87402,-2.40135 -7.83644,-1.21049 -1.11815,0.67854 -2.76092,0.63237 -4.96551,-0.13954 -2.35627,-0.82502 -2.9614,-0.72394 -7.0418,1.1762 -1.81901,0.84706 -3.78156,1.62723 -4.36122,1.7337 -1.99183,0.36584 -0.18279,0.60276 4.75809,0.62312 3.88115,0.016 5.08077,0.11363 6.48229,0.52754 2.26462,0.66882 2.6736,0.65948 5.10331,-0.11648 z m 6.55941,-14.33864 c 0.89628,-0.52944 1.56645,-1.80119 1.56645,-2.97257 0,-1.04171 -0.88712,-2.81578 -1.59836,-3.19643 -1.35261,-0.72389 -3.22448,0.92743 -4.61473,4.07103 l -0.63904,1.445 1.11096,-0.63526 c 1.31892,-0.75416 3.02762,-0.86136 3.27921,-0.20573 0.092,0.23974 0.0391,0.77552 -0.11761,1.19062 -0.33502,0.88756 -0.0967,0.95892 1.01312,0.30334 z m -34.01167,-26.02484 c 1.11705,-0.15537 3.65574,-0.82339 5.64154,-1.4845 3.17475,-1.05694 3.81014,-1.1862 5.26419,-1.0709 0.9095,0.0721 1.65364,0.0434 1.65364,-0.0639 0,-0.5146 -1.36085,-2.10756 -2.78412,-3.258984 -1.60044,-1.294753 -5.82121,-3.578373 -6.09949,-3.300089 -0.0832,0.08318 0.0361,0.513576 0.26514,0.956435 1.24889,2.415081 -0.43319,6.085698 -3.34543,7.300358 -1.3337,0.55627 -3.78756,0.51551 -5.101717,-0.0847 -2.35181,-1.07419 -3.74186,-3.41811 -3.50746,-5.914281 0.0721,-0.76775 0.21855,-1.603357 0.32545,-1.856906 0.18146,-0.430399 0.12125,-0.435203 -0.90709,-0.07239 -1.45329,0.512751 -4.451127,2.116712 -5.387785,2.882676 l -0.745632,0.609751 1.936257,1.47009 c 3.41153,2.59018 6.17425,3.68386 10.449917,4.13681 0.17138,0.0182 1.22554,-0.0941 2.34259,-0.24947 z m -0.25018,-1.42928 c 0.84579,-0.25118 1.64799,-0.74299 2.2657,-1.38906 1.2993,-1.35898 1.54802,-1.92574 1.54802,-3.527488 0,-1.240307 -0.0982,-1.469655 -1.02721,-2.398644 -0.56496,-0.564963 -1.27228,-1.027206 -1.57181,-1.027206 -0.50973,0 -0.5203,0.04658 -0.16505,0.727604 0.20876,0.400183 0.38029,1.185995 0.38119,1.74625 0.001,0.806884 -0.18538,1.205657 -0.89796,1.918229 -2.74517,2.745175 -6.664597,-1.065183 -4.10009,-3.986001 l 0.82116,-0.935248 -1.151887,0.02637 c -0.99938,0.02288 -2.81994,0.403257 -2.28025,0.47642 0.107,0.0145 -0.0414,0.413326 -0.32974,0.886269 -0.70821,1.161544 -0.70265,3.371186 0.0122,4.847865 0.7774,1.60589 2.78519,2.86679 4.771317,2.99641 0.22825,0.0149 1.00423,-0.14791 1.72441,-0.36177 z m 0.0263,-4.419768 c 0.80977,-0.760742 0.84795,-2.511653 0.0729,-3.343573 -1.40785,-1.511158 -3.876927,0.07829 -3.724317,2.397506 0.0942,1.431262 2.477627,2.048795 3.651427,0.946067 z m 14.10544,-12.2588 c -1.48231,-3.898768 -5.81434,-6.368229 -13.49307,-7.69169 -3.84893,-0.66338 -9.238677,-0.426939 -12.038537,0.528113 -2.758473,0.940934 -4.563248,1.991553 -6.497719,3.782532 -1.855048,1.717446 -2.040616,2.225943 -0.410953,1.126096 3.375883,-2.278355 7.036562,-3.431797 10.891512,-3.431797 2.97537,0 6.873257,0.923532 11.759857,2.786278 3.52851,1.345046 9.53089,3.502957 9.84919,3.540867 0.10553,0.01257 0.0784,-0.275609 -0.0603,-0.640399 z m 34.10397,30.960448 c -4.83844,-0.91764 -9.12524,-3.14946 -11.98743,-6.24097 -1.89352,-2.04523 -2.57421,-3.39152 -2.73641,-5.4122 -0.21104,-2.62907 1.08398,-4.33136 3.7028,-4.86731 1.70634,-0.34921 3.16271,-0.13036 7.55852,1.13581 7.87362,2.26794 12.27835,1.90454 19.3081,-1.59296 4.59927,-2.28827 5.06085,-1.96047 1.48877,1.05727 -4.07445,3.44216 -9.71114,5.13291 -14.76634,4.42924 -1.91554,-0.26664 -4.62677,-1.09108 -8.75776,-2.6631 -1.07589,-0.40942 -2.12564,-0.59888 -3.25733,-0.58787 -1.41692,0.0138 -1.6224,-0.0409 -1.35666,-0.3611 0.62737,-0.75594 2.89924,-0.46079 6.32912,0.82224 5.03757,1.88442 6.07907,2.10984 9.66195,2.09119 2.74507,-0.0143 3.45801,-0.11435 5.26499,-0.73898 1.99067,-0.68813 5.51449,-2.54211 5.84347,-3.07441 0.085,-0.13754 -0.47528,0.0285 -1.24507,0.36891 -4.17134,1.84477 -8.74456,2.65223 -12.71151,2.24439 -1.19843,-0.1232 -3.64508,-0.63952 -5.43699,-1.14735 -6.29467,-1.78394 -8.02983,-1.85085 -9.71129,-0.37451 -4.04802,3.5542 1.64232,10.86787 10.60113,13.62541 2.21186,0.68082 2.68258,0.72894 7.13069,0.72894 4.44811,0 4.91883,-0.0481 7.13069,-0.72894 5.89626,-1.81488 10.87346,-5.60651 13.8247,-10.53167 1.47808,-2.46668 1.45499,-2.49333 -1.07355,-1.23931 -1.46217,0.72517 -2.36994,1.03872 -2.53279,0.87486 -0.16271,-0.16371 0.84094,-0.81834 2.79572,-1.82351 2.49255,-1.2817 3.09398,-1.49916 3.29285,-1.19062 0.32967,0.51145 0.18711,6.72748 -0.15429,6.72748 -0.14854,0 -0.3226,-1.10243 -0.39687,-2.51354 l -0.13229,-2.51354 -0.89265,1.5875 c -3.09728,5.50823 -8.7099,9.74626 -15.24694,11.51278 -2.77372,0.74955 -8.61559,0.95 -11.53733,0.39587 z M 140.42013,99.852499 c -0.2836,-0.2836 1.86381,-2.642925 3.60305,-3.958605 3.31854,-2.510384 7.66419,-4.073775 11.32357,-4.073775 3.51047,0 7.90055,1.471524 11.4818,3.848624 2.00199,1.328841 3.28604,1.752411 4.37002,1.441531 1.43808,-0.412436 2.13283,-1.039702 2.82421,-2.549871 1.25413,-2.739378 0.66505,-6.097549 -1.33756,-7.625016 -1.19957,-0.91495 -4.5352,-2.43862 -6.38671,-2.917355 -4.61809,-1.194077 -8.57201,-0.732812 -15.72115,1.83403 -5.89598,2.116908 -8.30622,2.66147 -9.72181,2.196517 -2.11371,-0.694254 -1.74608,-2.885638 0.76241,-4.54459 3.48617,-2.305519 12.00677,-4.378695 18.01097,-4.382309 6.51777,-0.0039 11.56017,2.389087 14.72413,6.987741 0.7968,1.158113 1.03794,2.006532 0.5703,2.006532 -0.13128,0 -0.0718,0.554704 0.13229,1.232675 0.93005,3.090313 -0.22677,6.696159 -2.57091,8.013642 -1.5162,0.85215 -3.01171,0.723889 -4.87888,-0.418433 -3.91544,-2.395438 -4.60734,-2.754588 -6.59902,-3.425418 -2.79278,-0.940653 -6.40462,-1.151542 -9.17315,-0.535602 -3.55774,0.791524 -7.41326,3.032248 -9.81625,5.704952 -1.25128,1.391721 -1.32012,1.441921 -1.59731,1.16473 z m 7.835,-13.991699 c 6.45899,-2.25596 8.29868,-2.762814 10.84233,-2.987178 5.56407,-0.490782 10.92261,0.934625 14.14171,3.76178 l 1.23391,1.083676 -0.51541,-0.91197 c -0.84926,-1.502679 -3.58097,-4.057137 -5.32718,-4.981506 -2.58273,-1.367192 -5.17095,-1.911732 -9.08652,-1.911732 -8.6819,0 -19.30692,3.537566 -19.30692,6.428177 0,1.696706 2.15229,1.567525 8.01808,-0.481247 z" /><path
       id="path52"
       style="fill:#000000"
       d="m 127.40481,169.6052 c -3.42057,-0.46913 -6.18787,-2.09792 -7.31369,-4.30471 -0.79522,-1.55876 -0.60184,-3.76804 0.46264,-5.28539 1.1804,-1.68259 3.34817,-2.66057 8.92622,-4.02702 2.59058,-0.63461 5.38611,-1.48324 6.21228,-1.88583 1.37247,-0.6688 4.54484,-3.34234 4.54484,-3.83019 0,-0.11275 -0.67744,0.20293 -1.50541,0.70151 -5.49825,3.31087 -12.84599,3.54842 -18.38815,0.59448 -1.8227,-0.97148 -5.24186,-3.79621 -5.24186,-4.33054 0,-0.5913 0.19829,-0.48615 1.80969,0.95963 6.33772,5.68636 15.27975,6.29487 22.41115,1.52509 1.08209,-0.72374 2.08062,-1.24594 2.21896,-1.16045 0.83446,0.51573 -1.77451,3.83517 -4.2967,5.46675 -1.84908,1.19616 -3.65801,1.81579 -8.38476,2.87213 -5.5157,1.23264 -7.81133,2.6003 -8.46991,5.04607 -0.81429,3.02405 2.02056,6.02303 6.46798,6.84246 2.10949,0.38867 3.35144,0.36481 6.11728,-0.11751 6.72732,-1.17315 14.71053,-5.4557 20.00416,-10.73114 2.20994,-2.20234 2.71777,-2.88347 3.75106,-5.0312 0.71005,-1.47587 1.57988,-3.9519 2.14319,-6.10077 2.46815,-9.41531 5.17961,-15.22551 8.84045,-18.94363 1.67019,-1.69632 2.85225,-2.32645 3.88022,-2.06845 1.04772,0.26296 1.28288,1.24844 0.82901,3.47409 -1.22346,5.9994 -7.00168,15.76839 -13.52473,22.86566 -0.7401,0.80525 -2.00632,2.35705 -2.81383,3.44846 -2.91566,3.94072 -7.96003,7.84442 -13.86342,10.72852 -5.56161,2.71712 -10.69393,3.85743 -14.81667,3.29198 z m 35.64312,-23.5455 c 4.49118,-5.9847 8.46447,-14.01289 8.86885,-17.91985 0.11642,-1.12485 0.0621,-1.4145 -0.29072,-1.54988 -0.86296,-0.33115 -1.87472,0.21985 -3.59346,1.95699 -3.67102,3.71032 -5.63558,8.14821 -9.09944,20.55545 -0.36564,1.30968 -0.75483,2.61937 -0.86487,2.91041 -0.22059,0.58342 2.64691,-2.84466 4.97964,-5.95312 z m -36.56916,0.20958 c -1.47755,-0.46713 -2.48379,-0.54975 -7.14375,-0.58652 -4.50978,-0.0356 -5.63578,-0.12311 -6.68073,-0.51926 -1.68282,-0.63798 -1.67132,-1.22047 0.0241,-1.22047 1.68485,0 2.98929,-0.41673 6.65664,-2.12662 3.60644,-1.68149 5.30483,-1.94723 7.17216,-1.12219 0.63922,0.28242 1.5194,0.60225 1.95596,0.71073 l 0.79375,0.19724 -0.69527,-0.74781 c -0.98692,-1.06148 -1.2891,-1.75312 -1.2891,-2.95048 0,-1.02351 0.28161,-1.53868 2.31138,-4.22838 l 0.59159,-0.78393 h -1.27954 c -1.54073,0 -2.02547,-0.24056 -3.89347,-1.93223 -1.04925,-0.95021 -1.65425,-1.30383 -2.23068,-1.30383 -0.91239,0 -0.92454,0.0325 -0.39504,1.05646 0.48772,0.94316 0.19871,1.18102 -1.13175,0.93142 -2.01031,-0.37714 -3.23291,-1.85943 -3.23291,-3.91963 0,-1.61008 0.37427,-2.56343 2.17502,-5.54031 1.86832,-3.08857 2.70098,-5.41502 3.24188,-9.0578 1.24409,-8.37851 -0.63149,-20.277637 -3.64203,-23.105893 l -0.63719,-0.598605 -0.17854,2.54006 c -0.32745,4.658296 -1.13223,6.781018 -2.63706,6.955583 -0.62567,0.07258 -1.09586,-0.285579 -3.16645,-2.41199 -3.92068,-4.026377 -6.87468,-5.338445 -11.95667,-5.310743 -2.522597,0.01375 -3.245347,0.126172 -5.423957,0.843691 -3.03282,0.998852 -5.413576,2.353273 -7.390465,4.204469 -1.247099,1.167807 -1.382977,1.380895 -0.885754,1.389063 0.323026,0.0053 2.049433,-0.63376 3.836458,-1.420147 1.787021,-0.786386 3.844451,-1.633426 4.572051,-1.88231 1.97106,-0.67422 4.646847,-0.807105 6.433077,-0.319479 0.82743,0.225881 2.38563,0.542788 3.46265,0.704238 4.56866,0.68486 11.0491,5.090106 11.22176,7.628283 l 0.0492,0.72302 -2.51354,0.15839 c -2.0017,0.12614 -3.18703,0.39026 -5.82084,1.29703 -2.85533,0.98303 -3.68738,1.1555 -6.08872,1.26206 -4.420417,0.19617 -8.160267,-1.07127 -12.139525,-4.1141 l -1.956377,-1.49599 -0.983671,1.10846 c -2.545301,2.86819 -3.831698,6.78074 -3.631317,11.04457 0.14789,3.14689 0.780083,5.05365 2.467107,7.44108 1.297488,1.83616 2.543377,2.92731 6.325216,5.53962 3.98224,2.75073 6.43763,5.30247 7.749577,8.05367 1.08857,2.28276 1.74538,4.23518 1.42337,4.23107 -0.0974,-0.001 -0.39722,-0.70842 -0.66624,-1.57151 -1.20754,-3.87409 -3.693267,-6.74576 -9.051657,-10.45708 -6.891149,-4.77292 -8.918979,-7.95293 -8.947048,-14.0306 -0.0189,-4.09201 0.895279,-6.8854 3.312027,-10.12032 l 1.037742,-1.38906 h -1.415758 c -4.548713,0 -7.599243,-3.056691 -8.768525,-8.786239 -2.078114,-10.182874 3.50255,-19.683908 13.676542,-23.284196 6.42163,-2.272435 13.560407,-1.890013 19.509347,1.045107 3.19276,1.575263 6.25745,4.486413 7.73253,7.345123 1.00795,1.953401 2.15254,5.895869 1.98758,6.846069 -0.0662,0.381333 -0.1597,0.221703 -0.29057,-0.496069 -0.38121,-2.090851 -1.52823,-5.282022 -2.43519,-6.775038 -1.22937,-2.023764 -4.41124,-4.954387 -6.64467,-6.119993 -9.56304,-4.990872 -22.654337,-2.642024 -28.97029,5.197866 -2.873272,3.566546 -4.232802,7.446889 -4.226362,12.062789 0.0061,4.382527 1.071887,7.792592 3.158954,10.107443 1.410459,1.564398 2.655349,2.050585 5.268458,2.057579 2.125742,0.0057 2.203068,-0.01706 3.704167,-1.089651 0.843206,-0.602504 1.294978,-1.002993 1.003936,-0.889975 -3.1905,1.238934 -3.320315,1.270692 -3.974916,0.972436 -0.872907,-0.397723 -0.831232,-0.642813 0.327364,-1.925241 2.003847,-2.218018 5.781362,-4.320959 9.444562,-5.257784 2.53166,-0.647445 6.733337,-0.714669 8.887357,-0.142191 3.1058,0.82543 5.24724,2.15353 7.9712,4.943655 1.73886,1.781106 2.67696,2.559331 2.956,2.452251 0.92361,-0.354422 1.76727,-3.967495 1.77081,-7.583706 0.002,-2.3746 0.0279,-2.349338 -3.43759,-3.394258 -1.0914,-0.329082 -3.2484,-1.104292 -4.79331,-1.722687 -3.36151,-1.345538 -7.96612,-2.845802 -10.155647,-3.308891 -2.22671,-0.470955 -5.76373,-0.419731 -7.8052,0.113037 -1.940207,0.506338 -4.605603,1.754199 -7.128659,3.337429 -1.987988,1.247473 -2.559747,1.108076 -1.735184,-0.423045 0.829283,-1.539885 3.654024,-3.922017 6.036647,-5.090764 3.457956,-1.696231 4.963666,-2.002039 9.838646,-1.998223 4.567777,0.0036 7.216437,0.429178 11.425437,1.835906 4.3982,1.469961 7.16795,3.925595 8.05619,7.142554 0.15254,0.552457 0.70562,1.353687 1.31359,1.902949 3.36853,3.043261 5.4605,13.719298 4.4551,22.735838 -0.53502,4.79803 -1.29587,6.99771 -4.03505,11.66569 -0.78794,1.34277 -1.50215,2.86982 -1.58712,3.39345 -0.22467,1.38446 0.32524,2.77279 1.37921,3.48205 1.13854,0.76616 1.39947,0.76216 1.20355,-0.0184 -0.0999,-0.39784 9e-4,-0.78079 0.27844,-1.05834 0.86471,-0.86471 2.3187,-0.40811 4.1474,1.30242 1.86733,1.74667 3.17322,2.10338 4.73798,1.29421 0.59988,-0.31021 1.11403,-1.07491 2.1444,-3.18937 1.60379,-3.2912 2.87736,-4.60467 4.46481,-4.60467 1.84296,0 3.41037,2.49025 3.02037,4.79865 -0.31268,1.85077 -2.09435,3.40344 -3.9054,3.40344 -1.2726,0 -1.34452,-0.21693 -0.42076,-1.26904 0.68352,-0.77848 0.74998,-0.96472 0.41181,-1.15397 -1.07498,-0.60158 -3.39752,1.06998 -6.0246,4.33599 -1.84423,2.29276 -2.09348,2.73061 -2.09348,3.67744 0,1.19316 0.5202,2.2428 1.4565,2.93887 0.58953,0.43828 0.67101,0.43549 1.76361,-0.0603 1.96624,-0.89229 3.64327,-0.71924 6.70176,0.69153 4.49414,2.07298 5.69492,2.52007 7.18011,2.67335 1.59552,0.16468 1.87622,0.37099 1.29524,0.95198 -0.63669,0.63668 -3.78978,1.06862 -6.40075,0.87683 -1.28655,-0.0945 -3.29438,-0.24443 -4.46184,-0.33317 -1.83496,-0.13947 -2.41955,-0.0676 -4.31314,0.53063 -2.5704,0.81199 -2.58091,0.81223 -4.80899,0.10781 z m 4.83872,-0.87442 c 2.40399,-0.76774 3.00105,-0.78905 7.0655,-0.25213 1.67237,0.22093 3.33925,0.34705 3.70417,0.28028 0.36491,-0.0668 1.13973,-0.2025 1.72182,-0.30162 l 1.05833,-0.18022 -1.32292,-0.34619 c -0.7276,-0.19041 -2.69213,-0.99778 -4.36562,-1.79417 -4.64816,-2.21199 -5.87402,-2.40135 -7.83644,-1.21049 -1.11815,0.67854 -2.76092,0.63237 -4.96551,-0.13954 -2.35627,-0.82502 -2.9614,-0.72394 -7.0418,1.1762 -1.81901,0.84706 -3.78156,1.62723 -4.36122,1.7337 -1.99183,0.36584 -0.18279,0.60276 4.75809,0.62312 3.88115,0.016 5.08077,0.11363 6.48229,0.52754 2.26462,0.66882 2.6736,0.65948 5.10331,-0.11648 z m 6.55941,-14.33864 c 0.89628,-0.52944 1.56645,-1.80119 1.56645,-2.97257 0,-1.04171 -0.88712,-2.81578 -1.59836,-3.19643 -1.35261,-0.72389 -3.22448,0.92743 -4.61473,4.07103 l -0.63904,1.445 1.11096,-0.63526 c 1.31892,-0.75416 3.02762,-0.86136 3.27921,-0.20573 0.092,0.23974 0.0391,0.77552 -0.11761,1.19062 -0.33502,0.88756 -0.0967,0.95892 1.01312,0.30334 z m -34.01167,-26.02484 c 1.11705,-0.15537 3.65574,-0.82339 5.64154,-1.4845 3.17475,-1.05694 3.81014,-1.1862 5.26419,-1.0709 0.9095,0.0721 1.65364,0.0434 1.65364,-0.0639 0,-0.5146 -1.36085,-2.10756 -2.78412,-3.258984 -1.60044,-1.294753 -5.82121,-3.578373 -6.09949,-3.300089 -0.0832,0.08318 0.0361,0.513576 0.26514,0.956435 1.24889,2.415081 -0.43319,6.085698 -3.34543,7.300358 -1.3337,0.55627 -3.78756,0.51551 -5.101717,-0.0847 -2.35181,-1.07419 -3.74186,-3.41811 -3.50746,-5.914281 0.0721,-0.76775 0.21855,-1.603357 0.32545,-1.856906 0.18146,-0.430399 0.12125,-0.435203 -0.90709,-0.07239 -1.45329,0.512751 -4.451127,2.116712 -5.387785,2.882676 l -0.745632,0.609751 1.936257,1.47009 c 3.41153,2.59018 6.17425,3.68386 10.449917,4.13681 0.17138,0.0182 1.22554,-0.0941 2.34259,-0.24947 z m -0.25018,-1.42928 c 0.84579,-0.25118 1.64799,-0.74299 2.2657,-1.38906 1.2993,-1.35898 1.54802,-1.92574 1.54802,-3.527488 0,-1.240307 -0.0982,-1.469655 -1.02721,-2.398644 -0.56496,-0.564963 -1.27228,-1.027206 -1.57181,-1.027206 -0.50973,0 -0.5203,0.04658 -0.16505,0.727604 0.20876,0.400183 0.38029,1.185995 0.38119,1.74625 0.001,0.806884 -0.18538,1.205657 -0.89796,1.918229 -2.74517,2.745175 -6.664597,-1.065183 -4.10009,-3.986001 l 0.82116,-0.935248 -1.151887,0.02637 c -0.99938,0.02288 -2.81994,0.403257 -2.28025,0.47642 0.107,0.0145 -0.0414,0.413326 -0.32974,0.886269 -0.70821,1.161544 -0.70265,3.371186 0.0122,4.847865 0.7774,1.60589 2.78519,2.86679 4.771317,2.99641 0.22825,0.0149 1.00423,-0.14791 1.72441,-0.36177 z m 0.0263,-4.419768 c 0.80977,-0.760742 0.84795,-2.511653 0.0729,-3.343573 -1.40785,-1.511158 -3.876927,0.07829 -3.724317,2.397506 0.0942,1.431262 2.477627,2.048795 3.651427,0.946067 z m 14.10544,-12.2588 c -1.48231,-3.898768 -5.81434,-6.368229 -13.49307,-7.69169 -3.84893,-0.66338 -9.238677,-0.426939 -12.038537,0.528113 -2.758473,0.940934 -4.563248,1.991553 -6.497719,3.782532 -1.855048,1.717446 -2.040616,2.225943 -0.410953,1.126096 3.375883,-2.278355 7.036562,-3.431797 10.891512,-3.431797 2.97537,0 6.873257,0.923532 11.759857,2.786278 3.52851,1.345046 9.53089,3.502957 9.84919,3.540867 0.10553,0.01257 0.0784,-0.275609 -0.0603,-0.640399 z m 34.10397,30.960448 c -4.83844,-0.91764 -9.12524,-3.14946 -11.98743,-6.24097 -1.89352,-2.04523 -2.57421,-3.39152 -2.73641,-5.4122 -0.21104,-2.62907 1.08398,-4.33136 3.7028,-4.86731 1.70634,-0.34921 3.16271,-0.13036 7.55852,1.13581 7.87362,2.26794 12.27835,1.90454 19.3081,-1.59296 4.59927,-2.28827 5.06085,-1.96047 1.48877,1.05727 -4.07445,3.44216 -9.71114,5.13291 -14.76634,4.42924 -1.91554,-0.26664 -4.62677,-1.09108 -8.75776,-2.6631 -1.07589,-0.40942 -2.12564,-0.59888 -3.25733,-0.58787 -1.41692,0.0138 -1.6224,-0.0409 -1.35666,-0.3611 0.62737,-0.75594 2.89924,-0.46079 6.32912,0.82224 5.03757,1.88442 6.07907,2.10984 9.66195,2.09119 2.74507,-0.0143 3.45801,-0.11435 5.26499,-0.73898 1.99067,-0.68813 5.51449,-2.54211 5.84347,-3.07441 0.085,-0.13754 -0.47528,0.0285 -1.24507,0.36891 -4.17134,1.84477 -8.74456,2.65223 -12.71151,2.24439 -1.19843,-0.1232 -3.64508,-0.63952 -5.43699,-1.14735 -6.29467,-1.78394 -8.02983,-1.85085 -9.71129,-0.37451 -4.04802,3.5542 1.64232,10.86787 10.60113,13.62541 2.21186,0.68082 2.68258,0.72894 7.13069,0.72894 4.44811,0 4.91883,-0.0481 7.13069,-0.72894 5.89626,-1.81488 10.87346,-5.60651 13.8247,-10.53167 1.47808,-2.46668 1.45499,-2.49333 -1.07355,-1.23931 -1.46217,0.72517 -2.36994,1.03872 -2.53279,0.87486 -0.16271,-0.16371 0.84094,-0.81834 2.79572,-1.82351 2.49255,-1.2817 3.09398,-1.49916 3.29285,-1.19062 0.32967,0.51145 0.18711,6.72748 -0.15429,6.72748 -0.14854,0 -0.3226,-1.10243 -0.39687,-2.51354 l -0.13229,-2.51354 -0.89265,1.5875 c -3.09728,5.50823 -8.7099,9.74626 -15.24694,11.51278 -2.77372,0.74955 -8.61559,0.95 -11.53733,0.39587 z M 140.42013,99.852499 c -0.2836,-0.2836 1.86381,-2.642925 3.60305,-3.958605 3.31854,-2.510384 7.66419,-4.073775 11.32357,-4.073775 3.51047,0 7.90055,1.471524 11.4818,3.848624 2.00199,1.328841 3.28604,1.752411 4.37002,1.441531 1.43808,-0.412436 2.13283,-1.039702 2.82421,-2.549871 1.25413,-2.739378 0.66505,-6.097549 -1.33756,-7.625016 -1.19957,-0.91495 -4.5352,-2.43862 -6.38671,-2.917355 -4.61809,-1.194077 -8.57201,-0.732812 -15.72115,1.83403 -5.89598,2.116908 -8.30622,2.66147 -9.72181,2.196517 -2.11371,-0.694254 -1.74608,-2.885638 0.76241,-4.54459 3.48617,-2.305519 12.00677,-4.378695 18.01097,-4.382309 6.51777,-0.0039 11.56017,2.389087 14.72413,6.987741 0.7968,1.158113 1.03794,2.006532 0.5703,2.006532 -0.13128,0 -0.0718,0.554704 0.13229,1.232675 0.93005,3.090313 -0.22677,6.696159 -2.57091,8.013642 -1.5162,0.85215 -3.01171,0.723889 -4.87888,-0.418433 -3.91544,-2.395438 -4.60734,-2.754588 -6.59902,-3.425418 -2.79278,-0.940653 -6.40462,-1.151542 -9.17315,-0.535602 -3.55774,0.791524 -7.41326,3.032248 -9.81625,5.704952 -1.25128,1.391721 -1.32012,1.441921 -1.59731,1.16473 z m 7.835,-13.991699 c 6.45899,-2.25596 8.29868,-2.762814 10.84233,-2.987178 5.56407,-0.490782 10.92261,0.934625 14.14171,3.76178 l 1.23391,1.083676 -0.51541,-0.91197 c -0.84926,-1.502679 -3.58097,-4.057137 -5.32718,-4.981506 -2.58273,-1.367192 -5.17095,-1.911732 -9.08652,-1.911732 -8.6819,0 -19.30692,3.537566 -19.30692,6.428177 0,1.696706 2.15229,1.567525 8.01808,-0.481247 z" /></g></svg>
